<svg xmlns="http://www.w3.org/2000/svg" xmlns:xlink="http://www.w3.org/1999/xlink" width="84" height="84" viewBox="0 0 84 84">
  <defs>
    <clipPath id="clip-path">
      <rect id="Rect치ngulo_454893" data-name="Rect치ngulo 454893" width="66" height="66" rx="5" transform="translate(194.5 1467.689)" fill="#244d4c"/>
    </clipPath>
  </defs>
  <g id="Grupo_1177307" data-name="Grupo 1177307" transform="translate(-185.5 -1458.689)">
    <rect id="Rect치ngulo_402006" data-name="Rect치ngulo 402006" width="84" height="84" rx="5" transform="translate(185.5 1458.689)" fill="#5ac1bd"/>
    <g id="Enmascarar_grupo_1119197" data-name="Enmascarar grupo 1119197" clip-path="url(#clip-path)">
      <path id="resolucion-de-conflictos" d="M18.466,59l1.02,1.8v0a2.841,2.841,0,0,1-1.071,3.855l-3.365,1.907,0,0A2.841,2.841,0,0,1,11.193,65.5L1.3,48.014a2.836,2.836,0,0,1,1.066-3.859l3.369-1.907h0A2.843,2.843,0,0,1,9.59,43.317v0l.841,1.486,8.923-5.166a18.008,18.008,0,0,1,2.722-1.319l.415-.934a21.926,21.926,0,0,1-2.229-5.367L16.74,30.663a1.065,1.065,0,0,1-.682-.993V23.075a1.065,1.065,0,0,1,.682-.994l3.524-1.356a21.948,21.948,0,0,1,2.23-5.373L20.958,11.9a1.065,1.065,0,0,1,.22-1.185L25.84,6.052a1.065,1.065,0,0,1,1.185-.22l3.453,1.535a21.8,21.8,0,0,1,5.368-2.224l1.362-3.53A1.065,1.065,0,0,1,38.2.932H44.8a1.065,1.065,0,0,1,.994.683l1.356,3.529a21.8,21.8,0,0,1,5.367,2.224l3.453-1.535a1.065,1.065,0,0,1,1.185.22l4.662,4.662a1.065,1.065,0,0,1,.221,1.184L60.5,15.351a21.758,21.758,0,0,1,2.225,5.375l3.522,1.355a1.065,1.065,0,0,1,.682.994v6.594a1.065,1.065,0,0,1-.682.993l-3.523,1.356A21.976,21.976,0,0,1,60.5,37.385l.7,1.584a5.36,5.36,0,0,1,3.766.716,4.633,4.633,0,0,1,1.96,4.028,4.584,4.584,0,0,1-2,3.792l-21.77,13.4a9.015,9.015,0,0,1-7.3,1.037h0L20.5,57.827ZM11.481,46.658l5.937,10.49,2.4-1.385a1.064,1.064,0,0,1,.808-.106l15.791,4.232a6.955,6.955,0,0,0,5.63-.792h0l21.77-13.4a2.366,2.366,0,0,0,.975-1.858,2.437,2.437,0,0,0-1.89-2.74c-1.291-.27-3.111.149-5.584,1.59l-12,6.987a8.811,8.811,0,0,1-6.053,1.066h0l-1.489-.242-.043-.008h0c-2.705-.555-5.214-1.373-8-2.121a1.065,1.065,0,1,1,.552-2.056c2.726.733,5.183,1.536,7.83,2.082a2.318,2.318,0,0,0,2.773-1.647h0A2.4,2.4,0,0,0,39.255,43.9c-4.806-.88-9.51-2.876-12.4-3.812h0c-2.277-.74-4.365.195-6.438,1.394Zm13.192-8.935a7.322,7.322,0,0,1,2.844.34c2.837.92,7.468,2.9,12.194,3.756a1.082,1.082,0,0,1,.139.035,4.524,4.524,0,0,1,3.1,5.443,4.913,4.913,0,0,1-.533,1.273,6.6,6.6,0,0,0,1.838-.737l12-6.987a17,17,0,0,1,2.859-1.355l-.773-1.746a1.064,1.064,0,0,1,.066-.987,19.854,19.854,0,0,0,2.4-5.78,1.064,1.064,0,0,1,.653-.747L64.8,28.938V23.806l-3.356-1.292a1.064,1.064,0,0,1-.653-.748A19.643,19.643,0,0,0,58.4,15.983a1.064,1.064,0,0,1-.067-.99L59.79,11.7,56.162,8.074l-3.29,1.463a1.064,1.064,0,0,1-.991-.066A19.672,19.672,0,0,0,46.1,7.076a1.065,1.065,0,0,1-.748-.654L44.064,3.061H38.931l-1.3,3.363a1.065,1.065,0,0,1-.747.653,19.669,19.669,0,0,0-5.777,2.394,1.064,1.064,0,0,1-.991.066l-3.29-1.463L23.2,11.7l1.463,3.29a1.065,1.065,0,0,1-.067.991,19.837,19.837,0,0,0-2.4,5.786,1.064,1.064,0,0,1-.653.745l-3.356,1.292v5.132l3.356,1.292a1.065,1.065,0,0,1,.653.744,19.792,19.792,0,0,0,2.4,5.779,1.065,1.065,0,0,1,.077.97ZM7.74,44.37v0a.707.707,0,0,0-.957-.266L3.414,46.009h0a.7.7,0,0,0-.262.955h0l9.895,17.484h0a.706.706,0,0,0,.958.264l3.362-1.906h0a.706.706,0,0,0,.264-.958Zm-1.374,1.9a1.4,1.4,0,1,1-1.182,1.582A1.4,1.4,0,0,1,6.366,46.272ZM41.495,12.4A13.972,13.972,0,1,1,27.526,26.368,13.97,13.97,0,0,1,41.495,12.4ZM32.4,18.782A11.844,11.844,0,0,0,49.085,35.464l-5.991-5.991L36.9,35.678a1.064,1.064,0,0,1-1.754-1.114l2.17-6-2.059-.016a1.065,1.065,0,0,1-.957-1.514L36.317,22.7ZM50.59,33.958A11.844,11.844,0,0,0,33.908,17.277l3.364,3.364,1.52-3.266a1.065,1.065,0,0,1,.965-.615h7.1a1.065,1.065,0,0,1,.951,1.544l-2.542,5.047h1.371a1.064,1.064,0,0,1,.753,1.816l-2.793,2.8ZM37.919,24.3l-.991,2.13,1.908.015a1.064,1.064,0,0,1,.993,1.426l-1.054,2.916,2.814-2.819Zm5.173,2.162.979-.98h-.532a1.065,1.065,0,0,1-.951-1.544l2.542-5.047H40.437l-1.561,3.355Z" transform="translate(193.568 1466.758)" fill="#244d4c" fill-rule="evenodd"/>
    </g>
  </g>
</svg>
