<svg xmlns="http://www.w3.org/2000/svg" xmlns:xlink="http://www.w3.org/1999/xlink" width="84" height="84" viewBox="0 0 84 84">
  <defs>
    <clipPath id="clip-path">
      <rect id="Rect치ngulo_454834" data-name="Rect치ngulo 454834" width="66" height="66" rx="5" transform="translate(195 836.637)" fill="#604161"/>
    </clipPath>
  </defs>
  <g id="Grupo_1177281" data-name="Grupo 1177281" transform="translate(-186 -827.637)">
    <rect id="Rect치ngulo_402006" data-name="Rect치ngulo 402006" width="84" height="84" rx="5" transform="translate(186 827.637)" fill="#f0a3f3"/>
    <g id="Enmascarar_grupo_1119190" data-name="Enmascarar grupo 1119190" clip-path="url(#clip-path)">
      <g id="comunicacion" transform="translate(193.936 835.572)">
        <path id="Trazado_994995" data-name="Trazado 994995" d="M33,58.548h-.182a3.194,3.194,0,0,0-6.023,0H24.484V57.484A13.831,13.831,0,0,0,18.1,45.841V41.459a4.816,4.816,0,0,0,4.258-4.77V32.963a2.57,2.57,0,0,0,1.376-4.35l-.441-.441a3.179,3.179,0,0,1-.936-2.259V23.243a5.626,5.626,0,0,0,2.13-4.406V15.772a3.151,3.151,0,0,0,1.063.2h5.323v1.878A2.38,2.38,0,0,0,35.38,18.91l1.471-2.942h3.6a3.2,3.2,0,0,0,3.194-3.194V4.258a3.2,3.2,0,0,0-3.194-3.194h-14.9a3.2,3.2,0,0,0-3.194,3.194v8.516c0,.088.019.171.026.258a19.657,19.657,0,0,1-5.521.807H12.141A11.075,11.075,0,0,0,1.065,24.915v1.119A14.262,14.262,0,0,0,9.581,39.039v4.934a10.393,10.393,0,0,0-6.387,9.6A13.51,13.51,0,0,0,16.687,67.065H33a4.258,4.258,0,1,0,0-8.516ZM20.189,37.056a3.23,3.23,0,0,1-1.907-1.927h1.944v1.56A2.617,2.617,0,0,1,20.189,37.056Zm1.726-6.185H20.226V33H15.968v1.065a5.348,5.348,0,0,0,3.112,4.823,2.684,2.684,0,0,1-3.461-.291L14.591,37.57l-1.505,1.505L14.113,40.1a4.793,4.793,0,0,0,1.854,1.137v3.475A13.727,13.727,0,0,0,11.71,43.7V30.871H10.645a1.065,1.065,0,1,1,0-2.129h.83l.2-.807a4.55,4.55,0,0,1,4.419-3.45h2.793a5.43,5.43,0,0,0,1.336-.18v1.607a5.29,5.29,0,0,0,1.56,3.764l.441.441a.44.44,0,0,1-.311.753Zm2.57-26.613a1.065,1.065,0,0,1,1.065-1.065h14.9a1.065,1.065,0,0,1,1.065,1.065v8.516a1.065,1.065,0,0,1-1.065,1.065H35.536l-2.059,4.118A.261.261,0,0,1,33,17.846V13.839H25.548a1.065,1.065,0,0,1-1.065-1.065V4.258ZM3.194,26.034V24.915a8.947,8.947,0,0,1,8.947-8.947H16.86a21.76,21.76,0,0,0,5.5-.7v3.574a3.536,3.536,0,0,1-1.614,2.957,3.329,3.329,0,0,1-1.852.561H16.1a6.675,6.675,0,0,0-6.269,4.363,3.195,3.195,0,0,0-.247,6.1v3.857A12.125,12.125,0,0,1,3.194,26.034ZM5.323,53.571a8.258,8.258,0,0,1,5.508-7.787,11.718,11.718,0,0,1,11.524,11.7v1.065H17.846a6.143,6.143,0,0,1-6.136-6.136,3.179,3.179,0,0,0-1.765-2.857l-.953-.476-.953,1.9.953.476a1.059,1.059,0,0,1,.589.953,8.273,8.273,0,0,0,8.265,8.265h6.638v4.258h-7.8A11.377,11.377,0,0,1,5.323,53.571ZM33,64.935H26.613V60.677h2.129V59.613a1.065,1.065,0,1,1,2.129,0v1.065H33a2.129,2.129,0,1,1,0,4.258Z" fill="#604161"/>
        <circle id="Elipse_13685" data-name="Elipse 13685" cx="1.065" cy="1.065" r="1.065" transform="translate(15.968 26.613)" fill="#604161"/>
        <circle id="Elipse_13686" data-name="Elipse 13686" cx="1.065" cy="1.065" r="1.065" transform="translate(50.032 26.613)" fill="#604161"/>
        <path id="Trazado_994996" data-name="Trazado 994996" d="M52.628,13.839H46.839a5.323,5.323,0,0,0-1.065,10.538v1.537a3.175,3.175,0,0,1-.936,2.259l-.441.441a2.57,2.57,0,0,0,1.376,4.35V33.2A3.158,3.158,0,0,0,44.71,33H39.387V31.122a2.38,2.38,0,0,0-4.509-1.065L33.407,33h-3.6a3.2,3.2,0,0,0-3.194,3.194V44.71A3.2,3.2,0,0,0,29.806,47.9H39.979a4.214,4.214,0,0,0-.592,2.129V54.29a12.774,12.774,0,1,0,25.548,0v-.72a10.393,10.393,0,0,0-6.387-9.6v-.327h2.871A5.645,5.645,0,0,0,67.065,38V28.276A14.453,14.453,0,0,0,52.628,13.839ZM45.9,30.118l.441-.441a5.29,5.29,0,0,0,1.56-3.764v-1.43h5.323a3.153,3.153,0,0,0,1.58-.435,4.889,4.889,0,0,1,1.614,3.629v1.065h1.065a1.065,1.065,0,0,1,0,2.129H56.419V43.694A11.917,11.917,0,0,0,52.161,44.9V41.239A4.78,4.78,0,0,0,54.016,40.1l1.027-1.027L53.538,37.57,52.51,38.6a2.685,2.685,0,0,1-3.462.291,5.35,5.35,0,0,0,3.113-4.823V33H47.9V30.871H46.215a.441.441,0,0,1-.312-.753ZM47.684,48.75a4.237,4.237,0,0,0-.93-1.607A3.17,3.17,0,0,0,47.9,44.71V40.69a4.8,4.8,0,0,0,2.129.769v4.787a11.957,11.957,0,0,0-2.348,2.5Zm.257-11.694a2.617,2.617,0,0,1-.037-.367v-1.56h1.944A3.23,3.23,0,0,1,47.94,37.056Zm-19.2,7.654V36.194a1.065,1.065,0,0,1,1.065-1.065h4.916l2.059-4.118a.261.261,0,0,1,.477.111v4.007H44.71a1.065,1.065,0,0,1,1.065,1.065V44.71a1.065,1.065,0,0,1-1.065,1.065h-14.9a1.065,1.065,0,0,1-1.065-1.065Zm17.032,5.323v2.129H41.516V50.032a2.129,2.129,0,0,1,4.258,0Zm17.032,3.538v.72a10.645,10.645,0,1,1-21.29,0h4.258v1.065a5.323,5.323,0,0,0,10.645,0V51.348a1.058,1.058,0,0,1,.589-.953l.953-.476-.953-1.9-.953.476a3.18,3.18,0,0,0-1.765,2.857v4.007a3.194,3.194,0,1,1-6.387,0v-2l.031-.127A9.825,9.825,0,0,1,57.3,45.783,8.258,8.258,0,0,1,62.806,53.571ZM64.935,38a3.517,3.517,0,0,1-3.516,3.516H58.548v-8.7a3.195,3.195,0,0,0-.057-6.043A7,7,0,0,0,56.2,22.438a3.146,3.146,0,0,0,.222-1.148A3.2,3.2,0,0,0,53.226,18.1H52.161v2.129h1.065a1.065,1.065,0,0,1,0,2.129H46.839a3.194,3.194,0,0,1,0-6.387h5.789A12.323,12.323,0,0,1,64.935,28.277Z" fill="#604161"/>
        <path id="Trazado_994997" data-name="Trazado 994997" d="M26.613,5.323H39.387V7.452H26.613Z" fill="#604161"/>
        <path id="Trazado_994998" data-name="Trazado 994998" d="M37.258,9.581h2.129V11.71H37.258Z" fill="#604161"/>
        <path id="Trazado_994999" data-name="Trazado 994999" d="M30.871,37.258H43.645v2.129H30.871Z" fill="#604161"/>
        <path id="Trazado_995000" data-name="Trazado 995000" d="M30.871,41.516h8.516v2.129H30.871Z" fill="#604161"/>
        <path id="Trazado_995001" data-name="Trazado 995001" d="M41.516,41.516h2.129v2.129H41.516Z" fill="#604161"/>
        <path id="Trazado_995002" data-name="Trazado 995002" d="M26.613,9.581h8.516V11.71H26.613Z" fill="#604161"/>
      </g>
    </g>
  </g>
</svg>
