<svg xmlns="http://www.w3.org/2000/svg" width="84.288" height="84.288" viewBox="0 0 84.288 84.288">
  <path id="la-resolucion-de-conflictos" d="M50.143,29.155h0a2.978,2.978,0,0,0,2.986-2.881l.412-11.4a2.988,2.988,0,0,0-2.987-3.1h-.824a2.988,2.988,0,0,0-2.987,3.1l.412,11.4a2.978,2.978,0,0,0,2.987,2.881Zm-.605-14.58a.223.223,0,0,1,.194-.082h.824a.269.269,0,0,1,.269.279l-.412,11.4a.269.269,0,0,1-.269.26h0a.269.269,0,0,1-.269-.26l-.412-11.4a.222.222,0,0,1,.075-.2Zm.605,22.479A3.446,3.446,0,1,0,46.7,33.608,3.451,3.451,0,0,0,50.144,37.055Zm0-4.174a.727.727,0,1,1-.727.727A.728.728,0,0,1,50.144,32.88Zm42.136,57.9a14.454,14.454,0,0,0-9.352-12.033,8,8,0,0,0-4.942-14.192A31.343,31.343,0,0,0,66.527,23.417a16.414,16.414,0,0,0-32.766,0A31.363,31.363,0,0,0,22.3,64.559a8,8,0,0,0-4.942,14.192A14.454,14.454,0,0,0,8.007,90.784a1.36,1.36,0,0,0,1.352,1.5H35.488a1.359,1.359,0,0,0,1.352-1.5,14.454,14.454,0,0,0-9.352-12.033,8.013,8.013,0,0,0,2.734-4.4,31.356,31.356,0,0,0,39.843,0,8.013,8.013,0,0,0,2.734,4.4,14.453,14.453,0,0,0-9.352,12.033,1.359,1.359,0,0,0,1.352,1.5H90.928a1.36,1.36,0,0,0,1.352-1.5ZM50.144,10.719a13.7,13.7,0,1,1-13.7,13.7,13.711,13.711,0,0,1,13.7-13.7ZM33.877,89.569H10.97a11.752,11.752,0,0,1,11.45-9.007h.007A11.752,11.752,0,0,1,33.877,89.569ZM22.427,77.843H22.42a5.284,5.284,0,1,1,.007,0ZM30.2,70.682a8.035,8.035,0,0,0-4.319-5.339A28.625,28.625,0,0,1,33.874,26.59a16.415,16.415,0,0,0,32.54,0A28.625,28.625,0,0,1,74.4,65.343a8.035,8.035,0,0,0-4.319,5.339,28.621,28.621,0,0,1-39.883,0ZM72.58,72.559a5.284,5.284,0,1,1,5.288,5.284h-.007a5.29,5.29,0,0,1-5.281-5.284ZM66.41,89.569a11.752,11.752,0,0,1,11.45-9.007h.007a11.752,11.752,0,0,1,11.45,9.007Zm-32.18-45.2a.923.923,0,1,1,.879.965A.923.923,0,0,1,34.23,44.369ZM70.36,61.431l2.77-1.074a2.72,2.72,0,0,0,1.551-3.515L69.1,42.451A2.72,2.72,0,0,0,65.588,40.9l-2.77,1.074a2.72,2.72,0,0,0-1.551,3.515l.239.616-1.083.58c-.62.322-1.318.063-2.6-.461-1.951-.8-4.575-1.868-8,.109a8.258,8.258,0,0,0-6.273-.433c-1.328.311-2.116.467-2.855.051-.032-.018-.064-.035-.1-.05l-1.25-.577.237-.536a2.72,2.72,0,0,0-1.387-3.583L35.476,40a2.72,2.72,0,0,0-3.583,1.387l-6.24,14.118a2.72,2.72,0,0,0,1.386,3.583l2.718,1.2a2.72,2.72,0,0,0,3.583-1.387l.064-.146c.71.314.966.421,1.088.469a3.778,3.778,0,0,1,.251.947,8.065,8.065,0,0,0,.263,1.1l-.622,1.163a3.55,3.55,0,0,0,2.583,5.185,3.589,3.589,0,0,0,.154.943,3.542,3.542,0,0,0,4.57,2.32,3.537,3.537,0,0,0,3.8,1.446,3.556,3.556,0,0,0,3.067,1.774,3.584,3.584,0,0,0,1.039-.155,3.539,3.539,0,0,0,1.523-.929l.343.2a3.384,3.384,0,0,0,1.691.452,3.486,3.486,0,0,0,.943-.131,3.529,3.529,0,0,0,2.128-1.685,3.458,3.458,0,0,0,.384-1.115,3.483,3.483,0,0,0,3.539-3.063,3.531,3.531,0,0,0,.8-.136,3.469,3.469,0,0,0,2.469-3.881,3.465,3.465,0,0,0,2.093-3.308l1.31-.547.026.068a2.714,2.714,0,0,0,3.514,1.551ZM67.835,42.942l-1.268.491h0Zm-1.266.5,5.579,14.384L69.381,58.9,64.488,46.284c-.011-.03-.022-.06-.035-.09L63.8,44.509ZM28.14,56.608l6.239-14.116,2.714,1.2-.768,1.738v.005L31.491,56.37c-.006.013-.013.024-.019.037s-.012.032-.019.049l-.6,1.35Zm8.984,8.247a.841.841,0,0,1-.342-1.129L38.135,61.2a.833.833,0,0,1,1.505.709l-1.689,2.923a.836.836,0,0,1-.827.026Zm3,3.422a.841.841,0,0,1-.342-1.129l.4-.747,1.729-2.993a.829.829,0,0,1,1.266.8L41.26,67.927A.841.841,0,0,1,40.126,68.277Zm4.108,1.354a.836.836,0,0,1-.436-.694l1.787-3.46a.831.831,0,0,1,1.351.741l-1.668,3.207A.847.847,0,0,1,44.234,69.631Zm4.577,1.723a.828.828,0,0,1-.635-.06.846.846,0,0,1-.438-.729l1.6-3.078a.846.846,0,0,1,.921-.091.808.808,0,0,1,.273.236.844.844,0,0,1,.069.894l-1.3,2.425a.827.827,0,0,1-.495.4Zm5.034-.8a.793.793,0,0,1-.48.378.711.711,0,0,1-.546-.061l-.295-.169L53,69.809a3.494,3.494,0,0,0,.22-.507l.162.092a1.361,1.361,0,0,0,.152.1.784.784,0,0,1,.311,1.057ZM62.7,60.837a.773.773,0,0,1-.469.371.745.745,0,0,1-.569-.062h0c-1.562-.875-3.332-1.867-5.059-2.855a1.359,1.359,0,0,0-1.351,2.36c1.737.995,3.513,1.989,5.08,2.867h0a.784.784,0,0,1,.315,1.053.777.777,0,0,1-1.047.3h0L52.94,61.126a1.359,1.359,0,0,0-1.333,2.37L56.9,66.473a1.354,1.354,0,0,0,.152.1.784.784,0,0,1,.316,1.054A.769.769,0,0,1,56.9,68a.754.754,0,0,1-.576-.062h0l-3.73-2.111c-.018-.01-.037-.019-.056-.028A3.5,3.5,0,0,0,51.542,65a3.543,3.543,0,0,0-2.212-.38,3.559,3.559,0,0,0-3.757-2.009,3.549,3.549,0,0,0-3.3-2.046A3.545,3.545,0,0,0,37.129,58.5a2.765,2.765,0,0,0-1.634-1.8c-.1-.037-.356-.147-.991-.428l3.74-8.462,1.165.537c1.68.919,3.314.536,4.757.2a7.212,7.212,0,0,1,3.11-.271c-.118.113-.236.228-.354.347a24.6,24.6,0,0,1-5.1,3.842,1.614,1.614,0,0,0-.461,2.384c3.119,4.013,6.825,2.513,9.53,1.418,1.936-.784,3.18-1.221,4.119-.686l7.368,4.2a.82.82,0,0,1,.334.355.751.751,0,0,1-.011.7Zm1.669-2.95a3.562,3.562,0,0,0-.644-.47l-7.368-4.2c-2.152-1.227-4.454-.294-6.485.528-2.4.973-4,1.516-5.488.339a25.951,25.951,0,0,0,4.468-3.55A12.161,12.161,0,0,1,50.6,49.052l.011-.008c2.587-1.773,4.252-1.092,6.18-.3,1.462.6,3.119,1.275,4.9.349l.8-.431,3.341,8.618Zm.411-12.569a.923.923,0,1,1,.923.923A.925.925,0,0,1,64.784,45.318Z" transform="translate(-7.999 -8)" fill="#604161" fill-rule="evenodd"/>
</svg>
