<svg xmlns="http://www.w3.org/2000/svg" xmlns:xlink="http://www.w3.org/1999/xlink" width="84" height="84" viewBox="0 0 84 84">
  <defs>
    <clipPath id="clip-path">
      <rect id="Rect치ngulo_454835" data-name="Rect치ngulo 454835" width="64" height="64" rx="5" transform="translate(196 1773.637)" fill="#604161"/>
    </clipPath>
  </defs>
  <g id="Grupo_1177280" data-name="Grupo 1177280" transform="translate(-186 -1763.637)">
    <rect id="Rect치ngulo_402006" data-name="Rect치ngulo 402006" width="84" height="84" rx="5" transform="translate(186 1763.637)" fill="#f0a3f3"/>
    <g id="Enmascarar_grupo_1119191" data-name="Enmascarar grupo 1119191" clip-path="url(#clip-path)">
      <g id="charla" transform="translate(196 1773.637)">
        <g id="Grupo_1177250" data-name="Grupo 1177250">
          <g id="Grupo_1177249" data-name="Grupo 1177249">
            <path id="Trazado_995003" data-name="Trazado 995003" d="M63.884,57.989,60.2,50.622a20.754,20.754,0,0,0,3.8-12A20.988,20.988,0,0,0,43.034,17.655h-2.6A20.954,20.954,0,0,0,0,25.379a20.754,20.754,0,0,0,3.8,12L.116,44.748A1.1,1.1,0,0,0,1.6,46.229l7.368-3.683a20.754,20.754,0,0,0,12,3.8,21.152,21.152,0,0,0,2.537-.169,20.906,20.906,0,0,0,31.533,9.611L62.4,59.47a1.1,1.1,0,0,0,1.481-1.481ZM20.966,44.138A18.588,18.588,0,0,1,9.733,40.376a1.107,1.107,0,0,0-1.156-.1l-5.006,2.5,2.5-5.006a1.1,1.1,0,0,0-.1-1.156A18.588,18.588,0,0,1,2.207,25.379,18.758,18.758,0,1,1,20.966,44.138Zm34.458,9.375a1.106,1.106,0,0,0-1.156.1,18.706,18.706,0,0,1-28.554-7.835A20.858,20.858,0,0,0,41.17,19.862h1.865A18.779,18.779,0,0,1,61.793,38.621a18.588,18.588,0,0,1-3.762,11.233,1.1,1.1,0,0,0-.1,1.156l2.5,5.006Z" fill="#604161"/>
          </g>
        </g>
        <g id="Grupo_1177252" data-name="Grupo 1177252">
          <g id="Grupo_1177251" data-name="Grupo 1177251">
            <path id="Trazado_995004" data-name="Trazado 995004" d="M12.138,22.069a3.31,3.31,0,1,0,3.31,3.31A3.314,3.314,0,0,0,12.138,22.069Zm0,4.414a1.1,1.1,0,1,1,1.1-1.1A1.1,1.1,0,0,1,12.138,26.483Z" fill="#604161"/>
          </g>
        </g>
        <g id="Grupo_1177254" data-name="Grupo 1177254">
          <g id="Grupo_1177253" data-name="Grupo 1177253">
            <path id="Trazado_995005" data-name="Trazado 995005" d="M20.966,22.069a3.31,3.31,0,1,0,3.31,3.31A3.314,3.314,0,0,0,20.966,22.069Zm0,4.414a1.1,1.1,0,1,1,1.1-1.1A1.1,1.1,0,0,1,20.966,26.483Z" fill="#604161"/>
          </g>
        </g>
        <g id="Grupo_1177256" data-name="Grupo 1177256">
          <g id="Grupo_1177255" data-name="Grupo 1177255">
            <path id="Trazado_995006" data-name="Trazado 995006" d="M29.793,22.069a3.31,3.31,0,1,0,3.31,3.31A3.314,3.314,0,0,0,29.793,22.069Zm0,4.414a1.1,1.1,0,1,1,1.1-1.1A1.1,1.1,0,0,1,29.793,26.483Z" fill="#604161"/>
          </g>
        </g>
        <g id="Grupo_1177258" data-name="Grupo 1177258">
          <g id="Grupo_1177257" data-name="Grupo 1177257">
            <path id="Trazado_995007" data-name="Trazado 995007" d="M43.034,35.31a3.31,3.31,0,1,0,3.31,3.31A3.314,3.314,0,0,0,43.034,35.31Zm0,4.414a1.1,1.1,0,1,1,1.1-1.1A1.1,1.1,0,0,1,43.034,39.724Z" fill="#604161"/>
          </g>
        </g>
        <g id="Grupo_1177260" data-name="Grupo 1177260">
          <g id="Grupo_1177259" data-name="Grupo 1177259">
            <path id="Trazado_995008" data-name="Trazado 995008" d="M51.862,35.31a3.31,3.31,0,1,0,3.31,3.31A3.314,3.314,0,0,0,51.862,35.31Zm0,4.414a1.1,1.1,0,1,1,1.1-1.1A1.1,1.1,0,0,1,51.862,39.724Z" fill="#604161"/>
          </g>
        </g>
      </g>
    </g>
  </g>
</svg>
