<svg xmlns="http://www.w3.org/2000/svg" xmlns:xlink="http://www.w3.org/1999/xlink" width="396" height="303.957" viewBox="0 0 396 303.957">
  <defs>
    <clipPath id="clip-path">
      <rect id="Rectángulo_454941" data-name="Rectángulo 454941" width="396" height="303.957" fill="none"/>
    </clipPath>
    <clipPath id="clip-path-2">
      <rect id="Rectángulo_454929" data-name="Rectángulo 454929" width="27.029" height="27.029" fill="none"/>
    </clipPath>
    <clipPath id="clip-path-3">
      <rect id="Rectángulo_454930" data-name="Rectángulo 454930" width="55.85" height="55.851" fill="none"/>
    </clipPath>
    <clipPath id="clip-path-4">
      <rect id="Rectángulo_454931" data-name="Rectángulo 454931" width="81.576" height="81.57" fill="none"/>
    </clipPath>
    <clipPath id="clip-path-5">
      <rect id="Rectángulo_454932" data-name="Rectángulo 454932" width="81.094" height="80.93" fill="none"/>
    </clipPath>
    <clipPath id="clip-path-6">
      <rect id="Rectángulo_454933" data-name="Rectángulo 454933" width="52.831" height="52.76" fill="none"/>
    </clipPath>
    <clipPath id="clip-path-7">
      <rect id="Rectángulo_454934" data-name="Rectángulo 454934" width="33.194" height="32.259" fill="none"/>
    </clipPath>
    <clipPath id="clip-path-8">
      <rect id="Rectángulo_454935" data-name="Rectángulo 454935" width="11.88" height="10.941" fill="none"/>
    </clipPath>
    <clipPath id="clip-path-9">
      <rect id="Rectángulo_454936" data-name="Rectángulo 454936" width="16.099" height="3.548" fill="none"/>
    </clipPath>
    <clipPath id="clip-path-10">
      <rect id="Rectángulo_454937" data-name="Rectángulo 454937" width="5.178" height="2.267" fill="none"/>
    </clipPath>
    <clipPath id="clip-path-11">
      <rect id="Rectángulo_454938" data-name="Rectángulo 454938" width="66.8" height="103.857" fill="none"/>
    </clipPath>
    <clipPath id="clip-path-12">
      <rect id="Rectángulo_454939" data-name="Rectángulo 454939" width="7.222" height="5.313" fill="none"/>
    </clipPath>
    <clipPath id="clip-path-13">
      <rect id="Rectángulo_454940" data-name="Rectángulo 454940" width="5.37" height="2.308" fill="none"/>
    </clipPath>
  </defs>
  <g id="Grupo_1177432" data-name="Grupo 1177432" transform="translate(-186 -1270.631)">
    <rect id="_10126" data-name="10126" width="104" height="253" rx="20" transform="translate(477.711 1321)" fill="#bde6e5"/>
    <g id="Grupo_1177429" data-name="Grupo 1177429" transform="translate(186 1270.631)">
      <g id="Grupo_1177431" data-name="Grupo 1177431">
        <g id="Grupo_1177430" data-name="Grupo 1177430">
          <path id="Trazado_995551" data-name="Trazado 995551" d="M972.887,1384.557l21.82.294,3.569-22.159Z" transform="translate(-774.153 -1084.332)" fill="#f5d79e"/>
          <g id="Grupo_1177427" data-name="Grupo 1177427">
            <g id="Grupo_1177426" data-name="Grupo 1177426" clip-path="url(#clip-path)">
              <path id="Trazado_995552" data-name="Trazado 995552" d="M487.354,449.7A336.6,336.6,0,0,1,423.1,496.246h-134.5c-21.678-39.757,11.118-115.9,78.739-177.763C440.442,251.607,526.578,226.766,559.72,263s.745,119.823-72.365,186.7" transform="translate(-224.362 -196.021)" fill="#5ac1bd"/>
              <path id="Trazado_995553" data-name="Trazado 995553" d="M1551.734,1192.078c-11.042,16.237-25.6,23.881-32.51,17.074a9.589,9.589,0,0,1-1.22-1.474,10.151,10.151,0,0,1-.584-.981c-4.341-8.157-.632-24.692,9.281-39.26,11.042-16.237,30.121-28.937,37.034-22.13s-.96,30.538-12,46.771" transform="translate(-1206.026 -909.86)" fill="#9eb37a"/>
              <path id="Trazado_995554" data-name="Trazado 995554" d="M1603.012,1316.326c-11.913,8.134-25.265,9.317-29.823,2.642s1.405-18.68,13.318-26.814,29.874-11.543,34.431-4.868-6.014,20.906-17.926,29.04" transform="translate(-1250.612 -1021.513)" fill="#809773"/>
              <path id="Trazado_995555" data-name="Trazado 995555" d="M62.054,1222.131c9.938,14.614,23.038,21.494,29.26,15.367a8.64,8.64,0,0,0,1.1-1.326,9.2,9.2,0,0,0,.525-.883c3.907-7.342.569-22.223-8.353-35.335-9.938-14.613-27.109-26.044-33.331-19.917s.864,27.485,10.8,42.094" transform="translate(-38.923 -937.643)" fill="#9eb37a"/>
              <path id="Trazado_995556" data-name="Trazado 995556" d="M17.108,1333.956c10.722,7.321,22.739,8.385,26.841,2.378s-1.264-16.813-11.986-24.134S5.076,1301.812.974,1307.819s5.412,18.816,16.134,26.137" transform="translate(0 -1038.133)" fill="#809773"/>
              <path id="Trazado_995557" data-name="Trazado 995557" d="M1247.67,315.1a5.884,5.884,0,0,0-4.212-5.64l0,0c-1.787-1.014-1.892-9.915-1.848-13.914.023-.381.039-.764.039-1.151,0-.141-.007-.28-.011-.42.006-.234.011-.363.011-.363l-.02-.008A18.584,18.584,0,1,0,1208.545,306l-2.216,5.421a5.882,5.882,0,0,0-2.374,11.478,5.882,5.882,0,1,0,7.857,6.15l21.055-2.3a5.883,5.883,0,1,0,10.084-5.88,5.886,5.886,0,0,0,4.719-5.768" transform="translate(-954.674 -219.471)" fill="#2f282e"/>
              <path id="Trazado_995558" data-name="Trazado 995558" d="M1256.122,443.971V463.3h22.111l-1.6-23.937Z" transform="translate(-999.531 -349.611)" fill="#a16652"/>
              <path id="Trazado_995559" data-name="Trazado 995559" d="M1260.731,360.727c1.812,7.524-2.465,15.182-9.554,17.1s-14.3-2.617-16.116-10.14,2.466-15.182,9.554-17.1,14.3,2.617,16.115,10.14" transform="translate(-982.442 -278.62)" fill="#803b34"/>
              <path id="Trazado_995560" data-name="Trazado 995560" d="M1755.149,517.326s2.776-1.639,3.072-1.9c1.585-1.415,1.943-1.949,2.218-3.311s.245-3.736.692-4.624,4.342-8.921,5.665-10.691c.711-.952,1.365-2.156,2.143-2.353s1.425.931,1.211,2.329a7.077,7.077,0,0,1-.866,2.7,10.875,10.875,0,0,0-1.376,2.726,2.908,2.908,0,0,0,.53,2.088c.488.5,3.49.924,4.959.6a9.075,9.075,0,0,0,3.071-.934,27.182,27.182,0,0,1,4.354-2.4,14.585,14.585,0,0,0,3.6-1.689c.788-.562,2.12-1.83,3.664-1.652s.59,1.917.335,2.136-3.708,3.113-4.338,3.479-5.635,2.944-5.794,3.021l0,0a1.365,1.365,0,0,0,1.337.176c.691-.331,1.485-.765,2.165-1.144s1.521-.579,2.394-1.007,3.335-2.158,3.335-2.158a8.074,8.074,0,0,1,1.565-2.067,2.185,2.185,0,0,1,.94-.508,1.373,1.373,0,0,1,1.791,1.152,80.573,80.573,0,0,1-5.322,7.969c-.423.308.295.548,1.7-.635.243-.2,2.572-3.357,3.527-3.3,1.155.069,1.139.861.3,2.054s-2.751,3.395-3.1,3.846a17.185,17.185,0,0,1-2.3,1.955c-.569.4-12.742,8.2-14.221,9.092s-6.166,2.149-7.1,2.653c-1.238.667-4.083,2.525-4.083,2.525Z" transform="translate(-1396.621 -393.425)" fill="#a16652"/>
              <path id="Trazado_995561" data-name="Trazado 995561" d="M929.486,1060.364s-.855,3.108-1.033,3.463c-.951,1.9-1.372,2.385-2.615,3.007s-3.541,1.214-4.282,1.878-7.473,6.526-8.835,8.267c-.732.935-1.723,1.882-1.71,2.684s1.272,1.131,2.564.559a7.071,7.071,0,0,0,2.379-1.543,10.872,10.872,0,0,1,2.271-2.042,2.909,2.909,0,0,1,2.154-.036c.607.341,1.805,3.127,1.88,4.628a9.071,9.071,0,0,1-.1,3.208,27.175,27.175,0,0,0-1.173,4.829,14.584,14.584,0,0,1-.686,3.919c-.336.907-1.211,2.525-.635,3.968s2,.067,2.15-.235,2.034-4.393,2.222-5.1,1.366-6.209,1.4-6.383v0a1.365,1.365,0,0,1,.52,1.244c-.138.754-.35,1.634-.537,2.389s-.16,1.619-.345,2.573-1.21,3.784-1.21,3.784a8.076,8.076,0,0,0-1.585,2.052,2.185,2.185,0,0,0-.244,1.04,1.373,1.373,0,0,0,1.581,1.427,80.507,80.507,0,0,0,6.3-7.222c.187-.489.606.141-.168,1.807-.134.288-2.567,3.361-2.262,4.268.369,1.1,1.13.874,2.063-.244s2.556-3.544,2.9-4a17.155,17.155,0,0,0,1.284-2.734c.239-.655,4.579-14.444,5.052-16.105s.46-6.513.7-7.548c.319-1.369,1.368-4.6,1.368-4.6Z" transform="translate(-724.917 -843.761)" fill="#a16652"/>
              <path id="Trazado_995562" data-name="Trazado 995562" d="M1244.1,333.427a15.825,15.825,0,1,1-19.252-11.413,15.825,15.825,0,0,1,19.252,11.413" transform="translate(-965.171 -255.84)" fill="#a16652"/>
              <path id="Trazado_995563" data-name="Trazado 995563" d="M1272.259,312.019c9.746-1.118,12.926,6.907,14.8,12.974l1.878,6.067,7.554-2.717-7.081-18.223-16.19-1.1Z" transform="translate(-1012.372 -245.896)" fill="#2f282e"/>
              <path id="Trazado_995564" data-name="Trazado 995564" d="M1347.188,390.652c-1.2,3.189-3.7,5.2-5.595,4.488s-2.449-3.873-1.25-7.062,3.7-5.2,5.6-4.488,2.449,3.873,1.25,7.063" transform="translate(-1066.046 -305.119)" fill="#a16652"/>
              <path id="Trazado_995565" data-name="Trazado 995565" d="M1344,426.9a3.007,3.007,0,1,1-3.658-2.169A3.007,3.007,0,0,1,1344,426.9" transform="translate(-1064.748 -337.895)" fill="#ffa514"/>
              <path id="Trazado_995566" data-name="Trazado 995566" d="M998.1,634.551s3.351-111.9,63.762-112.327c52.163-.367,64.157,33.689,64.157,33.689l32.644-20.109,8.618,7.834s-20.631,46.747-44.135,46.486-31.6-18.542-31.6-18.542l-64.154,27.612-18.607,40.756Z" transform="translate(-794.217 -415.546)" fill="#a16652"/>
              <path id="Trazado_995567" data-name="Trazado 995567" d="M1119.327,696.388l74.516-1.309-5.369-46.612-17.612-30.077-18.455,18.281-12.884-18.977-15.5,30.12Z" transform="translate(-890.679 -491.516)" fill="#eb5621"/>
              <path id="Trazado_995568" data-name="Trazado 995568" d="M1215.906,556.216h-.02a.609.609,0,0,1-.568-.644l.58-16.7a.588.588,0,1,1,1.174.041l-.58,16.7a.6.6,0,0,1-.586.6" transform="translate(-967.062 -428.319)" fill="#eb5621"/>
              <path id="Trazado_995569" data-name="Trazado 995569" d="M1369.322,545.43h-.025a.6.6,0,0,1-.562-.628l.808-19.907a.606.606,0,0,1,.612-.578.6.6,0,0,1,.562.628l-.807,19.907a.6.6,0,0,1-.586.578" transform="translate(-1089.139 -417.214)" fill="#eb5621"/>
              <path id="Trazado_995570" data-name="Trazado 995570" d="M1154.689,1092.9h-97.582l2.55-14.8,1.14-6.628,3.214-18.674,1.14-6.64,3.743-21.723,1.14-6.64,3.438-19.955,16.841-.323,5.611-.112,18.339-.353,5.6-.106,15.759-.305,5.612-.112h.141s5.441,4.025,6.411,15.442c.053.582.094,1.181.117,1.8.047,1.163.059,2.35.035,3.543a123.057,123.057,0,0,1-3.05,22.828c-.335,1.492-.558,2.356-.558,2.356l.629,3.073,3.1,15.072.934,4.565,3.443,16.752.94,4.56Z" transform="translate(-841.169 -792.965)" fill="#ffa514"/>
              <g id="Grupo_1177392" data-name="Grupo 1177392" transform="translate(227.725 204.439)" opacity="0.44">
                <g id="Grupo_1177391" data-name="Grupo 1177391">
                  <g id="Grupo_1177390" data-name="Grupo 1177390" clip-path="url(#clip-path-2)">
                    <path id="Trazado_995571" data-name="Trazado 995571" d="M1141.839,1000.814l-27.03,27.03,1.14-6.64,20.278-20.278Z" transform="translate(-1114.81 -1000.815)" fill="#fff"/>
                  </g>
                </g>
              </g>
              <g id="Grupo_1177395" data-name="Grupo 1177395" transform="translate(222.843 203.98)" opacity="0.44">
                <g id="Grupo_1177394" data-name="Grupo 1177394">
                  <g id="Grupo_1177393" data-name="Grupo 1177393" clip-path="url(#clip-path-3)">
                    <path id="Trazado_995572" data-name="Trazado 995572" d="M1146.757,998.571l-55.851,55.851,1.14-6.64,49.111-49.105Z" transform="translate(-1090.907 -998.571)" fill="#fff"/>
                  </g>
                </g>
              </g>
              <g id="Grupo_1177398" data-name="Grupo 1177398" transform="translate(218.487 203.563)" opacity="0.44">
                <g id="Grupo_1177397" data-name="Grupo 1177397">
                  <g id="Grupo_1177396" data-name="Grupo 1177396" clip-path="url(#clip-path-4)">
                    <path id="Trazado_995573" data-name="Trazado 995573" d="M1151.167,996.528l-81.576,81.57,1.14-6.628,74.824-74.83Z" transform="translate(-1069.591 -996.529)" fill="#fff"/>
                  </g>
                </g>
              </g>
              <g id="Grupo_1177401" data-name="Grupo 1177401" transform="translate(225.686 219.005)" opacity="0.44">
                <g id="Grupo_1177400" data-name="Grupo 1177400">
                  <g id="Grupo_1177399" data-name="Grupo 1177399" clip-path="url(#clip-path-5)">
                    <path id="Trazado_995574" data-name="Trazado 995574" d="M1185.911,1077.464l-75.588,75.589h-5.494l80.93-80.93c.053.582.094,1.181.118,1.8.047,1.163.059,2.35.035,3.543" transform="translate(-1104.829 -1072.123)" fill="#fff"/>
                  </g>
                </g>
              </g>
              <g id="Grupo_1177404" data-name="Grupo 1177404" transform="translate(250.959 247.174)" opacity="0.44">
                <g id="Grupo_1177403" data-name="Grupo 1177403">
                  <g id="Grupo_1177402" data-name="Grupo 1177402" clip-path="url(#clip-path-6)">
                    <path id="Trazado_995575" data-name="Trazado 995575" d="M1281.379,1215.454l-47.331,47.331h-5.5l52.76-52.76c-.335,1.492-.558,2.356-.558,2.356Z" transform="translate(-1228.548 -1210.025)" fill="#fff"/>
                  </g>
                </g>
              </g>
              <g id="Grupo_1177407" data-name="Grupo 1177407" transform="translate(274.632 267.676)" opacity="0.44">
                <g id="Grupo_1177406" data-name="Grupo 1177406">
                  <g id="Grupo_1177405" data-name="Grupo 1177405" clip-path="url(#clip-path-7)">
                    <path id="Trazado_995576" data-name="Trazado 995576" d="M1377.638,1314.953l-27.693,27.693h-5.5l32.259-32.259Z" transform="translate(-1344.444 -1310.387)" fill="#fff"/>
                  </g>
                </g>
              </g>
              <g id="Grupo_1177410" data-name="Grupo 1177410" transform="translate(300.329 288.994)" opacity="0.44">
                <g id="Grupo_1177409" data-name="Grupo 1177409">
                  <g id="Grupo_1177408" data-name="Grupo 1177408" clip-path="url(#clip-path-8)">
                    <path id="Trazado_995577" data-name="Trazado 995577" d="M1482.116,1419.308l-6.381,6.381h-5.5l10.941-10.941Z" transform="translate(-1470.236 -1414.748)" fill="#fff"/>
                  </g>
                </g>
              </g>
              <path id="Trazado_995578" data-name="Trazado 995578" d="M1266.277,1180.731a.588.588,0,0,1-.579-.489l-12.445-73.384a.588.588,0,0,1,1.159-.2l12.445,73.384a.587.587,0,0,1-.481.677.577.577,0,0,1-.1.008" transform="translate(-997.241 -880.211)" fill="#dc880e"/>
              <path id="Trazado_995579" data-name="Trazado 995579" d="M1353.36,393.413a1.4,1.4,0,0,0-1.436-.921,3.306,3.306,0,0,1,1.737-1.549.294.294,0,1,0-.227-.542c-1.744.731-2.589,2.189-2.586,4.457a.294.294,0,1,0,.587,0,5.828,5.828,0,0,1,.243-1.76c.572-.094,1.033.153,1.112.461a.294.294,0,0,0,.569-.145" transform="translate(-1074.907 -310.635)" fill="#803b34"/>
              <path id="Trazado_995580" data-name="Trazado 995580" d="M1274.224,383.514a.621.621,0,0,1,.16-1.227l4.419.179a.621.621,0,1,1-.05,1.241l-4.419-.179a.628.628,0,0,1-.11-.014" transform="translate(-1013.548 -304.196)" fill="#2f282e"/>
              <path id="Trazado_995581" data-name="Trazado 995581" d="M1215.155,380.141a.621.621,0,0,1,.16-1.227l4.419.179a.621.621,0,1,1-.05,1.241l-4.419-.179a.621.621,0,0,1-.109-.014" transform="translate(-966.545 -301.512)" fill="#2f282e"/>
              <path id="Trazado_995582" data-name="Trazado 995582" d="M1270.574,360.413a.414.414,0,0,1-.224-.708,4.7,4.7,0,0,1,3.612-1.019,5.081,5.081,0,0,1,3.518,1.491.414.414,0,0,1-.657.505,4.391,4.391,0,0,0-2.923-1.17,3.9,3.9,0,0,0-2.977.791.414.414,0,0,1-.349.111" transform="translate(-1010.751 -285.4)" fill="#2f282e"/>
              <path id="Trazado_995583" data-name="Trazado 995583" d="M1217.11,357.091a5.873,5.873,0,0,1,2.259-.239,5.081,5.081,0,0,1,3.518,1.491.414.414,0,1,1-.657.505,4.391,4.391,0,0,0-2.923-1.17,4.808,4.808,0,0,0-2.193.291c-.307.129-.54-.7,0-.879" transform="translate(-968.234 -283.942)" fill="#2f282e"/>
              <g id="Grupo_1177413" data-name="Grupo 1177413" transform="translate(250.646 80.42)" opacity="0.4">
                <g id="Grupo_1177412" data-name="Grupo 1177412">
                  <g id="Grupo_1177411" data-name="Grupo 1177411" clip-path="url(#clip-path-9)">
                    <path id="Trazado_995584" data-name="Trazado 995584" d="M1299.365,397.791a.661.661,0,1,0,.7-.62.66.66,0,0,0-.7.62" transform="translate(-1284.586 -396.458)" fill="#ce776b"/>
                    <path id="Trazado_995585" data-name="Trazado 995585" d="M1282.41,398.33a.661.661,0,1,0,.7-.62.661.661,0,0,0-.7.62" transform="translate(-1271.095 -396.887)" fill="#ce776b"/>
                    <path id="Trazado_995586" data-name="Trazado 995586" d="M1272.557,402.684a.661.661,0,1,0,.7-.62.66.66,0,0,0-.7.62" transform="translate(-1263.254 -400.352)" fill="#ce776b"/>
                    <path id="Trazado_995587" data-name="Trazado 995587" d="M1240.631,394.316a.661.661,0,1,0,.7-.62.661.661,0,0,0-.7.62" transform="translate(-1237.85 -393.693)" fill="#ce776b"/>
                    <path id="Trazado_995588" data-name="Trazado 995588" d="M1234.408,403.666a.661.661,0,1,0,.7-.62.66.66,0,0,0-.7.62" transform="translate(-1232.898 -401.133)" fill="#ce776b"/>
                    <path id="Trazado_995589" data-name="Trazado 995589" d="M1227.022,396.75a.661.661,0,1,0,.7-.62.66.66,0,0,0-.7.62" transform="translate(-1227.021 -395.63)" fill="#ce776b"/>
                    <path id="Trazado_995590" data-name="Trazado 995590" d="M1293.174,404.86a.661.661,0,1,0,.923-.142.661.661,0,0,0-.923.142" transform="translate(-1279.559 -402.363)" fill="#ce776b"/>
                  </g>
                </g>
              </g>
              <g id="Grupo_1177416" data-name="Grupo 1177416" transform="translate(254.593 83.478)" opacity="0.47">
                <g id="Grupo_1177415" data-name="Grupo 1177415">
                  <g id="Grupo_1177414" data-name="Grupo 1177414" clip-path="url(#clip-path-10)">
                    <path id="Trazado_995591" data-name="Trazado 995591" d="M1248.877,410.924c-1.452-.045-2.565-.852-2.534-1.838a.443.443,0,1,1,.885.027c-.013.412.7.9,1.677.926s1.718-.408,1.731-.82a.443.443,0,0,1,.885.028c-.031.985-1.192,1.722-2.643,1.677" transform="translate(-1246.342 -408.658)" fill="#803b34"/>
                  </g>
                </g>
              </g>
              <path id="Trazado_995592" data-name="Trazado 995592" d="M1272.969,430.419l-10.1,2.584a5.464,5.464,0,0,0,4.74,2.886c3.455.107,5.362-5.47,5.362-5.47" transform="translate(-1004.898 -342.496)" fill="#fff"/>
              <path id="Trazado_995593" data-name="Trazado 995593" d="M186.065,1060.51l18.579-69.917s-3.667-12.712-1.833-21.391a38.49,38.49,0,0,1,7.7-15.4h59.242l19.394,106.708H254.27L241.4,1011.7s-7.5,11.408-7.986,16.786-2.119,7.823-5.867,13.527-7.008,18.5-7.008,18.5Z" transform="translate(-148.057 -758.967)" fill="#1f496a"/>
              <g id="Grupo_1177419" data-name="Grupo 1177419" transform="translate(52.696 198.236)" opacity="0.56">
                <g id="Grupo_1177418" data-name="Grupo 1177418">
                  <g id="Grupo_1177417" data-name="Grupo 1177417" clip-path="url(#clip-path-11)">
                    <path id="Trazado_995594" data-name="Trazado 995594" d="M454.785,1152.474a.549.549,0,0,0,.481-.282l11.9-21.35a.55.55,0,1,0-.96-.535l-11.9,21.35a.549.549,0,0,0,.213.748.543.543,0,0,0,.267.07" transform="translate(-414.144 -1097.427)" fill="#2f282e"/>
                    <path id="Trazado_995595" data-name="Trazado 995595" d="M258.519,1074.307a.55.55,0,0,0,.528-.4c.078-.271,7.9-27.31,15.137-44.842,5.962-14.443,5.3-20.461,4.395-28.79-.221-2.016-.449-4.1-.606-6.5a75.676,75.676,0,0,1,2.1-22.633.55.55,0,1,0-1.059-.3,76.841,76.841,0,0,0-2.14,23c.159,2.418.388,4.515.61,6.543.893,8.167,1.538,14.067-4.318,28.251-7.261,17.589-15.1,44.686-15.177,44.958a.55.55,0,0,0,.376.681.558.558,0,0,0,.153.021" transform="translate(-257.968 -970.45)" fill="#2f282e"/>
                    <path id="Trazado_995596" data-name="Trazado 995596" d="M521.4,1241.781a.567.567,0,0,0,.148-.02.55.55,0,0,0,.383-.677l-15.082-54.409a.55.55,0,1,0-1.06.294l15.081,54.409a.551.551,0,0,0,.53.4" transform="translate(-455.146 -1142.186)" fill="#2f282e"/>
                    <path id="Trazado_995597" data-name="Trazado 995597" d="M350.4,1013.92h0a21.956,21.956,0,0,0,18.719-11.551.55.55,0,1,0-.984-.492A20.8,20.8,0,0,1,350.4,1012.82a.55.55,0,1,0,0,1.1" transform="translate(-331.08 -995.216)" fill="#2f282e"/>
                  </g>
                </g>
              </g>
              <path id="Trazado_995598" data-name="Trazado 995598" d="M291.419,971.185l20.892,10.533,11.665-10.533Z" transform="translate(-231.891 -772.799)" fill="#fff"/>
              <path id="Trazado_995599" data-name="Trazado 995599" d="M480.632,971.185l11.4,8.531,15.234-8.531Z" transform="translate(-382.452 -772.799)" fill="#fff"/>
              <path id="Trazado_995600" data-name="Trazado 995600" d="M759.205,505.188s2.008-2.521,2.191-2.874c.976-1.887,1.12-2.514.89-3.884s-1.1-3.577-1-4.567.874-9.883,1.479-12.009c.325-1.143.506-2.5,1.162-2.962s1.663.362,1.962,1.744a7.076,7.076,0,0,1,.154,2.831,10.859,10.859,0,0,0-.313,3.038,2.909,2.909,0,0,0,1.24,1.762c.633.29,3.59-.382,4.848-1.206a9.071,9.071,0,0,0,2.536-1.968,27.172,27.172,0,0,1,3.213-3.792,14.567,14.567,0,0,0,2.763-2.863c.536-.806,1.328-2.466,2.833-2.85s1.235,1.58,1.076,1.876-2.353,4.23-2.812,4.8-4.214,4.761-4.335,4.889l0,0a1.365,1.365,0,0,0,1.312-.312c.528-.555,1.115-1.245,1.614-1.841s1.214-1.083,1.877-1.794S784.234,480,784.234,480a8.075,8.075,0,0,1,.725-2.489,2.185,2.185,0,0,1,.7-.81,1.373,1.373,0,0,1,2.085.437,80.467,80.467,0,0,1-2.129,9.343c-.285.439.471.407,1.362-1.2.154-.277,1.205-4.054,2.117-4.341,1.1-.347,1.372.4,1.018,1.81s-1.359,4.153-1.526,4.7a17.159,17.159,0,0,1-1.454,2.648c-.388.579-8.978,12.207-10.042,13.567s-4.993,4.207-5.688,5.012c-.918,1.064-2.913,3.815-2.913,3.815Z" transform="translate(-604.121 -378.399)" fill="#a16652"/>
              <path id="Trazado_995601" data-name="Trazado 995601" d="M237.632,526.718l-8.7,10.271s-11.84-26.812-48.4-28.028-71.877,13.529-77.609,34.947c-4.962,18.542,26.77,41.482,26.77,41.482l10.971-10.095-4.008,28.028H210.82l-2.785-33.211s8.356,6.4,18.456,3.267,25.6-38.652,25.6-38.652Zm-95.32,38.74s-4.354-4.442-2.785-10.254,6.181-6.2,6.181-6.2-2.961,16.541-3.4,16.453" transform="translate(-81.477 -404.939)" fill="#eb5621"/>
              <path id="Trazado_995602" data-name="Trazado 995602" d="M316.375,690.985a.588.588,0,0,1-.157-1.154l9.358-2.611a.588.588,0,0,1,.316,1.132l-9.358,2.611a.587.587,0,0,1-.158.022" transform="translate(-251.282 -546.823)" fill="#ba3e22"/>
              <path id="Trazado_995603" data-name="Trazado 995603" d="M604.721,681.948a.587.587,0,0,1-.584-.529l-3.221-32.078a.588.588,0,0,1,1.169-.118l3.221,32.079a.588.588,0,0,1-.526.643.575.575,0,0,1-.059,0" transform="translate(-478.164 -516.184)" fill="#ba3e22"/>
              <path id="Trazado_995604" data-name="Trazado 995604" d="M356.957,252.417a9.093,9.093,0,0,1,10.368-7.607c.218.034.43.084.642.132,0-.011,0-.022,0-.033a9.085,9.085,0,0,1,16.95-2.991,11.474,11.474,0,1,1,6.422,21.954,18.086,18.086,0,1,1-33.916-6.9,9.046,9.046,0,0,1-.468-4.551" transform="translate(-282.679 -188.743)" fill="#2f282e"/>
              <path id="Trazado_995605" data-name="Trazado 995605" d="M419.978,408.3l-1.062,23.025,23.209.067-2-17.972Z" transform="translate(-333.344 -324.897)" fill="#a16652"/>
              <path id="Trazado_995606" data-name="Trazado 995606" d="M444.605,420.8l.636,5.933s-9.278,1.513-14.941-1.5c-5.181-2.755-6.106-10.552-6.106-10.552Z" transform="translate(-337.543 -329.974)" fill="#884f3f"/>
              <path id="Trazado_995607" data-name="Trazado 995607" d="M405.132,367.049c.48,2.761-.458,5.229-2.094,5.513s-3.351-1.723-3.831-4.484.458-5.229,2.094-5.513,3.351,1.723,3.831,4.484" transform="translate(-317.561 -288.482)" fill="#a16652"/>
              <path id="Trazado_995608" data-name="Trazado 995608" d="M408.785,379.215a.219.219,0,0,1-.084-.017.216.216,0,0,1-.115-.282,1.38,1.38,0,0,1,1.781-.525.215.215,0,0,1-.15.4c-.523-.194-1.088-.061-1.235.289a.216.216,0,0,1-.2.132" transform="translate(-325.11 -301.004)" fill="#884f3f"/>
              <path id="Trazado_995609" data-name="Trazado 995609" d="M410.2,372.318l-.032,0a.215.215,0,0,1-.181-.245c.288-1.911-.2-3.181-1.55-4a.215.215,0,0,1,.223-.369c1.492.9,2.066,2.354,1.753,4.429a.216.216,0,0,1-.213.183" transform="translate(-324.918 -292.568)" fill="#884f3f"/>
              <path id="Trazado_995610" data-name="Trazado 995610" d="M440.327,301.829a25.359,25.359,0,0,0-10.436,5.266,22.051,22.051,0,0,0-5.936,9.715s-4.233,18.664,13.9,18.624c9.2-.02,10.321-13.977,10.321-13.977a27.679,27.679,0,0,0-1.245-11.394,18.8,18.8,0,0,0-6.606-8.234" transform="translate(-337.011 -240.174)" fill="#a16652"/>
              <path id="Trazado_995611" data-name="Trazado 995611" d="M464.255,416.739,473.088,419a4.778,4.778,0,0,1-4.145,2.523c-3.021.094-4.688-4.783-4.688-4.783" transform="translate(-369.421 -331.611)" fill="#fff"/>
              <g id="Grupo_1177422" data-name="Grupo 1177422" transform="translate(90.777 75.74)" opacity="0.7">
                <g id="Grupo_1177421" data-name="Grupo 1177421">
                  <g id="Grupo_1177420" data-name="Grupo 1177420" clip-path="url(#clip-path-12)">
                    <path id="Trazado_995612" data-name="Trazado 995612" d="M451.47,375.44c-.557.965-2.561.851-4.475-.255s-3.015-2.783-2.458-3.748,2.561-.851,4.475.255,3.015,2.783,2.458,3.748" transform="translate(-444.392 -370.782)" fill="#884f3f"/>
                  </g>
                </g>
              </g>
              <path id="Trazado_995613" data-name="Trazado 995613" d="M470.639,344.991a.425.425,0,0,0,.22-.168.429.429,0,0,0-.117-.6,4.877,4.877,0,0,0-3.871-.4,5.268,5.268,0,0,0-3.327,2.15.429.429,0,0,0,.76.4,4.553,4.553,0,0,1,2.778-1.716,4.041,4.041,0,0,1,3.181.277.43.43,0,0,0,.376.051" transform="translate(-368.816 -273.428)" fill="#2f282e"/>
              <path id="Trazado_995614" data-name="Trazado 995614" d="M526.218,368.917H523.37a.621.621,0,1,1,0-1.243h2.848a.621.621,0,1,1,0,1.243" transform="translate(-415.966 -292.568)" fill="#2f282e"/>
              <path id="Trazado_995615" data-name="Trazado 995615" d="M476.058,368.935h-3.8a.615.615,0,1,1,0-1.23h3.8a.615.615,0,1,1,0,1.23" transform="translate(-375.303 -292.593)" fill="#2f282e"/>
              <g id="Grupo_1177425" data-name="Grupo 1177425" transform="translate(101.986 81.268)" opacity="0.47">
                <g id="Grupo_1177424" data-name="Grupo 1177424">
                  <g id="Grupo_1177423" data-name="Grupo 1177423" clip-path="url(#clip-path-13)">
                    <path id="Trazado_995616" data-name="Trazado 995616" d="M501.973,400.15c1.506-.018,2.676-.833,2.663-1.855a.459.459,0,1,0-.918.011c.005.427-.745.914-1.757.926s-1.773-.457-1.778-.884a.459.459,0,1,0-.918.011c.012,1.022,1.2,1.809,2.707,1.791" transform="translate(-499.267 -397.841)" fill="#803b34"/>
                  </g>
                </g>
              </g>
              <path id="Trazado_995617" data-name="Trazado 995617" d="M442.125,501.03c0,2.79-5.2,5.051-11.6,5.051s-11.6-2.262-11.6-5.051,5.2-5.051,11.6-5.051,11.6,2.262,11.6,5.051" transform="translate(-333.343 -394.664)" fill="#a16652"/>
              <path id="Trazado_995618" data-name="Trazado 995618" d="M258.621,829.713s2.237,2.321,2.563,2.548c1.744,1.214,2.346,1.439,3.734,1.391s3.691-.626,4.659-.4,9.683,2.16,11.712,3.038c1.09.471,2.413.829,2.784,1.54s-.576,1.6-1.985,1.717a7.076,7.076,0,0,1-2.827-.218,10.853,10.853,0,0,0-2.971-.708,2.908,2.908,0,0,0-1.909,1c-.37.59-.091,3.609.561,4.964a9.068,9.068,0,0,0,1.619,2.772,27.168,27.168,0,0,1,3.338,3.681,14.59,14.59,0,0,0,2.476,3.115c.729.636,2.271,1.639,2.455,3.182s-1.729,1.018-2,.821-3.886-2.887-4.388-3.416-4.168-4.8-4.279-4.937l0,0a1.365,1.365,0,0,0,.138,1.341c.481.6,1.088,1.268,1.614,1.841s.915,1.345,1.533,2.1,2.872,2.745,2.872,2.745a8.071,8.071,0,0,1,2.373,1.045,2.186,2.186,0,0,1,.711.8,1.374,1.374,0,0,1-.707,2.009,80.523,80.523,0,0,1-8.984-3.333c-.4-.34-.464.413,1.011,1.507.255.189,3.861,1.725,4.027,2.667.2,1.139-.574,1.308-1.928.772s-3.939-1.891-4.459-2.128a17.15,17.15,0,0,1-2.435-1.788c-.523-.461-10.927-10.5-12.136-11.731s-3.518-5.5-4.224-6.295c-.935-1.05-3.4-3.388-3.4-3.388Z" transform="translate(-199.063 -660.226)" fill="#a16652"/>
              <path id="Trazado_995619" data-name="Trazado 995619" d="M921.92,43.308H883.975a21.654,21.654,0,0,1,0-43.308H921.92a21.654,21.654,0,1,1,0,43.308" transform="translate(-686.173)" fill="#f0a3f3"/>
              <path id="Trazado_995620" data-name="Trazado 995620" d="M1086.7,209.605v6.886l-9.724-6.886Z" transform="translate(-856.979 -166.789)" fill="#f0a3f3"/>
              <path id="Trazado_995621" data-name="Trazado 995621" d="M1104.95,90.577a3.562,3.562,0,1,0,3.562-3.562,3.562,3.562,0,0,0-3.562,3.562" transform="translate(-879.239 -69.24)" fill="#604161"/>
              <path id="Trazado_995622" data-name="Trazado 995622" d="M1043.766,90.577a3.562,3.562,0,1,0,3.562-3.562,3.562,3.562,0,0,0-3.562,3.562" transform="translate(-830.554 -69.24)" fill="#604161"/>
              <path id="Trazado_995623" data-name="Trazado 995623" d="M982.581,91.526a3.562,3.562,0,1,0,3.562-3.562,3.562,3.562,0,0,0-3.562,3.562" transform="translate(-781.867 -69.995)" fill="#604161"/>
              <path id="Trazado_995624" data-name="Trazado 995624" d="M644.088,204.263h37.945a21.654,21.654,0,1,0,0-43.308H644.088a21.654,21.654,0,0,0,0,43.308" transform="translate(-495.288 -128.076)" fill="#f7e869"/>
              <path id="Trazado_995625" data-name="Trazado 995625" d="M759.017,368.238V375.6l9.5-7.361Z" transform="translate(-603.971 -293.017)" fill="#f7e869"/>
              <path id="Trazado_995626" data-name="Trazado 995626" d="M749.82,251.533a3.562,3.562,0,1,1-3.562-3.562,3.562,3.562,0,0,1,3.562,3.562" transform="translate(-590.983 -197.317)" fill="#565124"/>
              <path id="Trazado_995627" data-name="Trazado 995627" d="M811,251.533a3.562,3.562,0,1,1-3.562-3.562A3.562,3.562,0,0,1,811,251.533" transform="translate(-639.669 -197.317)" fill="#565124"/>
              <path id="Trazado_995628" data-name="Trazado 995628" d="M872.189,252.481a3.562,3.562,0,1,1-3.562-3.562,3.562,3.562,0,0,1,3.562,3.562" transform="translate(-688.356 -198.072)" fill="#565124"/>
              <path id="Trazado_995629" data-name="Trazado 995629" d="M423.424,1466.284H82.3a2.567,2.567,0,0,1-2.56-2.56v-.456a2.567,2.567,0,0,1,2.56-2.56H423.424a2.567,2.567,0,0,1,2.56,2.56v.456a2.567,2.567,0,0,1-2.56,2.56" transform="translate(-63.449 -1162.327)" fill="#1f496a"/>
            </g>
          </g>
        </g>
      </g>
    </g>
  </g>
</svg>
