<svg xmlns="http://www.w3.org/2000/svg" width="84" height="84" viewBox="0 0 84 84">
  <g id="Grupo_1177301" data-name="Grupo 1177301" transform="translate(-179.668 -5521)">
    <rect id="Rectángulo_402006" data-name="Rectángulo 402006" width="84" height="84" rx="5" transform="translate(179.668 5521)" fill="#f0a3f3"/>
    <g id="solucion" transform="translate(179.669 5525.283)">
      <path id="Línea_3223" data-name="Línea 3223" d="M-.934-5.039H-6.27A1.23,1.23,0,0,1-7.5-6.27,1.23,1.23,0,0,1-6.27-7.5H-.934A1.23,1.23,0,0,1,.3-6.27,1.23,1.23,0,0,1-.934-5.039Z" transform="translate(33.034 62.194)" fill="#604161"/>
      <path id="Línea_3224" data-name="Línea 3224" d="M-1-5.039H-6.27A1.23,1.23,0,0,1-7.5-6.27,1.23,1.23,0,0,1-6.27-7.5H-1A1.23,1.23,0,0,1,.226-6.27,1.23,1.23,0,0,1-1-5.039Z" transform="translate(33.035 67.527)" fill="#604161"/>
      <path id="Línea_3225" data-name="Línea 3225" d="M-2.712-5.039H-6.27A1.23,1.23,0,0,1-7.5-6.27,1.23,1.23,0,0,1-6.27-7.5h3.557a1.23,1.23,0,0,1,1.23,1.23A1.23,1.23,0,0,1-2.712-5.039Z" transform="translate(33.042 72.864)" fill="#604161"/>
      <path id="Trazado_991865" data-name="Trazado 991865" transform="translate(0)" fill="#604161"/>
      <path id="Trazado_991866" data-name="Trazado 991866" d="M31.686,279.628H28.841a1.23,1.23,0,0,1,0-2.461h2.845a.487.487,0,0,0,.346-.143l6.475-6.475A7.715,7.715,0,0,1,44,268.274h2.962a1.23,1.23,0,0,1,0,2.461H44a5.27,5.27,0,0,0-3.751,1.554l-6.475,6.475A2.931,2.931,0,0,1,31.686,279.628Z" transform="translate(-23.081 -224.26)" fill="#604161"/>
      <path id="Trazado_991867" data-name="Trazado 991867" d="M167.419,324.6h-2.591a1.23,1.23,0,1,1,0-2.461h2.591a.62.62,0,0,0,.619-.619V319.89a.62.62,0,0,0-.619-.619,1.23,1.23,0,0,1,0-2.461h1.708a.62.62,0,0,0,.619-.619v-1.638a.62.62,0,0,0-.619-.619,1.23,1.23,0,1,1,0-2.461.62.62,0,0,0,.619-.619V309.22a.62.62,0,0,0-.619-.619,1.23,1.23,0,1,1,0-2.461h2.835a1.442,1.442,0,0,0,0-2.884h-2.256a1.23,1.23,0,0,1,0-2.461h2.257a3.9,3.9,0,0,1,.18,7.8,3.081,3.081,0,0,1,.063.623v1.635a3.064,3.064,0,0,1-.618,1.849,3.064,3.064,0,0,1,.618,1.849v1.638a3.084,3.084,0,0,1-1.836,2.818,3.07,3.07,0,0,1,.128.881v1.631A3.083,3.083,0,0,1,167.419,324.6Z" transform="translate(-137.131 -251.447)" fill="#604161"/>
      <path id="Trazado_991868" data-name="Trazado 991868" d="M45.409,415.23H41.286A11.826,11.826,0,0,1,32.93,411.8a.471.471,0,0,0-.33-.128H28.841a1.23,1.23,0,1,1,0-2.461H32.6a2.911,2.911,0,0,1,2.059.838,9.379,9.379,0,0,0,6.628,2.72h4.123a1.23,1.23,0,1,1,0,2.461Z" transform="translate(-23.081 -342.076)" fill="#604161"/>
      <path id="Línea_3226" data-name="Línea 3226" d="M-4.11-5.039H-6.27A1.23,1.23,0,0,1-7.5-6.27,1.23,1.23,0,0,1-6.27-7.5h2.16A1.23,1.23,0,0,1-2.88-6.27,1.23,1.23,0,0,1-4.11-5.039Z" transform="translate(27.732 56.85)" fill="#604161"/>
      <path id="Trazado_991869" data-name="Trazado 991869" d="M5.592,338.72H1.4a1.4,1.4,0,0,1-1.4-1.4V321.8a1.4,1.4,0,0,1,1.4-1.4H5.592a1.4,1.4,0,0,1,1.4,1.4v15.518A1.4,1.4,0,0,1,5.592,338.72Zm-3.131-2.461H4.53V322.865H2.461Z" transform="translate(0 -267.838)" fill="#604161"/>
      <path id="Línea_3227" data-name="Línea 3227" d="M-2.712-5.039H-6.27A1.23,1.23,0,0,1-7.5-6.27,1.23,1.23,0,0,1-6.27-7.5h3.557a1.23,1.23,0,0,1,1.23,1.23A1.23,1.23,0,0,1-2.712-5.039Z" transform="translate(58.94 72.864)" fill="#604161"/>
      <path id="Trazado_991870" data-name="Trazado 991870" d="M356.72,415.23h-7.467a1.23,1.23,0,0,1,0-2.461h7.467a9.379,9.379,0,0,0,6.628-2.72,2.91,2.91,0,0,1,2.059-.838h3.758a1.23,1.23,0,1,1,0,2.461h-3.758a.471.471,0,0,0-.33.128A11.826,11.826,0,0,1,356.72,415.23Z" transform="translate(-291.926 -342.076)" fill="#604161"/>
      <path id="Trazado_991871" data-name="Trazado 991871" d="M280.377,281.371h-2.835a3.9,3.9,0,0,1,0-7.8l4.564,0a5.316,5.316,0,0,1-.849-2.888v-.38a2.081,2.081,0,0,1,2.078-2.078h7.693a1.241,1.241,0,0,1,.146.009h.657a7.715,7.715,0,0,1,5.491,2.275l6.475,6.475a.487.487,0,0,0,.346.143h2.845a1.23,1.23,0,0,1,0,2.461h-2.845a2.931,2.931,0,0,1-2.086-.864l-6.475-6.475a5.27,5.27,0,0,0-3.751-1.554h-.8a1.248,1.248,0,0,1-.146-.009h-7.165a2.889,2.889,0,0,0,2.886,2.884,1.23,1.23,0,0,1,0,2.461l-9.061,0a1.44,1.44,0,0,0,0,2.879h2.835a1.23,1.23,0,0,1,0,2.461Z" transform="translate(-229.747 -224.216)" fill="#604161"/>
      <path id="Trazado_991872" data-name="Trazado 991872" d="M474.981,338.72h-4.193a1.4,1.4,0,0,1-1.4-1.4v-6.79a1.23,1.23,0,1,1,2.461,0v5.728h2.069V322.865H471.85v1.923a1.23,1.23,0,1,1-2.461,0V321.8a1.4,1.4,0,0,1,1.4-1.4h4.193a1.4,1.4,0,0,1,1.4,1.4v15.518A1.4,1.4,0,0,1,474.981,338.72Z" transform="translate(-393.38 -267.838)" fill="#604161"/>
      <path id="Trazado_991873" data-name="Trazado 991873" d="M356.562,308.921a6.9,6.9,0,0,1-6.783-5.662H346.37a1.23,1.23,0,1,1,0-2.461h4.53a1.23,1.23,0,0,1,1.23,1.23,4.437,4.437,0,0,0,4.432,4.432,1.23,1.23,0,0,1,0,2.461Z" transform="translate(-289.308 -251.448)" fill="#604161"/>
      <path id="Trazado_991874" data-name="Trazado 991874" d="M157.406,187.854h-9.7a1.23,1.23,0,0,1,0-2.461h8.467v-5.564a1.23,1.23,0,0,1,1.97-.984,1.585,1.585,0,0,0,.96.319,1.6,1.6,0,1,0-.96-2.882,1.23,1.23,0,0,1-1.969-.984v-5.564h-5.2a1.425,1.425,0,0,1-1.236-2.134,1.6,1.6,0,1,0-2.781,0,1.426,1.426,0,0,1-1.235,2.138h-5.2v3.794a4.143,4.143,0,0,1,.991.007,4.062,4.062,0,0,1-.991,8.063v3.795h1.449a1.23,1.23,0,0,1,0,2.461h-2.68a1.23,1.23,0,0,1-1.23-1.23V180.19a1.426,1.426,0,0,1,2.138-1.235,1.6,1.6,0,1,0,0-2.782,1.425,1.425,0,0,1-2.134-1.236V168.7a1.427,1.427,0,0,1,1.426-1.426h4.83a4.062,4.062,0,0,1,8.063-.99,4.145,4.145,0,0,1,.007.99h5.024a1.23,1.23,0,0,1,1.23,1.23v5.025a4.139,4.139,0,0,1,.991.006,4.062,4.062,0,0,1-.522,8.09,4.137,4.137,0,0,1-.468-.026v5.025A1.23,1.23,0,0,1,157.406,187.854Z" transform="translate(-115.791 -136.044)" fill="#604161"/>
      <path id="Trazado_991875" data-name="Trazado 991875" d="M305.7,341.167h-6.7a3.083,3.083,0,0,1-3.08-3.08v-1.635a3.083,3.083,0,0,1,3.08-3.08h6.7a3.083,3.083,0,0,1,3.079,3.079v1.635A3.083,3.083,0,0,1,305.7,341.167Zm-6.7-5.333a.62.62,0,0,0-.619.619v1.635a.62.62,0,0,0,.619.619h6.7a.619.619,0,0,0,.618-.619v-1.635a.619.619,0,0,0-.618-.618Z" transform="translate(-248.059 -278.679)" fill="#604161"/>
      <path id="Trazado_991876" data-name="Trazado 991876" d="M305.7,373.675h-6.7a3.083,3.083,0,0,1-3.08-3.08v-1.635a3.083,3.083,0,0,1,3.08-3.08h6.7a3.083,3.083,0,0,1,3.079,3.079V370.6A3.083,3.083,0,0,1,305.7,373.675Zm-6.7-5.333a.62.62,0,0,0-.619.619V370.6a.62.62,0,0,0,.619.619h6.7a.619.619,0,0,0,.618-.619V368.96a.619.619,0,0,0-.618-.618Z" transform="translate(-248.059 -305.854)" fill="#604161"/>
      <path id="Trazado_991877" data-name="Trazado 991877" d="M314.408,406.183h-4.989a3.083,3.083,0,0,1-3.08-3.08v-1.635a3.083,3.083,0,0,1,3.08-3.08h4.989a3.083,3.083,0,0,1,3.079,3.079V403.1A3.083,3.083,0,0,1,314.408,406.183Zm-4.989-5.333a.62.62,0,0,0-.619.619V403.1a.62.62,0,0,0,.619.619h4.989a.619.619,0,0,0,.619-.619v-1.635a.619.619,0,0,0-.619-.618Z" transform="translate(-256.77 -333.028)" fill="#604161"/>
      <path id="Trazado_991878" data-name="Trazado 991878" d="M237.669,77.624a3.5,3.5,0,0,1-3.5-3.5V69.6a3.5,3.5,0,0,1,6.991,0v4.53A3.5,3.5,0,0,1,237.669,77.624Zm0-9.06a1.036,1.036,0,0,0-1.035,1.035v4.53a1.035,1.035,0,1,0,2.069,0V69.6A1.036,1.036,0,0,0,237.669,68.564Z" transform="translate(-196.253 -55.258)" fill="#604161"/>
      <path id="Trazado_991879" data-name="Trazado 991879" d="M306.684,94.518a3.5,3.5,0,0,1-3.025-5.244l2.265-3.923a3.5,3.5,0,0,1,6.054,3.5l-2.265,3.923A3.507,3.507,0,0,1,306.684,94.518Zm2.269-8.454a1.039,1.039,0,0,0-.9.518L305.79,90.5a1.035,1.035,0,0,0,.894,1.552,1.039,1.039,0,0,0,.9-.518l2.265-3.923a1.036,1.036,0,0,0-.379-1.413A1.018,1.018,0,0,0,308.953,86.064Z" transform="translate(-254.112 -69.887)" fill="#604161"/>
      <path id="Trazado_991880" data-name="Trazado 991880" d="M157.108,94.518h0a3.507,3.507,0,0,1-3.029-1.748l-2.265-3.923a3.5,3.5,0,1,1,6.054-3.5l2.265,3.923a3.5,3.5,0,0,1-3.025,5.244Zm-2.269-8.454a1.018,1.018,0,0,0-.515.139,1.036,1.036,0,0,0-.379,1.413l2.265,3.923a1.039,1.039,0,0,0,.9.518h0A1.035,1.035,0,0,0,158,90.5l-2.265-3.923A1.039,1.039,0,0,0,154.838,86.064Z" transform="translate(-126.848 -69.887)" fill="#604161"/>
      <path id="Línea_3228" data-name="Línea 3228" d="M9.585-5.039H-6.27A1.23,1.23,0,0,1-7.5-6.27,1.23,1.23,0,0,1-6.27-7.5H9.585a1.23,1.23,0,0,1,1.23,1.23A1.23,1.23,0,0,1,9.585-5.039Z" transform="translate(47.649 56.85)" fill="#604161"/>
      <path id="Trazado_991881" data-name="Trazado 991881" d="M267.85,205.591a1.23,1.23,0,0,1-1.23-1.23v-1.089a1.426,1.426,0,0,1,2.138-1.235,1.6,1.6,0,1,0,0-2.781,1.425,1.425,0,0,1-2.134-1.236v-5.2h-3.794a4.146,4.146,0,0,1-.007.99,4.062,4.062,0,0,1-8.063-.99H249.73a1.23,1.23,0,1,1,0-2.461h6.433a1.426,1.426,0,0,1,1.235,2.138,1.6,1.6,0,1,0,2.781,0,1.425,1.425,0,0,1,1.236-2.134h6.239a1.427,1.427,0,0,1,1.426,1.426v4.829a4.142,4.142,0,0,1,.99.007,4.062,4.062,0,0,1-1.03,8.058A1.231,1.231,0,0,1,267.85,205.591Z" transform="translate(-208.423 -159.125)" fill="#604161"/>
    </g>
  </g>
</svg>
