<svg xmlns="http://www.w3.org/2000/svg" xmlns:xlink="http://www.w3.org/1999/xlink" width="292" height="228.542" viewBox="0 0 292 228.542">
  <defs>
    <clipPath id="clip-path">
      <rect id="Rectángulo_454924" data-name="Rectángulo 454924" width="271.289" height="227.083" fill="none"/>
    </clipPath>
    <clipPath id="clip-path-2">
      <rect id="Rectángulo_454907" data-name="Rectángulo 454907" width="53.819" height="51.448" fill="none"/>
    </clipPath>
    <clipPath id="clip-path-3">
      <rect id="Rectángulo_454909" data-name="Rectángulo 454909" width="65.244" height="5.309" fill="none"/>
    </clipPath>
    <clipPath id="clip-path-10">
      <rect id="Rectángulo_454922" data-name="Rectángulo 454922" width="9.321" height="6.857" fill="none"/>
    </clipPath>
    <clipPath id="clip-path-11">
      <rect id="Rectángulo_454923" data-name="Rectángulo 454923" width="6.931" height="2.98" fill="none"/>
    </clipPath>
  </defs>
  <g id="Grupo_1177381" data-name="Grupo 1177381" transform="translate(-602 -4009.202)">
    <rect id="Rectángulo_454844" data-name="Rectángulo 454844" width="148" height="217.244" rx="20" transform="translate(746 4020.5)" fill="#fcf6c3"/>
    <g id="Grupo_1177379" data-name="Grupo 1177379" transform="translate(602 4009.202)">
      <g id="Grupo_1177380" data-name="Grupo 1177380">
        <g id="Grupo_1177377" data-name="Grupo 1177377" transform="translate(0 0)">
          <g id="Grupo_1177376" data-name="Grupo 1177376" clip-path="url(#clip-path)">
            <path id="Trazado_995481" data-name="Trazado 995481" d="M232.137,133.46c60.546-38.41,95.824-91.308,78.794-118.153S231.014-2.161,170.468,36.249,74.644,127.557,91.674,154.4s79.917,17.469,140.464-20.941" transform="translate(-74.027 0.001)" fill="#f7e869"/>
            <g id="Grupo_1177348" data-name="Grupo 1177348" transform="translate(217.47 37.206)" opacity="0.33">
              <g id="Grupo_1177347" data-name="Grupo 1177347">
                <g id="Grupo_1177346" data-name="Grupo 1177346" clip-path="url(#clip-path-2)">
                  <path id="Trazado_995482" data-name="Trazado 995482" d="M1422.116,249.1l2.683,40.551a5.446,5.446,0,0,0,7.363,4.733l43.761-16.571h0a53.772,53.772,0,0,0-48.116-34.516,5.461,5.461,0,0,0-5.69,5.8" transform="translate(-1422.103 -243.297)" fill="#17507a"/>
                </g>
              </g>
            </g>
            <path id="Trazado_995483" data-name="Trazado 995483" d="M1337.955,631.483a53.771,53.771,0,0,0,31-69.437c-.022-.059-.049-.115-.072-.174l-50.567,19.35,19.281,50.386c.118-.044.237-.08.355-.126" transform="translate(-1116.72 -475.949)" fill="#bde6e5"/>
            <path id="Trazado_995484" data-name="Trazado 995484" d="M1288.489,741.988a53.521,53.521,0,0,0,23.843-3.2l-19.281-50.386Z" transform="translate(-1091.451 -583.133)" fill="#2e9092"/>
            <path id="Trazado_995485" data-name="Trazado 995485" d="M1022.767,681.692l-53.341-1.212a53.782,53.782,0,0,0,48.779,54.795Z" transform="translate(-821.167 -576.42)" fill="#244d4c"/>
            <path id="Trazado_995486" data-name="Trazado 995486" d="M1004.052,341.393a53.779,53.779,0,0,0-34.542,48.967l53.341,1.212-3.545-53.587a53.751,53.751,0,0,0-15.253,3.408" transform="translate(-821.25 -286.3)" fill="#5ac1bd"/>
            <path id="Trazado_995487" data-name="Trazado 995487" d="M1366.745,221.574l3.545,53.587,50.638-19.176h0a53.786,53.786,0,0,0-54.183-34.411" transform="translate(-1157.74 -187.566)" fill="#bde6e5"/>
            <path id="Trazado_995488" data-name="Trazado 995488" d="M86.062,1086c10.9,16.025,25.264,23.57,32.087,16.852a9.463,9.463,0,0,0,1.2-1.455,10.1,10.1,0,0,0,.576-.968c4.284-8.051.624-24.37-9.16-38.749-10.9-16.025-29.729-28.56-36.552-21.842s.947,30.141,11.845,46.162" transform="translate(-60.696 -879.256)" fill="#9eb37a"/>
            <path id="Trazado_995489" data-name="Trazado 995489" d="M18.761,1255.135c11.758,8.028,24.936,9.2,29.434,2.608s-1.387-18.437-13.144-26.465-29.485-11.393-33.983-4.8S7,1247.107,18.761,1255.135" transform="translate(0 -1035.96)" fill="#809773"/>
            <path id="Trazado_995490" data-name="Trazado 995490" d="M987.324,1239.156c-6.424,9.447-14.893,13.9-18.916,9.934a5.587,5.587,0,0,1-.71-.858,5.912,5.912,0,0,1-.34-.571c-2.525-4.746-.368-14.367,5.4-22.843,6.425-9.447,17.526-16.837,21.548-12.876s-.559,17.768-6.983,27.213" transform="translate(-818.545 -1025.685)" fill="#9eb37a"/>
            <path id="Trazado_995491" data-name="Trazado 995491" d="M1028.109,1338.863c-6.931,4.733-14.7,5.421-17.352,1.537s.817-10.869,7.749-15.6,17.382-6.716,20.034-2.832-3.5,12.164-10.43,16.9" transform="translate(-855.436 -1118.064)" fill="#809773"/>
            <path id="Trazado_995492" data-name="Trazado 995492" d="M571.021,795.63l-.411-80.957a97.8,97.8,0,0,0-5.52-31.9l-17.629-6.92H519.617l-11.251,3.541L504.3,795.63Z" transform="translate(-427.177 -572.499)" fill="#f8cf94"/>
            <g id="Grupo_1177351" data-name="Grupo 1177351" transform="translate(81.465 125.09)" opacity="0.44">
              <g id="Grupo_1177350" data-name="Grupo 1177350">
                <g id="Grupo_1177349" data-name="Grupo 1177349" clip-path="url(#clip-path-3)">
                  <rect id="Rectángulo_454908" data-name="Rectángulo 454908" width="65.244" height="5.309" transform="translate(0)" fill="#fff"/>
                </g>
              </g>
            </g>
            <g id="Grupo_1177354" data-name="Grupo 1177354" transform="translate(80.213 139.469)" opacity="0.44">
              <g id="Grupo_1177353" data-name="Grupo 1177353">
                <g id="Grupo_1177352" data-name="Grupo 1177352" clip-path="url(#clip-path-3)">
                  <rect id="Rectángulo_454910" data-name="Rectángulo 454910" width="65.244" height="5.309" fill="#fff"/>
                </g>
              </g>
            </g>
            <g id="Grupo_1177357" data-name="Grupo 1177357" transform="translate(80.213 153.848)" opacity="0.44">
              <g id="Grupo_1177356" data-name="Grupo 1177356">
                <g id="Grupo_1177355" data-name="Grupo 1177355" clip-path="url(#clip-path-3)">
                  <rect id="Rectángulo_454912" data-name="Rectángulo 454912" width="65.244" height="5.309" fill="#fff"/>
                </g>
              </g>
            </g>
            <g id="Grupo_1177360" data-name="Grupo 1177360" transform="translate(80.213 168.228)" opacity="0.44">
              <g id="Grupo_1177359" data-name="Grupo 1177359">
                <g id="Grupo_1177358" data-name="Grupo 1177358" clip-path="url(#clip-path-3)">
                  <rect id="Rectángulo_454914" data-name="Rectángulo 454914" width="65.244" height="5.309" fill="#fff"/>
                </g>
              </g>
            </g>
            <g id="Grupo_1177363" data-name="Grupo 1177363" transform="translate(81.465 182.607)" opacity="0.44">
              <g id="Grupo_1177362" data-name="Grupo 1177362">
                <g id="Grupo_1177361" data-name="Grupo 1177361" clip-path="url(#clip-path-3)">
                  <rect id="Rectángulo_454916" data-name="Rectángulo 454916" width="65.244" height="5.309" transform="translate(0)" fill="#fff"/>
                </g>
              </g>
            </g>
            <g id="Grupo_1177366" data-name="Grupo 1177366" transform="translate(81.465 196.986)" opacity="0.44">
              <g id="Grupo_1177365" data-name="Grupo 1177365">
                <g id="Grupo_1177364" data-name="Grupo 1177364" clip-path="url(#clip-path-3)">
                  <rect id="Rectángulo_454918" data-name="Rectángulo 454918" width="65.244" height="5.309" transform="translate(0)" fill="#fff"/>
                </g>
              </g>
            </g>
            <g id="Grupo_1177369" data-name="Grupo 1177369" transform="translate(83.809 211.365)" opacity="0.44">
              <g id="Grupo_1177368" data-name="Grupo 1177368">
                <g id="Grupo_1177367" data-name="Grupo 1177367" clip-path="url(#clip-path-3)">
                  <rect id="Rectángulo_454920" data-name="Rectángulo 454920" width="65.244" height="5.309" transform="translate(0)" fill="#fff"/>
                </g>
              </g>
            </g>
            <path id="Trazado_995493" data-name="Trazado 995493" d="M560.043,277.515c-7.935-11.5-10.571-17.6-8.594-32.757s8.979-16.558,11.78-16.229,4.2,3.213,4.2,3.213,5.437-7.661,13.1-7,8.238,6.014,8.238,6.014,7.085-3.542,10.956,1.318-.185,14.416-5.859,18.453-33.821,26.991-33.821,26.991" transform="translate(-466.588 -190.338)" fill="#2f282e"/>
            <path id="Trazado_995494" data-name="Trazado 995494" d="M579.278,482.729l-1.854,29.533-4.886,1.538s8.841,13.908,20.332,14.031,19.39-12.825,19.39-12.825l-6.992-2.744-1.153-13.1Z" transform="translate(-484.985 -408.909)" fill="#a16652"/>
            <path id="Trazado_995495" data-name="Trazado 995495" d="M597.246,427.563c.619,3.563-.591,6.749-2.7,7.115s-4.325-2.224-4.944-5.787.591-6.749,2.7-7.115,4.325,2.224,4.944,5.787" transform="translate(-499.3 -357.248)" fill="#a16652"/>
            <path id="Trazado_995496" data-name="Trazado 995496" d="M606.069,450.083a.278.278,0,0,1-.256-.386,1.781,1.781,0,0,1,2.3-.678.278.278,0,0,1-.193.521c-.675-.25-1.4-.079-1.593.373a.279.279,0,0,1-.256.17" transform="translate(-513.153 -380.228)" fill="#884f3f"/>
            <path id="Trazado_995497" data-name="Trazado 995497" d="M607.788,436.588a.279.279,0,0,1-.275-.319c.372-2.466-.264-4.105-2-5.158a.278.278,0,0,1,.288-.476c1.926,1.167,2.666,3.038,2.262,5.716a.279.279,0,0,1-.275.237" transform="translate(-512.803 -364.747)" fill="#884f3f"/>
            <path id="Trazado_995498" data-name="Trazado 995498" d="M1408.447,355.087V349.47l-4.335-8.1h3.562l1.383,3.3c.427,1,.733,1.73,1.058,2.625h.041c.305-.855.631-1.648,1.038-2.625l1.384-3.3h3.48l-4.518,8v5.718Z" transform="translate(-1189.393 -289.168)" fill="#3ca8b1"/>
            <path id="Trazado_995499" data-name="Trazado 995499" d="M1497.825,349.288h-5.047v3.256h5.637v2.544h-8.73V341.372h8.445v2.544h-5.352v2.849h5.047Z" transform="translate(-1261.88 -289.168)" fill="#3ca8b1"/>
            <path id="Trazado_995500" data-name="Trazado 995500" d="M1557.786,350.765a7.837,7.837,0,0,0,3.439.855c1.425,0,2.177-.59,2.177-1.485,0-.855-.651-1.343-2.3-1.913-2.279-.814-3.785-2.076-3.785-4.07,0-2.34,1.974-4.111,5.189-4.111a8.022,8.022,0,0,1,3.5.692l-.692,2.483a6.415,6.415,0,0,0-2.849-.651c-1.343,0-1.994.631-1.994,1.323,0,.875.753,1.262,2.544,1.933,2.422.9,3.541,2.157,3.541,4.09,0,2.3-1.75,4.253-5.515,4.253a8.951,8.951,0,0,1-3.887-.855Z" transform="translate(-1319.032 -288.041)" fill="#3ca8b1"/>
            <path id="Trazado_995501" data-name="Trazado 995501" d="M1089.063,529.5V517.2h3.248l2.555,4.507a38.824,38.824,0,0,1,2.007,4.215h.036a50.84,50.84,0,0,1-.219-5.146V517.2h2.555v12.3h-2.92l-2.628-4.744a41.789,41.789,0,0,1-2.135-4.343h-.073c.091,1.642.128,3.376.128,5.383v3.7Z" transform="translate(-922.522 -438.111)" fill="#87ece9"/>
            <path id="Trazado_995502" data-name="Trazado 995502" d="M1179.519,522.012c0,4.051-2.427,6.478-6.04,6.478-3.632,0-5.785-2.756-5.785-6.278,0-3.686,2.372-6.442,5.986-6.442,3.777,0,5.839,2.828,5.839,6.241m-8.887.146c0,2.427,1.132,4.124,2.993,4.124,1.879,0,2.956-1.788,2.956-4.179,0-2.227-1.04-4.124-2.956-4.124-1.9,0-2.993,1.788-2.993,4.179" transform="translate(-989.128 -436.898)" fill="#87ece9"/>
            <path id="Trazado_995503" data-name="Trazado 995503" d="M1279.884,767.747a25.985,25.985,0,0,1-4.5,1.978,10,10,0,0,0-1.872.248h0a.625.625,0,0,0-.624.206c-.188.166-3.013,2.452-5.621,4.58-2.353,1.918-5.542,4.629-5.542,4.629l-8.9-12.121s12.466-6.289,13.637-7.436.679-4.184,1.2-6.629a14.4,14.4,0,0,1,1.591-4.2,16.243,16.243,0,0,1,.934-2.587,15.66,15.66,0,0,0,1.8-3.75,2.042,2.042,0,0,0,.055-.307c.074-.909-.14-2.535.535-2.879a1.884,1.884,0,0,1,1.087-.121,2.32,2.32,0,0,1,1.912,2.266c.3,2.411-.742,3.387-.942,4.132-.087.325-.4,1.293-.646,2.343h0c-.288,1.228-.492,2.569-.143,3.124a.535.535,0,0,0,.076.1.394.394,0,0,0,.051.049c.914.753,2.739.129,3.792-.5.027-.017.056-.033.086-.048s.09-.049.139-.072c1.172-.572,3.6-1,4.071-1.363a40.1,40.1,0,0,1,3.253-2.479c1.322-.837,5.632-4.463,6.672-5s2.57-1.687,3.525-.492c.941,1.179-.265,2.141-.985,2.817-.578.544-8.284,6.911-8.284,6.911s.541-.073,1.052,1.158-.965,3.206-.965,3.206a2.581,2.581,0,0,1,.5,1.551c-.025.9-.826,1.824-.711,2.161a5.464,5.464,0,0,1,.136,2.937,5.984,5.984,0,0,1-1.778,2.774,41.443,41.443,0,0,1-4.587,2.815" transform="translate(-1061.237 -626.273)" fill="#a16652"/>
            <path id="Trazado_995504" data-name="Trazado 995504" d="M905.312,833.96h13.345v-22.9s14.581-5.931,30.645-20.265A137.711,137.711,0,0,0,974.757,759.9l-11.368-15.57-27.926,14.087a77.642,77.642,0,0,0-14.334-23.478c-9.885-10.874-19.277-13.839-19.277-13.839Z" transform="translate(-763.939 -610.83)" fill="#ffa514"/>
            <path id="Trazado_995505" data-name="Trazado 995505" d="M1008.665,1156.249a.556.556,0,0,1-.556-.556v-27.185a.556.556,0,1,1,1.112,0v27.185a.556.556,0,0,1-.556.556" transform="translate(-853.947 -955.464)" fill="#dc880e"/>
            <path id="Trazado_995506" data-name="Trazado 995506" d="M749.25,951.171a25.989,25.989,0,0,1-4.718,1.389,10,10,0,0,0-1.888.008h0a.625.625,0,0,0-.645.125c-.208.141-3.3,2.049-6.157,3.828-2.578,1.6-6.086,3.887-6.086,3.887l-7.289-13.155s13.164-4.653,14.472-5.642,1.205-4.064,2.035-6.422a14.4,14.4,0,0,1,2.111-3.959,16.246,16.246,0,0,1,1.255-2.447,15.663,15.663,0,0,0,2.263-3.49,2.033,2.033,0,0,0,.093-.3c.189-.892.184-2.532.9-2.788a1.885,1.885,0,0,1,1.094.018,2.32,2.32,0,0,1,1.608,2.491c-.005,2.43-1.167,3.265-1.46,3.979-.128.311-.559,1.232-.938,2.242h0c-.442,1.181-.815,2.485-.54,3.08a.536.536,0,0,0,.063.106.378.378,0,0,0,.044.055c.81.862,2.7.476,3.826-.018.029-.013.059-.026.091-.037s.1-.037.147-.054c1.235-.418,3.7-.538,4.211-.835a40.075,40.075,0,0,1,3.542-2.046c1.417-.663,6.154-3.711,7.253-4.111s2.764-1.346,3.559-.04c.784,1.289-.535,2.09-1.335,2.669-.642.466-9.1,5.8-9.1,5.8s.546,0,.9,1.282-1.365,3.058-1.365,3.058a2.582,2.582,0,0,1,.3,1.6c-.139.889-1.052,1.7-.98,2.053a5.464,5.464,0,0,1-.238,2.93,5.985,5.985,0,0,1-2.116,2.526,41.482,41.482,0,0,1-4.908,2.209" transform="translate(-611.985 -781.121)" fill="#a16652"/>
            <path id="Trazado_995507" data-name="Trazado 995507" d="M281.753,815.245H246.5l2.158-20.346s-17.941-6.341-13.032-35.012c7.743-45.226,44.436-60.879,44.436-60.879l1.7,57.583a145.461,145.461,0,0,1,14.5-4.284c8.732-2.142,21.913-1.483,21.913-1.483l8.567,17.794s-14,13.51-24.219,19.936a102.032,102.032,0,0,1-20.43,9.721Z" transform="translate(-198.87 -592.114)" fill="#ffa514"/>
            <path id="Trazado_995508" data-name="Trazado 995508" d="M441.419,1082.224a.556.556,0,0,1-.362-.979c.316-.27,7.821-6.646,15.082-9.285a.556.556,0,1,1,.38,1.045c-7.068,2.57-14.663,9.021-14.739,9.085a.554.554,0,0,1-.361.134" transform="translate(-373.446 -908.006)" fill="#dc880e"/>
            <path id="Trazado_995509" data-name="Trazado 995509" d="M346.1,1327.99c-8.607,0-18.172-1.909-23.862-4.5a.556.556,0,0,1,.461-1.012c7.9,3.6,23.418,5.854,33.059,3.344a.556.556,0,0,1,.28,1.076,40.332,40.332,0,0,1-9.938,1.091" transform="translate(-272.687 -1120.2)" fill="#dc880e"/>
            <path id="Trazado_995510" data-name="Trazado 995510" d="M660.551,536.029s-5.932,2.564-13.794-2.812c-8.264-5.651-8.638-18.235-8.638-18.235L660.3,533.137Z" transform="translate(-540.536 -436.23)" fill="#884f3f"/>
            <path id="Trazado_995511" data-name="Trazado 995511" d="M656.328,317.08s-7.785,1.648-13.469,6.8a28.456,28.456,0,0,0-7.661,12.538s7.661,12.175,18.906,11.31,12.357-5.313,12.357-5.313a35.727,35.727,0,0,0-1.606-14.7c-2.389-6.59-8.526-10.627-8.526-10.627" transform="translate(-538.063 -268.591)" fill="#a16652"/>
            <path id="Trazado_995512" data-name="Trazado 995512" d="M658.358,472.879c10.484-1.2,10.416-14.512,9.51-17.477a40.1,40.1,0,0,0-2.43-5.89s-.726,2.243-8.526,3.666-22.736-9.663-22.736-9.663-3.9,32.59,24.183,29.364" transform="translate(-537.039 -375.692)" fill="#2f282e"/>
            <path id="Trazado_995513" data-name="Trazado 995513" d="M694.5,528.337l12.616,3.227a6.825,6.825,0,0,1-5.92,3.6c-4.315.134-6.7-6.831-6.7-6.831" transform="translate(-588.295 -447.543)" fill="#fff"/>
            <g id="Grupo_1177372" data-name="Grupo 1177372" transform="translate(102.083 66.666)" opacity="0.7">
              <g id="Grupo_1177371" data-name="Grupo 1177371">
                <g id="Grupo_1177370" data-name="Grupo 1177370" clip-path="url(#clip-path-10)">
                  <path id="Trazado_995514" data-name="Trazado 995514" d="M676.684,441.964c-.719,1.245-3.3,1.1-5.775-.329s-3.891-3.592-3.172-4.837,3.3-1.1,5.775.329,3.891,3.592,3.172,4.837" transform="translate(-667.55 -435.952)" fill="#884f3f"/>
                </g>
              </g>
            </g>
            <path id="Trazado_995515" data-name="Trazado 995515" d="M709.7,390.895a.554.554,0,0,0,.132-.985,6.3,6.3,0,0,0-5-.512,6.8,6.8,0,0,0-4.294,2.775.554.554,0,0,0,.982.515,5.878,5.878,0,0,1,3.584-2.215,5.216,5.216,0,0,1,4.106.357.553.553,0,0,0,.485.065" transform="translate(-593.363 -329.62)" fill="#2f282e"/>
            <path id="Trazado_995516" data-name="Trazado 995516" d="M807.112,432.2h-3.675a.8.8,0,1,1,0-1.6h3.675a.8.8,0,0,1,0,1.6" transform="translate(-679.895 -364.748)" fill="#2f282e"/>
            <path id="Trazado_995517" data-name="Trazado 995517" d="M720.23,432.236h-4.9a.794.794,0,1,1,0-1.588h4.9a.794.794,0,1,1,0,1.588" transform="translate(-605.269 -364.792)" fill="#2f282e"/>
            <g id="Grupo_1177375" data-name="Grupo 1177375" transform="translate(116.55 73.8)" opacity="0.47">
              <g id="Grupo_1177374" data-name="Grupo 1177374">
                <g id="Grupo_1177373" data-name="Grupo 1177373" clip-path="url(#clip-path-11)">
                  <path id="Trazado_995518" data-name="Trazado 995518" d="M765.645,485.582c1.943-.023,3.453-1.075,3.437-2.394a.592.592,0,0,0-1.184.014c.007.552-.962,1.18-2.267,1.2s-2.288-.589-2.295-1.141a.592.592,0,1,0-1.184.014c.016,1.319,1.55,2.334,3.493,2.311" transform="translate(-762.152 -482.602)" fill="#803b34"/>
                </g>
              </g>
            </g>
            <path id="Trazado_995519" data-name="Trazado 995519" d="M283.384,1461.842H126.714a1.633,1.633,0,0,1-1.628-1.628v-.917a1.633,1.633,0,0,1,1.628-1.628h156.67a1.633,1.633,0,0,1,1.628,1.628v.917a1.633,1.633,0,0,1-1.628,1.628" transform="translate(-105.958 -1234.76)" fill="#1f496a"/>
          </g>
        </g>
      </g>
    </g>
  </g>
</svg>
