<svg xmlns="http://www.w3.org/2000/svg" xmlns:xlink="http://www.w3.org/1999/xlink" width="84" height="84" viewBox="0 0 84 84">
  <defs>
    <clipPath id="clip-path">
      <rect id="Rect치ngulo_454843" data-name="Rect치ngulo 454843" width="66" height="66" rx="5" transform="translate(195 2241.102)" fill="#604161"/>
    </clipPath>
  </defs>
  <g id="Grupo_1177285" data-name="Grupo 1177285" transform="translate(-186 -2232.102)">
    <rect id="Rect치ngulo_402006" data-name="Rect치ngulo 402006" width="84" height="84" rx="5" transform="translate(186 2232.102)" fill="#f0a3f3"/>
    <g id="Enmascarar_grupo_1119194" data-name="Enmascarar grupo 1119194" clip-path="url(#clip-path)">
      <g id="tipos-de-mensajes" transform="translate(195 2241.102)">
        <g id="Grupo_1177284" data-name="Grupo 1177284">
          <g id="Grupo_1177283" data-name="Grupo 1177283">
            <path id="Trazado_995159" data-name="Trazado 995159" d="M17.235,51.61h.25a.967.967,0,1,0,0-1.934h-.25a.967.967,0,1,0,0,1.934Z" fill="#604161"/>
            <path id="Trazado_995160" data-name="Trazado 995160" d="M13.481,51.61h.25a.967.967,0,1,0,0-1.934h-.25a.967.967,0,1,0,0,1.934Z" fill="#604161"/>
            <path id="Trazado_995161" data-name="Trazado 995161" d="M19.372,53.714a.967.967,0,0,0-1.895-.385,2.162,2.162,0,0,1-4.236,0,.967.967,0,0,0-1.895.385,4.1,4.1,0,0,0,8.026,0Z" fill="#604161"/>
            <path id="Trazado_995162" data-name="Trazado 995162" d="M37.252,30.713h.582a2.213,2.213,0,0,0,1.846-.988l2.594-3.891a.284.284,0,0,1,.237-.127H57.275a.967.967,0,0,0,0-1.934H42.51a2.213,2.213,0,0,0-1.846.988L38.07,28.653a.284.284,0,0,1-.237.127h-.582a.285.285,0,0,1-.284-.284V2.218a.285.285,0,0,1,.284-.284h26.53a.285.285,0,0,1,.284.284V23.49a.285.285,0,0,1-.284.284H61.029a.967.967,0,1,0,0,1.934h2.753A2.221,2.221,0,0,0,66,23.49V2.218A2.22,2.22,0,0,0,63.782,0H37.252a2.221,2.221,0,0,0-2.218,2.218V28.5A2.22,2.22,0,0,0,37.252,30.713Z" fill="#604161"/>
            <path id="Trazado_995163" data-name="Trazado 995163" d="M59.868,57.275V48.516a.967.967,0,0,0-1.934,0v8.759a.967.967,0,0,0,1.934,0Z" fill="#604161"/>
            <path id="Trazado_995164" data-name="Trazado 995164" d="M48.588,6.642a2.191,2.191,0,0,0-1.244-.386h-.127a2.2,2.2,0,0,0-2.2,2.2v8.983a2.2,2.2,0,0,0,3.448,1.812l6.6-4.545a2.2,2.2,0,0,0,0-3.627Zm5.38,6.471-6.6,4.545a.266.266,0,0,1-.418-.219V8.456a.267.267,0,0,1,.266-.266h.127a.265.265,0,0,1,.151.047l6.473,4.437a.267.267,0,0,1,0,.439Z" fill="#604161"/>
            <path id="Trazado_995165" data-name="Trazado 995165" d="M28.748,35.036h-.582a2.213,2.213,0,0,0-1.846.988l-2.594,3.891a.284.284,0,0,1-.237.127H8.475a.967.967,0,1,0,0,1.934H23.49a2.213,2.213,0,0,0,1.846-.988L27.93,37.1a.284.284,0,0,1,.237-.127h.582a.285.285,0,0,1,.284.284V63.782a.285.285,0,0,1-.284.284H2.218a.285.285,0,0,1-.285-.284V42.26a.285.285,0,0,1,.284-.284h2.5a.967.967,0,1,0,0-1.934h-2.5A2.221,2.221,0,0,0,0,42.26V63.782A2.221,2.221,0,0,0,2.218,66h26.53a2.221,2.221,0,0,0,2.218-2.218V37.254A2.221,2.221,0,0,0,28.748,35.036Z" fill="#604161"/>
            <path id="Trazado_995166" data-name="Trazado 995166" d="M6.724,9.441H24.242a.967.967,0,0,0,0-1.934H6.724a.967.967,0,0,0,0,1.934Z" fill="#604161"/>
            <path id="Trazado_995167" data-name="Trazado 995167" d="M6.724,16.949h9.012a.967.967,0,0,0,0-1.934H6.724a.967.967,0,0,0,0,1.934Z" fill="#604161"/>
            <path id="Trazado_995168" data-name="Trazado 995168" d="M63.782,40.041H42.51a.284.284,0,0,1-.237-.127l-2.594-3.891a2.214,2.214,0,0,0-1.846-.988h-.582a2.221,2.221,0,0,0-2.218,2.218V57.275a.967.967,0,0,0,1.934,0V37.254a.285.285,0,0,1,.284-.284h.582a.284.284,0,0,1,.237.127l2.594,3.891a2.214,2.214,0,0,0,1.846.988H63.782a.285.285,0,0,1,.284.284V63.782a.285.285,0,0,1-.284.284H37.252a.285.285,0,0,1-.284-.284V61.029a.967.967,0,1,0-1.934,0v2.753A2.221,2.221,0,0,0,37.252,66h26.53A2.221,2.221,0,0,0,66,63.782V42.26A2.221,2.221,0,0,0,63.782,40.041Z" fill="#604161"/>
            <path id="Trazado_995169" data-name="Trazado 995169" d="M56.614,54.355v-2.92a.967.967,0,0,0-1.934,0v2.92a.967.967,0,0,0,1.934,0Z" fill="#604161"/>
            <path id="Trazado_995170" data-name="Trazado 995170" d="M23.332,52.9a7.849,7.849,0,1,0-7.849,7.849A7.858,7.858,0,0,0,23.332,52.9Zm-13.764,0a5.915,5.915,0,1,1,5.915,5.915A5.922,5.922,0,0,1,9.568,52.9Z" fill="#604161"/>
            <path id="Trazado_995171" data-name="Trazado 995171" d="M28.748,0H2.218A2.221,2.221,0,0,0,0,2.218V5.972a.967.967,0,0,0,1.934,0V2.218a.285.285,0,0,1,.285-.284h26.53a.285.285,0,0,1,.284.284V28.5a.285.285,0,0,1-.284.284h-.582a.284.284,0,0,1-.237-.127l-2.594-3.891a2.213,2.213,0,0,0-1.846-.988H2.218a.285.285,0,0,1-.284-.284V9.726A.967.967,0,0,0,0,9.726V23.49a2.22,2.22,0,0,0,2.218,2.218H23.49a.284.284,0,0,1,.237.127l2.594,3.891a2.213,2.213,0,0,0,1.846.988h.582A2.221,2.221,0,0,0,30.966,28.5V2.218A2.22,2.22,0,0,0,28.748,0Z" fill="#604161"/>
            <path id="Trazado_995172" data-name="Trazado 995172" d="M6.724,13.2H24.242a.967.967,0,1,0,0-1.934H6.724a.967.967,0,0,0,0,1.934Z" fill="#604161"/>
            <path id="Trazado_995173" data-name="Trazado 995173" d="M43.384,56.991h2.235l4.89,2.934a1.718,1.718,0,0,0,2.6-1.473V47.339a1.718,1.718,0,0,0-2.6-1.473L45.619,48.8H43.384a2.221,2.221,0,0,0-2.218,2.218v3.754a2.221,2.221,0,0,0,2.218,2.218Zm3.469-6.676,4.323-2.594V58.07l-4.323-2.594ZM43.1,54.772V51.019a.285.285,0,0,1,.284-.284H44.92v4.323H43.384A.285.285,0,0,1,43.1,54.772Z" fill="#604161"/>
          </g>
        </g>
      </g>
    </g>
  </g>
</svg>
