<svg xmlns="http://www.w3.org/2000/svg" width="292.289" height="356" viewBox="0 0 292.289 356">
  <g id="Grupo_1177275" data-name="Grupo 1177275" transform="translate(-601.711 -3478)">
    <path id="Rectángulo_454692" data-name="Rectángulo 454692" d="M50,0H242a50,50,0,0,1,50,50V356a0,0,0,0,1,0,0H0a0,0,0,0,1,0,0V50A50,50,0,0,1,50,0Z" transform="translate(601.711 3478)" fill="#f9dafa"/>
    <g id="Grupo_1177273" data-name="Grupo 1177273" transform="translate(577.389 3552.032)">
      <g id="Grupo_1177274" data-name="Grupo 1177274" transform="translate(24.611 0.005)">
        <path id="Trazado_995063" data-name="Trazado 995063" d="M1296.5,1353.877h72.775l9.226,7.535h-90.452Z" transform="translate(-1086.505 -1111.298)" fill="#d1c6e2" fill-rule="evenodd"/>
        <path id="Trazado_995064" data-name="Trazado 995064" d="M171.623,1353.653H244.4l9.226,7.535H163.179Z" transform="translate(-163.179 -1111.114)" fill="#d1c6e2" fill-rule="evenodd"/>
        <path id="Trazado_995065" data-name="Trazado 995065" d="M1177.045,238.623l-.341-.628c-5.616,1.932-9.266,4.3-7.963,6.6.929,2.882,3.971,4.035,6.686,6.8a9.86,9.86,0,0,1,3.724-2.968q1.193-4.743-.074-7.565l-1.832-1.859Z" transform="translate(-988.354 -195.353)" fill="#fab688" fill-rule="evenodd"/>
        <path id="Trazado_995066" data-name="Trazado 995066" d="M1632.46,1330.432c4.7-1.658,5.074-4.078,7.608-5.268,2.554-1.19,2.841-3.3.354-5.616-1.845,1.477-4.132,3.283-5.342,2.327-.809-.642-3.55-.6-4.091.334-2.387,5.549-5.71,3.8-6.365,6.318-.08,3.363,5.676,2.661,7.836,1.906" transform="translate(-1362.77 -1083.12)" fill="#1b2452" fill-rule="evenodd"/>
        <path id="Trazado_995067" data-name="Trazado 995067" d="M1424.36,1346.469c8.678-.134,15.163-.241,18.159-1.19,3.235-1.016,2.561-2.988.709-6.137-8.177,3.757-6-.776-9.828-.2q-4.032,3.25-11.941,4.346c-2.226,1.652-1.323,3.116,2.9,3.183" transform="translate(-1195.04 -1098.996)" fill="#1b2452" fill-rule="evenodd"/>
        <path id="Trazado_995068" data-name="Trazado 995068" d="M1493.729,80.321c-1.384.1-3.571-.164-3.958-.655a17.4,17.4,0,0,1-2.875-5.058q.432-1.229.9-3.1,8.013-5.44,2.193-8.05c-.782.438-1.759,1.788-2.915,4.048a2.389,2.389,0,0,1-2.106-1.417,70.359,70.359,0,0,0,2.153-9.3c-2.634-3.911-8.785-4.466-16.928-3.41-.381,2.166-.688,4.463-.936,6.886-1.437,1.33-1.25,6.248.08,11.917q-1,4.838,5.97,5.282a12.483,12.483,0,0,1-.114,2.7,2,2,0,0,1-1.1.689q-.23,7.983,19.636-.532" transform="translate(-1234.422 -43.426)" fill="#fab688" fill-rule="evenodd"/>
        <path id="Trazado_995069" data-name="Trazado 995069" d="M1458.916,9.953c8.143-1.056,14.294-.5,16.928,3.41a70.372,70.372,0,0,1-2.153,9.3,2.388,2.388,0,0,0,2.106,1.418c1.157-2.26,2.133-3.611,2.915-4.048q5.817,2.607-2.193,8.05-.471,1.875-.9,3.1c4.807-1.076,8.825-5.372,9.387-7.231,5.6-11.045-.642-15.708-3.991-17.41C1479.542-4.391,1463.656,5.28,1455.7,0c-3.163,4.369.749,9.848,3.216,9.948" transform="translate(-1223.144 -0.005)" fill="#733e19" fill-rule="evenodd"/>
        <path id="Trazado_995070" data-name="Trazado 995070" d="M1206.185,225.3q6.047,25.894,21.248,40.188,5.476-1.66,9.714-7.488-.221,18.733.936,37.286,11.092,5.26,29.457-.682l4.961-6.114c1.277-.247,4.172,1.163,5.563,3.309,11.626-8.872,19.469-18.406,24.089-27.879q-1.866-30.532-8.29-48.181-3.249-4.989-15.25-9.815-19.877,8.519-19.636.532a119.059,119.059,0,0,0-15.5,6.789q-8.053,6.118-13.719,33.168-9.227-11.553-19.128-24.5a9.373,9.373,0,0,0-4.439,3.383m69,57.675q-5.787-19.009,6.378-46.907,3.069,13.764,6.619,27.094-4.132,1.961-13,19.813" transform="translate(-1019.305 -169.028)" fill="#ec1c24" fill-rule="evenodd"/>
        <path id="Trazado_995071" data-name="Trazado 995071" d="M1421.8,692.9q-2.818-.216-9.079-4.887-18.362,5.942-29.458.682c-1.317,20.823,3.8,42.652,10.3,66.981,6.358,10.684,6.091,18.185,9.48,42.829q2.818,2.026,9.327-.582c1.377-21.013.428-34.926-5.028-42.769.856-7.047-1.377-24.363-1.478-35.234,3.965,8.839,6.686,20.793,11.854,32.854,6.3,14.689,10.677,30.407,13.993,44.747a15.371,15.371,0,0,0,9.875-1.2q-5.285-35.361-11.719-48.666.25-34.759-6.619-62.445a23.7,23.7,0,0,0-1.444,7.692" transform="translate(-1164.482 -562.435)" fill="#13385f" fill-rule="evenodd"/>
        <path id="Trazado_995072" data-name="Trazado 995072" d="M1548.619,672.721q6.257,4.669,9.079,4.887a23.7,23.7,0,0,1,1.444-7.692c-1.391-2.146-4.286-3.557-5.562-3.31Z" transform="translate(-1300.384 -547.146)" fill="#fab688" fill-rule="evenodd"/>
        <path id="Trazado_995073" data-name="Trazado 995073" d="M1299.63,359.93q.612-18.187,2.921-29.825-5.887,24.71-11.406,32.794-3.489-.111-8.838-4.135a60.926,60.926,0,0,0,7.609,8.655q5.475-1.66,9.714-7.488" transform="translate(-1081.788 -270.96)" fill="#c8252c" fill-rule="evenodd"/>
        <path id="Trazado_995074" data-name="Trazado 995074" d="M1561.246,426.577a48.623,48.623,0,0,1,2.681-5.516q-5.786-19.009,6.378-46.907-17.691,25.152-10.035,53.626Z" transform="translate(-1308.05 -307.116)" fill="#c8252c" fill-rule="evenodd"/>
        <path id="Trazado_995075" data-name="Trazado 995075" d="M1512.783,183.666a13.737,13.737,0,0,1-5.355,1.126,17.7,17.7,0,0,1-.04,2.2,8.439,8.439,0,0,0,5.4-3.323" transform="translate(-1266.54 -150.759)" fill="#ed7d57" fill-rule="evenodd"/>
        <path id="Trazado_995076" data-name="Trazado 995076" d="M1504.871,1313.58a13,13,0,0,1-.495-4.64q-4.964,1.785-7.575.629a8.323,8.323,0,0,1-.421,3.4c3.009-.1,1.638,3.543,8.491.615m21.869-2.033a4.268,4.268,0,0,1,3.076.281c1.083.856,3.029-.495,4.74-1.845a18.864,18.864,0,0,1-.735-2.674,15.025,15.025,0,0,1-6.492,1.157,6.24,6.24,0,0,1-.589,3.082" transform="translate(-1257.505 -1073.074)" fill="#fab688" fill-rule="evenodd"/>
        <path id="Trazado_995077" data-name="Trazado 995077" d="M1544.41,708.707a16.889,16.889,0,0,1-.127-2.962q-2.818-.216-9.079-4.887-1.494.482-2.928.893a27.71,27.71,0,0,0,12.135,6.957" transform="translate(-1286.968 -575.283)" fill="#3660a8" fill-rule="evenodd"/>
        <path id="Trazado_995079" data-name="Trazado 995079" d="M605.688,6.181c-12.061,0-21.836,6.388-21.836,14.267,0,4.252,2.848,8.066,7.354,10.68a26.282,26.282,0,0,1-8.952,4.653q10.32,1.008,17.069-1.678a32.627,32.627,0,0,0,6.365.615c12.054,0,21.829-6.388,21.829-14.271S617.742,6.181,605.688,6.181" transform="translate(-507.167 -5.074)" fill="#b6a9d2" fill-rule="evenodd"/>
        <path id="Trazado_995080" data-name="Trazado 995080" d="M1068.414,515.949h-37.073a4.162,4.162,0,0,0-4.152,4.152v22.374a4.163,4.163,0,0,0,4.152,4.155h49.515l-8.284-6.742V520.1a4.168,4.168,0,0,0-4.158-4.152" transform="translate(-872.382 -423.505)" fill="#9588c0" fill-rule="evenodd"/>
        <path id="Trazado_995081" data-name="Trazado 995081" d="M1091.036,547.908h-32.085a1.17,1.17,0,0,0,0,2.34h32.085a1.17,1.17,0,0,0,0-2.34m0,16.892h-32.085a1.168,1.168,0,0,0,0,2.337h32.085a1.168,1.168,0,1,0,0-2.337m0-5.633h-32.085a1.168,1.168,0,0,0,0,2.337h32.085a1.168,1.168,0,1,0,0-2.337m0-5.629h-32.085a1.168,1.168,0,0,0,0,2.336h32.085a1.168,1.168,0,1,0,0-2.336" transform="translate(-897.497 -449.738)" fill="#fff" fill-rule="evenodd"/>
        <path id="Trazado_995082" data-name="Trazado 995082" d="M935.678,182.314c2.694-1.621,9.534,4.807,15.27,14.354s8.2,18.6,5.509,20.221-9.534-4.807-15.27-14.355-8.21-18.6-5.509-20.221" transform="translate(-796.367 -149.443)" fill="#38308d" fill-rule="evenodd"/>
        <path id="Trazado_995083" data-name="Trazado 995083" d="M1158.611,119.571l5.609-3.373c1.277-.766,4.011,1.447,6.117,4.948s2.768,6.953,1.5,7.719l-5.616,3.376c1.277-.769.608-4.225-1.491-7.722s-4.847-5.713-6.117-4.947" transform="translate(-980.255 -95.255)" fill="#6251a1" fill-rule="evenodd"/>
        <path id="Trazado_995084" data-name="Trazado 995084" d="M996.241,139.966c-1.945-3.236-4.432-5.375-5.81-5.071a86.522,86.522,0,0,1-37.086,8.7c3.323,1.267,8.5,6.836,13,14.331,4.553,7.578,7.047,14.846,6.532,18.332a87.222,87.222,0,0,1,25.112-28.789c.909-1.069.187-4.272-1.752-7.5" transform="translate(-811.768 -110.702)" fill="#9588c0" fill-rule="evenodd"/>
        <path id="Trazado_995085" data-name="Trazado 995085" d="M989.3,252.432l3.851-2.758c.528.8,1.05,1.635,1.565,2.491.675,1.12,1.3,2.233,1.879,3.33l-4.279,1.952a3.064,3.064,0,0,1-4.012-1,3.029,3.029,0,0,1,1-4.015" transform="translate(-840.135 -204.94)" fill="#6251a1" fill-rule="evenodd"/>
        <path id="Trazado_995086" data-name="Trazado 995086" d="M1157.959,198.726l-2.975,1.788a6.549,6.549,0,0,1,2.674,1.448l1.651-.993a3.885,3.885,0,0,0,1.785-2.414,3.943,3.943,0,0,0-.441-2.975l-3.049-5.068-2.24,1.351,3.042,5.068a1.3,1.3,0,0,1,.147.99,1.315,1.315,0,0,1-.6.806m-10.262,6.044h0a1.971,1.971,0,0,0,1.491,1.106,18.091,18.091,0,0,0,5.362-2.29,4.124,4.124,0,0,0,.715-.5c.047.08.087.161.127.237l-5.843,3.517a3.95,3.95,0,0,1-5.4-1.344l-1.812-3.019c.629-.648,1.264-1.28,1.912-1.906l2.146,3.577a1.32,1.32,0,0,0,.809.592v0a1.273,1.273,0,0,0,.488.026" transform="translate(-966.9 -156.378)" fill="#6251a1" fill-rule="evenodd"/>
        <path id="Trazado_995087" data-name="Trazado 995087" d="M483.444,131.14c6.017-2.153,5.182,2.256,6.311,6.729-2.22,1.26-3.443,2.36-4.272,4.389-1.7-1.253-2.982-.906-4.139-2.647-1.939-2.3-4.372-6.756-1.945-7.074a5.849,5.849,0,0,0,2.841,3.176,13.833,13.833,0,0,0-.622-2.912,10.734,10.734,0,0,0-2.3-3.941c-2.253-.568-3.169-1.247-2.735-2.033q4.182-.762,6.86,4.312" transform="translate(-420.344 -104.023)" fill="#fab688" fill-rule="evenodd"/>
        <path id="Trazado_995088" data-name="Trazado 995088" d="M249.543,663.377c2.975,8.448,5.482,27.646,6.418,57.631.762,14.568-1.33,33.93-4.025,59.389-2.641,1.2-6.559,1.444-9.534,1.357-4.259-35.161-5.175-50.07-3.109-59.817-4.887-10.323-7.849-20.512-10.664-31.209q-2.166,22.454-5.509,35.682-7.592,21.231-22.672,55.665a16.2,16.2,0,0,1-9.36-1.839c4.753-25.112,7.956-51.106,16.139-56-6.238-30.928-3.323-49.053,2.594-60.493q23.758,2.693,39.72-.368" transform="translate(-186.089 -544.518)" fill="#38308d" fill-rule="evenodd"/>
        <path id="Trazado_995089" data-name="Trazado 995089" d="M283.833,221.02c2.006,22.344-2.627,20.472-2.447,51.691q-11.884,2.276-28.094,1.367c.7,3,1.27,5.68,1.692,7.7-2.253-.01-5.743-.05-8.11,3.156-2.307-3.627-4.312-6.99-6.057-10.119-5.516-9.908-8.337-17.487-9.24-23.808-5.743-37.326,3.2-49.538,25.64-50.23,1.471,3.66,9.561,6.034,11.914,5.8,1.658-.963,2.433-3.6,3.771-6.071a41.38,41.38,0,0,1,17.41,8.073,100.472,100.472,0,0,1-8.05-15.565q1.023-3.485,5.636-5.579,35.872,30.552,25.372,38.289-11.182,4.528-29.437-4.7" transform="translate(-217.932 -153.852)" fill="#9588c0" fill-rule="evenodd"/>
        <path id="Trazado_995090" data-name="Trazado 995090" d="M248,1344.391c-7.668.535-14.247,1.083-17.142.542-3.383-.635-2.313-2.641-.8-5.81a11.664,11.664,0,0,0,9.026-.956q3.972,2.678,11.333,3.062c2.186,1.337,1.464,2.761-2.414,3.162M185.706,1347c-4.312-1.117-8.264-2.213-9.908-3.25-2.353-1.484-1.13-2.982,1.05-5.362a11.626,11.626,0,0,0,8.912,1.7c2.427,3.289,10.049,1.711,10.858,3.985,1.03,4.238-8.859,3.456-10.911,2.928" transform="translate(-172.488 -1098.403)" fill="#1b2452" fill-rule="evenodd"/>
        <path id="Trazado_995091" data-name="Trazado 995091" d="M322.769,345.887c-1.825-7.749-4.6-17.654-8.244-23.908,1.431-6.629,1.384-14.976.749-22.9a70.172,70.172,0,0,1,2.9,22.822c3.049,6.415,5.175,14.542,6.632,24.089-.675-.034-1.357-.064-2.039-.1m42.3-57.742q-7.321-8.92-14.414-13.228a40.313,40.313,0,0,1,9.132,5.466q2.417,3.866,5.282,7.762" transform="translate(-287.408 -225.661)" fill="#6251a1" fill-rule="evenodd"/>
        <path id="Trazado_995092" data-name="Trazado 995092" d="M376.291,135.717c-2.353.231-10.443-2.143-11.914-5.8a17.373,17.373,0,0,0,2.6-6.619q-.612-1.038-1.364-2.654-8.213-3.53-3.4-6.916,1.173.391,3.349,3.162a2.2,2.2,0,0,0,1.658-1.655,66.053,66.053,0,0,1-3.584-8.06c1.705-4.008,7.187-5.593,14.756-6.064q1.093,2.848,2.053,6.087c1.538.946,2.233,5.442,2.026,10.818q1.745,4.207-4.493,5.833c.18,1.367,1.163,4.73,2.079,5.8-1.337,2.467-2.113,5.108-3.771,6.071" transform="translate(-325.092 -82.993)" fill="#fab688" fill-rule="evenodd"/>
        <path id="Trazado_995093" data-name="Trazado 995093" d="M346.936,57.2c-7.568.472-13.051,2.056-14.756,6.064a65.97,65.97,0,0,0,3.584,8.06,2.2,2.2,0,0,1-1.658,1.655q-2.176-2.773-3.35-3.162-4.824,3.384,3.4,6.916.752,1.615,1.364,2.654c-4.546-.134-8.946-3.323-9.781-4.911-7.02-9.032-2.173-14.357.562-16.487-.582-10.175,15.518-4.2,21.809-10.373,3.637,3.409,1.05,9.062-1.17,9.584" transform="translate(-293.631 -39.088)" fill="#a14527" fill-rule="evenodd"/>
        <path id="Trazado_995094" data-name="Trazado 995094" d="M361.215,674.01c-.241-1.11-.475-2.113-.682-3,.682.04,1.364.07,2.039.1q.541,3.224,1.043,7.906a11.644,11.644,0,0,0-1.391-.314c-.274-1.3-.6-2.871-.989-4.623l-.02-.07" transform="translate(-325.172 -550.782)" fill="#2c2066" fill-rule="evenodd"/>
        <path id="Trazado_995095" data-name="Trazado 995095" d="M426.02,226.745a21.581,21.581,0,0,0,5.8.227,19.391,19.391,0,0,0,.869,3.309c-2.052-.083-5.623-2.246-6.666-3.537" transform="translate(-378.926 -186.119)" fill="#ed7d57" fill-rule="evenodd"/>
        <path id="Trazado_995096" data-name="Trazado 995096" d="M200.092,1320.356a11.089,11.089,0,0,0-.428,4.125,11.554,11.554,0,0,1-7.455-1.29,15.543,15.543,0,0,0,1.357-4,17.74,17.74,0,0,0,6.525,1.17m45.142,3.236a23.245,23.245,0,0,0,.074-3.657,23.824,23.824,0,0,0,6.351-.909,8.539,8.539,0,0,0,1.357,3.717,11.549,11.549,0,0,1-7.782.849" transform="translate(-187.008 -1082.691)" fill="#f9b08c" fill-rule="evenodd"/>
        <path id="Trazado_995097" data-name="Trazado 995097" d="M329.781,713.6a58.416,58.416,0,0,1,2.166,9.811q-2.427,6.7-6.151,7.541c-2.848-.174-3.443-2.346-4.145-3.878a7.379,7.379,0,0,0,2.868-4.76c-1.571-1.19-1.986-2.46-1.263-3.811-.321-.749-.615-1.421-.889-2.019a6.608,6.608,0,0,1,5.309-2.962c.7,0,1.4.047,2.106.077" transform="translate(-293.257 -585.682)" fill="#fab688" fill-rule="evenodd"/>
        <path id="Trazado_995098" data-name="Trazado 995098" d="M334.86,484.7q22.113-.847,34.626-5.125c.187-1.29.354-2.544.5-3.828q-12.456,3.836-35.2,5.111.08,1.891.074,3.841" transform="translate(-304.038 -390.503)" fill="#373694" fill-rule="evenodd"/>
        <path id="Trazado_995099" data-name="Trazado 995099" d="M329.246,298.483q25.282-.236,36.1-4.787c.04-1.16.06-2.387.047-3.724q-12.215,4.929-36.758,4.486c.234,1.294.448,2.638.615,4.025m20.94-32.028c-2.347.231-10.443-2.143-11.914-5.8-.541.017-1.07.04-1.591.07q2.066,5.942,13.7,7.441a15.235,15.235,0,0,0,4.74-7.545c-.388-.084-.775-.164-1.163-.234-1.337,2.467-2.113,5.108-3.771,6.071" transform="translate(-298.986 -213.731)" fill="#373694" fill-rule="evenodd"/>
        <rect id="Rectángulo_454839" data-name="Rectángulo 454839" width="90.451" height="29.497" transform="translate(201.548 250.114)" fill="#a694c6"/>
        <rect id="Rectángulo_454840" data-name="Rectángulo 454840" width="90.445" height="29.498" transform="translate(0 250.074)" fill="#a694c6"/>
        <path id="Trazado_995100" data-name="Trazado 995100" d="M628.8,71.126a2.477,2.477,0,1,1-2.474,2.477,2.479,2.479,0,0,1,2.474-2.477m26.542,0a2.477,2.477,0,1,1-2.474,2.477,2.479,2.479,0,0,1,2.474-2.477m-8.845,0a2.477,2.477,0,1,1-2.48,2.477,2.473,2.473,0,0,1,2.48-2.477m-8.845,0a2.477,2.477,0,1,1-2.48,2.477,2.478,2.478,0,0,1,2.48-2.477" transform="translate(-543.339 -58.383)" fill="#fff" fill-rule="evenodd"/>
        <path id="Trazado_995101" data-name="Trazado 995101" d="M772.183,47.767,749.832,160.552l20.953-6.666L768.1,208.82l21.622-6.044-4.507,87.008,22.344-112.778-20.953,6.662,2.688-54.933-21.628,6.04Z" transform="translate(-644.719 -39.209)" fill="#9588c0" fill-rule="evenodd"/>
      </g>
    </g>
  </g>
</svg>
