<svg xmlns="http://www.w3.org/2000/svg" width="84" height="73.034" viewBox="0 0 84 73.034">
  <path id="problema" d="M71.933,50.073a22.995,22.995,0,0,0-30.005,0,20.235,20.235,0,0,0-6.872,15.439,23,23,0,0,0,4.48,13.817,1.328,1.328,0,0,0,2.2-1.489,20.558,20.558,0,0,1-4.023-12.328c0-11.487,9.772-18.351,19.219-18.351s19.219,6.864,19.219,18.351c0,6.754-2.773,10.622-5.455,14.364-2.155,3.006-4.376,6.1-4.76,10.429H55.29a1.328,1.328,0,0,0,0,2.656H65.876v2.01a.954.954,0,0,1-.953.953H48.939a.954.954,0,0,1-.953-.953,1.328,1.328,0,0,0-2.656,0,3.615,3.615,0,0,0,2.4,3.4v2.082a3.614,3.614,0,0,0,3.61,3.61H51.5v1.388a3.614,3.614,0,0,0,3.609,3.61h3.65a3.614,3.614,0,0,0,3.61-3.61v-1.388h.155a3.614,3.614,0,0,0,3.609-3.61V98.371a3.615,3.615,0,0,0,2.4-3.4V91.633c0-4.182,2-6.976,4.321-10.21,2.79-3.893,5.953-8.3,5.953-15.912a20.235,20.235,0,0,0-6.872-15.439ZM59.709,105.452a.954.954,0,0,1-.953.953h-3.65a.954.954,0,0,1-.953-.953v-1.388h5.557v1.388Zm3.764-5a.954.954,0,0,1-.953.953H51.341a.954.954,0,0,1-.953-.953V98.58H63.473ZM56.93,81.388a3.842,3.842,0,0,0,3.838-3.838V70.77a6.757,6.757,0,1,0-7.675,0v6.78a3.842,3.842,0,0,0,3.838,3.838Zm-4.1-16.181a4.1,4.1,0,1,1,6,3.638,1.328,1.328,0,0,0-.713,1.177V77.55a1.182,1.182,0,0,1-2.363,0V70.022a1.328,1.328,0,0,0-.713-1.177,4.093,4.093,0,0,1-2.206-3.638ZM30.891,51.061a1.328,1.328,0,0,1,1.814-.486l3.23,1.864a1.328,1.328,0,1,1-1.328,2.3l-3.23-1.864a1.328,1.328,0,0,1-.486-1.814ZM55.6,41.084V37.355a1.328,1.328,0,1,1,2.656,0v3.729a1.328,1.328,0,1,1-2.656,0Zm12.683,2.687,1.865-3.23a1.328,1.328,0,0,1,2.3,1.328L70.586,45.1a1.328,1.328,0,0,1-2.3-1.328Zm-26.875-1.9a1.328,1.328,0,0,1,2.3-1.328l1.864,3.23a1.328,1.328,0,1,1-2.3,1.328ZM26.862,66.095a1.328,1.328,0,0,1,1.328-1.328h3.729a1.328,1.328,0,0,1,0,2.656H28.19A1.328,1.328,0,0,1,26.862,66.095Zm55.621-13.22-3.23,1.864a1.328,1.328,0,1,1-1.328-2.3l3.23-1.864a1.328,1.328,0,1,1,1.328,2.3ZM87,66.095a1.328,1.328,0,0,1-1.328,1.328H81.941a1.328,1.328,0,0,1,0-2.656H85.67A1.328,1.328,0,0,1,87,66.095ZM46.657,92.961h3.812a1.329,1.329,0,0,0,1.04-.5l3.659-4.607a1.328,1.328,0,0,0,0-1.652l-3.659-4.607a1.328,1.328,0,0,0-1.04-.5H26.333a12.421,12.421,0,1,0,0,11.87h7.376a1.328,1.328,0,0,0,.939-.389l2.3-2.3,2.3,2.3a1.328,1.328,0,0,0,1.878,0l2.3-2.3,2.3,2.3a1.328,1.328,0,0,0,.939.389Zm-4.176-5.5-2.3,2.3-2.3-2.3a1.328,1.328,0,0,0-1.878,0L33.159,90.3H25.513a1.328,1.328,0,0,0-1.208.776,9.765,9.765,0,1,1,0-8.11,1.328,1.328,0,0,0,1.208.776H49.828l2.6,3.279-2.6,3.279H47.207l-2.848-2.848a1.328,1.328,0,0,0-1.878,0Zm-29.96-2.48v4.1a1.328,1.328,0,0,1-2.656,0v-4.1a1.328,1.328,0,1,1,2.656,0Z" transform="translate(-2.998 -36.027)" fill="#604161"/>
</svg>
