<svg xmlns="http://www.w3.org/2000/svg" width="82.658" height="84.667" viewBox="0 0 82.658 84.667">
  <g id="confuso" transform="translate(-3.89 -4.94)">
    <path id="Trazado_995102" data-name="Trazado 995102" d="M5.909,59.972a3.177,3.177,0,0,0,1.257.257,3.23,3.23,0,0,0,2.3-.963.593.593,0,0,0,.073-.083L20.763,46.356H38.452V72.468a3.274,3.274,0,0,0,3.266,3.266l28.02.028L80.9,88.561c.028.028.046.055.073.083a3.268,3.268,0,0,0,2.3.963,3.37,3.37,0,0,0,1.257-.248,3.246,3.246,0,0,0,2.019-3.019V37.585a3.274,3.274,0,0,0-3.266-3.266H51.995V8.206A3.274,3.274,0,0,0,48.728,4.94H7.156A3.274,3.274,0,0,0,3.89,8.206V56.953a3.259,3.259,0,0,0,2.019,3.019ZM51.995,43.09V37.484h31.3a.1.1,0,0,1,.1.1V86.331a.082.082,0,0,1-.055.092.083.083,0,0,1-.083,0L72.069,73.6c-.028-.028-.046-.055-.073-.083a3.294,3.294,0,0,0-2.312-.954H41.719a.1.1,0,0,1-.1-.092V46.356h7.1a3.275,3.275,0,0,0,3.275-3.266Zm-10.368.092V37.575a.1.1,0,0,1,.1-.1h7.1V43.08a.1.1,0,0,1-.092.1ZM7.065,8.206a.1.1,0,0,1,.1-.1H48.728a.094.094,0,0,1,.092.1V34.318h-7.1a3.274,3.274,0,0,0-3.266,3.266v5.606H20.763a3.255,3.255,0,0,0-2.312.954.594.594,0,0,0-.073.083L7.2,57.045a.086.086,0,0,1-.083,0c-.064-.028-.064-.055-.064-.092V8.206Z" fill="#5ac1bd"/>
    <path id="Trazado_995103" data-name="Trazado 995103" d="M22.462,29.288a1.572,1.572,0,0,0,1.569-1.5l.376-8.817a1.961,1.961,0,1,0-3.918,0l.4,8.817A1.559,1.559,0,0,0,22.462,29.288Z" transform="translate(-1.369 -0.988)" fill="#5ac1bd"/>
    <path id="Trazado_995104" data-name="Trazado 995104" d="M22.449,36.4a2.142,2.142,0,1,0-2.129-2.129A2.172,2.172,0,0,0,22.449,36.4Z" transform="translate(-1.355 -2.242)" fill="#5ac1bd"/>
    <path id="Trazado_995105" data-name="Trazado 995105" d="M29.9,29.288a1.572,1.572,0,0,0,1.569-1.5l.376-8.817a1.961,1.961,0,1,0-3.918,0l.4,8.817a1.553,1.553,0,0,0,1.569,1.5Z" transform="translate(-1.983 -0.988)" fill="#5ac1bd"/>
    <path id="Trazado_995106" data-name="Trazado 995106" d="M29.889,36.4a2.142,2.142,0,1,0-2.129-2.129A2.148,2.148,0,0,0,29.889,36.4Z" transform="translate(-1.969 -2.242)" fill="#5ac1bd"/>
    <path id="Trazado_995107" data-name="Trazado 995107" d="M37.319,36.4a2.142,2.142,0,1,0-2.129-2.129A2.172,2.172,0,0,0,37.319,36.4Z" transform="translate(-2.582 -2.242)" fill="#5ac1bd"/>
    <path id="Trazado_995108" data-name="Trazado 995108" d="M37.332,29.288a1.572,1.572,0,0,0,1.569-1.5l.376-8.817a1.961,1.961,0,1,0-3.918,0l.4,8.817a1.559,1.559,0,0,0,1.569,1.5Z" transform="translate(-2.596 -0.988)" fill="#5ac1bd"/>
    <path id="Trazado_995109" data-name="Trazado 995109" d="M63.992,54.457a1.758,1.758,0,0,0,.908-.266,3.554,3.554,0,0,1,2.367-.853c1.468,0,2.083.688,2.083,1.523,0,.8-.716,1.3-1.541,1.89-1.064.771-2.349,1.651-2.349,3.486a2.646,2.646,0,0,0,.266,1.174,1.511,1.511,0,0,0,1.468,1.119,1.65,1.65,0,0,0,1.6-1.468.674.674,0,0,0,0-.239.969.969,0,0,1-.028-.266c0-.936.853-1.514,1.762-2.211,1.275-.881,2.688-1.945,2.688-4.156,0-2.477-2.1-4.211-5.542-4.211a7.582,7.582,0,0,0-4.606,1.5,1.632,1.632,0,0,0,.927,2.982Z" transform="translate(-4.823 -3.716)" fill="#5ac1bd"/>
    <path id="Trazado_995110" data-name="Trazado 995110" d="M67.9,65.26a2.156,2.156,0,1,0,2.156,2.156A2.177,2.177,0,0,0,67.9,65.26Z" transform="translate(-5.103 -4.976)" fill="#5ac1bd"/>
  </g>
</svg>
