<svg xmlns="http://www.w3.org/2000/svg" xmlns:xlink="http://www.w3.org/1999/xlink" width="84" height="84" viewBox="0 0 84 84">
  <defs>
    <clipPath id="clip-path">
      <rect id="Rect치ngulo_454842" data-name="Rect치ngulo 454842" width="68" height="68" rx="5" transform="translate(194 3570.602)" fill="#244d4c"/>
    </clipPath>
  </defs>
  <g id="Grupo_1177282" data-name="Grupo 1177282" transform="translate(-186 -3562.602)">
    <rect id="Rect치ngulo_402006" data-name="Rect치ngulo 402006" width="84" height="84" rx="5" transform="translate(186 3562.602)" fill="#5ac1bd"/>
    <g id="Enmascarar_grupo_1119193" data-name="Enmascarar grupo 1119193" clip-path="url(#clip-path)">
      <path id="asertividad_1_" data-name="asertividad (1)" d="M38.117,8.322H18.838a4.043,4.043,0,0,0-4.032,4.039v9.569a4.039,4.039,0,0,0,4.032,4.034H34.009a7.452,7.452,0,0,1,5.456,2.3l2.684,2.748V12.36a4.043,4.043,0,0,0-4.032-4.038ZM47.1,56.494H48.28V51.426a.981.981,0,0,0-.984-.985H30.987a.987.987,0,0,0-.984.985V65.444a2.588,2.588,0,0,1,2.171,2.541v2.749H48.28v-5.39c-1.156,0-2.1.14-3-.755a2.569,2.569,0,0,1-.76-1.819v-3.7A2.586,2.586,0,0,1,47.1,56.494Zm3.245,0V51.426A3.056,3.056,0,0,0,47.3,48.38H42.351V46.748a13.342,13.342,0,0,1,26.522-2.067H63.717a1.03,1.03,0,0,0-1.03,1.03V56.494ZM71.032,45.356a5.994,5.994,0,0,1,.063,1.392V59.439l-.026.481v2.926a1.03,1.03,0,0,1-1.03,1.03h-3.2v5.759a3.177,3.177,0,0,1-3.166,3.16H31.92A2.585,2.585,0,0,1,29.6,74.261H25.916a2.585,2.585,0,0,1-2.322-1.467H15.348A5.941,5.941,0,0,1,9.42,66.867V58.459A14.4,14.4,0,0,1,19.464,44.785a7.3,7.3,0,1,1,8.585,0,14.444,14.444,0,0,1,5.882,3.6h6.359V46.748A15.459,15.459,0,0,1,51.1,32.051a8.447,8.447,0,1,1,9.179,0,15.475,15.475,0,0,1,10.75,13.3ZM64.78,63.876H53.1a2.572,2.572,0,0,1-2.318,1.468h-.446v5.39H63.673a1.1,1.1,0,0,0,1.106-1.1Zm-1.063-5.322a1.03,1.03,0,0,0,1.03-1.03V46.741h4.288V59.208c-.042.37-.009.346-.026.584a2.374,2.374,0,0,1-2.348,2.024H52.324a1.03,1.03,0,0,0-1.03,1.03.512.512,0,0,1-.507.437H47.1a.512.512,0,0,1-.516-.514v-3.7a.511.511,0,0,1,.516-.513Zm-33.6,13.2a.52.52,0,0,1-.516.448H25.916a.52.52,0,0,1-.52-.489,1.028,1.028,0,0,0-1.026-.975v0H15.348a3.88,3.88,0,0,1-3.868-3.868V61.086h4.331v3.652a2.743,2.743,0,0,0,2.732,2.735H29.6a.511.511,0,0,1,.516.513v3.768ZM11.48,59.025v-.566A12.283,12.283,0,0,1,30.762,48.388a3.063,3.063,0,0,0-2.819,3.037V65.412h-9.4a.668.668,0,0,1-.672-.674V60.055a1.03,1.03,0,0,0-1.03-1.03H11.48Zm23.458,2.594a1.03,1.03,0,1,1,0-2.06h6.244a1.03,1.03,0,0,1,0,2.06Zm0,5.588a1.03,1.03,0,1,1,0-2.06h6.244a1.03,1.03,0,1,1,0,2.06Zm0-11.178a1.03,1.03,0,1,1,0-2.06h6.244a1.03,1.03,0,0,1,0,2.06ZM60.209,20.436a6.391,6.391,0,1,0,0,9.046,6.4,6.4,0,0,0,0-9.046ZM23.762,44.123a5.239,5.239,0,1,0-5.24-5.239A5.229,5.229,0,0,0,23.762,44.123Zm3.583-30.609a1.029,1.029,0,0,1-1.956.644.755.755,0,0,0-1.431,0A1.03,1.03,0,0,1,22,13.514a2.815,2.815,0,0,1,5.342,0Zm7.607,0A1.03,1.03,0,0,1,33,14.158a.755.755,0,0,0-1.431,0,1.029,1.029,0,0,1-1.956-.644,2.815,2.815,0,0,1,5.342,0Zm-4.134,5.342a1.03,1.03,0,0,1,1.988.539,4.487,4.487,0,0,1-8.657,0,1.03,1.03,0,1,1,1.988-.539,2.425,2.425,0,0,0,4.681,0ZM18.838,6.261H38.117a6.118,6.118,0,0,1,6.093,6.1V33.536h0a1.029,1.029,0,0,1-1.764.716L38,29.7a5.346,5.346,0,0,0-3.987-1.676H18.839a6.114,6.114,0,0,1-6.093-6.095V12.36a6.118,6.118,0,0,1,6.093-6.1Z" transform="translate(187.738 3564.34)" fill="#244d4c" fill-rule="evenodd"/>
    </g>
  </g>
</svg>
