<svg xmlns="http://www.w3.org/2000/svg" xmlns:xlink="http://www.w3.org/1999/xlink" width="84" height="84" viewBox="0 0 84 84">
  <defs>
    <clipPath id="clip-path">
      <rect id="Rect치ngulo_454841" data-name="Rect치ngulo 454841" width="66" height="66" rx="5" transform="translate(195 4674)" fill="#244d4c"/>
    </clipPath>
  </defs>
  <g id="Grupo_1177279" data-name="Grupo 1177279" transform="translate(-186 -4665)">
    <rect id="Rect치ngulo_402006" data-name="Rect치ngulo 402006" width="84" height="84" rx="5" transform="translate(186 4665)" fill="#5ac1bd"/>
    <g id="Enmascarar_grupo_1119192" data-name="Enmascarar grupo 1119192" clip-path="url(#clip-path)">
      <path id="comunicacion_1_" data-name="comunicacion (1)" d="M65.954,44.751l-3.3,2.09a1.065,1.065,0,0,1-1.579-.563L59.835,42.57a1.065,1.065,0,1,1,2.02-.674l.27.81A26.67,26.67,0,0,0,43.839,9.392a1.065,1.065,0,0,1,.577-2.049A28.964,28.964,0,0,1,59.43,17.522a28.817,28.817,0,0,1,4.717,25.852l.669-.423a1.065,1.065,0,1,1,1.138,1.8ZM39.472,61.522a27.058,27.058,0,0,1-2.863.152A26.621,26.621,0,0,1,10.661,41.086l.627.563a1.064,1.064,0,1,0,1.423-1.584L9.8,37.453a1.065,1.065,0,0,0-1.651.291L6.313,41.193a1.065,1.065,0,1,0,1.879,1l.378-.708A28.748,28.748,0,0,0,36.609,63.8a29.229,29.229,0,0,0,3.089-.164,1.065,1.065,0,0,0-.226-2.117Zm5.1-21.247H32.239a1.065,1.065,0,0,0,0,2.129H44.57a1.065,1.065,0,1,0,0-2.129Zm0,4.4H32.239a1.065,1.065,0,0,0,0,2.129H44.57a1.065,1.065,0,0,0,0-2.129Zm0-8.795H32.239a1.065,1.065,0,0,0,0,2.129H44.57a1.065,1.065,0,1,0,0-2.129ZM21.787,12.209A2.651,2.651,0,0,1,25.536,8.46l1.633,1.634L31.618,5.6a2.627,2.627,0,0,1,1.869-.783h.01a2.648,2.648,0,0,1,1.88,4.513Q34.2,10.514,33.036,11.7c-1.3,1.321-2.649,2.687-3.985,4.023a2.652,2.652,0,0,1-3.749,0Zm1.353-1.874a.519.519,0,0,0,.153.369l3.515,3.515a.522.522,0,0,0,.738,0c1.33-1.33,2.674-2.693,3.974-4.012q1.171-1.188,2.345-2.375a.519.519,0,0,0-.368-.886h0a.513.513,0,0,0-.364.152l-5.2,5.253a1.064,1.064,0,0,1-.754.315h0a1.065,1.065,0,0,1-.753-.312l-2.39-2.39a.522.522,0,0,0-.891.369Zm1.2,24.834H2.744a1.064,1.064,0,0,1-1.058-1.178,11.886,11.886,0,0,1,7.79-9.932A6.552,6.552,0,0,1,16.131,12.9V4.571a3.51,3.51,0,0,1,3.506-3.506H37.519a3.51,3.51,0,0,1,3.506,3.506V16.807a3.51,3.51,0,0,1-3.506,3.506H26.934L22.47,24.959a1.065,1.065,0,0,1-1.832-.737V20.313h-.692a6.563,6.563,0,0,1-2.34,3.746,11.886,11.886,0,0,1,7.79,9.932,1.064,1.064,0,0,1-1.058,1.178ZM18.26,4.571V14.38a6.535,6.535,0,0,1,1.793,3.8H21.7a1.065,1.065,0,0,1,1.065,1.065v2.329l2.945-3.066a1.065,1.065,0,0,1,.768-.327H37.519A1.379,1.379,0,0,0,38.9,16.807V4.571a1.379,1.379,0,0,0-1.377-1.377H19.637A1.379,1.379,0,0,0,18.26,4.571ZM13.538,23.349h.005a4.428,4.428,0,1,0-.005,0Zm9.543,9.691a9.771,9.771,0,0,0-9.537-7.562h-.006A9.77,9.77,0,0,0,4,33.04ZM65.5,65.887a1.064,1.064,0,0,1-1.058,1.178H42.847a1.064,1.064,0,0,1-1.058-1.178,11.886,11.886,0,0,1,7.79-9.932,6.545,6.545,0,0,1-2.488-5.041h-.747v3.909a1.064,1.064,0,0,1-1.832.737l-4.463-4.646H29.463a3.51,3.51,0,0,1-3.506-3.506V35.171a3.51,3.51,0,0,1,3.506-3.506H47.346a3.51,3.51,0,0,1,3.506,3.506v9.718a6.552,6.552,0,0,1,6.857,11.066A11.886,11.886,0,0,1,65.5,65.887Zm-18.153-17.1c.023,0,.046,0,.069,0A6.555,6.555,0,0,1,48.722,46.5V35.172a1.378,1.378,0,0,0-1.377-1.377H29.463a1.378,1.378,0,0,0-1.377,1.377V47.408a1.378,1.378,0,0,0,1.377,1.377H40.5a1.065,1.065,0,0,1,.768.327l2.945,3.066V49.85a1.065,1.065,0,0,1,1.065-1.065Zm1.872,2.034a4.426,4.426,0,1,0,4.426-4.426A4.431,4.431,0,0,0,49.217,50.819ZM63.184,64.936a9.8,9.8,0,0,0-19.08,0Z" transform="translate(193.936 4672.936)" fill="#244d4c"/>
    </g>
  </g>
</svg>
