<svg id="Grupo_1177277" data-name="Grupo 1177277" xmlns="http://www.w3.org/2000/svg" width="396" height="277.962" viewBox="0 0 396 277.962">
  <g id="Grupo_1177278" data-name="Grupo 1177278">
    <path id="Trazado_995111" data-name="Trazado 995111" d="M230.028,262.689c-6.477,4.319-14.292,5.869-22.008,5.961-7.321.087-16.706-.144-22.138-5.708a11.831,11.831,0,0,0,4.007-2.8c3.135-3.427,3.075-8.873-1.129-11.465-4.285-2.64-8.576.755-9.41,5.091a11.687,11.687,0,0,0,1.038,7.192,13.986,13.986,0,0,1-2.434-.08,18.817,18.817,0,0,1-10.809-5.728,29.2,29.2,0,0,1-7.306-11.9c-1.3-4.385-.827-9.722,2.986-12.8.672-.542-.06-1.656-.765-1.12-8.8,6.7-4.68,18.783,1.1,26a22.973,22.973,0,0,0,12.882,8.493,17.27,17.27,0,0,0,6.226.171,17.36,17.36,0,0,0,2.284,2.406c4.121,3.572,9.646,4.935,14.985,5.445,10.678,1.018,24.318,1.144,31.978-7.51a1.121,1.121,0,0,0-1.483-1.641m-46.459-10.816a2.711,2.711,0,0,1,4.243.12,4.015,4.015,0,0,1,.51,4.792,7.787,7.787,0,0,1-4.433,3.528c-1.483-2.579-2.352-6.08-.32-8.44" transform="translate(-55.217 -80.619)" fill="#5ac1bd"/>
    <path id="Trazado_995112" data-name="Trazado 995112" d="M243.578,313.185c-1.841.112-3.694.136-5.535.123.226,3.443.176,6.948.1,10.366q-.151,7.108-.977,14.191a1.178,1.178,0,0,1-1.077.937c-4.432.519-7.737-3.245-10.655-5.948q-5.86-5.405-11.72-10.822c-6.348-5.861-13.973-11.821-16.44-20.422-.263-.913.739-2.061,1.7-1.481A82.585,82.585,0,0,0,235.6,311.716c-.025-.814-.049-1.628-.049-2.443a1.024,1.024,0,0,1,2.041-.123c.137.888.238,1.789.326,2.7,1.853.075,3.718.087,5.583.025a.655.655,0,0,1,.076,1.308" transform="translate(-69.379 -105.518)" fill="#f0a3f3"/>
    <path id="Trazado_995113" data-name="Trazado 995113" d="M338.876,141.867A23.971,23.971,0,0,0,333.408,124a41.391,41.391,0,0,0-12.969-10.039c.114-.387.22-.776.309-1.169,1.383-6.132-.964-12.47-5.1-17.088-5.167-5.773-12.674-8.789-20.285-9.847-3.567-.5-7.426-.921-10.923.15-2.923.9-5.664,2.951-5.226,6.252.109.821,1.247.7,1.4-.035.56-2.744,3.723-3.359,6.125-3.542a34.539,34.539,0,0,1,8.235.725c5.51.936,10.95,2.717,15.315,6.272,3.884,3.164,6.913,7.815,7.135,12.885a13.316,13.316,0,0,1-.412,3.814c-5.158-2.091-12.022-2.438-14.693,3.266a7.341,7.341,0,0,0,.049,6.755c1.505,2.5,4.531,3.091,7.249,2.478a14.473,14.473,0,0,0,9.537-7.732,36.986,36.986,0,0,1,12.079,9.891A20.3,20.3,0,0,1,335.2,141.47a29.091,29.091,0,0,1-7.042,15.628,46.774,46.774,0,0,1-7.559,6.991c-2.872,2.172-6.226,3.808-8.8,6.313-.781.761-.36,2.515.979,2.172,3.674-.938,6.868-3.264,9.888-5.478a49.377,49.377,0,0,0,8.478-7.813,32.285,32.285,0,0,0,7.73-17.416m-27.294-21.6c-1.519,1.024-4.646,2.522-6.238.853-1.234-1.291-.576-3.637.311-4.91,2.26-3.246,6.728-2.174,10.159-.718a13.168,13.168,0,0,1-4.231,4.775" transform="translate(-98.2 -30.019)" fill="#5ac1bd"/>
    <path id="Trazado_995114" data-name="Trazado 995114" d="M480.624,190.2v130.22a17.889,17.889,0,0,1-5.121,12.538,18.467,18.467,0,0,1-13.234,5.553H258.915c-.213,0-.426,0-.639-.013a18.2,18.2,0,0,1-17.7-18.078V190.2a18.214,18.214,0,0,1,18.343-18.077H462.268A18.216,18.216,0,0,1,480.624,190.2" transform="translate(-84.623 -60.544)" fill="#f0a3f3"/>
    <path id="Trazado_995115" data-name="Trazado 995115" d="M197.944,61.927v84.045a26.573,26.573,0,0,1-17.3,24.815,27.025,27.025,0,0,1-9.666,1.765h-144A26.779,26.779,0,0,1,0,145.972V61.927A26.787,26.787,0,0,1,26.97,35.348h144a26.779,26.779,0,0,1,26.969,26.579" transform="translate(0 -12.434)" fill="#244d4c"/>
    <path id="Trazado_995116" data-name="Trazado 995116" d="M149.213,79.875c-4.219,1.381-7.113,4-9.892,7.317a24.371,24.371,0,0,1-9.629,6.824c-5.722,2.381-13.435,4.652-19.294,1.7a119.654,119.654,0,0,0-5.309,11.834c.225.852,1.051,1.2,1.853,1.469,1.615.543,3.306.95,4.984,1.344,1.941-.765,4.107-.234,6.035.161a2.889,2.889,0,0,1,2.629,3.282c-.213,3.27-2.5,6.145-5.284,7.774-2.892,1.7-6.235,2.295-9.5,2.875a73.2,73.2,0,0,1-11.357,1.283,45.267,45.267,0,0,1-19.5-4.232,64,64,0,0,1-16.3-10.785c-4.533-4.084-8.79-9.5-8.1-15.893a1.714,1.714,0,0,1,1.19-1.333,69.744,69.744,0,0,1,8.013-1.247,19.779,19.779,0,0,1,4.77.3,13.09,13.09,0,0,0,1.991-.913,24.074,24.074,0,0,0,3.694-2.628c1.916-3.122,3.731-6.342,5.409-9.588a1.314,1.314,0,0,1,.977-.752c1.277-1.716,2.929-3.234,4.044-5.146,1.328-2.258.989-5.035,1.4-7.527a32.867,32.867,0,0,1,2.216-7.441C87.973,49.8,95.184,42.942,103.5,38.377c8.6-4.714,18.606-7.614,28.5-6.6,4.483.456,9.654,1.715,13.172,4.652,3.668,3.073,4.82,8.391,4.833,12.932.025,5.121-1.34,10.057-2.793,14.93-1.2,4.06-2.767,10.761,2.166,13.155a1.322,1.322,0,0,1-.163,2.431" transform="translate(-17.755 -11.106)" fill="#fff"/>
    <path id="Trazado_995117" data-name="Trazado 995117" d="M466.921,278.152a30.661,30.661,0,0,1-4.4,9.206,44.2,44.2,0,0,1-14.13,12.87c-10.7,6.219-23.2,8.132-35.228,6.552a55.464,55.464,0,0,1-18.625-5.688,31.393,31.393,0,0,1-13.842-14.919c-3.339-7.145-4.714-15.029-6.135-22.792-.74-4.035-1.71-8.033-2.415-12.068-.716-4.134.127-7.774.775-11.834,2.01-12.587-3.952-26.037-14.05-32.75a1.745,1.745,0,0,1-.762-1.629,9.983,9.983,0,0,1-3.42-2.43c-4.621-4.862-4.079-12.748-.89-18.263,3.663-6.355,9.937-9.921,16.268-12.537,13.553-5.6,28.965-8.268,43.454-6.219,6.2.876,12.56,2.875,17.736,6.749,5.211,3.887,8.712,9.65,11.034,15.881,2.38,6.4,3.569,13.216,5.279,19.83.9,3.517,2,7.133,4.518,9.736,2.391,2.468,5.4,4.109,7.925,6.4a22.327,22.327,0,0,1,7.013,18.238c-.312,4.22-1.34,8.206-1.051,12.475.265,4.035,1.144,8,1.571,12.018a29.507,29.507,0,0,1-.624,11.168" transform="translate(-123.577 -58.028)"/>
    <path id="Trazado_995118" data-name="Trazado 995118" d="M485.109,371.176a18.464,18.464,0,0,1-13.234,5.553H268.522c-.213,0-.426,0-.639-.013,3.669-8.5,7.413-16.954,11.445-25.3a248.47,248.47,0,0,1,21.887-37.6c4.257-5.886,7.976-10.315,14.287-13.993a96.407,96.407,0,0,1,20.2-8.342q2.553-.8,5.108-1.654l1.728-.555c.162-.062.338-.111.5-.173.375-.111.714-.235,1.077-.345a128.325,128.325,0,0,1,14.5-4.024,206.7,206.7,0,0,1,35.172-3.9c6.123-.148,12.208-.012,18.218.432,1.164.087,2.3.173,3.456.285q2.084.185,4.169.481a63.693,63.693,0,0,1,17.643,4.9,38.237,38.237,0,0,1,17.442,15.129c5.547,9.254,8.427,19.731,12.846,29.492,5.535,12.216,11.132,24.42,16.366,36.784.4.938.8,1.888,1.189,2.838" transform="translate(-94.23 -98.767)" fill="#604161"/>
    <path id="Trazado_995119" data-name="Trazado 995119" d="M412.224,217a5.078,5.078,0,0,1-1.953.444,1.3,1.3,0,0,1-1.878.272,5.682,5.682,0,0,0-4.207-1.678,2.916,2.916,0,0,0-2.692,2.48,1.259,1.259,0,0,1-1.753.864c-2.905-1.345-6.937.062-7.976,3.171a1.685,1.685,0,0,1-.413.642c-.3,2.369-.113,4.985-.213,6.663-.238,4.171-1.214,8.589-4.332,11.636-.163.148-.351.284-.513.432a1.827,1.827,0,0,1-.977,2.419,37.367,37.367,0,0,1-10.18,2.258c-3.919.864-8.151,1.259-11.018-1.937a1.364,1.364,0,0,1-.2-1.407,13.133,13.133,0,0,1-6.923-5.935c-3.13-5.578-5.935-13.413-3.43-19.67,1.164-2.887,3.518-4.961,5.6-7.194a11.961,11.961,0,0,0,2.717-4.085,25.579,25.579,0,0,0,.965-4.566,18,18,0,0,1,3.681-8.761,17.812,17.812,0,0,1,2.028-2.073,22.755,22.755,0,0,1,7.3-6.083,43.967,43.967,0,0,1,19.483-4.689,7.028,7.028,0,0,1,4.871,1.3,26.825,26.825,0,0,1,3.143,3.246,48.558,48.558,0,0,1,5.483,7.54,48.051,48.051,0,0,1,6.336,17.35c.4,2.789-.1,6.034-2.942,7.367" transform="translate(-124.03 -63.386)" fill="#fff"/>
    <path id="Trazado_995120" data-name="Trazado 995120" d="M404.722,226.781a2.585,2.585,0,0,0-1.332.082,2.661,2.661,0,0,0-1.139.778,3.412,3.412,0,0,0-.474.723,2.619,2.619,0,0,0-.174.43,6.81,6.81,0,0,0-.211.79,2.9,2.9,0,0,0-.185,1.318,1.67,1.67,0,0,0,.5,1.081l.316.221a1.38,1.38,0,0,0,.723.151,4.6,4.6,0,0,0,1.2-.17,3.682,3.682,0,0,0,1.087-.5,3.187,3.187,0,0,0,1.54-2.677,2.349,2.349,0,0,0-1.85-2.232" transform="translate(-141.121 -79.754)"/>
    <path id="Trazado_995121" data-name="Trazado 995121" d="M382.567,251.564a18.316,18.316,0,0,1-5.309,1.531,31.883,31.883,0,0,1-5.509.7,18.117,18.117,0,0,1-10.129-2.69c-9.867-6.232-13.773-19.521-10.33-30.307a14.442,14.442,0,0,1,4.219-6.663A17.19,17.19,0,0,0,359,210.855a12.389,12.389,0,0,0,1.515-4.011A30.681,30.681,0,0,1,363.1,199.1c.15-.284.313-.568.476-.839a19.146,19.146,0,0,1,2.554-3.32,17.488,17.488,0,0,1,2.48-2.085.749.749,0,0,1,.989,1.1c-.325.358-.638.74-.939,1.11a25.558,25.558,0,0,0-3.055,4.59,16.7,16.7,0,0,0-.839,1.864c-1.014,2.653-1.227,5.528-2.141,8.218a12.035,12.035,0,0,1-4.182,5.651,12.759,12.759,0,0,0-4.47,6.429c-1.452,4.961-.726,10.317.977,15.116,1.691,4.751,4.908,9.464,9.516,11.883a15.753,15.753,0,0,0,8.476,1.493,34.472,34.472,0,0,0,4.646-.666,19.894,19.894,0,0,1,4.069-.715c1.315,0,2.3,1.9.914,2.64" transform="translate(-123.137 -67.791)"/>
    <path id="Trazado_995122" data-name="Trazado 995122" d="M379.861,214.2c-.027-.342-.146-.658-.192-.985a.818.818,0,0,0-1.608-.1c-.122.548-.392,1.129-.555,1.674a15.594,15.594,0,0,1-.592,1.479,15.346,15.346,0,0,1-.716,1.513c-.135.244-.281.486-.427.725-.173.286-.235.382-.381.589a13.983,13.983,0,0,1-1.053,1.31c-.207.229-.419.454-.64.67-.1.1-.2.194-.307.289a15.888,15.888,0,0,1-3.1,2.035,1.455,1.455,0,0,0-.5,1.884,1.506,1.506,0,0,0,1.82.757,13.793,13.793,0,0,0,6.263-5.209,12.922,12.922,0,0,0,1.69-3.694,9.752,9.752,0,0,0,.263-1.817,6.79,6.79,0,0,0,.032-1.119" transform="translate(-130.024 -74.745)"/>
    <path id="Trazado_995123" data-name="Trazado 995123" d="M410.76,217.331a28.671,28.671,0,0,0-8.941-4.442c-.838-.235-1.69-.444-2.554-.617a2.524,2.524,0,0,1-1.991-1.024c-.688-1.21.239-2.875,1.127-3.924.626-1.333,2.742-1.247,3.994-.889a12.086,12.086,0,0,1,4.057,2.283,22.782,22.782,0,0,1,5.948,7.17,1.109,1.109,0,0,1-1.64,1.444" transform="translate(-139.661 -72.535)"/>
    <path id="Trazado_995124" data-name="Trazado 995124" d="M379.2,202.85a1.171,1.171,0,0,1-1.553.543,45.4,45.4,0,0,1-4.671-2.592c-.663-.407-1.315-.851-1.94-1.308a13.885,13.885,0,0,1,2.467-3.406,5.231,5.231,0,0,1,1.628-.062,4.689,4.689,0,0,1,.9.185,4.547,4.547,0,0,1,1.766.963,4.979,4.979,0,0,1,1.565,2.48,5.163,5.163,0,0,1-.163,3.2" transform="translate(-130.517 -68.941)"/>
    <path id="Trazado_995125" data-name="Trazado 995125" d="M377.907,251.7a45.711,45.711,0,0,0-13.3-6.363.768.768,0,0,0-.841,1.1.935.935,0,0,0-.218,1.011c1.049,3,2.981,6.02,6.056,7.305a7.511,7.511,0,0,0,8.427-1.532,1.073,1.073,0,0,0-.119-1.521m-7.672.959a9.4,9.4,0,0,1-4.254-4.934c3.166,1.543,6.32,3.076,9.328,4.91a5.63,5.63,0,0,1-5.074.025" transform="translate(-127.857 -86.291)"/>
    <path id="Trazado_995126" data-name="Trazado 995126" d="M435.272,268.491c-.138,1.37-1.277,2.678-2.067,3.764a37.659,37.659,0,0,1-3.08,3.677c-4.52,4.787-10.042,8.526-15.513,12.179-.426,3.011,1.439,5.9,3.017,8.415s3.031,5.183-.05,7.157c-6.223,4-13.147,7.107-19.708,10.526-2.4,1.247-6.5,4.5-8.327.913a83.3,83.3,0,0,1-3.744-9.736A204.21,204.21,0,0,1,379.3,285c-.714-2.9-.751-5.75.851-8.378a18.8,18.8,0,0,1,6.223-5.714,1.266,1.266,0,0,1,.714-.185,27.13,27.13,0,0,1,6.123-4.652,1.253,1.253,0,0,1,1.378.062,71.545,71.545,0,0,0,4.908-6.416,28.212,28.212,0,0,0,3.005-4.9,15.674,15.674,0,0,0,.964-5.4,1.259,1.259,0,0,1-.526-.4,4.564,4.564,0,0,1-.689-4.1,4.88,4.88,0,0,1,1.027-1.839,4.305,4.305,0,0,1,.764-.555,1.471,1.471,0,0,1,.563-1.111,1.439,1.439,0,0,1,1.778-.1c.538.012,1.064.012,1.589.012a1.326,1.326,0,0,1,.751.247,4.541,4.541,0,0,1,.589.1,5.184,5.184,0,0,1,1.452-3.405c.088-.087.2-.186.3-.272a3.385,3.385,0,0,1,.564-.445,6.433,6.433,0,0,1,.914-.481,4.839,4.839,0,0,1,2-.37c1.54.012,3.631.555,4.207,2.135a7.967,7.967,0,0,1,.939-.012.964.964,0,0,1,.688-.247,6.894,6.894,0,0,1,5.209,2.962q.395.222.789.481c.852.543,1.815,1.135,2.754,1.789a2.678,2.678,0,0,1,3.318,1.173,1.194,1.194,0,0,1-.275,1.579,7.339,7.339,0,0,1,.939,1.506c1.2,2.875,1.177,6.478.789,9.514a23.85,23.85,0,0,1-2.354,7.651,3.88,3.88,0,0,1,2.116.432,2.958,2.958,0,0,1,1.6,2.826" transform="translate(-133.258 -83.263)" fill="#fff"/>
    <path id="Trazado_995127" data-name="Trazado 995127" d="M409.712,240.719a5.452,5.452,0,0,0-7.337-.123c-2.6,2.264-2.772,5.695-2.679,8.882a18.077,18.077,0,0,1-8.081,16.126c-4.6,3.143-12.354,6-12.822,12.413a.775.775,0,0,0,1.336.638,34.7,34.7,0,0,1,5.054-4.582c1.971-1.427,4.059-2.655,6.134-3.926,4.564-2.794,8.474-6.224,10.539-11.241a21.158,21.158,0,0,0,1.6-7.972c.013-2.453-1.114-6.772,1.664-8.255,2.314-1.236,3.782,2.341,4.2,3.949a17.9,17.9,0,0,1,.173,7.792,25.993,25.993,0,0,1-9.435,15.155c-1.546,1.211.186,3.75,1.721,2.518A30.049,30.049,0,0,0,412.2,257.276c1.508-5.055,1.811-12.643-2.486-16.557" transform="translate(-133.243 -84.154)"/>
    <path id="Trazado_995128" data-name="Trazado 995128" d="M437.8,246.338c-.52-3.931-1.2-9.136-5.428-10.89-2.983-1.237-7.527.736-6.5,4.435a.826.826,0,0,0,1.576-.1,2.485,2.485,0,0,1,3.068-2.3,5.109,5.109,0,0,1,3.1,3.195,24.456,24.456,0,0,1,1.465,10.44c-.273,3.371-1.818,6.449-3.386,9.4a26.246,26.246,0,0,1-2.324,3.854c-.8,1.033-2.485,1.781-2.916,2.981a1.172,1.172,0,0,0,.827,1.625c1.8.536,3.569-1.6,4.514-2.865a39.267,39.267,0,0,0,3.233-5.575,23.162,23.162,0,0,0,2.768-14.2" transform="translate(-149.752 -82.691)"/>
    <path id="Trazado_995129" data-name="Trazado 995129" d="M447.346,239.024a6.979,6.979,0,0,0-9.519-1,.717.717,0,0,0,.809,1.184c3.031-1.5,6.51.787,7.8,3.495,1.518,3.183.965,6.934.359,10.267a30.3,30.3,0,0,1-2.474,8.062,14.5,14.5,0,0,1-2.371,3.494c-.9.97-2.38,1.608-2.369,3.052a1.038,1.038,0,0,0,.612.9c1.685.585,3.061-1.093,4.076-2.26a19.651,19.651,0,0,0,2.892-4.538,36.37,36.37,0,0,0,2.907-11.233c.458-3.979.135-8.316-2.723-11.422" transform="translate(-153.902 -83.221)"/>
    <path id="Trazado_995130" data-name="Trazado 995130" d="M455.133,248.845a7.786,7.786,0,0,0-4.437-3.724c-1.268-.326-2.749.179-2.786,1.609a.667.667,0,0,0,1.254.241c.292-.694,2.9,2.677,3.071,2.991a10.086,10.086,0,0,1,1.123,5.091c-.081,3.818-1.748,7.662-3.534,10.991-3.457,6.448-8.587,12.04-13.684,17.268-1.348,1.382.972,3.362,2.3,1.947,6.5-6.919,13.4-13.908,16.653-22.992,1.553-4.333,2.406-9.209.038-13.422" transform="translate(-153.273 -86.19)"/>
    <path id="Trazado_995131" data-name="Trazado 995131" d="M454.906,280.2a5.025,5.025,0,0,0-3.915-1.173,1.024,1.024,0,0,0-.133,2.023,4.048,4.048,0,0,1,2.463,1.964,3.022,3.022,0,0,1-.327,3.209,35.008,35.008,0,0,1-5.445,5.946,61.9,61.9,0,0,1-13.4,9.554,1.539,1.539,0,0,0-.614,1.782c.059.126.119.252.187.373a1.623,1.623,0,0,0,2.187.421,64.945,64.945,0,0,0,16.15-12.2c2.083-2.154,4.932-4.805,4.749-8.046a5.63,5.63,0,0,0-1.905-3.855" transform="translate(-152.468 -98.145)"/>
    <path id="Trazado_995132" data-name="Trazado 995132" d="M493.921,328.766c-.2,1.444-.414,2.85-.639,4.2-.463,2.813-1,5.6-1.6,8.391-1.09,5.1-2.366,10.155-3.656,15.19a144.538,144.538,0,0,1-7.2,21.841c-.138.321-.288.642-.426.95H410.631c-1.239-2.271-2.354-4.59-3.381-6.91l-1.09-2.443c-4.645-10.76-8.652-21.8-12.759-32.774-.125-.357-.263-.728-.4-1.085-.213-.581-.425-1.149-.651-1.728.087-.049.188-.1.276-.148.651-.333,1.2-.617,1.753-.889.275-.148.563-.283.838-.419.551-.284.952-.469,1.341-.654.876-.432,1.728-.839,2.592-1.258,4.132-1.987,8.238-3.961,12.171-6.318a115.732,115.732,0,0,0,11.03-7.664c.213-.16.426-.321.639-.494a3.691,3.691,0,0,0,.351-.271c.313-.234.614-.469.914-.716.25-.185.5-.382.751-.58.576,1.036,1.2,2.048,1.816,3.06.138.222.263.445.4.666.175.3.363.6.526.913,2.141,3.566,4.057,7.17,6,10.785.138.271.288.556.438.826.088-.481.2-.963.3-1.444.162-.7.338-1.37.488-2.035.463-2.074.914-4.147,1.4-6.208.976-4.158,1.99-8.354,3.192-12.463a43.587,43.587,0,0,1,2.817-7.354,27.239,27.239,0,0,1,1.716-2.986,23.449,23.449,0,0,1,1.715-2.3c2.529-6.1,10.631-8.008,16.716-8.181,6.023-.172,12.733-.283,18.406,2.048a18.779,18.779,0,0,1,4.52,2.6c10.455,8.231,10.155,23.507,8.464,35.846" transform="translate(-138.013 -101.372)" fill="#604161"/>
    <path id="Trazado_995133" data-name="Trazado 995133" d="M439.592,324.265c-.876.7-1.765,1.382-2.655,2.061a43.052,43.052,0,0,1-1.966-3.948,13.624,13.624,0,0,1-1.089-3.394,24.074,24.074,0,0,1,.1-3.677c.012-.729,1.164-1.074,1.365-.259a19.779,19.779,0,0,0,1.5,3.356c.5,1.136.914,2.308,1.452,3.431.388.826.827,1.629,1.29,2.431" transform="translate(-152.603 -110.655)"/>
    <path id="Trazado_995134" data-name="Trazado 995134" d="M389.914,333.866c-.889.432-1.778.888-2.654,1.344-.126.062-.251.136-.376.2-.589-1.579-1.19-3.159-1.79-4.738-1.4-3.653-2.767-7.317-4.145-10.97a75.2,75.2,0,0,1-3.406-10.588c-1.315-6.244-1.127-12.623,3.043-17.805a.666.666,0,0,1,1.1.715c-3.493,6.873-1.79,14.759.626,21.656,2.38,6.775,5.071,13.463,7.6,20.188" transform="translate(-132.55 -102.388)"/>
    <path id="Trazado_995135" data-name="Trazado 995135" d="M426.466,203.94a51.36,51.36,0,0,1-1.453,10.131c-.363,1.382-1.015,2.838-2.754,2.641a2.05,2.05,0,0,1-1.8-1.481c-6.862-9.724-12.472-21.865-12.459-33.909-.213-.012-.413-.049-.614-.049a109.7,109.7,0,0,0-13.059.074c-7.688.506-16.8,2.863-21.048,9.847-.439.728-1.6.21-1.227-.58a19.348,19.348,0,0,1,10.2-9.354c-.2-1.777,2.467-3.961,3.707-4.862a27.172,27.172,0,0,1,8.714-3.924,43.551,43.551,0,0,1,19.733-.974c2.717.543,5.685,1.369,7.8,3.245,2.5,2.2,2.754,5.281,3.117,8.379.8,6.91,1.552,13.845,1.14,20.817" transform="translate(-130.846 -60.074)"/>
    <path id="Trazado_995136" data-name="Trazado 995136" d="M377.4,217.178a1.557,1.557,0,0,0-.271-.782,1.2,1.2,0,0,0-.46-.429,1.537,1.537,0,0,0-1.381-.187,4.707,4.707,0,0,0-1.189.693,5.35,5.35,0,0,0-.645.613,6.554,6.554,0,0,0-.5.72,4.862,4.862,0,0,0-.527,1.259,3.647,3.647,0,0,0-.139,1.357,1.683,1.683,0,0,0,1.8,1.558,2.76,2.76,0,0,0,.923-.251,1.691,1.691,0,0,0,.814-.782c.317-.412.5-.562.648-.744a5.052,5.052,0,0,0,.447-.657,3.719,3.719,0,0,0,.485-2.367" transform="translate(-130.95 -75.869)"/>
    <path id="Trazado_995137" data-name="Trazado 995137" d="M496.827,188.01c-2.085,3.915-6.311,5.835-10.525,6.507a12.706,12.706,0,0,1-7.158-.694,14.565,14.565,0,0,1-4.79-3.764,35.94,35.94,0,0,0-4.692-4.75c-1.966-1.5-4.149-2.668-6.18-4.078-3.736-2.625-6.788-6.55-6.04-11.344a1.473,1.473,0,0,1,.272-.661q-.1-.6-.163-1.171a10.325,10.325,0,0,1,1.575-7.277c1.466-2.039,3.856-3.286,6.1-4.295a28.235,28.235,0,0,1,14.858-2.386,16.262,16.262,0,0,1,11.47,6.659c2.845,3.9,4.475,8.8,5.626,13.438,1.1,4.424,1.89,9.6-.358,13.817" transform="translate(-160.869 -54.141)"/>
    <path id="Trazado_995138" data-name="Trazado 995138" d="M344.795,349.211q-2.341-2.265-4.66-4.549c-.749-.74-1.478-1.5-2.225-2.238-.4-.393-.78-.793-1.164-1.2-.231-.244-.533-.473-.76-.738a1.124,1.124,0,0,0-2.122-.4c-.707,1.186.7,2.456,1.418,3.282.828.957,1.656,1.913,2.51,2.85,1.63,1.787,3.331,3.518,5.11,5.161a1.486,1.486,0,0,0,2.049-.155,1.445,1.445,0,0,0-.157-2.019" transform="translate(-117.372 -119.414)" fill="#fff"/>
    <path id="Trazado_995139" data-name="Trazado 995139" d="M355.089,399.737c-3.14-2.235-6.692-4.447-9.138-7.457a19.212,19.212,0,0,1-4.227-11.594,52.606,52.606,0,0,1,1.512-12.692c.813-3.937,1.8-8.057,3.9-11.543.386-.641-.545-1.441-1.135-.968-3.7,2.964-4.8,7.253-5.765,11.668a52.618,52.618,0,0,0-1.558,13.986,20.345,20.345,0,0,0,4.573,12.357,30.116,30.116,0,0,0,10.809,7.788c.934.41,1.929-.9,1.026-1.545" transform="translate(-119.117 -124.994)" fill="#fff"/>
    <path id="Trazado_995140" data-name="Trazado 995140" d="M363.047,425.317a13.067,13.067,0,0,1,.563,1.888h-2.316a11.33,11.33,0,0,1-.088-2.048.849.849,0,0,1,1.641-.333c.075.16.137.32.2.493" transform="translate(-127.052 -149.244)" fill="#fff"/>
    <path id="Trazado_995141" data-name="Trazado 995141" d="M460.982,359.379c-.916-1.361-1.811-2.733-2.731-4.091-1.954-2.885-3.875-5.792-5.82-8.683-3.714-5.522-6.972-11.716-11.727-16.449a.791.791,0,0,0-1.259.836c2.492,6.193,6.96,11.625,10.6,17.194,1.851,2.829,3.729,5.643,5.572,8.478.893,1.375,1.8,2.738,2.709,4.106.847,1.282,1.473,2.848,3.085,3.23a1.022,1.022,0,0,0,1.188-.788c.274-1.512-.81-2.629-1.621-3.834" transform="translate(-154.561 -116.066)" fill="#fff"/>
    <path id="Trazado_995142" data-name="Trazado 995142" d="M485.264,280.608c-2.007-.9-4.614-.287-6.648.317a20.5,20.5,0,0,0-6.35,3.229,29.325,29.325,0,0,0-9.027,11.334c-4.665,10.094-4.854,21.5-7.081,32.207-.192.921,1.285,1.466,1.63.534,3.545-9.6,3.405-20.054,7.137-29.592a26.655,26.655,0,0,1,7.913-11.489,20.115,20.115,0,0,1,5.8-3.193,17.377,17.377,0,0,1,3.351-.834,15.517,15.517,0,0,0,3.151-.48,1.105,1.105,0,0,0,.129-2.032" transform="translate(-160.451 -98.546)" fill="#fff"/>
    <path id="Trazado_995143" data-name="Trazado 995143" d="M411.058,395.575c1.164,2.579,2.3,5.244,3.594,7.823H410.52c-1.1-2.271-2.129-4.6-3.13-6.91l-1.09-2.443q-3.924-8.811-7.424-17.806c-1.152-2.95-2.266-5.9-3.344-8.885a69.928,69.928,0,0,1-2.391-7.169,16.185,16.185,0,0,1-.375-1.875,1.48,1.48,0,0,1,1.352-1.691,1.355,1.355,0,0,1,1.239.382.763.763,0,0,1,.188.247,16.441,16.441,0,0,1,.814,1.629c1.215,2.628,2.041,5.441,3.031,8.144q1.746,4.738,3.581,9.427,3.793,9.662,8.088,19.127" transform="translate(-138.152 -125.436)" fill="#fff"/>
    <path id="Trazado_995144" data-name="Trazado 995144" d="M536.935,351.46a6.059,6.059,0,0,0-2.367,3.2c-.626,1.444-1.227,2.9-1.866,4.344-.526,1.184-1.051,2.357-1.6,3.529-.9,1.95-1.828,3.9-2.793,5.824q-4.469,9.015-9.741,17.609-4.545,7.44-9.666,14.548h-4.483c2.066-2.789,4.007-5.689,5.922-8.539,3.23-4.825,6.273-9.785,9.116-14.832s5.484-10.18,7.925-15.412c1.214-2.591,2.354-5.22,3.481-7.861a12.543,12.543,0,0,1,2.479-3.924,6.927,6.927,0,0,1,1.666-1.308c1.915-1.086,3.856,1.715,1.928,2.826" transform="translate(-177.433 -122.549)" fill="#fff"/>
    <path id="Trazado_995145" data-name="Trazado 995145" d="M199.617,82.282c.613,2.5-2.216,3.665-4.031,4.579a31.847,31.847,0,0,1-3.857,1.628,30.764,30.764,0,0,1-3.693,1c.7-1.061,1.452-2.222,2.3-3.294.626-.185,1.24-.408,1.853-.642.589-.222,1.177-.469,1.753-.729a21.342,21.342,0,0,0,2.116-1.11c.564-.346,1.165-.395.739-1.123s-1.49-1.209-2.028-1.863c-2.516-3-2.692-7.33-1.9-10.983.989-4.578,3.469-8.736,3.994-13.437A21.268,21.268,0,0,0,194.9,45.177c-.263-.6-.551-1.209-.851-1.814a.878.878,0,0,1,.125-.938.63.63,0,0,1,1.014-.062,14.79,14.79,0,0,1,1.99,2.542,19.339,19.339,0,0,1,2.942,10.612c-.124,5.307-2.867,9.774-3.994,14.857a11.74,11.74,0,0,0,.226,6.7c.738,1.938,2.78,3.2,3.268,5.207" transform="translate(-66.143 -14.821)"/>
    <path id="Trazado_995146" data-name="Trazado 995146" d="M171.694,110.259a14.706,14.706,0,0,1-.751,1.789,28.285,28.285,0,0,1-6.536,7.959,26.934,26.934,0,0,1-10.868,6.009,25.35,25.35,0,0,1-13.235.1c-.776-.222-1.527-.482-2.266-.766a23.48,23.48,0,0,1-2.905-1.444c-.2-.111-.4-.235-.6-.358a42.76,42.76,0,0,1-5.271-4.418c-.827-.7.112-2.233,1.077-1.616,1.715,1.086,3.618,1.962,5.4,2.961.438.247.876.482,1.315.716.8.406,1.6.79,2.417,1.11a16.875,16.875,0,0,0,1.74.6,21.517,21.517,0,0,0,11.8-.124,27.381,27.381,0,0,0,9.941-5.428,31.7,31.7,0,0,0,3.843-3.9,4.724,4.724,0,0,0,.3-.395c.864-1.073,1.615-2.234,2.467-3.307.626-.185,1.24-.407,1.853-.641a1.091,1.091,0,0,1,.288,1.147" transform="translate(-45.357 -38.381)"/>
    <path id="Trazado_995147" data-name="Trazado 995147" d="M182.859,76.323c-1.658-.777-3.052.882-3.784,2.14-.438.753-1.359,2.362-.981,3.255,1.007,2.373,5.254-2.382,5.553-3.544a1.589,1.589,0,0,0-.788-1.851" transform="translate(-62.615 -26.777)"/>
    <path id="Trazado_995148" data-name="Trazado 995148" d="M182.149,113.039a5.815,5.815,0,0,0-1.571-.516q-.763-.21-1.507-.475a24.292,24.292,0,0,1-3.064-1.344,26.628,26.628,0,0,1-2.744-1.64c-.695-.478-1.366-1-2.054-1.484-.119-.207-.231-.417-.36-.618-.35-.543-1.413-.262-1.278.428a.883.883,0,0,0,.071.759c.06.081.132.156.2.235a19.673,19.673,0,0,0,.812,2.015,17.3,17.3,0,0,0,3.736,5.4c.81.789,1.894,1.636,3.106,1.23a.773.773,0,0,0,.09-1.418,9.729,9.729,0,0,1-1.885-1.78c-.6-.659-1.191-1.4-1.741-2.121.379.2.8.449,1.228.672a24.242,24.242,0,0,0,3.163,1.357c.557.194,1.121.373,1.689.531a4.562,4.562,0,0,0,1.812.284.805.805,0,0,0,.3-1.52" transform="translate(-59.631 -37.525)"/>
    <path id="Trazado_995149" data-name="Trazado 995149" d="M186.278,66.723a.981.981,0,0,1-1.227-.6c-.688-1.863-6.46-3.357-7.575-3.27a12.142,12.142,0,0,0-3.394.629.753.753,0,0,1-.664-1.332,5.968,5.968,0,0,1,1.6-.777c1.864-.665,3.231-1.671,5.261-1.689,2.572-.023,7.544.3,8.063,3.5a3.369,3.369,0,0,1-2.066,3.542" transform="translate(-60.893 -20.992)"/>
    <path id="Trazado_995150" data-name="Trazado 995150" d="M142.407,141.741a7.378,7.378,0,0,1-.989,3.418c-.1-.012-.213-.037-.314-.049-2.09-.321-5.12-.382-6.5-2.233-1.327-1.777-.588-4.542-.113-6.491a20.944,20.944,0,0,1,2.367-5.924,19.427,19.427,0,0,1,1.916-2.714c.8.407,1.6.79,2.416,1.11-.526,1-.989,2.012-1.427,3.047-.176.408-.35.815-.513,1.223a25.432,25.432,0,0,0-1.2,3.689c-.226.913-.9,2.776-.576,3.7.3.864,2.881.889,3.707,1.037.4.062.814.123,1.227.185" transform="translate(-47.085 -44.936)"/>
    <path id="Trazado_995151" data-name="Trazado 995151" d="M79.3,107.524c-.4.827-.814,1.641-1.252,2.456a70.877,70.877,0,0,1-4.308,7.071c-2,2.912-4.558,3.726-8.014,3.9-.839.037-1.665.062-2.5.049a5.76,5.76,0,0,1,.1-3.591h.438c1.6,0,3.769.173,5.234-.555,1.328-.642,2.191-2.234,2.992-3.381,1.052-1.505,2.041-3.048,2.98-4.627.5-.827.977-1.654,1.44-2.493.964.395,1.929.79,2.892,1.173" transform="translate(-22.157 -37.41)"/>
    <path id="Trazado_995152" data-name="Trazado 995152" d="M162.842,21.878a10.791,10.791,0,0,0-2.742-1.11,7.908,7.908,0,0,1-3.556-2.53,36.125,36.125,0,0,0-5.5-5.355C141.944,6.034,133.1-.012,117.2,0A48.306,48.306,0,0,0,85.888,11.427C77.461,18.509,73.93,29.5,74.419,40.19c.263,5.787,1.214,12.315,5.209,16.831.742.843,1.942,1.83,2.874,2.907-1,3.094-2.393,6.1-2.3,9.39-.4.709-.8,1.417-1.225,2.115.751.272,1.49.543,2.242.814.275.1.563.21.839.321a29.064,29.064,0,0,0,4.921,1.715c3.718.753,3.819-3.1,5.972-4.8,2.856-2.271,6.875-.653,10.1-.653a3.715,3.715,0,0,0,3.556-2,42.521,42.521,0,0,0,2.028-4.837c.188-.135.363-.271.539-.406a35.413,35.413,0,0,0,4.119-3.7,71.409,71.409,0,0,0,7-8.515c.338-.481.677-.987,1.015-1.505a4.632,4.632,0,0,0,.639-.567c1.4-1.543,1.941-3.616,2.467-5.553a71.691,71.691,0,0,1,2.767-8.44,27.823,27.823,0,0,1,1.565-3.468c.313-.53.739-1.246,1.427-1.344a8.1,8.1,0,0,1,2.417.568,40.148,40.148,0,0,0,7.875.814q4.6.148,9.228.272c1.453.049,2.9.111,4.357.16.288,0,.576.025.864.049a4.95,4.95,0,0,0,1.766-.049c1.177,1.407,3.593,1.839,4.8.173a2.483,2.483,0,0,0,.4-2.073,3.621,3.621,0,0,0,.964-6.528" transform="translate(-26.162 0)"/>
    <path id="Trazado_995153" data-name="Trazado 995153" d="M139.543,70.494a1.113,1.113,0,0,1-.431.631,8.232,8.232,0,0,1,.054,2.283,9.642,9.642,0,0,1-3.753,6.128c-1.7,1.408-3.913,2.826-6.134,3a8.409,8.409,0,0,1-6.082-2.549,10.738,10.738,0,0,1-2.264-12.19,10.289,10.289,0,0,1,10.555-5.828,9.892,9.892,0,0,1,5.5,2.66c1.521,1.44,3.095,3.623,2.556,5.862" transform="translate(-42.194 -21.773)" fill="#fff"/>
    <path id="Trazado_995154" data-name="Trazado 995154" d="M180.64,199.06a27.025,27.025,0,0,1-9.666,1.765h-144A26.78,26.78,0,0,1,0,174.245V115.78a65.352,65.352,0,0,1,8.928.235c7.149.691,14.149,2.467,21.235,3.6a20.605,20.605,0,0,0,2.2,6.886,35.066,35.066,0,0,0,5.3,7.786,51.337,51.337,0,0,0,16.352,12.019c12.208,5.923,28.436,10.229,41.419,4.158,4.971-2.332,8.965-6.528,9.779-11.624.738.086,1.465.172,2.2.271,9.566,1.222,19.22,2.826,27.784,7.453,8.79,4.75,14.687,12.66,20.823,20.237,6.386,7.872,12.846,15.733,18.881,23.865q3.043,4.09,5.735,8.391" transform="translate(0 -40.706)" fill="#bde6e5"/>
    <path id="Trazado_995155" data-name="Trazado 995155" d="M109.9,6.391a10.663,10.663,0,0,0-.063-1.381,1.465,1.465,0,0,0-.511-1.026,1.512,1.512,0,0,0-1.053-.347,1.489,1.489,0,0,0-1.024.5,1.532,1.532,0,0,0-.241.441,3.269,3.269,0,0,0-.384-.432,2.468,2.468,0,0,0-.274-.173,1.223,1.223,0,0,0-.892-.2,1.144,1.144,0,0,0-.674.376,1.126,1.126,0,0,0-.283.835,1.332,1.332,0,0,0,.1.685c.107.218.215.438.335.649a6.352,6.352,0,0,0,.482.724,9.259,9.259,0,0,0,.758.859c.213.214.448.4.674.593a1.24,1.24,0,0,0,.74.275c.082.054.163.109.256.16a2.561,2.561,0,0,0,.393.163.9.9,0,0,0,.453-.01,1.183,1.183,0,0,0,.674-.376,1.709,1.709,0,0,0,.565-.951,2.76,2.76,0,0,0,.016-.666c-.021-.234-.04-.467-.049-.7" transform="translate(-36.755 -1.278)"/>
    <path id="Trazado_995156" data-name="Trazado 995156" d="M121.58,140.957c-.814,5.1-4.808,9.291-9.779,11.624-12.984,6.071-29.212,1.764-41.42-4.159A51.335,51.335,0,0,1,54.03,136.4a35.07,35.07,0,0,1-5.3-7.787,20.615,20.615,0,0,1-2.2-6.886c.163.037.313.062.476.087.889.148,1.778.283,2.679.395q1.991.277,3.982.444c1.289.1,2.579.161,3.869.161a5.772,5.772,0,0,0-.1,3.591c.814,3.245,3.719,6.478,5.872,8.551,7.149,6.9,17.016,10.365,26.62,12.39,5.234,1.1,11.494,2.344,16.527-.174a10.285,10.285,0,0,0,4.245-4.133,7.375,7.375,0,0,0,.989-3.418q1.5.24,3.005.444c.213.025.413.062.626.086,1,.136,1.991.259,2.992.383,1.09.148,2.179.283,3.268.419" transform="translate(-16.367 -42.82)" fill="#fff"/>
    <path id="Trazado_995157" data-name="Trazado 995157" d="M194.664,213.013c-.8,2.949-2.555,5.775-3.844,8.539-1.339,2.85-2.679,5.689-3.906,8.576-.651,1.518-1.277,3.036-1.89,4.566H181.68q1.051-2.832,2.266-5.652c1.276-2.973,2.629-5.923,4.157-8.786,1.415-2.64,2.9-5.811,5.021-7.984.563-.58,1.79-.16,1.54.74" transform="translate(-63.908 -74.575)" fill="#fff"/>
    <path id="Trazado_995158" data-name="Trazado 995158" d="M83.337,271.042a182.8,182.8,0,0,1-18.631-14.45c-5.509-5.047-10.931-11.043-13.924-17.929a.63.63,0,0,1-.05-.395c-.288.025-.576.037-.864.062a2.758,2.758,0,0,1-1.853-.124c-.138.012-.288.025-.427.025-.788-.05-1.151-1.185-.287-1.432.163-.049.338-.086.5-.123a2.555,2.555,0,0,1,1.54-.616c.864-.173,1.74-.322,2.617-.457,1.652-.247,3.331-.432,5-.568,1.528-1.036,2.868-.937,4.445-1.073,1.553-.148,3.118-.333,4.658-.555a73.494,73.494,0,0,0,9.642-2.122,1.55,1.55,0,0,1,2,1.332A186.833,186.833,0,0,0,86,269.265a1.681,1.681,0,0,1-2.668,1.777" transform="translate(-16.463 -81.334)" fill="#bde6e5"/>
  </g>
</svg>
