<svg xmlns="http://www.w3.org/2000/svg" xmlns:xlink="http://www.w3.org/1999/xlink" width="49" height="49" viewBox="0 0 49 49">
  <defs>
    <clipPath id="clip-path">
      <rect id="Rectángulo_454535" data-name="Rectángulo 454535" width="49" height="49" transform="translate(185.891 820)" fill="#fff" stroke="#707070" stroke-width="1"/>
    </clipPath>
    <clipPath id="clip-path-2">
      <path id="path6042" d="M0-49H49V0H0Z"/>
    </clipPath>
  </defs>
  <g id="Enmascarar_grupo_1119121" data-name="Enmascarar grupo 1119121" transform="translate(-185.891 -820)" clip-path="url(#clip-path)">
    <g id="g6036" transform="translate(185.891 869)">
      <g id="g6038">
        <g id="g6040" clip-path="url(#clip-path-2)">
          <g id="g6046" transform="translate(37.386 -31.937)">
            <path id="path6048" d="M0,0C-2.77-10.876-5.71-13.915-5.71-13.915L-19.322-9.29-27.09,2.62s15.352,2.912,15.352,1.895c0-2.285-.068-6.536,3.26-7.245,2.124-.453,3.631.946,4.14,3.1A5.933,5.933,0,0,0,0,0" fill="#dc8995"/>
          </g>
          <g id="g6050" transform="translate(37.897 -32.588)">
            <path id="path6052" d="M0,0-4.222-12.424a1.439,1.439,0,0,0-1.825-.9l-.174.059L-1.969-.753a.718.718,0,0,1-.449.911L-4.07.719A.72.72,0,0,1-4.993.227a4.137,4.137,0,0,0-4.206-3A4.152,4.152,0,0,0-13.1,1.1a4.124,4.124,0,0,0,.466,2.181.711.711,0,0,1-.463.507l-3.788,1.287.328.966,1.873.47,4.421-1.5a.72.72,0,0,0,.248-1.214,3.046,3.046,0,0,1-.8-1.245A3.063,3.063,0,0,1-8.7-1.4a3.008,3.008,0,0,1,.755-.1A3.078,3.078,0,0,1-5.081.407a3.1,3.1,0,0,1,.174.6A3.039,3.039,0,0,1-4.9,2.069a.717.717,0,0,0,.938.8L-.9,1.825A1.439,1.439,0,0,0,0,0" fill="#d5717f"/>
          </g>
          <g id="g6054" transform="translate(20.495 -30.747)">
            <path id="path6056" d="M0,0A3.046,3.046,0,0,1-1.245.8,3.063,3.063,0,0,1-5.194-1.322,3.074,3.074,0,0,1-3.386-4.935,3.052,3.052,0,0,1-1.728-5.12a.717.717,0,0,0,.8-.938l-1.5-4.421L-16.217-5.795a1.439,1.439,0,0,0-.9,1.825l4.685,13.786L-2,16.343,1.785,6.972l.266-4.261L1.214.248A.72.72,0,0,0,0,0" fill="#f7e365"/>
          </g>
          <g id="g6058" transform="translate(21.241 -26.834)">
            <path id="path6060" d="M0,0,1.04,3.059,1.97.756,1.305-1.2.449-.911A.718.718,0,0,0,0,0" fill="#f3d332"/>
          </g>
          <g id="g6062" transform="translate(25.564 -16.648)">
            <path id="path6064" d="M0,0C5.742-1.327,4.684-3.872,3.27-5.649a3.047,3.047,0,0,0-1.661.087,3.047,3.047,0,0,0-1.245.8.731.731,0,0,1-.615.23A2.48,2.48,0,0,1-2.07-6.011c-.5-.969-1.819-2.9-1.819-2.9l-2.885.98a.72.72,0,0,0-.248,1.214,3.046,3.046,0,0,1,.8,1.245A3.063,3.063,0,0,1-8.343-1.52a3.074,3.074,0,0,1-3.614-1.807,3.053,3.053,0,0,1-.185-1.658.717.717,0,0,0-.938-.8l-4.421,1.5,4.482,13.191L1.666,5.158S-.226.052,0,0" fill="#dc8995"/>
          </g>
          <g id="g6066" transform="translate(25.313 -21.179)">
            <path id="path6068" d="M0,0A.7.7,0,0,1-.6-.478L-2.1-4.9l-1.536.522,1.322,3.89A.718.718,0,0,0-1.636,0Z" fill="#d5717f"/>
          </g>
          <g id="g6070" transform="translate(28.834 -22.297)">
            <path id="path6072" d="M0,0A3.216,3.216,0,0,1-1.718,4.386a2.254,2.254,0,0,1-1.214.226,3.326,3.326,0,0,1-.392-.1.718.718,0,0,0-.881.92l1.3,3.816a.718.718,0,0,1-.449.911l-12.933,4.395.2.6a1.439,1.439,0,0,0,1.825.9L-1.837,11.83a1.438,1.438,0,0,0,.9-1.825l-1.04-3.059a.716.716,0,0,1,.79-.94A3.052,3.052,0,0,0,.48,5.823a3.024,3.024,0,0,0,1.125-.8l.7-2.743h0A3.061,3.061,0,0,0,0,0" fill="#d5717f"/>
          </g>
          <g id="g6074" transform="translate(44.517 -20.211)">
            <path id="path6076" d="M0,0H-2.755s-1.12-.035-1.256-.489c-.206-.688.528-2.022.417-3.141A2.742,2.742,0,0,0-4.823-5.3a3.012,3.012,0,0,0-1.045-.266,3.063,3.063,0,0,0-3.28,3.055A3.047,3.047,0,0,0-8.79-1.07.72.72,0,0,1-9.416,0h-3.23a1.439,1.439,0,0,0-1.439,1.439V3.756a4.477,4.477,0,0,1,3.059.259,4.268,4.268,0,0,1,2.5,4.2,3.074,3.074,0,0,1-2.874,2.84,3.053,3.053,0,0,1-1.63-.359.717.717,0,0,0-1.058.631v2.755l15.039.957Z" fill="#f7e365"/>
          </g>
          <g id="g6078" transform="translate(32.939 -17.131)">
            <path id="path6080" d="M0,0A3.934,3.934,0,0,0-2.507.676v.913a.72.72,0,0,0,1.07.626A3.047,3.047,0,0,1,0,1.857,3.062,3.062,0,0,1,3.055,4.719V3A3.128,3.128,0,0,0,0,0" fill="#f3d332"/>
          </g>
          <g id="g6082" transform="translate(39.759 -21.347)">
            <path id="path6084" d="M0,0A.717.717,0,0,0,.583,1.136H2A.717.717,0,0,1,1.371.078a3.052,3.052,0,0,0,.359-1.63A3.077,3.077,0,0,0-.065-4.16a3.019,3.019,0,0,1,.75,1.666A3.546,3.546,0,0,1,0,0" fill="#f3d332"/>
          </g>
          <g id="g6086" transform="translate(44.992 -20.211)">
            <path id="path6088" d="M0,0H-.476V13.367a.718.718,0,0,1-.718.718H-14.56v.476A1.439,1.439,0,0,0-13.122,16H0A1.439,1.439,0,0,0,1.439,14.56V1.439A1.439,1.439,0,0,0,0,0" fill="#f3d332"/>
          </g>
          <g id="g6090" transform="translate(21.03 -42.234)">
            <path id="path6092" d="M0,0,10.82-3.677a1.439,1.439,0,0,1,1.825.9L16.867,9.646a1.439,1.439,0,0,1-.9,1.825l-3.059,1.04a.717.717,0,0,1-.938-.8,3.063,3.063,0,1,0-5.12,1.728A.72.72,0,0,1,6.6,14.654l-4.421,1.5-.5-1.485" fill="none" stroke="#000" stroke-linecap="round" stroke-linejoin="round" stroke-miterlimit="10" stroke-width="1.436"/>
          </g>
          <g id="g6094" transform="translate(8.063 -20.93)">
            <path id="path6096" d="M0,0-4.685-13.786a1.439,1.439,0,0,1,.9-1.825L10-20.3l1.5,4.421a.717.717,0,0,1-.8.938,3.052,3.052,0,0,0-1.658.185,3.074,3.074,0,0,0-1.807,3.614,3.063,3.063,0,0,0,3.948,2.123,3.045,3.045,0,0,0,1.245-.8.72.72,0,0,1,1.214.248l.134.394" fill="none" stroke="#000" stroke-linecap="round" stroke-linejoin="round" stroke-miterlimit="10" stroke-width="1.436"/>
          </g>
          <g id="g6098" transform="translate(30.439 -17.269)">
            <path id="path6100" d="M0,0A3.024,3.024,0,0,1-1.125.8,3.052,3.052,0,0,1-2.783.98a.717.717,0,0,0-.8.938l1.04,3.059a1.438,1.438,0,0,1-.9,1.825l-12.424,4.222a1.439,1.439,0,0,1-1.825-.9L-22.376-3.662l4.421-1.5a.717.717,0,0,1,.938.8,3.052,3.052,0,0,0,.185,1.658A3.074,3.074,0,0,0-13.218-.9,3.063,3.063,0,0,0-11.1-4.847a3.046,3.046,0,0,0-.8-1.245.72.72,0,0,1,.248-1.214l4.421-1.5,1.5,4.421a.72.72,0,0,0,1.214.248,3.049,3.049,0,0,1,1.245-.8A3.063,3.063,0,0,1,.682-2.819c.007.025.013.05.019.076" fill="none" stroke="#000" stroke-linecap="round" stroke-linejoin="round" stroke-miterlimit="10" stroke-width="1.436"/>
          </g>
          <g id="g6102" transform="translate(46.431 -10.638)">
            <path id="path6104" d="M0,0V4.987A1.439,1.439,0,0,1-1.439,6.426H-14.56A1.439,1.439,0,0,1-16,4.987V1.756a.717.717,0,0,1,1.058-.631,3.054,3.054,0,0,0,1.63.359,3.074,3.074,0,0,0,2.874-2.84,3.063,3.063,0,0,0-3.055-3.28,3.046,3.046,0,0,0-1.437.358A.72.72,0,0,1-16-4.9v-3.23A1.439,1.439,0,0,1-14.56-9.574h3.23a.72.72,0,0,0,.626-1.07,3.046,3.046,0,0,1-.358-1.437,3.063,3.063,0,0,1,3.28-3.055,3.074,3.074,0,0,1,2.84,2.874,3.052,3.052,0,0,1-.359,1.63A.717.717,0,0,0-4.67-9.574h3.231A1.439,1.439,0,0,1,0-8.135v5.264" fill="none" stroke="#000" stroke-linecap="round" stroke-linejoin="round" stroke-miterlimit="10" stroke-width="1.436"/>
          </g>
          <g id="g6106" transform="translate(8.056 -5.514)">
            <path id="path6108" d="M0,0A3.658,3.658,0,0,1,.13.491,3.631,3.631,0,0,1-2.34,4.628,3.645,3.645,0,0,1-6.807,2.517,3.631,3.631,0,0,1-4.6-2.269L-5.826-5.863" fill="none" stroke="#000" stroke-linecap="round" stroke-linejoin="round" stroke-miterlimit="10" stroke-width="1.436"/>
          </g>
          <g id="g6110" transform="translate(0.718 -15.826)">
            <path id="path6112" d="M0,0H0" fill="none" stroke="#000" stroke-linecap="round" stroke-linejoin="round" stroke-miterlimit="10" stroke-width="1.436"/>
          </g>
          <g id="g6114" transform="translate(40.944 -43.486)">
            <path id="path6116" d="M0,0A3.658,3.658,0,0,1-.13-.491,3.631,3.631,0,0,1,2.34-4.628,3.645,3.645,0,0,1,6.807-2.517,3.631,3.631,0,0,1,4.6,2.269L5.826,5.863" fill="none" stroke="#000" stroke-linecap="round" stroke-linejoin="round" stroke-miterlimit="10" stroke-width="1.436"/>
          </g>
          <g id="g6118" transform="translate(48.282 -33.174)">
            <path id="path6120" d="M0,0H0" fill="none" stroke="#000" stroke-linecap="round" stroke-linejoin="round" stroke-miterlimit="10" stroke-width="1.436"/>
          </g>
        </g>
      </g>
    </g>
  </g>
</svg>
