<svg xmlns="http://www.w3.org/2000/svg" xmlns:xlink="http://www.w3.org/1999/xlink" width="96" height="96" viewBox="0 0 96 96">
  <defs>
    <clipPath id="clip-path">
      <rect id="Rectángulo_454925" data-name="Rectángulo 454925" width="55" height="55" transform="translate(814.449 2940.665)" fill="#fef6fe" stroke="#707070" stroke-width="1"/>
    </clipPath>
  </defs>
  <g id="Grupo_154427" data-name="Grupo 154427" transform="translate(-794.039 -2920.081)">
    <path id="Elipse_5729" data-name="Elipse 5729" d="M48,0A48,48,0,1,1,0,48,48,48,0,0,1,48,0Z" transform="translate(794.039 2920.081)" fill="#604161"/>
    <g id="Enmascarar_grupo_1119202" data-name="Enmascarar grupo 1119202" clip-path="url(#clip-path)">
      <path id="mantenimiento" d="M16.415,51.164l.511.9v0a2,2,0,0,1-.754,2.711L14.1,55.956h0a2,2,0,0,1-2.712-.754L5.274,44.411a2,2,0,0,1,.75-2.714L8.1,40.519h0a2,2,0,0,1,2.712.751v0l.4.7,5.3-3.066c1.677-.97,3.393-1.592,5.236-.994a53.327,53.327,0,0,0,7.5,2.31.894.894,0,0,1,.117.03,3.035,3.035,0,0,1,2.071,3.655q-.045.167-.1.324a3.983,3.983,0,0,0,.551-.267l7.407-4.314c2.759-1.607,4.6-1.406,5.644-.708a3.237,3.237,0,0,1-.03,5.237L31.459,52.458a5.8,5.8,0,0,1-4.7.668h0L17.374,50.61ZM12.1,43.543,15.528,49.6l1.268-.732a.9.9,0,0,1,.684-.09l9.748,2.613a4.058,4.058,0,0,0,3.285-.461h0l13.44-8.275a1.252,1.252,0,0,0,.492-1.056c.034-1.274-1.251-2.133-4.254-.383l-7.406,4.313a5.675,5.675,0,0,1-3.9.688h0l-.918-.149h0l-.036-.007h0c-1.675-.344-3.228-.849-4.951-1.312A.9.9,0,0,1,23.444,43c1.674.45,3.184.944,4.809,1.28a1.2,1.2,0,0,0,1.438-.839h0a1.237,1.237,0,0,0-.837-1.456,56.041,56.041,0,0,1-7.664-2.357h0c-1.338-.434-2.559.135-3.777.84ZM9.251,42.161h0a.192.192,0,0,0-.259-.073L6.912,43.264h0a.189.189,0,0,0-.069.258h0L12.95,54.317h0a.192.192,0,0,0,.26.071l2.075-1.176h0a.191.191,0,0,0,.07-.26Zm-.636,1.054a.862.862,0,1,1-.73.977.862.862,0,0,1,.73-.977ZM37.582,4.38a16.409,16.409,0,0,1,3.943,1.634l2.535-1.127a.9.9,0,0,1,1,.186L48.55,8.561a.9.9,0,0,1,.187,1L47.614,12.1a16.378,16.378,0,0,1,1.635,3.949l2.585.995a.9.9,0,0,1,.577.841v4.933a.9.9,0,0,1-.577.841l-2.586,1a16.542,16.542,0,0,1-1.635,3.943l1.123,2.536a.9.9,0,0,1-.187,1L45.062,35.62a.9.9,0,0,1-1,.187l-2.534-1.123a16.363,16.363,0,0,1-3.944,1.634l-1,2.585a.9.9,0,0,1-.841.577H30.812a.9.9,0,0,1-.841-.577l-.995-2.585a16.518,16.518,0,0,1-3.948-1.635l-2.536,1.123a.9.9,0,0,1-1-.187L18,32.132a.9.9,0,0,1-.186-1L18.944,28.6a16.509,16.509,0,0,1-1.637-3.943l-2.587-1a.9.9,0,0,1-.577-.841V17.882a.9.9,0,0,1,.577-.841l2.586-1A16.523,16.523,0,0,1,18.944,12.1L17.817,9.564a.9.9,0,0,1,.186-1l3.488-3.488a.9.9,0,0,1,1-.186l2.535,1.127A16.408,16.408,0,0,1,28.972,4.38l1-2.591a.9.9,0,0,1,.84-.577h4.933a.9.9,0,0,1,.841.578ZM36.068,5.462l-.941-2.448h-3.7l-.945,2.449a.9.9,0,0,1-.632.552,14.615,14.615,0,0,0-4.292,1.778.9.9,0,0,1-.839.056l-2.4-1.065L19.715,9.4l1.065,2.4a.9.9,0,0,1-.056.839,14.737,14.737,0,0,0-1.784,4.3.9.9,0,0,1-.552.63l-2.443.94v3.7l2.443.94a.9.9,0,0,1,.552.63,14.707,14.707,0,0,0,1.783,4.293.9.9,0,0,1,.057.84l-1.065,2.4,2.613,2.613,2.4-1.061a.9.9,0,0,1,.835.056,14.721,14.721,0,0,0,4.3,1.78.9.9,0,0,1,.633.553l.94,2.443h3.7l.94-2.443a.9.9,0,0,1,.632-.553,14.557,14.557,0,0,0,4.29-1.778.9.9,0,0,1,.839-.058l2.4,1.061L46.839,31.3l-1.061-2.4a.9.9,0,0,1,.056-.835,14.746,14.746,0,0,0,1.78-4.293.9.9,0,0,1,.553-.632l2.443-.94V18.5l-2.443-.94a.9.9,0,0,1-.553-.633,14.591,14.591,0,0,0-1.778-4.3.9.9,0,0,1-.057-.837l1.061-2.4L44.226,6.785,41.83,7.85a.9.9,0,0,1-.839-.056A14.613,14.613,0,0,0,36.7,6.016a.9.9,0,0,1-.633-.553ZM33.276,7.38A12.969,12.969,0,1,1,20.31,20.346,12.967,12.967,0,0,1,33.276,7.38Zm0,1.8A11.168,11.168,0,1,0,44.447,20.346,11.16,11.16,0,0,0,33.276,9.182Zm-1.444,19.63a.9.9,0,1,1-1.8,0V24.64a6.97,6.97,0,0,1,.1-12.385.9.9,0,0,1,1.309.8v5.582l1.84,1.062,1.84-1.062V13.059a.9.9,0,0,1,1.309-.8,6.971,6.971,0,0,1,.1,12.385v4.17a.9.9,0,0,1-1.8,0V24.07a.9.9,0,0,1,.553-.831,5.167,5.167,0,0,0,1.641-8.431v4.352a.9.9,0,0,1-.451.78l-2.741,1.582a.9.9,0,0,1-.9,0l-2.741-1.582a.9.9,0,0,1-.451-.78s0-4.352,0-4.352A5.167,5.167,0,0,0,31.28,23.24a.9.9,0,0,1,.552.831Z" transform="translate(813.236 2939.452)" fill="#fef6fe" fill-rule="evenodd"/>
    </g>
  </g>
</svg>
