<svg xmlns="http://www.w3.org/2000/svg" xmlns:xlink="http://www.w3.org/1999/xlink" width="146" height="161" viewBox="0 0 146 161">
  <defs>
    <clipPath id="clip-path">
      <rect id="Rect치ngulo_454906" data-name="Rect치ngulo 454906" width="132.56" height="161" fill="none"/>
    </clipPath>
    <clipPath id="clip-path-3">
      <rect id="Rect치ngulo_454904" data-name="Rect치ngulo 454904" width="5.404" height="5.693" fill="none"/>
    </clipPath>
  </defs>
  <g id="Grupo_1177324" data-name="Grupo 1177324" transform="translate(-311.711 -3657)">
    <circle id="Elipse_13701" data-name="Elipse 13701" cx="73" cy="73" r="73" transform="translate(311.711 3672)" fill="#f7e869"/>
    <g id="Grupo_1177345" data-name="Grupo 1177345" transform="translate(318.421 3657)">
      <g id="Grupo_1177344" data-name="Grupo 1177344" clip-path="url(#clip-path)">
        <g id="Grupo_1177343" data-name="Grupo 1177343">
          <g id="Grupo_1177342" data-name="Grupo 1177342" clip-path="url(#clip-path)">
            <path id="Trazado_995407" data-name="Trazado 995407" d="M18.909,186.7,8.389,208.425c-.773,1.6-1.52,3.595-.474,5.027,1.2,1.64,3.714,1.214,5.655.616a5.951,5.951,0,0,0,2.538-1.257,5.915,5.915,0,0,0,1.225-2.3q3.588-10.127,6.813-20.379a1.22,1.22,0,0,0-.528-1.683l-4-3.138Z" transform="translate(-4.142 -103.716)" fill="#e2a881"/>
            <path id="Trazado_995408" data-name="Trazado 995408" d="M28.047,230.507q-2.186,1.738-4.45,3.372a.3.3,0,0,0-.106.4.3.3,0,0,0,.4.106q2.325-1.678,4.57-3.464a.3.3,0,0,0,0-.417.3.3,0,0,0-.417,0" transform="translate(-13.125 -128.963)" fill="#844d2f"/>
            <path id="Trazado_995409" data-name="Trazado 995409" d="M209.5,336.049H189.834c.731-7.828,1.556-15.6,2.715-23.282l12.465,15.289a.631.631,0,0,1,.376-.8l4.043,2.448a1.577,1.577,0,0,1,.781.782,1.561,1.561,0,0,1,0,.693c-.233,1.536-.469,3.151-.707,4.873" transform="translate(-106.246 -175.049)" fill="#a0323d"/>
            <path id="Trazado_995410" data-name="Trazado 995410" d="M57.253,269.741a44.581,44.581,0,0,0,.245,14.225c-6.473,1.549-14.232,2.683-20.381.138-.244-.1.133-.221,0-.45-.1-.18.007-.4,0-.605q-.256-7.956-.512-15.913a76.192,76.192,0,0,0,18.017.3Z" transform="translate(-20.487 -149.511)" fill="#fbc9a4"/>
            <path id="Trazado_995411" data-name="Trazado 995411" d="M53.45,228.293H31.729l-2.3-10.071a16.009,16.009,0,0,1,2.815-13.2l7.567-10.052-.2.488a19.579,19.579,0,0,1,6.376-3.21,8.512,8.512,0,0,1,6.889,1.006,9.737,9.737,0,0,1,3.288,4.783c1.614,4.474,1.45,9.365,1.3,14.118-.26,8.05-3.242,9.927-4.007,16.136" transform="translate(-16.242 -107.43)" fill="#7d8acc"/>
            <path id="Trazado_995412" data-name="Trazado 995412" d="M200.043,330.225c-2.342-12.26-4.069-21.406-4.276-23.262l20.769-1.234a44.806,44.806,0,0,1,10.3.181l.653-3.549c.3,9.469,2.575,18.516,4.161,27.864Z" transform="translate(-109.567 -169.225)" fill="#d15259"/>
            <path id="Trazado_995413" data-name="Trazado 995413" d="M144.553,189.585a120.409,120.409,0,0,0-6.851,17.038q-6.055-5.412-11.7-11.26a4.323,4.323,0,0,0-.322-3.708c-.207-.346-1.008-7.708-.3-9.518-3.014,1.58-2.362,6.876-3.161,6.753a1.577,1.577,0,0,1-.759-.448l-8.182-7.238a.468.468,0,0,0-.767.246,2.53,2.53,0,0,0,.355,1.594,31.717,31.717,0,0,0,3.858,5.315,48.552,48.552,0,0,0-6.855-6.777.465.465,0,0,0-.751.352,3.391,3.391,0,0,0,.878,1.9c1.39,1.722,3.493,3.809,4.883,5.531-1.48-1.784-3.8-4.02-5.925-4.861a.245.245,0,0,0-.291.366,53.888,53.888,0,0,0,5.106,6.328,33.134,33.134,0,0,0-4.753-2.226.63.63,0,0,0-.689.151c-.25.278-.07.614.12.867,2.118,2.815,9.393,9.108,10.636,9.6a13.823,13.823,0,0,1,1.955.52,3.243,3.243,0,0,1,1.059,1.243,159.569,159.569,0,0,0,13.1,18.816,11.189,11.189,0,0,0,2.767,2.687,3.971,3.971,0,0,0,3.7.369,5.69,5.69,0,0,0,2.133-2.29,70.307,70.307,0,0,0,9.177-23.215Z" transform="translate(-60.563 -101.35)" fill="#fbc9a4"/>
            <path id="Trazado_995414" data-name="Trazado 995414" d="M138.732,198.586a5.332,5.332,0,0,0-.841,4.612,5.031,5.031,0,0,0,.544,1.252c.2.324.708.027.509-.3a4.759,4.759,0,0,1-.317-4.2,4.525,4.525,0,0,1,.614-1.066.3.3,0,0,0-.106-.4.3.3,0,0,0-.4.106" transform="translate(-77.065 -111.063)" fill="#844d2f"/>
            <path id="Trazado_995415" data-name="Trazado 995415" d="M122.146,193.776q-1.359,2.14-2.9,4.156-.429.561-.874,1.109a.3.3,0,0,0,0,.417.3.3,0,0,0,.417,0q1.623-2.009,3.067-4.157.408-.609.8-1.227c.2-.321-.306-.618-.509-.3" transform="translate(-66.203 -108.376)" fill="#844d2f"/>
            <path id="Trazado_995416" data-name="Trazado 995416" d="M112.075,188.2a45.552,45.552,0,0,0,3.743,4.182q.569.561,1.157,1.1a.3.3,0,1,0,.417-.417,45.551,45.551,0,0,1-3.888-4.047q-.516-.61-1.012-1.237a.3.3,0,0,0-.417,0,.3.3,0,0,0,0,.417" transform="translate(-62.679 -105.049)" fill="#844d2f"/>
            <path id="Trazado_995417" data-name="Trazado 995417" d="M118.246,187.537l3.258,3.522a.3.3,0,0,0,.417-.417l-3.258-3.522a.295.295,0,0,0-.417.417" transform="translate(-66.132 -104.679)" fill="#844d2f"/>
            <path id="Trazado_995418" data-name="Trazado 995418" d="M123.168,206.148a2.958,2.958,0,0,0,1.067,1.254,4,4,0,0,0,1.732.538,6.543,6.543,0,0,1,3.024,1.226,6.081,6.081,0,0,1,1.265,1.275.3.3,0,0,0,.4.106.3.3,0,0,0,.106-.4A6.924,6.924,0,0,0,128.211,208a6.826,6.826,0,0,0-1.589-.547,7.509,7.509,0,0,1-1.767-.379,2.428,2.428,0,0,1-1.177-1.226.3.3,0,0,0-.4-.106.3.3,0,0,0-.106.4" transform="translate(-68.915 -115.13)" fill="#844d2f"/>
            <path id="Trazado_995419" data-name="Trazado 995419" d="M143.139,217.68c-.045.067-.092.133-.14.2.042-.054-.008.01-.014.016l-.03.037-.078.092a3.794,3.794,0,0,1-.351.347l-.092.077-.047.038c.032-.026.015-.011-.007.005q-.1.072-.2.138a3.662,3.662,0,0,1-.431.243.3.3,0,0,0-.106.4.3.3,0,0,0,.4.106,4.077,4.077,0,0,0,1.6-1.4.3.3,0,0,0-.106-.4.3.3,0,0,0-.4.106" transform="translate(-79.253 -121.751)" fill="#844d2f"/>
            <path id="Trazado_995420" data-name="Trazado 995420" d="M174.781,240.031a17.6,17.6,0,0,1,2.1,10.549.3.3,0,0,0,.3.3.3.3,0,0,0,.3-.3,17.826,17.826,0,0,0-.04-4.346,18.141,18.141,0,0,0-2.139-6.5c-.185-.332-.694-.035-.509.3" transform="translate(-97.799 -134.092)" fill="#844d2f"/>
            <path id="Trazado_995421" data-name="Trazado 995421" d="M188.052,187.749c-4.62,4.035-7.334,9.768-9.922,15.33a1.147,1.147,0,0,0,.181,1.488,162.018,162.018,0,0,1,9.6,14.835q2.826-6.984,5.157-14.155Z" transform="translate(-99.587 -105.079)" fill="#7f7150"/>
            <path id="Trazado_995422" data-name="Trazado 995422" d="M176.742,218.1l-1.181,2.95a1.054,1.054,0,0,0,.228,1.361,99.075,99.075,0,0,1,9.959,14.664,9.2,9.2,0,0,1,1.938-3.333c-3.306-4.763-6.976-11.5-11-15.67Z" transform="translate(-98.173 -122.051)" fill="#51462f"/>
            <path id="Trazado_995423" data-name="Trazado 995423" d="M205.943,173.54c-3.487.834-6.989,2.095-9.631,4.519a17.536,17.536,0,0,0-5.08,10.438,43.832,43.832,0,0,0,.27,11.8c1.428,11.459,3.943,23.133,1.5,34.419a34.592,34.592,0,0,0,9.517,2.8,29.8,29.8,0,0,0,5.142-.071,128.907,128.907,0,0,0,18.08-3.214c.756-6.263-.315-12-.428-18.308-.081-4.481-.381-8.963-.183-13.44a3.235,3.235,0,0,1,1.549-3.046c1.694-1.366,2.315-6.794,4.124-8-2.232-4.84-8.258-21.334-24.565-17.409Z" transform="translate(-106.863 -97.059)" fill="#c2b38c"/>
            <path id="Trazado_995424" data-name="Trazado 995424" d="M12.281,148.562q1.229,2.811,2.46,5.622a16.455,16.455,0,0,1,1.5,4.642,5.991,5.991,0,0,1-.735,3.8.246.246,0,0,0,.308.354l2.56-1.128a49.647,49.647,0,0,0,4.336,5.353,1.623,1.623,0,0,0,.769.547,1.551,1.551,0,0,0,1.07-.28,12.342,12.342,0,0,0,4.388-4.246l1.754,5.567a50.514,50.514,0,0,1,7.449-3.966q-3.9-11.084-8.424-21.939a2.438,2.438,0,0,0-.847-1.227,2.324,2.324,0,0,0-1.194-.241,24.419,24.419,0,0,0-11.163,2.553c-1.959.977-4.017,2.673-3.8,4.851Z" transform="translate(-6.873 -79.146)" fill="#fbc9a4"/>
            <path id="Trazado_995425" data-name="Trazado 995425" d="M27.4,172.772l-1.3,2.247a.3.3,0,0,0,.4.4,7.851,7.851,0,0,1,1.992-.722.3.3,0,1,0-.157-.569,8.425,8.425,0,0,0-2.133.781l.4.4,1.3-2.247a.3.3,0,0,0-.509-.3" transform="translate(-14.583 -96.617)"/>
            <path id="Trazado_995426" data-name="Trazado 995426" d="M28.881,187.53a5.038,5.038,0,0,1,2.885-1.613.3.3,0,0,0,.206-.363.3.3,0,0,0-.363-.206,5.55,5.55,0,0,0-3.145,1.765.3.3,0,0,0,0,.417.3.3,0,0,0,.417,0" transform="translate(-15.884 -103.732)" fill="#844d2f"/>
            <path id="Trazado_995427" data-name="Trazado 995427" d="M21.593,167.124q.22.512.469,1.011a.424.424,0,0,0,.133.177c.221.144.446-.163.582-.388a2.18,2.18,0,0,1,1.384-.915,6.461,6.461,0,0,1,1.7-.1,5.675,5.675,0,0,0-2.092-.575,2.859,2.859,0,0,0-2.027.652Z" transform="translate(-12.085 -93.095)" fill="#873139"/>
            <path id="Trazado_995428" data-name="Trazado 995428" d="M241.384,215.979l-3.231-5.242q-1.611-2.614-3.222-5.228c-.589-.958-1.171-1.921-1.706-2.911-.181-.334-.69-.037-.509.3.955,1.769,2.046,3.463,3.1,5.173l3.231,5.242,1.828,2.966c.2.323.709.027.509-.3" transform="translate(-130.225 -113.308)" fill="#7f7150"/>
            <path id="Trazado_995429" data-name="Trazado 995429" d="M209.347,247.317a19.156,19.156,0,0,0-4.132-3.041,19.473,19.473,0,0,0-4.788-1.848,19.189,19.189,0,0,0-2.868-.459.3.3,0,0,0-.3.295.3.3,0,0,0,.3.3,18.566,18.566,0,0,1,4.836,1.081,18.867,18.867,0,0,1,4.388,2.311,18.183,18.183,0,0,1,2.146,1.783c.273.264.69-.152.417-.417" transform="translate(-110.405 -135.424)" fill="#7f7150"/>
            <path id="Trazado_995430" data-name="Trazado 995430" d="M210.3,253.013a22.182,22.182,0,0,0-6.954-3.077q-1.05-.261-2.12-.417a.3.3,0,0,0-.363.206.3.3,0,0,0,.206.363,21.7,21.7,0,0,1,7.119,2.342q.934.5,1.815,1.091a.3.3,0,0,0,.3-.509" transform="translate(-112.414 -139.649)" fill="#7f7150"/>
            <path id="Trazado_995431" data-name="Trazado 995431" d="M229.957,305.8c-1.67.455-3.355.851-5.049,1.208s-3.38.673-5.076.974q-1.273.227-2.547.443c-.852.146-1.7.309-2.561.418a12.266,12.266,0,0,1-2.6.059c-.864-.074-1.723-.206-2.581-.322l-5.268-.716-.655-.089a.3.3,0,0,0-.363.206.3.3,0,0,0,.206.363l5.294.719c.888.121,1.775.251,2.664.356a13.215,13.215,0,0,0,2.631.085c.882-.072,1.755-.231,2.626-.38s1.716-.293,2.573-.443c1.723-.3,3.444-.616,5.157-.968s3.4-.734,5.083-1.177l.624-.167a.3.3,0,0,0-.157-.569" transform="translate(-113.752 -171.142)" fill="#7f7150"/>
            <path id="Trazado_995432" data-name="Trazado 995432" d="M212.824,224.237c3.824,4.655,4.8,5.164,8.62,9.819A112.158,112.158,0,0,0,202.591,246.4a40.4,40.4,0,0,1-11.648-6.631,1.322,1.322,0,0,0-1.13-.284.881.881,0,0,0-.666,1.029c.073,2.151,2.361,3.544,3.082,5.572a1.251,1.251,0,0,1,.058.868,1.335,1.335,0,0,1-.58.586,7.017,7.017,0,0,1-5.823.709,35.847,35.847,0,0,0-4.743-1.712.438.438,0,0,0-.374.751A21.514,21.514,0,0,0,186.61,251l-5.419-2.523a.732.732,0,0,0-.742-.059.585.585,0,0,0-.219.626,1.5,1.5,0,0,0,.793.857,19.352,19.352,0,0,0,10.4,3.09c2.114-.051,4.19-.545,6.295-.743a45.023,45.023,0,0,0,4.615-.435,22.506,22.506,0,0,0,3.178-.968l25.34-9.106a4.07,4.07,0,0,0,2.215-1.409,3.88,3.88,0,0,0,.156-2.879c-1.913-8.74-3.9-12.366-8.662-19.942a.82.82,0,0,0-1.317-.37l-5.636,2.837Z" transform="translate(-100.861 -121.419)" fill="#fbc9a4"/>
            <path id="Trazado_995433" data-name="Trazado 995433" d="M265.045,213.257A92.7,92.7,0,0,0,253.2,223.5l-1.589-2.077a.74.74,0,0,1-.2-.467.712.712,0,0,1,.278-.449,84.863,84.863,0,0,1,11.639-9.116,1.054,1.054,0,0,1,.6-.232c.745.041.721,1.414,1.366,1.829Z" transform="translate(-140.706 -118.181)" fill="#7f7150"/>
            <path id="Trazado_995434" data-name="Trazado 995434" d="M181.772,287.679a17.006,17.006,0,0,0,6.1,2.283,17.386,17.386,0,0,0,1.85.206.295.295,0,0,0,0-.59,16.407,16.407,0,0,1-6.072-1.549,16.6,16.6,0,0,1-1.586-.861c-.324-.2-.621.311-.3.509" transform="translate(-101.656 -160.697)" fill="#844d2f"/>
            <path id="Trazado_995435" data-name="Trazado 995435" d="M199.313,291.063q.151,1.321.3,2.642a.3.3,0,0,0,.3.3.3.3,0,0,0,.295-.3q-.151-1.321-.3-2.642a.3.3,0,0,0-.3-.295.3.3,0,0,0-.295.295" transform="translate(-111.551 -162.737)" fill="#844d2f"/>
            <path id="Trazado_995436" data-name="Trazado 995436" d="M230.03,284.729a10.21,10.21,0,0,0-.055,2.125.3.3,0,0,0,.3.3.3.3,0,0,0,.3-.3,10.18,10.18,0,0,1,.055-2.125.3.3,0,0,0-.3-.3.3.3,0,0,0-.3.3" transform="translate(-128.695 -159.192)" fill="#844d2f"/>
            <path id="Trazado_995437" data-name="Trazado 995437" d="M274.555,255.332c0,.06-.051.1-.086.132s.03,0,0,0h.016c.019,0,.039,0,.058,0-.016,0-.045-.013.005,0s.107.032.16.048q.337.1.671.212.67.217,1.335.45,1.328.468,2.63,1.007.724.3,1.438.622a.3.3,0,0,0,.4-.106.3.3,0,0,0-.106-.4,53.711,53.711,0,0,0-5.834-2.232,2.507,2.507,0,0,0-.761-.193.48.48,0,0,0-.522.457.3.3,0,0,0,.59,0" transform="translate(-153.332 -142.648)" fill="#844d2f"/>
            <path id="Trazado_995438" data-name="Trazado 995438" d="M226.194,323.369a32.082,32.082,0,0,0,5.336,9.31q.96,1.17,2.03,2.245a.3.3,0,0,0,.417-.417,31.332,31.332,0,0,1-3.387-4.029,31.979,31.979,0,0,1-2.675-4.549q-.64-1.33-1.151-2.716a.3.3,0,0,0-.363-.206.3.3,0,0,0-.206.363" transform="translate(-126.588 -180.774)" fill="#a0323d"/>
            <path id="Trazado_995439" data-name="Trazado 995439" d="M234.944,211.5l-4.269-2.86a.3.3,0,1,0-.3.509l4.269,2.86a.3.3,0,0,0,.3-.509" transform="translate(-128.856 -116.75)" fill="#7f7150"/>
            <path id="Trazado_995440" data-name="Trazado 995440" d="M210.417,172.853c.41-.834,1.845-.423,2.121.465a3.176,3.176,0,0,1-.723,2.593,18.7,18.7,0,0,1-9.5,7.215,1.361,1.361,0,0,1-1.283-.032,1.124,1.124,0,0,1-.331-.6c-.415-1.6.546-3.219,1.645-4.448s2.417-2.357,2.96-3.914Z" transform="translate(-112.274 -96.488)" fill="#7f7150"/>
            <path id="Trazado_995441" data-name="Trazado 995441" d="M164.812,136.862c-.163.389-5.242,2.872-5.242,2.872l5.21,1.18a18.013,18.013,0,0,0,.775,3.342,4.02,4.02,0,0,1,2.815.361,1.556,1.556,0,0,1,.673.6,1.325,1.325,0,0,1-.612,1.64,3.856,3.856,0,0,1-1.867.4,17.288,17.288,0,0,0,1.241,3.31,1.878,1.878,0,0,0,.544.738c.668.469,1.569-.02,2.229-.5l3.69-2.681,5.689,5.565a24.331,24.331,0,0,0,8.727-7.863,99.569,99.569,0,0,1-7.3-7.191,3.031,3.031,0,1,0-1.94-5.561c-.036-2.344-.268-7.342-.3-9.686a105.791,105.791,0,0,0-14.718-.159s.532,13.3.391,13.637" transform="translate(-89.308 -68.864)" fill="#fbc9a4"/>
            <g id="Grupo_1177341" data-name="Grupo 1177341" transform="translate(84.96 75.136)" opacity="0.53">
              <g id="Grupo_1177340" data-name="Grupo 1177340">
                <g id="Grupo_1177339" data-name="Grupo 1177339" clip-path="url(#clip-path-3)">
                  <path id="Trazado_995442" data-name="Trazado 995442" d="M192.949,174.759l5.4-4.12-3.769,5.693Z" transform="translate(-192.949 -170.639)" fill="#844d2f"/>
                </g>
              </g>
            </g>
            <path id="Trazado_995443" data-name="Trazado 995443" d="M208.885,149.633a5.894,5.894,0,0,0-1.334,1.8.3.3,0,0,0,.509.3,5.666,5.666,0,0,1,.55-.922l.035-.048.017-.022c.027-.035.055-.07.083-.1q.084-.1.173-.2.183-.2.384-.387a.3.3,0,0,0,0-.417.3.3,0,0,0-.417,0" transform="translate(-116.143 -83.699)" fill="#844d2f"/>
            <path id="Trazado_995444" data-name="Trazado 995444" d="M210.321,152.3a2.351,2.351,0,0,0-1.2-.207.319.319,0,0,0-.208.086.3.3,0,0,0,.208.5,2.1,2.1,0,0,1,.488.007l-.078-.011a2.1,2.1,0,0,1,.276.057c.042.011.084.025.125.039l.07.026c.029.012.023.009-.018-.008l.034.015a.321.321,0,0,0,.227.03.3.3,0,0,0,.07-.539" transform="translate(-116.879 -85.114)" fill="#844d2f"/>
            <path id="Trazado_995445" data-name="Trazado 995445" d="M177.42,155.159c0,.6.337,1.093.755,1.093s.757-.488.758-1.091-.337-1.093-.755-1.093-.757.488-.758,1.091" transform="translate(-99.298 -86.229)"/>
            <path id="Trazado_995446" data-name="Trazado 995446" d="M172.933,151.532c.848.337,1.129-.29,1.753-.956a5.966,5.966,0,0,1,2.78-1.67c-1.4-.645-3.02.155-4.334.968a1.671,1.671,0,0,0-.819.843c-.113.385.225.892.607.771Z" transform="translate(-96.428 -83.208)"/>
            <path id="Trazado_995447" data-name="Trazado 995447" d="M52.879,290.395a38.915,38.915,0,0,1-20.2.91c-1.935,9.65-2.761,22.4-3.392,32.223h34.9l.1-8.045a25.972,25.972,0,0,0-7.807-18.9Z" transform="translate(-16.391 -162.528)" fill="#212f56"/>
            <path id="Trazado_995448" data-name="Trazado 995448" d="M3.2,118.859a1.77,1.77,0,0,1,.176-.088,3.536,3.536,0,0,1,.048-.908,6.557,6.557,0,0,1,6.93-5.147,1.058,1.058,0,0,1,.107-.445c1.136-2.547,4.622-3.073,7.306-2.314a7.212,7.212,0,0,1,3.885,2.429,8.98,8.98,0,0,1,1.028-.438,6.4,6.4,0,0,1,5.953.62c1.648,1.27,2.2,3.958.8,5.494a5,5,0,0,1,6.511,7.453,4.988,4.988,0,0,1,.427.783,5.264,5.264,0,0,1,1.88,1.136,3.147,3.147,0,0,1,.966,2.871c-.383,1.629-2.2,2.411-3.782,2.951a2.963,2.963,0,0,1-.3.089,4.171,4.171,0,0,1,.749,5.377,4.895,4.895,0,0,1-5.459,1.779,1.6,1.6,0,0,1-1.062-.8,4.652,4.652,0,0,1-3.161,1.687,4.59,4.59,0,0,1-2.6-.58,2.71,2.71,0,0,1-1.513-.476,4.229,4.229,0,0,1-1.475-3.955,12.452,12.452,0,0,1,1.536-4.131,2.959,2.959,0,0,1-4.164,1.045,2.959,2.959,0,0,1-.422-4.272,4.561,4.561,0,0,1-6.215.055,3.126,3.126,0,0,1-4.8.984,2.092,2.092,0,0,1-3.149,1.2,2.113,2.113,0,0,1,.056-3.209,2.1,2.1,0,0,1-2.2-.313,3.693,3.693,0,0,1-1.173-2.3,6.573,6.573,0,0,1,3.119-6.58" transform="translate(0 -61.362)" fill="#a0323d"/>
            <path id="Trazado_995449" data-name="Trazado 995449" d="M58.151,295.034c-2.56.723-5.135,1.411-7.755,1.883a31.6,31.6,0,0,1-7.76.527,20.832,20.832,0,0,1-4.288-.744.3.3,0,0,0-.157.569,23.519,23.519,0,0,0,7.828.775,44.849,44.849,0,0,0,7.919-1.279c1.465-.354,2.92-.752,4.371-1.162a.3.3,0,0,0-.157-.569" transform="translate(-21.258 -165.117)" fill="#7d8acc"/>
            <path id="Trazado_995450" data-name="Trazado 995450" d="M60.048,302.474a24.272,24.272,0,0,0,2.4,4.015,8.736,8.736,0,0,0,3.379,2.721,6.09,6.09,0,0,0,2.374.513.3.3,0,0,0,0-.59,6.14,6.14,0,0,1-3.692-1.388,11.452,11.452,0,0,1-2.734-3.3c-.435-.738-.827-1.5-1.215-2.265a.3.3,0,0,0-.4-.106.3.3,0,0,0-.106.4" transform="translate(-33.587 -169.041)" fill="#7d8acc"/>
            <path id="Trazado_995451" data-name="Trazado 995451" d="M72.442,298.247a19.41,19.41,0,0,1,2.179,5.1,32.005,32.005,0,0,1,.956,5.518c.174,1.874.237,3.757.274,5.639s.048,3.777.018,5.665-.1,3.784-.256,5.669q-.028.324-.059.647c-.015.159.147.748.3.748.172,0,.28-.589.3-.748.182-1.873.262-3.756.3-5.637.041-1.918.037-3.836.005-5.754-.031-1.883-.082-3.767-.234-5.645a35.333,35.333,0,0,0-.87-5.655,20.809,20.809,0,0,0-2.039-5.248q-.172-.3-.357-.6c-.2-.322-.71-.026-.509.3" transform="translate(-40.518 -166.678)" fill="#7d8acc"/>
            <path id="Trazado_995452" data-name="Trazado 995452" d="M54.031,350.262v1.606a.3.3,0,0,0,.59,0v-1.606a.3.3,0,1,0-.59,0" transform="translate(-30.24 -195.869)" fill="#7d8acc"/>
            <path id="Trazado_995453" data-name="Trazado 995453" d="M50.382,350.718v.4a.306.306,0,0,0,.086.209.223.223,0,0,0,.1.061.22.22,0,0,0,.114.026.3.3,0,0,0,.209-.086.307.307,0,0,0,.086-.209v-.4a.306.306,0,0,0-.086-.209.332.332,0,0,0-.209-.086.3.3,0,0,0-.209.086.308.308,0,0,0-.086.209" transform="translate(-28.198 -196.124)" fill="#7d8acc"/>
            <path id="Trazado_995454" data-name="Trazado 995454" d="M46.99,350.048a1.17,1.17,0,0,0-.264,1.091.3.3,0,1,0,.569-.157.925.925,0,0,1-.025-.12l.011.078a.9.9,0,0,1,0-.221l-.011.078a.928.928,0,0,1,.061-.225l-.029.07a.867.867,0,0,1,.111-.19l-.046.059.04-.047a.31.31,0,0,0,.086-.208.295.295,0,0,0-.5-.209" transform="translate(-26.129 -195.867)" fill="#7d8acc"/>
            <path id="Trazado_995455" data-name="Trazado 995455" d="M92.733,338.4a1.119,1.119,0,0,1,0,.269l.011-.078a1.166,1.166,0,0,1-.08.288l.03-.07a1.232,1.232,0,0,1-.06.121c-.006.011-.077.108-.074.112s.046-.057.018-.024l-.019.023-.046.05a1.086,1.086,0,0,1-.106.095.3.3,0,0,0-.086.208.3.3,0,0,0,.086.209.3.3,0,0,0,.209.086.344.344,0,0,0,.209-.086,1.385,1.385,0,0,0,.5-1.2.321.321,0,0,0-.087-.209.295.295,0,0,0-.417,0,.285.285,0,0,0-.086.209" transform="translate(-51.668 -189.232)" fill="#7d8acc"/>
            <path id="Trazado_995456" data-name="Trazado 995456" d="M86.411,334.3v1.606a.3.3,0,1,0,.59,0V334.3a.3.3,0,0,0-.59,0" transform="translate(-48.362 -186.935)" fill="#7d8acc"/>
            <path id="Trazado_995457" data-name="Trazado 995457" d="M38.075,140.023a2.129,2.129,0,0,0-1.892,2.517,4.288,4.288,0,0,0,2.153,2.75A2.778,2.778,0,0,0,39.6,150.5c-.957.137-1.17,1.588-.524,2.307a3.766,3.766,0,0,0,2.671.918c1.471.082,3.317-.192,3.769-1.594a3.861,3.861,0,0,0,5.5-1.154A7.2,7.2,0,0,0,56.5,149.65a2.681,2.681,0,0,0,1.192-1.732c.076-.717-.532-1.518-1.243-1.393a4.411,4.411,0,0,0,3.942-2.994c.423-1.708-1.06-3.756-2.8-3.474a4.454,4.454,0,0,0-2.239-7.738,2.1,2.1,0,0,0-2.262-3.308,7.493,7.493,0,0,0-3.56-3.271c-1.557-.521-3.631.236-3.933,1.851Z" transform="translate(-20.237 -70.282)" fill="#a0323d"/>
            <path id="Trazado_995458" data-name="Trazado 995458" d="M35.9,190.48c2.195-7.251,2.474-10.842,4.669-18.093.174-.577,3.416-3.389,3.747-3.792a2.708,2.708,0,0,0,.471-1.369,32.8,32.8,0,0,0,.246-7.031.31.31,0,0,0-.581-.124,8.371,8.371,0,0,0-.987,3.692c.235-3.121.451-6.367-.532-9.313a.31.31,0,0,0-.585,0,12.1,12.1,0,0,0-.7,4.789,11.033,11.033,0,0,0,.034-5.538.31.31,0,0,0-.575-.068,7.713,7.713,0,0,0-.82,4.03,6.479,6.479,0,0,0-.437-2.835.309.309,0,0,0-.578.006,13.561,13.561,0,0,0-.856,4.841,8.872,8.872,0,0,0-.413-2.412.3.3,0,0,0-.468-.157,1.434,1.434,0,0,0-.421.746q-.944,3.615-1.689,7.279a14.8,14.8,0,0,0-.406,4.91,12.344,12.344,0,0,1,.284,2.324,6.839,6.839,0,0,1-.55,2.045q-3.5,9.1-7.467,18.016a11.112,11.112,0,0,0-1.2,3.933c-.062,1.378.519,4.51,1.747,5.137,1.365.7,4.869-.325,6.251-.985,3.341-1.6,13.369-9.637,16-12.239.176-.174-5.334-5.59-6.437-7.55Z" transform="translate(-14.603 -85.889)" fill="#fbc9a4"/>
            <path id="Trazado_995459" data-name="Trazado 995459" d="M52.913,164.986a18.84,18.84,0,0,1-.485,2.7.3.3,0,0,0,.568.157,19.938,19.938,0,0,0,.507-2.861.3.3,0,0,0-.3-.3.3.3,0,0,0-.3.3" transform="translate(-29.337 -92.174)" fill="#844d2f"/>
            <path id="Trazado_995460" data-name="Trazado 995460" d="M56.607,158.9a46.212,46.212,0,0,1-.911,5.969.3.3,0,0,0,.206.363.3.3,0,0,0,.362-.206A47.476,47.476,0,0,0,57.2,158.9a.3.3,0,0,0-.3-.3.3.3,0,0,0-.3.3" transform="translate(-31.168 -88.765)" fill="#844d2f"/>
            <path id="Trazado_995461" data-name="Trazado 995461" d="M60.187,157.472q-.413,2.889-.784,5.784-.1.814-.2,1.629a.3.3,0,0,0,.3.3.3.3,0,0,0,.3-.3q.349-2.83.741-5.655.111-.8.226-1.6a.3.3,0,0,0-.206-.363.3.3,0,0,0-.363.206" transform="translate(-33.132 -88.013)" fill="#844d2f"/>
            <path id="Trazado_995462" data-name="Trazado 995462" d="M55.536,173.22a33.432,33.432,0,0,0-5.252-1.629.3.3,0,0,0-.363.206.3.3,0,0,0,.206.363,33.448,33.448,0,0,1,5.252,1.629.3.3,0,0,0,.363-.206.3.3,0,0,0-.206-.363" transform="translate(-27.935 -96.032)" fill="#844d2f"/>
            <path id="Trazado_995463" data-name="Trazado 995463" d="M64.972,171.453q-.329,1.606-.776,3.183a.3.3,0,0,0,.569.157q.446-1.577.776-3.183a.3.3,0,0,0-.206-.363.3.3,0,0,0-.363.206" transform="translate(-35.922 -95.838)" fill="#844d2f"/>
            <path id="Trazado_995464" data-name="Trazado 995464" d="M44.258,232.562c-.422.994-.665,2.058-1,3.083-.1.3-.2.6-.307.895q-.084.227-.174.451c-.061.152-.092.225-.165.386-.127.282-.266.56-.42.828q-.11.192-.232.378c-.039.059-.078.117-.119.174l-.065.091c-.011.015-.066.088-.038.051a4.359,4.359,0,0,1-.659.69c-.016.013-.1.077-.053.044l-.084.063c-.063.045-.129.089-.2.13a3.147,3.147,0,0,1-.416.215.3.3,0,0,0-.106.4.3.3,0,0,0,.4.106,5.085,5.085,0,0,0,2.36-2.592,23.435,23.435,0,0,0,1.27-3.573c.085-.286.171-.573.264-.858.042-.127.085-.255.131-.381.02-.056.041-.111.062-.166l.033-.083c.007-.019.05-.12.015-.036a.305.305,0,0,0-.106-.4.3.3,0,0,0-.4.105" transform="translate(-22.494 -130.08)" fill="#844d2f"/>
            <path id="Trazado_995465" data-name="Trazado 995465" d="M59.371,180.6a7.446,7.446,0,0,1-2.082,4.614,12.114,12.114,0,0,1-1.352,1.126,4.888,4.888,0,0,0-1.307,1.36A5.965,5.965,0,0,0,54,189.462c-.148.678-.267,1.363-.4,2.044l-.415,2.165-.94,4.908a.3.3,0,0,0,.206.363.3.3,0,0,0,.363-.206c.556-2.9,1.1-5.81,1.668-8.711a7.25,7.25,0,0,1,.5-1.743,3.87,3.87,0,0,1,1.147-1.356,18.339,18.339,0,0,0,1.435-1.161,8.027,8.027,0,0,0,2.392-5.169.3.3,0,0,0-.59,0" transform="translate(-29.237 -100.911)" fill="#844d2f"/>
            <path id="Trazado_995466" data-name="Trazado 995466" d="M61.353,204.758l-6.024,6.832a1.871,1.871,0,0,0-.265,2.594q2.631,5.656,5.817,11.03a17.174,17.174,0,0,0,5.943-5.128,18.6,18.6,0,0,0,2.32-3.542c1.761-3.7,1.8-7.482-.1-10.5a5.212,5.212,0,0,0-6.883-1.9,2.987,2.987,0,0,0-.812.615" transform="translate(-30.604 -113.911)" fill="#212f56"/>
            <path id="Trazado_995467" data-name="Trazado 995467" d="M32.754,117.517a3.071,3.071,0,0,0-4.064-.418,3.773,3.773,0,0,0-1.177,4.279,4.682,4.682,0,0,0,1.418,1.965,5.315,5.315,0,0,0,1.032.671,2.093,2.093,0,0,0,1.26.28c.935-.16.945-1.361.507-1.991a2.3,2.3,0,0,0-1.82-.937,2.514,2.514,0,0,0-1.974,1,4.232,4.232,0,0,0-.867,2.285,5.333,5.333,0,0,0,.408,2.522,5.217,5.217,0,0,0,.636,1.117,2.519,2.519,0,0,0,1.012.9.915.915,0,0,0,1.091-.3,1.3,1.3,0,0,0,.181-.913,2.615,2.615,0,0,0-1.233-1.757,3.82,3.82,0,0,0-4.242-.049,2.384,2.384,0,0,0-.86,1.038,2.172,2.172,0,0,0-.08,1.258,3.424,3.424,0,0,0,1.594,2.07,10.018,10.018,0,0,0,1.177.643,5.8,5.8,0,0,0,1.41.506,2.665,2.665,0,0,0,1.387-.061,2.208,2.208,0,0,0,1.005-.706,1.6,1.6,0,0,0,.359-1.088.3.3,0,0,0-.295-.3.3.3,0,0,0-.3.3,1.037,1.037,0,0,1-.276.78,1.641,1.641,0,0,1-.79.488,2.285,2.285,0,0,1-1.135-.024,5.966,5.966,0,0,1-1.195-.463,5.511,5.511,0,0,1-1.92-1.341,1.933,1.933,0,0,1-.393-1.869,1.78,1.78,0,0,1,.684-.777,2.7,2.7,0,0,1,.856-.383,3.294,3.294,0,0,1,1.8.05,3.14,3.14,0,0,1,1.509.985,1.7,1.7,0,0,1,.229.346c.005.011.034.076.017.036.015.036.028.074.04.111a1.8,1.8,0,0,1,.055.214c0,.014.005.029.007.043,0-.013,0-.052,0,.008,0,.029.005.057.007.086a1.294,1.294,0,0,1-.007.222c.007-.052,0,.007-.008.026s-.018.066-.028.1c-.014.052.018-.024-.008.021l-.023.043c0,.007-.041.063-.017.029s-.034.034-.04.042c-.029.037.027-.01-.015.014-.012.007-.1.05-.04.027a.482.482,0,0,1-.1.03.59.59,0,0,1-.4-.144,3.055,3.055,0,0,1-.7-.807,4.863,4.863,0,0,1-.755-2.036,3.461,3.461,0,0,1,1.455-3.556,1.549,1.549,0,0,1,.794-.176,1.412,1.412,0,0,1,.39.059c.069.018.137.04.2.065l.043.017c.047.019-.033-.015.013.006s.073.034.109.053a1.969,1.969,0,0,1,.181.107.843.843,0,0,1,.14.107,1.655,1.655,0,0,1,.145.144.681.681,0,0,1,.1.136,1.494,1.494,0,0,1,.1.177c.015.031,0,0,0,0,.007.018.014.036.02.054a1.121,1.121,0,0,1,.033.112c.009.033.015.067.022.1s0,0,0,0c0,.02,0,.04.005.06a.816.816,0,0,1-.011.236c-.069.321-.321.385-.6.326a3.062,3.062,0,0,1-.938-.413,4.408,4.408,0,0,1-1.459-1.411,3.342,3.342,0,0,1,.03-3.709,2.492,2.492,0,0,1,1.488-1,2.159,2.159,0,0,1,.43-.059,2.986,2.986,0,0,1,.478.015,2.62,2.62,0,0,1,.816.249,2.038,2.038,0,0,1,.679.555.3.3,0,0,0,.417,0,.3.3,0,0,0,0-.417" transform="translate(-13.39 -65.214)" fill="#873139"/>
            <path id="Trazado_995468" data-name="Trazado 995468" d="M14.273,132.749a2.051,2.051,0,0,0-2.958-.775,2.431,2.431,0,0,0-.977,1.516,2.671,2.671,0,0,0,.311,1.86,3.387,3.387,0,0,0,1.6,1.4.3.3,0,0,0,.4-.106.3.3,0,0,0-.106-.4,2.852,2.852,0,0,0-3.488.326.3.3,0,0,0-.046.358,4.2,4.2,0,0,0,3.832,2.295c.379-.013.38-.6,0-.59a3.615,3.615,0,0,1-3.322-2l-.046.358a2.252,2.252,0,0,1,2.773-.234l.3-.509a2.931,2.931,0,0,1-1.244-.963,2.143,2.143,0,0,1-.425-1.424,1.943,1.943,0,0,1,.586-1.251,1.445,1.445,0,0,1,.571-.328,1.5,1.5,0,0,1,.627-.041,1.364,1.364,0,0,1,1.1.81.3.3,0,0,0,.4.106.3.3,0,0,0,.106-.4" transform="translate(-5.024 -73.675)" fill="#873139"/>
            <path id="Trazado_995469" data-name="Trazado 995469" d="M50.311,130.372a2.5,2.5,0,0,1,.8-1.018,3.213,3.213,0,0,1,1.306-.561,3.854,3.854,0,0,1,2.837.522,4.54,4.54,0,0,1,1.882,2.476,3.574,3.574,0,0,1-.329,2.959,3.868,3.868,0,0,1-2.361,1.682,3.186,3.186,0,0,1-1.418.017,1.96,1.96,0,0,1-1.267-.829.968.968,0,0,1-.139-.329.709.709,0,0,1,0-.289,1.07,1.07,0,0,1,.523-.59,1.91,1.91,0,0,1,.869-.326.849.849,0,0,1,.692.25,1.187,1.187,0,0,1,.309.653,1.608,1.608,0,0,1-.121.8,3.355,3.355,0,0,1-1.043,1.271,4.891,4.891,0,0,1-5.668.049,4.181,4.181,0,0,1-.549-.491c-.261-.277-.677.141-.417.417a5.092,5.092,0,0,0,3.109,1.5,5.461,5.461,0,0,0,3.379-.674c1.065-.622,2.241-1.9,1.831-3.234a1.521,1.521,0,0,0-1.522-1.135,2.48,2.48,0,0,0-1.113.374,1.8,1.8,0,0,0-.771.763,1.575,1.575,0,0,0,.539,1.779,2.944,2.944,0,0,0,1.721.686,4.274,4.274,0,0,0,3.2-1.172,4.049,4.049,0,0,0,1.309-3.2,5.029,5.029,0,0,0-1.532-3.282,4.554,4.554,0,0,0-3.243-1.321,3.815,3.815,0,0,0-2.973,1.354,2.99,2.99,0,0,0-.411.735.3.3,0,0,0,.206.363.3.3,0,0,0,.363-.206" transform="translate(-25.82 -71.709)" fill="#873139"/>
            <path id="Trazado_995470" data-name="Trazado 995470" d="M75.688,151.676a1.786,1.786,0,0,1,.926.034,2.473,2.473,0,0,1,.866.458,3.055,3.055,0,0,1,1.05,1.719,2.266,2.266,0,0,1-.374,1.857,1.942,1.942,0,0,1-1.541.791,3.183,3.183,0,0,1-1.845-.936c-.07-.059-.141-.116-.207-.178-.02-.019-.049-.047-.062-.063s-.025-.035-.022-.046c-.013.055.035-.01.048-.019a.76.76,0,0,1,.2-.1,1.575,1.575,0,0,1,.848-.065,2.145,2.145,0,0,1,1.443,1.042,2.6,2.6,0,0,1,.28,1.807,2.355,2.355,0,0,1-1,1.488,2.628,2.628,0,0,1-1.745.429c-.037,0-.031,0-.077-.011s-.08-.015-.12-.023c-.08-.017-.159-.039-.236-.063-.363-.113-.519.456-.157.569a3.149,3.149,0,0,0,2.267-.188,2.976,2.976,0,0,0,1.527-1.667,3.2,3.2,0,0,0-.071-2.317A2.781,2.781,0,0,0,76,154.629a2.337,2.337,0,0,0-1.168-.08c-.389.074-.934.3-.944.768a.758.758,0,0,0,.309.569q.239.208.49.4a4.4,4.4,0,0,0,1.158.686,2.362,2.362,0,0,0,2.3-.392,2.722,2.722,0,0,0,1.031-2.105,3.4,3.4,0,0,0-3.032-3.438,2.335,2.335,0,0,0-.613.066c-.369.088-.213.657.157.569" transform="translate(-41.28 -84.534)" fill="#873139"/>
            <path id="Trazado_995471" data-name="Trazado 995471" d="M44.9,151.75a1.392,1.392,0,0,0-1.752.445,1.764,1.764,0,0,0-.4.954,2.526,2.526,0,0,0,.212,1.175,7.059,7.059,0,0,0,.694,1.22l.463-.358a2.765,2.765,0,0,0-1.864-.837,1.906,1.906,0,0,0-1.621.871,1.926,1.926,0,0,0,.092,1.933,4.844,4.844,0,0,0,.622.853,6.619,6.619,0,0,0,.718.718,1.661,1.661,0,0,0,1.048.447,1.056,1.056,0,0,0,.909-.472c.2-.321-.306-.617-.509-.3-.048.076.029-.023-.03.041.007-.007-.066.06-.04.039,0,0-.093.055-.1.057a.967.967,0,0,1-.149.039c.014,0,.044,0-.018,0a.911.911,0,0,1-.115,0,1.174,1.174,0,0,1-.612-.3,5.754,5.754,0,0,1-1.115-1.253,2.24,2.24,0,0,1-.312-.708,1.122,1.122,0,0,1,.052-.679,1.256,1.256,0,0,1,1.035-.7,2.1,2.1,0,0,1,1.588.658c.233.224.657-.07.463-.357a6.658,6.658,0,0,1-.65-1.118,2.346,2.346,0,0,1-.17-.6,1.342,1.342,0,0,1,.025-.52,1.229,1.229,0,0,1,.52-.692c.036-.022.072-.042.11-.061.085-.042-.044.014.043-.019a.959.959,0,0,1,.116-.036c.011,0,.122-.02.069-.015a.891.891,0,0,1,.118,0l.059,0c-.03,0-.026,0,.01,0a.567.567,0,0,1,.186.074.3.3,0,0,0,.3-.509" transform="translate(-22.617 -84.844)" fill="#873139"/>
            <path id="Trazado_995472" data-name="Trazado 995472" d="M11.945,119.391a3.291,3.291,0,0,0-3.678-.516A3.885,3.885,0,0,0,6.2,122.2a4.618,4.618,0,0,0,.059,1.051c.027.166.071.327.107.491.027.124.053.278-.019.362a.965.965,0,0,1-.372.191q-.263.1-.52.221a7.973,7.973,0,0,0-.933.5A4.666,4.666,0,0,0,2.2,128.242a3.218,3.218,0,0,0,1.345,3.139,2.646,2.646,0,0,0,.426.2.3.3,0,0,0,.363-.206.3.3,0,0,0-.206-.363,1.1,1.1,0,0,1-.14-.063,2.1,2.1,0,0,1-.184-.1,1.413,1.413,0,0,1-.269-.21c-.047-.044-.092-.09-.135-.138l-.059-.068-.028-.035c-.034-.042.039.054-.018-.023a2.7,2.7,0,0,1-.208-.332,2.08,2.08,0,0,1-.143-.321,3.13,3.13,0,0,1-.115-.4c-.015-.066-.026-.133-.037-.2a.328.328,0,0,1-.007-.046c0-.042-.009-.084-.012-.125a3.427,3.427,0,0,1-.008-.409,2.735,2.735,0,0,1,.136-.769,3.258,3.258,0,0,1,.387-.792,4.781,4.781,0,0,1,1.334-1.318,9.621,9.621,0,0,1,1.737-.883,1.1,1.1,0,0,0,.446-.294.835.835,0,0,0,.183-.583c-.018-.327-.144-.673-.176-.977a3.977,3.977,0,0,1,.227-1.837,3.177,3.177,0,0,1,1.022-1.4,2.8,2.8,0,0,1,3.172-.128,2.129,2.129,0,0,1,.3.252.3.3,0,0,0,.417-.417" transform="translate(-1.215 -66.345)" fill="#873139"/>
            <path id="Trazado_995473" data-name="Trazado 995473" d="M178.35,124.26q-.135,3.673-.27,7.346c-.025.668-.5,1.6-1.065,1.25q-.026-7.065-.053-14.13l-8.519,3.647c-2.676,1.146-5.912,2.253-8.331.634a7.868,7.868,0,0,1-2.582-3.665,8.376,8.376,0,0,1-.867-4.407,3.405,3.405,0,0,1,2.914-3.019c1.575-.064,2.8,1.275,4.194,2.009a8.715,8.715,0,0,0,5.955.432c1.983-.45,3.87-1.254,5.845-1.733a5.352,5.352,0,0,1,2.994-.061,2.265,2.265,0,0,1,1.614,2.287,1.424,1.424,0,0,1,2.03.372,3.856,3.856,0,0,1,.52,2.246,38.89,38.89,0,0,1-1.151,9.921,2.13,2.13,0,0,0-3.26-.2Z" transform="translate(-87.651 -62.636)"/>
            <path id="Trazado_995474" data-name="Trazado 995474" d="M186.465,150.35A16.416,16.416,0,0,1,175.626,162.6a3.348,3.348,0,0,0-1.677.887,3.015,3.015,0,0,0-.486,1.2q-.278,1.137-.557,2.275a1.064,1.064,0,0,0,.053.905.951.951,0,0,0,.811.257c1.915-.077,3.546-1.348,5.031-2.561l6.649-5.432a6.875,6.875,0,0,0,2.14-2.4,6.507,6.507,0,0,0,.329-2.912,63.3,63.3,0,0,0-.758-7.23Z" transform="translate(-96.73 -82.602)"/>
            <path id="Trazado_995475" data-name="Trazado 995475" d="M172.266,165.938c.352-1.021,1.867-1,2.779-.42s1.628,1.513,2.671,1.8a2.424,2.424,0,0,0,1.968-.331c-.363,1.151-1.933,1.4-3.086,1.04s-2.211-1.092-3.417-1.144a1.983,1.983,0,0,1-.936-.145c-.276-.162-.389-.623-.114-.786Z" transform="translate(-96.25 -92.413)"/>
            <path id="Trazado_995476" data-name="Trazado 995476" d="M160.1,33.5q1.2,6.967,2.4,13.934,1.493-6.033,2.988-12.066a3.782,3.782,0,0,1,1.005-2.076,3.794,3.794,0,0,1,2.589-.568l25.6.626c3.633.089,7.446.138,10.665-1.548,3.894-2.039,6.216-6.38,6.7-10.749s-.661-10.735-2.252-14.834c-.841-2.167-1.963-4.442-4.043-5.481A10.178,10.178,0,0,0,201.208,0a258.6,258.6,0,0,0-46.976,4.1c-2.339.422-4.88,1-6.349,2.867-1.228,1.564-1.335,22.769.3,25.284S160.1,33.5,160.1,33.5" transform="translate(-82.25 0)" fill="#a0323d"/>
            <path id="Trazado_995477" data-name="Trazado 995477" d="M68.925,54.542Q67.814,61.523,66.7,68.505L63.564,56.478a3.782,3.782,0,0,0-1.031-2.063,3.8,3.8,0,0,0-2.6-.536l-25.589.945c-3.631.134-7.443.23-10.683-1.415-3.919-1.991-6.294-6.3-6.834-10.665S17.358,32,18.9,27.883c.814-2.177,1.907-4.466,3.974-5.531a10.176,10.176,0,0,1,4.534-.79,258.622,258.622,0,0,1,47.023,3.516c2.344.393,4.892.937,6.384,2.788,1.247,1.548,1.618,22.751.017,25.286s-11.9,1.391-11.9,1.391" transform="translate(-9.34 -12.048)" fill="#d15259"/>
            <path id="Trazado_995478" data-name="Trazado 995478" d="M55.961,32.073a6.359,6.359,0,0,0-5.792-.032,8.122,8.122,0,0,0-4.162,4.383,11.209,11.209,0,0,0,.068,7.466,16.747,16.747,0,0,0,3.856,6.382,9.884,9.884,0,0,0,6.134,3.192c2.643.21,5.154-1.085,7.177-2.672a12.365,12.365,0,0,0,4.273-5.839,8.514,8.514,0,0,0-.7-6.911,4.678,4.678,0,0,0-2.784-2.3,3.581,3.581,0,0,0-3.085.974,7.929,7.929,0,0,0-2,2.933,14.142,14.142,0,0,0-1.036,3.913,10.016,10.016,0,0,0,1.778,7.174A7.876,7.876,0,0,0,65.417,54a10.88,10.88,0,0,0,7.234-2.727,11.285,11.285,0,0,0,3.833-5.711c.553-2.095.381-4.619-1.246-6.216a3.044,3.044,0,0,0-2.873-.856,4.4,4.4,0,0,0-2.63,2.253,7.724,7.724,0,0,0-.1,6.568,10.7,10.7,0,0,0,4.754,5.313,8.554,8.554,0,0,0,6.7.632,8.452,8.452,0,0,0,5.035-4.2,8.843,8.843,0,0,0,.391-6.771,8.18,8.18,0,0,0-4.5-4.783,8.54,8.54,0,0,0-6.515-.183A5.143,5.143,0,0,0,72.8,39.529a3.276,3.276,0,0,0,.01,3.147c.671,1.121,2.019,1.344,3.2,1.581a13.951,13.951,0,0,0,3.721.352,5.666,5.666,0,0,0,3.309-1.244,5.413,5.413,0,0,0,1.687-2.841,8.065,8.065,0,0,0-1.8-6.773,17.1,17.1,0,0,0-5.533-4.585,19.273,19.273,0,0,0-6.763-2.106,18.059,18.059,0,0,0-7.044.536,11.673,11.673,0,0,0-6.144,3.827,7.1,7.1,0,0,0-1.192,6.758c.907,2.3,3.263,3.762,5.57,4.368a10.867,10.867,0,0,0,6.939-.5,8.98,8.98,0,0,0,2.994-2,4.477,4.477,0,0,0,1.311-3.516A6.768,6.768,0,0,0,69,31.191a8.96,8.96,0,0,0-7.105-.018,12.672,12.672,0,0,0-5.8,4.76,8.814,8.814,0,0,0-1.365,6.74,10.3,10.3,0,0,0,3.467,5.438,13.209,13.209,0,0,0,5.757,2.862c.37.079.529-.489.157-.569a12.593,12.593,0,0,1-5.583-2.784A9.749,9.749,0,0,1,55.3,42.569a8.192,8.192,0,0,1,1.243-6.26,12.04,12.04,0,0,1,5.382-4.518,8.451,8.451,0,0,1,6.641-.149,6.255,6.255,0,0,1,3.9,4.828,3.8,3.8,0,0,1-.246,1.864,4.465,4.465,0,0,1-.973,1.393,8.526,8.526,0,0,1-2.791,1.818,10.3,10.3,0,0,1-6.481.435c-2.115-.555-4.386-1.9-5.19-4.039a6.568,6.568,0,0,1,1.205-6.271,11.25,11.25,0,0,1,5.81-3.523,17.592,17.592,0,0,1,6.619-.522,18.5,18.5,0,0,1,6.356,1.885,17.042,17.042,0,0,1,5.3,4.124,7.966,7.966,0,0,1,2.181,6.233,5.154,5.154,0,0,1-1.293,2.756,4.734,4.734,0,0,1-2.9,1.364,11.629,11.629,0,0,1-3.5-.221c-.584-.109-1.176-.22-1.748-.383a2.526,2.526,0,0,1-1.386-.832,2.629,2.629,0,0,1-.111-2.752,4.63,4.63,0,0,1,2.522-1.994,8,8,0,0,1,6.018.267,7.6,7.6,0,0,1,4.122,4.5,8.237,8.237,0,0,1-.431,6.282A8.051,8.051,0,0,1,74.631,52.08a10.073,10.073,0,0,1-4.438-4.958,7.172,7.172,0,0,1,.052-6.086,3.749,3.749,0,0,1,2.42-2.013,2.567,2.567,0,0,1,2.419,1.02c1.349,1.612,1.306,3.956.685,5.854a11.006,11.006,0,0,1-3.825,5.184,9.924,9.924,0,0,1-6.9,2.292,7.4,7.4,0,0,1-5.107-3.3,9.688,9.688,0,0,1-1.39-6.835,13.692,13.692,0,0,1,1.08-3.67,6.823,6.823,0,0,1,1.948-2.6,2.735,2.735,0,0,1,2.844-.472,5.071,5.071,0,0,1,2.23,2.474,8.192,8.192,0,0,1,.061,6.5A12.356,12.356,0,0,1,62.389,50.7c-1.948,1.409-4.34,2.507-6.8,2.117A9.859,9.859,0,0,1,50.014,49.5a16.108,16.108,0,0,1-3.479-6.109,10.412,10.412,0,0,1,.1-6.954A7.593,7.593,0,0,1,50.583,32.5a5.7,5.7,0,0,1,5.08.085.3.3,0,0,0,.3-.509" transform="translate(-25.408 -15.072)" fill="#fff"/>
            <path id="Trazado_995479" data-name="Trazado 995479" d="M203.554,20.253l1.965,8.57,2.2-2.473,2.778,9.418-1.524-12.331-2.642,2.2-.542-6.369Z" transform="translate(-113.925 -10.785)" fill="#fff"/>
            <path id="Trazado_995480" data-name="Trazado 995480" d="M225.974,16.6l-.932,11.263,3.66-2.172-.266,12.617,2.936-15.7-4.094,1.668,1.817-8.012Z" transform="translate(-125.951 -9.104)" fill="#fff"/>
          </g>
        </g>
      </g>
    </g>
  </g>
</svg>
