<svg xmlns="http://www.w3.org/2000/svg" xmlns:xlink="http://www.w3.org/1999/xlink" width="59" height="59" viewBox="0 0 59 59">
  <defs>
    <clipPath id="clip-path">
      <rect id="Rectángulo_454871" data-name="Rectángulo 454871" width="39" height="39" transform="translate(1202.711 842)" fill="#244d4c" stroke="#707070" stroke-width="1"/>
    </clipPath>
  </defs>
  <g id="Grupo_1177389" data-name="Grupo 1177389" transform="translate(-1192.676 -832)">
    <circle id="Elipse_13700" data-name="Elipse 13700" cx="29.5" cy="29.5" r="29.5" transform="translate(1192.676 832)" fill="#f7e869"/>
    <g id="Enmascarar_grupo_1119206" data-name="Enmascarar grupo 1119206" clip-path="url(#clip-path)">
      <g id="cartelera" transform="translate(1202.711 842)">
        <path id="Trazado_995544" data-name="Trazado 995544" d="M38.35,0H.65A.65.65,0,0,0,0,.65v29.9a.65.65,0,0,0,.65.65h2.6v7.15A.65.65,0,0,0,3.9,39H6.5a.65.65,0,0,0,.65-.65V31.2h24.7v7.15a.65.65,0,0,0,.65.65h2.6a.65.65,0,0,0,.65-.65V31.2h2.6a.65.65,0,0,0,.65-.65V.65A.65.65,0,0,0,38.35,0ZM34.181,2.6H32.119L33.15,1.569Zm-13.65,0H18.469L19.5,1.569Zm-13.65,0H4.819L5.85,1.569ZM5.85,37.7H4.55V31.2h1.3Zm28.6,0h-1.3V31.2h1.3Zm3.25-7.8H1.3V1.3H4.281L2.79,2.79A.65.65,0,0,0,3.25,3.9h5.2a.65.65,0,0,0,.46-1.11L7.419,1.3H17.931L16.44,2.79A.65.65,0,0,0,16.9,3.9h5.2a.65.65,0,0,0,.46-1.11L21.069,1.3H31.581L30.09,2.79a.65.65,0,0,0,.46,1.11h5.2a.65.65,0,0,0,.46-1.11L34.719,1.3H37.7Zm0,0" fill="#244d4c"/>
        <path id="Trazado_995545" data-name="Trazado 995545" d="M35.75,5.2H3.25a.65.65,0,0,0-.65.65v22.1a.65.65,0,0,0,.65.65h32.5a.65.65,0,0,0,.65-.65V5.85A.65.65,0,0,0,35.75,5.2ZM35.1,27.3H3.9V6.5H35.1Zm0,0" fill="#244d4c"/>
        <path id="Trazado_995546" data-name="Trazado 995546" d="M7.894,20.605l1.225,4.9A.65.65,0,0,0,9.75,26h2.6a.65.65,0,0,0,.631-.807l-1.051-4.2L16.989,22A1.945,1.945,0,0,0,20.8,21.45v-9.1a1.945,1.945,0,0,0-3.811-.551l-6,1.2H9.1a3.9,3.9,0,0,0-1.206,7.605ZM10.257,24.7l-.975-3.9h1.26l.975,3.9Zm8.593-13a.65.65,0,0,1,.65.65v9.1a.65.65,0,0,1-1.3,0v-9.1A.65.65,0,0,1,18.85,11.7ZM16.9,20.657l-5.2-1.04V14.182l5.2-1.04ZM9.1,14.3h1.3v5.2H9.1a2.6,2.6,0,1,1,0-5.2Zm0,0" fill="#244d4c"/>
        <path id="Trazado_995547" data-name="Trazado 995547" d="M22.5,17.5a.65.65,0,0,0,.708-.141l1.76-1.76H33.15a.65.65,0,0,0,.65-.65V8.45a.65.65,0,0,0-.65-.65H22.75a.65.65,0,0,0-.65.65V16.9a.65.65,0,0,0,.4.6Zm.9-8.4h9.1v5.2H24.7a.65.65,0,0,0-.46.19l-.84.84Zm0,0" fill="#244d4c"/>
        <path id="Trazado_995548" data-name="Trazado 995548" d="M24.7,11.05H26v1.3H24.7Zm0,0" fill="#244d4c"/>
        <path id="Trazado_995549" data-name="Trazado 995549" d="M27.3,11.05h1.3v1.3H27.3Zm0,0" fill="#244d4c"/>
        <path id="Trazado_995550" data-name="Trazado 995550" d="M29.9,11.05h1.3v1.3H29.9Zm0,0" fill="#244d4c"/>
      </g>
    </g>
  </g>
</svg>
