<svg xmlns="http://www.w3.org/2000/svg" xmlns:xlink="http://www.w3.org/1999/xlink" width="96" height="96" viewBox="0 0 96 96">
  <defs>
    <clipPath id="clip-path">
      <rect id="Rectángulo_454925" data-name="Rectángulo 454925" width="55" height="55" transform="translate(814.449 2940.665)" fill="#fef6fe" stroke="#707070" stroke-width="1"/>
    </clipPath>
  </defs>
  <g id="Grupo_154427" data-name="Grupo 154427" transform="translate(-794.039 -2920.081)">
    <path id="Elipse_5729" data-name="Elipse 5729" d="M48,0A48,48,0,1,1,0,48,48,48,0,0,1,48,0Z" transform="translate(794.039 2920.081)" fill="#604161"/>
    <g id="Enmascarar_grupo_1119201" data-name="Enmascarar grupo 1119201" clip-path="url(#clip-path)">
      <path id="gestion-de-riesgos" d="M51.252,36.367a.833.833,0,1,1-.834-.834A.835.835,0,0,1,51.252,36.367Zm-35.707-5.8v3.3a.833.833,0,1,1-1.666,0v-3.3a.833.833,0,1,1,1.666,0ZM33.4,10.679v3.3a.833.833,0,0,1-1.667,0v-3.3a.833.833,0,0,1,1.667,0ZM15.545,36.367a.833.833,0,1,1-.833-.834.834.834,0,0,1,.833.834Zm35.707-5.8v3.3a.833.833,0,0,1-1.667,0v-3.3a.833.833,0,0,1,1.667,0ZM33.4,16.482a.833.833,0,1,1-.833-.833A.835.835,0,0,1,33.4,16.482Zm19.125,30.9c-3.054,1.772-6.664,3.934-11.361,6.416-6.523,3.448-8.339,3.755-8.815,3.728-4.7-.268-9.514-1.149-14.207-.432v-8.77a23.25,23.25,0,0,0,3.712-.469A25.1,25.1,0,0,0,25.8,46.172c3.076-1.476,3.25-1.438,6.162-.8,1.494.324,5.809,1.131,5.822,2.6a1.815,1.815,0,0,1-.23.919.853.853,0,0,0-.147.129,1.709,1.709,0,0,1-1.527.683l-4.839-1.209a.841.841,0,0,0-.376-.006l-2.776.6a.833.833,0,1,0,.35,1.629l2.587-.556,4.651,1.162a2.6,2.6,0,0,0,.633.077,3.377,3.377,0,0,0,2.326-1.043L52.119,44.23a.7.7,0,0,0,.079-.04c.88-.512,2.663-.1,2.874.571C55.182,45.119,54.771,46.075,52.523,47.38ZM16.473,58.269a.132.132,0,0,1-.128.129h-2.97a.132.132,0,0,1-.129-.129V47.554a.132.132,0,0,1,.129-.129h2.97a.132.132,0,0,1,.128.129ZM54.936,42.606a4.374,4.374,0,0,0-3.533.118L39.447,48.068v-.126c-.006-2.005-2.269-2.922-3.971-3.437-1.146-.346-2.137-.541-3.163-.766-3.323-.728-3.871-.686-7.41,1.012A25.178,25.178,0,0,1,21.5,46.227a22.167,22.167,0,0,1-3.591.44,1.8,1.8,0,0,0-1.559-.908h-2.97a1.8,1.8,0,0,0-1.8,1.8V58.269a1.8,1.8,0,0,0,1.8,1.8h2.97a1.8,1.8,0,0,0,1.717-1.273c4.564-.786,9.439.137,14.19.4,2.175.119,8.653-3.071,20.18-9.825.367-.216.681-.4.928-.542,3.3-1.918,3.619-3.534,3.3-4.554a2.736,2.736,0,0,0-1.726-1.661ZM32.565,33.12a.858.858,0,1,1,.858-.858A.858.858,0,0,1,32.565,33.12Zm0-3.382a2.524,2.524,0,1,0,2.524,2.524,2.529,2.529,0,0,0-2.524-2.524Zm3.27,1.98a.837.837,0,0,1,.2-.693l.573-.637-.4-.691-.839.178a.833.833,0,0,1-.7-.172c-.756-.624-1.244-.463-1.44-1.067l-.265-.813h-.8l-.264.813a.84.84,0,0,1-.5.523c-.928.35-1.023.847-1.645.716l-.837-.178-.4.691.574.637c.347.385.157.736.157,1.238s.19.853-.157,1.239l-.574.636.4.692.837-.179a.838.838,0,0,1,.7.173c.76.626,1.245.464,1.441,1.066l.264.815h.8l.263-.813a.835.835,0,0,1,.5-.523c.919-.343,1.024-.849,1.646-.717l.837.179.4-.692-.573-.637a.833.833,0,0,1-.2-.693,3.385,3.385,0,0,0,0-1.089Zm2.479-1.712-.919-1.593a.948.948,0,0,0-1.021-.454l-.976.208a4.972,4.972,0,0,0-.7-.406l-.309-.948a.948.948,0,0,0-.9-.656h-1.84a.948.948,0,0,0-.9.656l-.308.948a4.886,4.886,0,0,0-.7.406l-.976-.208a.951.951,0,0,0-1.021.454l-.92,1.593a.948.948,0,0,0,.117,1.111l.667.741v.809l-.669.742a.952.952,0,0,0-.116,1.11l.92,1.594a.948.948,0,0,0,1.02.453l.977-.206a5.031,5.031,0,0,0,.7.4l.308.949a.949.949,0,0,0,.9.657h1.84a.949.949,0,0,0,.9-.657l.309-.948a5.131,5.131,0,0,0,.7-.405l.973.206a.947.947,0,0,0,1.023-.454l.921-1.593a.947.947,0,0,0-.118-1.11l-.667-.742v-.809l.667-.741a.946.946,0,0,0,.117-1.111Zm17.745,7.779a.607.607,0,0,0,.028-.627L51,26.974a.643.643,0,0,0-1.154,0L44.75,37.158a.641.641,0,0,0,.577.932H55.509a.609.609,0,0,0,.549-.306Zm-23.494,3.5c6.643-2.3,7.287-8.176,7.192-14.622a14.8,14.8,0,0,1-7.192-3.584,14.8,14.8,0,0,1-7.191,3.584c-.1,6.447.548,12.325,7.191,14.622Zm-12.213-3.5a.607.607,0,0,0,.028-.627L15.289,26.974a.642.642,0,0,0-1.153,0L9.043,37.158a.641.641,0,0,0,.577.932H19.8a.608.608,0,0,0,.549-.306ZM26.925,17.9a.611.611,0,0,0,.548.306H37.657a.642.642,0,0,0,.577-.933L33.142,7.09a.642.642,0,0,0-1.153,0L26.9,17.273a.61.61,0,0,0,.027.627ZM57.577,36.412,52.485,26.228a2.31,2.31,0,0,0-4.134,0L45.275,32.38H41.169a41.792,41.792,0,0,0,.24-6.462.832.832,0,0,0-.734-.81A13.03,13.03,0,0,1,33.4,21.574v-1.7h4.259a2.309,2.309,0,0,0,2.067-3.345L34.633,6.345a2.31,2.31,0,0,0-4.135,0L25.406,16.527a2.309,2.309,0,0,0,2.066,3.345h4.259v1.7a13.028,13.028,0,0,1-7.276,3.534.833.833,0,0,0-.735.81,41.68,41.68,0,0,0,.24,6.462H19.855l-3.076-6.152a2.31,2.31,0,0,0-4.134,0L7.553,36.412A2.308,2.308,0,0,0,9.62,39.757H19.8a2.308,2.308,0,0,0,2.068-3.345l-1.183-2.366h3.567a11.221,11.221,0,0,0,8.053,8.9.817.817,0,0,0,.515,0,11.224,11.224,0,0,0,8.053-8.9h3.567l-1.184,2.366a2.309,2.309,0,0,0,2.068,3.345H55.509a2.308,2.308,0,0,0,2.068-3.345Z" transform="translate(809.384 2935.601)" fill="#fef6fe" fill-rule="evenodd"/>
    </g>
  </g>
</svg>
