<svg xmlns="http://www.w3.org/2000/svg" width="161.177" height="171.526" viewBox="0 0 161.177 171.526">
  <g id="Grupo_1177270" data-name="Grupo 1177270" transform="translate(-713.823 -1921.474)">
    <circle id="Elipse_13695" data-name="Elipse 13695" cx="75" cy="75" r="75" transform="translate(725 1943)" fill="#5ac1bd"/>
    <g id="Sign_Language" data-name="Sign Language" transform="translate(713.823 1921.474)">
      <path id="Trazado_995032" data-name="Trazado 995032" d="M102.064,43.989a5.565,5.565,0,0,0-5.871,5.565V40.441a5.781,5.781,0,0,0-5.259-5.871,5.565,5.565,0,0,0-5.871,5.547v-6.5A5.763,5.763,0,0,0,79.8,27.744a5.547,5.547,0,0,0-5.853,5.547V42.71A5.565,5.565,0,0,0,68.1,37.217a5.763,5.763,0,0,0-5.259,5.871V69.473H60.876A10.086,10.086,0,0,0,50.79,79.558v3.818a22.62,22.62,0,0,0,4.881,14.066c3.152,4.034,7.2,8.393,7.2,16.587V149.31h40.7c0-38.4-.486-40.738,1.639-49.347,2.665-10.806,2.143-12.715,2.143-30.491V49.824a5.781,5.781,0,0,0-5.295-5.835Z" transform="translate(40.682 22.216)" fill="#ffc998"/>
      <path id="Trazado_995033" data-name="Trazado 995033" d="M57.48,87.06h40.7v14.714H57.48Z" transform="translate(46.041 69.734)" fill="#ffb589"/>
      <path id="Trazado_995034" data-name="Trazado 995034" d="M90.408,50.91V75.385a5.8,5.8,0,0,1-5.8,5.8H74.632a1.8,1.8,0,0,1-1.8-1.8A15.561,15.561,0,0,0,57.27,63.823V50.91Z" transform="translate(45.873 40.778)" fill="#ffb589"/>
      <path id="Trazado_995035" data-name="Trazado 995035" d="M57.48,48.31H68.592v4.538H57.48Z" transform="translate(46.041 38.696)" fill="#ffa67a"/>
      <path id="Trazado_995036" data-name="Trazado 995036" d="M57.656,50.91H69.867a5.565,5.565,0,0,1,0,11.13H57.26Z" transform="translate(45.865 40.778)" fill="#ffc998"/>
      <g id="Grupo_1177269" data-name="Grupo 1177269" transform="translate(101.342 60.549)">
        <path id="Trazado_995037" data-name="Trazado 995037" d="M65.252,36.871V63.454h-3.6V36.871a1.8,1.8,0,1,1,3.6,0Z" transform="translate(-51.961 -32.459)" fill="#ffa67a"/>
        <path id="Trazado_995038" data-name="Trazado 995038" d="M69.631,59.608a1.8,1.8,0,0,1-1.8-1.8V35.421a1.8,1.8,0,1,1,3.6,0V57.807A1.8,1.8,0,0,1,69.631,59.608Z" transform="translate(-47.011 -33.62)" fill="#ffa67a"/>
        <path id="Trazado_995039" data-name="Trazado 995039" d="M75.8,62.371a1.8,1.8,0,0,1-1.8-1.8V40.651a1.8,1.8,0,1,1,3.6,0V60.57A1.8,1.8,0,0,1,75.8,62.371Z" transform="translate(-42.068 -29.431)" fill="#ffa67a"/>
        <path id="Trazado_995040" data-name="Trazado 995040" d="M77.234,75.235a1.8,1.8,0,0,1-3.6,0A15.561,15.561,0,0,0,58.071,59.692a1.8,1.8,0,1,1,0-3.6A19.181,19.181,0,0,1,77.234,75.235Z" transform="translate(-56.27 -15.622)" fill="#ffa67a"/>
        <path id="Trazado_995041" data-name="Trazado 995041" d="M63.941,81.87a1.8,1.8,0,0,1-1.8-1.8V73.261a1.8,1.8,0,0,1,3.6,0v6.808A1.8,1.8,0,0,1,63.941,81.87Z" transform="translate(-51.568 -3.311)" fill="#ffa67a"/>
        <path id="Trazado_995042" data-name="Trazado 995042" d="M86.32,54.512H70.2a1.8,1.8,0,0,1,0-3.6H86.32a1.8,1.8,0,1,1,0,3.6Z" transform="translate(-46.554 -19.771)" fill="#ffa67a"/>
      </g>
      <path id="Trazado_995043" data-name="Trazado 995043" d="M70.375,75.345v3.818c0,15.074-12.049,16.083-12.049,30.617V145.1h-40.7c0-42.089.594-40.36-2.161-51.454-2.107-8.555-1.621-13.327-1.621-33.823A5.745,5.745,0,0,1,19.1,53.967a5.547,5.547,0,0,1,5.853,5.4A5.763,5.763,0,0,1,30.213,53.5a5.547,5.547,0,0,1,5.871,5.547V52.562a5.781,5.781,0,0,1,5.259-5.871A5.565,5.565,0,0,1,47.2,52.256V38.55A5.583,5.583,0,0,1,53.067,33a5.781,5.781,0,0,1,5.259,5.871V65.259h1.963A10.086,10.086,0,0,1,70.375,75.345Z" transform="translate(11.048 26.429)" fill="#ffc998"/>
      <path id="Trazado_995044" data-name="Trazado 995044" d="M58.659,50.918V63.849A15.561,15.561,0,0,0,43.1,79.41a1.8,1.8,0,0,1-1.8,1.8H21.162a6.538,6.538,0,0,1-6.448-5.4c-1.153-6.357-.882-9.761-.882-24.908Z" transform="translate(11.057 40.77)" fill="#ffb589"/>
      <path id="Trazado_995045" data-name="Trazado 995045" d="M32.34,48.31H43.452v4.538H32.34Z" transform="translate(25.904 38.696)" fill="#ffa67a"/>
      <path id="Trazado_995046" data-name="Trazado 995046" d="M46.426,50.91H34.215a5.565,5.565,0,1,0,0,11.13H46.822Z" transform="translate(22.948 40.778)" fill="#ffc998"/>
      <path id="Trazado_995047" data-name="Trazado 995047" d="M29.891,77.035a1.8,1.8,0,0,1-1.8-1.8A19.181,19.181,0,0,1,47.253,56.09a1.8,1.8,0,1,1,0,3.6A15.561,15.561,0,0,0,31.692,75.235,1.8,1.8,0,0,1,29.891,77.035Z" transform="translate(22.5 44.927)" fill="#ffa67a"/>
      <path id="Trazado_995048" data-name="Trazado 995048" fill="none" stroke="#302d3d" stroke-linecap="round" stroke-linejoin="round" stroke-width="2"/>
      <path id="Trazado_995049" data-name="Trazado 995049" d="M24.946,50.336V63.123a5.565,5.565,0,0,1-11.112,0V50.336a5.565,5.565,0,1,1,11.112,0Z" transform="translate(11.074 35.607)" fill="#ffe7ca"/>
      <path id="Trazado_995050" data-name="Trazado 995050" d="M31.12,46.8V61.923a5.565,5.565,0,1,1-11.13,0V46.8a5.565,5.565,0,1,1,11.13,0Z" transform="translate(16.012 33.025)" fill="#ffe7ca"/>
      <path id="Trazado_995051" data-name="Trazado 995051" d="M37.286,46.3V63.729a5.565,5.565,0,1,1-11.112,0V46.3a5.565,5.565,0,1,1,11.112,0Z" transform="translate(20.958 32.371)" fill="#ffe7ca"/>
      <path id="Trazado_995052" data-name="Trazado 995052" d="M24.942,53.785v6.321a5.565,5.565,0,0,1-11.112,0V53.785a5.565,5.565,0,0,1,9.491-3.944,5.637,5.637,0,0,1,1.621,3.944Z" transform="translate(11.078 38.624)" fill="#ffd8ac"/>
      <path id="Trazado_995053" data-name="Trazado 995053" d="M31.12,50.382v8.663a5.565,5.565,0,1,1-11.13,0V50.382a5.565,5.565,0,1,1,11.13,0Z" transform="translate(16.012 35.903)" fill="#ffd8ac"/>
      <path id="Trazado_995054" data-name="Trazado 995054" d="M37.286,49.886V60.854a5.565,5.565,0,1,1-11.112,0V49.886a5.565,5.565,0,1,1,11.112,0Z" transform="translate(20.958 35.247)" fill="#ffd8ac"/>
      <rect id="Rectángulo_454836" data-name="Rectángulo 454836" width="45.583" height="18.19" rx="1.86" transform="translate(101.071 144.025)" fill="#b9604d"/>
      <rect id="Rectángulo_454837" data-name="Rectángulo 454837" width="35.606" height="18.19" rx="1.86" transform="translate(106.06 144.025)" fill="#ff834d"/>
      <rect id="Rectángulo_454838" data-name="Rectángulo 454838" width="18.352" height="18.19" rx="1.86" transform="translate(114.705 144.025)" fill="#686eab"/>
      <path id="Trazado_995055" data-name="Trazado 995055" d="M0,0H10.986V11.148H0Z" transform="translate(129.437 147.627) rotate(90)" fill="#544683"/>
      <path id="Trazado_995056" data-name="Trazado 995056" d="M73.362,87.6h-8.5a1.8,1.8,0,1,1,0-3.6h8.5a1.8,1.8,0,1,1,0,3.6Z" transform="translate(50.51 67.283)" fill="#9ab9e7"/>
      <path id="Trazado_995057" data-name="Trazado 995057" d="M22.931,96.609a1.8,1.8,0,0,1-1.8-1.8V82.2a1.8,1.8,0,1,1,3.6,0V94.808A1.8,1.8,0,0,1,22.931,96.609Z" transform="translate(16.925 64.399)" fill="#ffa67a"/>
      <path id="Trazado_995058" data-name="Trazado 995058" d="M86.669,40.622H67.345a10.14,10.14,0,0,0-7.2,2.99L48.092,55.66a2.125,2.125,0,0,1-3.6-1.495V8.87A7.87,7.87,0,0,1,52.324,1H86.669a7.87,7.87,0,0,1,7.852,7.87V32.733A7.87,7.87,0,0,1,86.669,40.622Z" transform="translate(35.636 0.801)" fill="#619fff"/>
      <path id="Trazado_995059" data-name="Trazado 995059" d="M77.907,9.6H52.081a1.8,1.8,0,0,1,0-3.6H77.907a1.8,1.8,0,1,1,0,3.6Z" transform="translate(40.274 4.806)" fill="#545088"/>
      <path id="Trazado_995060" data-name="Trazado 995060" d="M77.907,14.1H52.081a1.8,1.8,0,0,1,0-3.6H77.907a1.8,1.8,0,1,1,0,3.6Z" transform="translate(40.274 8.41)" fill="#545088"/>
      <path id="Trazado_995061" data-name="Trazado 995061" d="M77.907,18.6H52.081a1.8,1.8,0,0,1,0-3.6H77.907a1.8,1.8,0,1,1,0,3.6Z" transform="translate(40.274 12.015)" fill="#545088"/>
    </g>
  </g>
</svg>
