<svg xmlns="http://www.w3.org/2000/svg" xmlns:xlink="http://www.w3.org/1999/xlink" width="59" height="59" viewBox="0 0 59 59">
  <defs>
    <clipPath id="clip-path">
      <rect id="Rectángulo_454867" data-name="Rectángulo 454867" width="39" height="39" transform="translate(206.711 842)" fill="#244d4c" stroke="#244d4c" stroke-width="1"/>
    </clipPath>
  </defs>
  <g id="Grupo_1177385" data-name="Grupo 1177385" transform="translate(-196.711 -832)">
    <circle id="Elipse_13696" data-name="Elipse 13696" cx="29.5" cy="29.5" r="29.5" transform="translate(196.711 832)" fill="#f7e869"/>
    <g id="Enmascarar_grupo_1119203" data-name="Enmascarar grupo 1119203" clip-path="url(#clip-path)">
      <g id="capacitacion" transform="translate(206.711 842)">
        <g id="Grupo_1177382" data-name="Grupo 1177382">
          <line id="Línea_3242" data-name="Línea 3242" y1="11.7" transform="translate(2.856 3.288)" fill="none" stroke="#244d4c" stroke-linecap="round" stroke-linejoin="round" stroke-miterlimit="10" stroke-width="1.143"/>
          <line id="Línea_3243" data-name="Línea 3243" y1="9.552" transform="translate(2.856 17.654)" fill="none" stroke="#244d4c" stroke-linecap="round" stroke-linejoin="round" stroke-miterlimit="10" stroke-width="1.143"/>
          <line id="Línea_3244" data-name="Línea 3244" y2="22.242" transform="translate(36.144 3.286)" fill="none" stroke="#244d4c" stroke-linecap="round" stroke-linejoin="round" stroke-miterlimit="10" stroke-width="1.143"/>
          <path id="Trazado_995532" data-name="Trazado 995532" d="M10.985,3.237H.952a.381.381,0,0,1-.381-.381V.952A.381.381,0,0,1,.952.571h37.1a.381.381,0,0,1,.381.381v1.9a.381.381,0,0,1-.381.381h-24.4" fill="none" stroke="#244d4c" stroke-linecap="round" stroke-linejoin="round" stroke-miterlimit="10" stroke-width="1.143"/>
          <line id="Línea_3245" data-name="Línea 3245" x2="6.387" transform="translate(16.385 27.231)" fill="none" stroke="#244d4c" stroke-linecap="round" stroke-linejoin="round" stroke-miterlimit="10" stroke-width="1.143"/>
          <path id="Trazado_995533" data-name="Trazado 995533" d="M14.75,29.517H1.98a.381.381,0,0,1-.381-.381V27.612a.381.381,0,0,1,.381-.381H12.272" fill="none" stroke="#244d4c" stroke-linecap="round" stroke-linejoin="round" stroke-miterlimit="10" stroke-width="1.143"/>
          <circle id="Elipse_13702" data-name="Elipse 13702" cx="1.333" cy="1.333" r="1.333" transform="translate(18.167 35.763)" fill="none" stroke="#244d4c" stroke-linecap="round" stroke-linejoin="round" stroke-miterlimit="10" stroke-width="1.143"/>
          <line id="Línea_3246" data-name="Línea 3246" y1="2.438" transform="translate(19.5 33.306)" fill="none" stroke="#244d4c" stroke-linecap="round" stroke-linejoin="round" stroke-miterlimit="10" stroke-width="1.143"/>
        </g>
        <g id="Grupo_1177384" data-name="Grupo 1177384">
          <path id="Trazado_995534" data-name="Trazado 995534" d="M29.688,22.414v1.707a.762.762,0,0,1-.667.756l-2.049.258a6.094,6.094,0,0,0-2.785,1.09l-4.706,3.368-5.3-4.018a1.254,1.254,0,0,0-1.7.171l-.021.024a1.3,1.3,0,0,0,.115,1.833l6.058,5.3a1.523,1.523,0,0,0,1.744.184l5.861-3.265v8.607" fill="none" stroke="#244d4c" stroke-linecap="round" stroke-linejoin="round" stroke-miterlimit="10" stroke-width="1.143"/>
          <path id="Trazado_995535" data-name="Trazado 995535" d="M35.77,38.429V35.382h0a2.658,2.658,0,0,0,2.658-2.658V27.911a2.285,2.285,0,0,0-1.778-2.228l-3.323-.756a.762.762,0,0,1-.593-.743v-1.8" fill="none" stroke="#244d4c" stroke-linecap="round" stroke-linejoin="round" stroke-miterlimit="10" stroke-width="1.143"/>
          <line id="Línea_3247" data-name="Línea 3247" y1="4.189" transform="translate(35.77 31.192)" fill="none" stroke="#244d4c" stroke-linecap="round" stroke-linejoin="round" stroke-miterlimit="10" stroke-width="1.143"/>
          <g id="Grupo_1177383" data-name="Grupo 1177383">
            <path id="Trazado_995536" data-name="Trazado 995536" d="M33.123,22.006h1.5a1.524,1.524,0,0,0,1.523-1.524" fill="none" stroke="#244d4c" stroke-linecap="round" stroke-linejoin="round" stroke-miterlimit="10" stroke-width="1.143"/>
            <path id="Trazado_995537" data-name="Trazado 995537" d="M26.295,15.736a3.344,3.344,0,0,0-.053.6v4.15a1.524,1.524,0,0,0,1.523,1.524h1.5" fill="none" stroke="#244d4c" stroke-linecap="round" stroke-linejoin="round" stroke-miterlimit="10" stroke-width="1.143"/>
            <path id="Trazado_995538" data-name="Trazado 995538" d="M36.144,16.332a3.345,3.345,0,0,0-1.986-3.056h0a3.343,3.343,0,0,0-2.853.065l-.112.056-.112-.056a3.343,3.343,0,0,0-2.853-.065h0a3.342,3.342,0,0,0-.494.272" fill="none" stroke="#244d4c" stroke-linecap="round" stroke-linejoin="round" stroke-miterlimit="10" stroke-width="1.143"/>
            <path id="Trazado_995539" data-name="Trazado 995539" d="M31.874,22.942h0a1.523,1.523,0,0,1-1.363,0h0a4.281,4.281,0,0,1-2.366-3.829V17.8h0A2.152,2.152,0,0,1,30.3,15.663h0a1.739,1.739,0,0,1,1.415.728l.118.165a2.96,2.96,0,0,0,2.409,1.24h0v1.317A4.28,4.28,0,0,1,31.874,22.942Z" fill="none" stroke="#244d4c" stroke-linecap="round" stroke-linejoin="round" stroke-miterlimit="10" stroke-width="1.143"/>
            <path id="Trazado_995540" data-name="Trazado 995540" d="M28.577,24.97a2.775,2.775,0,0,0,2.612,2.07,2.666,2.666,0,0,0,2.588-1.993" fill="none" stroke="#244d4c" stroke-linecap="round" stroke-linejoin="round" stroke-miterlimit="10" stroke-width="1.143"/>
            <line id="Línea_3248" data-name="Línea 3248" y2="3.009" transform="translate(31.192 35.381)" fill="none" stroke="#244d4c" stroke-linecap="round" stroke-linejoin="round" stroke-miterlimit="10" stroke-width="1.143"/>
            <line id="Línea_3249" data-name="Línea 3249" y2="5.675" transform="translate(31.192 27.04)" fill="none" stroke="#244d4c" stroke-linecap="round" stroke-linejoin="round" stroke-miterlimit="10" stroke-width="1.143"/>
          </g>
          <line id="Línea_3250" data-name="Línea 3250" y1="2.118" x2="1.74" transform="translate(14.371 27.041)" fill="none" stroke="#244d4c" stroke-linecap="round" stroke-linejoin="round" stroke-miterlimit="10" stroke-width="1.143"/>
          <line id="Línea_3251" data-name="Línea 3251" x1="3.771" y1="7.008" transform="translate(8.684 18.7)" fill="none" stroke="#244d4c" stroke-linecap="round" stroke-linejoin="round" stroke-miterlimit="10" stroke-width="1.143"/>
        </g>
        <rect id="Rectángulo_454926" data-name="Rectángulo 454926" width="25.898" height="2.361" transform="translate(6.551 5.675)" fill="none" stroke="#244d4c" stroke-linecap="round" stroke-linejoin="round" stroke-miterlimit="10" stroke-width="1.143"/>
        <line id="Línea_3252" data-name="Línea 3252" x2="12.949" transform="translate(6.589 10.702)" fill="none" stroke="#244d4c" stroke-linecap="round" stroke-linejoin="round" stroke-miterlimit="10" stroke-width="1.143"/>
        <line id="Línea_3253" data-name="Línea 3253" x2="12.949" transform="translate(6.589 13.368)" fill="none" stroke="#244d4c" stroke-linecap="round" stroke-linejoin="round" stroke-miterlimit="10" stroke-width="1.143"/>
        <rect id="Rectángulo_454927" data-name="Rectángulo 454927" width="2.666" height="2.666" transform="translate(16.872 16.034)" fill="none" stroke="#244d4c" stroke-linecap="round" stroke-linejoin="round" stroke-miterlimit="10" stroke-width="1.143"/>
        <rect id="Rectángulo_454928" data-name="Rectángulo 454928" width="2.666" height="2.666" transform="translate(16.872 20.985)" fill="none" stroke="#244d4c" stroke-linecap="round" stroke-linejoin="round" stroke-miterlimit="10" stroke-width="1.143"/>
        <line id="Línea_3254" data-name="Línea 3254" x1="2.476" transform="translate(11.73 18.7)" fill="none" stroke="#244d4c" stroke-linecap="round" stroke-linejoin="round" stroke-miterlimit="10" stroke-width="1.143"/>
        <line id="Línea_3255" data-name="Línea 3255" x2="7.617" transform="translate(6.589 16.034)" fill="none" stroke="#244d4c" stroke-linecap="round" stroke-linejoin="round" stroke-miterlimit="10" stroke-width="1.143"/>
      </g>
    </g>
  </g>
</svg>
