<svg xmlns="http://www.w3.org/2000/svg" xmlns:xlink="http://www.w3.org/1999/xlink" width="159.519" height="161.89" viewBox="0 0 159.519 161.89">
  <defs>
    <clipPath id="clip-path">
      <rect id="Rectángulo_454898" data-name="Rectángulo 454898" width="159.519" height="161.89" fill="none"/>
    </clipPath>
    <clipPath id="clip-path-3">
      <rect id="Rectángulo_454894" data-name="Rectángulo 454894" width="6.445" height="6.099" fill="none"/>
    </clipPath>
    <clipPath id="clip-path-4">
      <rect id="Rectángulo_454895" data-name="Rectángulo 454895" width="4.944" height="3.889" fill="none"/>
    </clipPath>
    <clipPath id="clip-path-5">
      <path id="Trazado_995314" data-name="Trazado 995314" d="M178.919,192.157c-.115.534,10.669,10.312,14.984,12,4.466,1.749,9.31,2.234,14.084,2.7-.6,3.079-4.364,5.021-4.366,8.159a11.142,11.142,0,0,0,1.232,3.872c1.632,4.216.547,8.939-.543,13.327-2.677,10.782-5.291,21.535-6.458,32.556h48.922c-1.759-5.3-3.845-10.285-6.063-15.409-2.508-5.793-5.232-11.811-6.4-17.941,2.212,3.714,5.338,6.955,8.818,11.671a26.6,26.6,0,0,0,8.32-2.761c-.12-6.136-6.153-31.472-8.869-35.825-6.969-11.168-13.151-14.6-17.13-14.439-3.244.134-17.018,1.424-20.637-.532a14.992,14.992,0,0,0-3.67-1.71,16.325,16.325,0,0,0-4.2-.049,38.511,38.511,0,0,1-15.53-3.647c-1.624,3.443-1.7,4.3-2.5,8.025" transform="translate(-178.918 -184.132)" fill="none"/>
    </clipPath>
  </defs>
  <g id="Grupo_1177322" data-name="Grupo 1177322" transform="translate(-304.711 -3656.11)">
    <circle id="Elipse_13701" data-name="Elipse 13701" cx="73" cy="73" r="73" transform="translate(311.711 3672)" fill="#f7e869"/>
    <g id="Grupo_1177321" data-name="Grupo 1177321" transform="translate(304.711 3656.11)">
      <g id="Grupo_1177320" data-name="Grupo 1177320" clip-path="url(#clip-path)">
        <g id="Grupo_1177315" data-name="Grupo 1177315">
          <g id="Grupo_1177314" data-name="Grupo 1177314" clip-path="url(#clip-path)">
            <path id="Trazado_995219" data-name="Trazado 995219" d="M271.363,131.76c-4.375-5.6-11.066-4.819-18.059-3.569a10.546,10.546,0,0,0-6.973,4.144l1.72,1.363-.793-.437c5.5,6.386,9.092,16.591,4.6,23.72a116.4,116.4,0,0,1,12.071-.334l.59-3.006.881,2.932c.77.008,3.106-.137,5.71-.294l-.294-.116.845-5.586,1.335,5.591.527-.03,1.093-3.984,1.364,3.855a33.138,33.138,0,0,1,4.19-.049c-1.862-6.856-4.43-18.6-8.8-24.2" transform="translate(-137.638 -71.126)" fill="#6d4009"/>
            <path id="Trazado_995220" data-name="Trazado 995220" d="M109.583,171.933a20.114,20.114,0,0,0-2.875,4.03l2.719-6.519c.015-.036.03-.074.043-.113a.621.621,0,0,0-1.033-.63,21.437,21.437,0,0,0-3.977,5.687q1.3-3.878,2.275-7.853a6.812,6.812,0,0,0,.244-1.673.62.62,0,0,0-1.147-.317,53.884,53.884,0,0,0-4.71,9.5l.948-8.584a.62.62,0,0,0-1.2-.271l-3.488,10.637q-.369-2.483-.739-4.966c-.086-.581-.589-1.354-1.052-.983a.6.6,0,0,0-.2.35c-.436,2.154-.3,4.409-.909,6.519a19.752,19.752,0,0,0-1.1,3.763c-.107,1.307.532,2.823,1.81,3.115-1.071,1.079-12.341,10.4-15.946,14.927A212.9,212.9,0,0,0,61.872,177L47.956,194.86c10.919,3.914,19.923,12.03,30.795,16.074a8.064,8.064,0,0,0,2.86.648,7.92,7.92,0,0,0,4.408-1.882c6.718-4.928,14.287-21.473,15.111-22.083.961-.713,4.28-2.13,4.879-3.166,1.933-3.338,3.281-7.917,4.614-11.9a.62.62,0,0,0-1.04-.621" transform="translate(-26.795 -91.776)" fill="#f6a472"/>
            <path id="Trazado_995221" data-name="Trazado 995221" d="M118,241.379a14.726,14.726,0,0,0,1.539,8,14.148,14.148,0,0,0,1.193,1.945.3.3,0,0,0,.4.106.3.3,0,0,0,.106-.4,14.074,14.074,0,0,1-2.651-9.645.3.3,0,0,0-.3-.3.3.3,0,0,0-.3.3" transform="translate(-65.898 -134.705)" fill="#844d2f"/>
            <path id="Trazado_995222" data-name="Trazado 995222" d="M159.249,190.272a6.666,6.666,0,0,1,1.373,4.917,6.37,6.37,0,0,1-.348,1.43.3.3,0,0,0,.206.364.3.3,0,0,0,.364-.206,7.254,7.254,0,0,0-.313-5.568,6.92,6.92,0,0,0-.864-1.354.3.3,0,0,0-.418,0,.3.3,0,0,0,0,.418" transform="translate(-88.933 -106.033)" fill="#844d2f"/>
            <path id="Trazado_995223" data-name="Trazado 995223" d="M163.178,188.179a26.7,26.7,0,0,1,4.794,1.32.3.3,0,0,0,.364-.207.3.3,0,0,0-.206-.364,26.7,26.7,0,0,0-4.794-1.32.3.3,0,0,0-.364.207.3.3,0,0,0,.207.364" transform="translate(-91.055 -104.823)" fill="#844d2f"/>
            <path id="Trazado_995224" data-name="Trazado 995224" d="M172.39,195.795a7.129,7.129,0,0,0-4.691,3.7,6.734,6.734,0,0,0-.585,1.64.3.3,0,0,0,.207.364.3.3,0,0,0,.364-.207,6.553,6.553,0,0,1,3.371-4.381,6.073,6.073,0,0,1,1.492-.544.3.3,0,1,0-.157-.57" transform="translate(-93.371 -109.396)" fill="#844d2f"/>
            <path id="Trazado_995225" data-name="Trazado 995225" d="M136.269,194.861a6.712,6.712,0,0,0-.467,2.621,2.286,2.286,0,0,0,1.477,2.044c.466.131.968.055,1.438.167a2.611,2.611,0,0,0,1.065.207c.732-.141.8-1.286.252-1.788a3.078,3.078,0,0,0-2.119-.531,13.436,13.436,0,0,0,4.483-2.78,4.912,4.912,0,0,0-3.717-.407Z" transform="translate(-75.871 -108.51)" fill="#d69d76"/>
            <path id="Trazado_995226" data-name="Trazado 995226" d="M180.607,190.951l-12.877-.652a14.576,14.576,0,0,1-3-.362,16.233,16.233,0,0,1-3.817-1.812,71.44,71.44,0,0,0-14.02-6.143c-2.714-.856-6.114-2.7-8.385-.981-6.883,5.2-16.919,2.956-17.62,3.127a.943.943,0,0,0-.05,1.818,55.774,55.774,0,0,0,11.539,2.2,10.662,10.662,0,0,0-1.887,4.338.943.943,0,0,0,1.607.77l6.715-6.828a2.269,2.269,0,0,1,1.14-.76,2.235,2.235,0,0,1,1.488.469,55.569,55.569,0,0,1,6.912,5.008c3.373,2.864,6.735,6.294,11.124,6.858,1.328.171,2.682.061,4.006.259,3.1.466,14.624,4.358,17.669,4.844a1.2,1.2,0,0,0,1.678-.939c1.483-4.524,1.517-7.077,1.186-11.826Z" transform="translate(-67.143 -100.739)" fill="#fbc9a4"/>
            <path id="Trazado_995227" data-name="Trazado 995227" d="M164.259,187.591a7.2,7.2,0,0,0,.231,1.728.444.444,0,0,0,.855-.236q-.05-.193-.09-.389c-.013-.065-.025-.131-.036-.2-.006-.035-.011-.071-.017-.106s-.014-.128,0,0c-.026-.266-.053-.529-.055-.8a.443.443,0,1,0-.887,0" transform="translate(-91.78 -104.569)" fill="#844d2f"/>
            <path id="Trazado_995228" data-name="Trazado 995228" d="M327.342,295.189A48.184,48.184,0,0,0,330.4,304.9c2.033,4.242,7.357,14.09,7.346,14.273-.052.943-3.631-2.239-4.5-3.882a32.835,32.835,0,0,1,3.125,6.7c.124.342-.285,1.863-.559,1.624-1.657-1.443-3.556-6.155-4.429-8.171l4.006,8.171c.14.36-.326.288-.583,0-1.769-1.979-4.675-5.559-5.752-8.016a63.294,63.294,0,0,1,2.875,6.5c.12.342-.3,1.762-.567,1.516-2.457-2.268-3.081-5.754-4.372-8.886.631,1.5.115,3.252.3,4.872a.348.348,0,0,1-.628.24c-.839-1.162-.832-2.424-1.474-3.7-.837-1.665-1.144-5.888-.016-7.372-1.136-2.457-6.192-12.714-6.192-12.714Z" transform="translate(-178.232 -164.937)" fill="#fbc9a4"/>
            <path id="Trazado_995229" data-name="Trazado 995229" d="M347.3,341.419a18.835,18.835,0,0,1,1.611,2.929c.5,1.075.94,2.172,1.385,3.269.234.578.468,1.156.711,1.73a.3.3,0,0,0,.4.106.3.3,0,0,0,.106-.4c-.888-2.094-1.688-4.324-2.769-6.367a14.668,14.668,0,0,0-.938-1.561.3.3,0,0,0-.4-.106.3.3,0,0,0-.106.4" transform="translate(-194.03 -190.52)" fill="#844d2f"/>
            <path id="Trazado_995230" data-name="Trazado 995230" d="M340.517,341.1a30.3,30.3,0,0,1,5.258-1.036.3.3,0,0,0,.3-.3.3.3,0,0,0-.3-.3,31.185,31.185,0,0,0-5.415,1.057.3.3,0,0,0,.157.57" transform="translate(-190.06 -189.681)" fill="#844d2f"/>
            <path id="Trazado_995231" data-name="Trazado 995231" d="M44.984,201.1a98.023,98.023,0,0,0,15.58,14.984A73.227,73.227,0,0,0,78.9,205.793c-5.719-5.583-15.011-22.619-21.612-24.392Z" transform="translate(-25.135 -101.358)" fill="#4f432c"/>
            <path id="Trazado_995232" data-name="Trazado 995232" d="M58.8,343.012H76.516q-1.463-9.542-3.177-18.856L58.5,333.862l.109,7.015c.063.72.126,1.416.189,2.135" transform="translate(-32.689 -181.122)" fill="#c17c21"/>
            <path id="Trazado_995233" data-name="Trazado 995233" d="M41.091,340.9c2.58-12.155,4.3-20.749,3.634-20.518a73.2,73.2,0,0,0-11.837,3.6L13.6,321.353l-4.755,5a92.606,92.606,0,0,0-.928,14.55Z" transform="translate(-4.423 -179.013)" fill="#efa02a"/>
            <path id="Trazado_995234" data-name="Trazado 995234" d="M207.988,206.86c-.6,3.079-4.364,5.021-4.366,8.159a11.145,11.145,0,0,0,1.232,3.872c1.632,4.216.547,8.939-.543,13.326-2.677,10.782-5.291,21.536-6.458,32.556h48.922c-1.759-5.3-3.845-10.285-6.063-15.409-2.507-5.793-5.232-11.811-6.4-17.941,2.212,3.714,5.338,6.954,8.818,11.671a26.606,26.606,0,0,0,8.32-2.761c-.12-6.136-6.153-31.472-8.869-35.825-6.969-11.168-13.151-14.6-17.13-14.439-3.244.134-17.018,1.423-20.637-.532a15.01,15.01,0,0,0-3.67-1.71,16.326,16.326,0,0,0-4.2-.049,38.513,38.513,0,0,1-15.53-3.647c-1.624,3.443-1.695,4.3-2.5,8.025-.116.534,10.669,10.312,14.984,12,4.466,1.749,9.311,2.234,14.084,2.7" transform="translate(-99.971 -102.883)" fill="#7d8acc"/>
            <path id="Trazado_995235" data-name="Trazado 995235" d="M20.91,172.568c1.54.306,2.729,1.611,3.993,2.518a8.3,8.3,0,0,0,3.605,1.807c1.348.173.936-2.361,1.116-3.708.569,2.186,10.718,7.231,12.2,21.372.3,2.858,1.136,5.616,1.193,8.489.268,13.727-.282,28.955-.013,42.682.031,1.6-12.283-.141-15.253.139-9.121.86-16.039,6.55-24.849,4.039,1.844-11.718-7.407-33.054.034-63.265C4.135,181.792,12,170.8,20.91,172.568" transform="translate(0 -96.315)" fill="#7f7150"/>
            <path id="Trazado_995236" data-name="Trazado 995236" d="M299.6,223.9q-.182,2.986-.248,5.977t-.011,6.012q.053,2.991.224,5.978t.461,5.981a16.143,16.143,0,0,0,1.146,5.209q.14.306.305.6a.3.3,0,0,0,.51-.3,12.906,12.906,0,0,1-1.321-5.017c-.2-1.948-.354-3.9-.474-5.859q-.182-2.971-.248-5.948t-.015-5.953q.05-2.976.218-5.949.021-.366.043-.732c.023-.38-.568-.379-.591,0" transform="translate(-167.242 -124.947)" fill="#212f56"/>
            <path id="Trazado_995237" data-name="Trazado 995237" d="M324.293,308.037l1.317,2.818a.3.3,0,0,0,.4.106.3.3,0,0,0,.106-.4l-1.316-2.818a.3.3,0,0,0-.4-.106.3.3,0,0,0-.106.4" transform="translate(-181.179 -171.868)" fill="#212f56"/>
            <path id="Trazado_995238" data-name="Trazado 995238" d="M328.333,306.16a14.428,14.428,0,0,0,1.255,2.985.3.3,0,0,0,.51-.3A13.684,13.684,0,0,1,328.9,306a.3.3,0,0,0-.57.157" transform="translate(-183.449 -170.863)" fill="#212f56"/>
            <path id="Trazado_995239" data-name="Trazado 995239" d="M331.986,304.644a20.092,20.092,0,0,1,1.131,3.034.3.3,0,0,0,.57-.157,21.006,21.006,0,0,0-1.19-3.175.3.3,0,0,0-.4-.106.3.3,0,0,0-.106.4" transform="translate(-185.477 -169.973)" fill="#212f56"/>
            <path id="Trazado_995240" data-name="Trazado 995240" d="M336.611,304.389a11.346,11.346,0,0,1,.906,2.847.3.3,0,0,0,.364.206.3.3,0,0,0,.206-.364,11.891,11.891,0,0,0-.965-2.989.3.3,0,0,0-.4-.106.3.3,0,0,0-.106.4" transform="translate(-188.061 -169.83)" fill="#212f56"/>
            <path id="Trazado_995241" data-name="Trazado 995241" d="M181.233,199.621l2.112,1.316a.3.3,0,0,0,.3-.511l-2.112-1.316a.3.3,0,0,0-.3.511" transform="translate(-101.183 -111.231)" fill="#212f56"/>
            <path id="Trazado_995242" data-name="Trazado 995242" d="M182.766,195.644a7.182,7.182,0,0,1,1.883,1.217.3.3,0,0,0,.418,0,.3.3,0,0,0,0-.418,7.692,7.692,0,0,0-2-1.31.305.305,0,0,0-.4.106.3.3,0,0,0,.106.4" transform="translate(-102.04 -109.012)" fill="#212f56"/>
            <path id="Trazado_995243" data-name="Trazado 995243" d="M183.987,192.224c.075.028.151.056.225.088l.013.006.069.031.109.051q.225.108.439.236t.4.267l.1.072.024.019.047.038c.067.054.131.109.2.167a.3.3,0,0,0,.418-.418,5.845,5.845,0,0,0-1.882-1.126.3.3,0,0,0-.364.207.3.3,0,0,0,.206.364" transform="translate(-102.683 -107.079)" fill="#212f56"/>
            <path id="Trazado_995244" data-name="Trazado 995244" d="M185.567,188.152l.056.023c-.029-.012,0,0,.014.006l.111.049q.111.051.22.105.224.113.44.244t.407.269c.141.1.219.163.361.283a.3.3,0,0,0,.418-.418,6.889,6.889,0,0,0-1.87-1.131.3.3,0,0,0-.364.206.305.305,0,0,0,.207.364" transform="translate(-103.565 -104.803)" fill="#212f56"/>
            <path id="Trazado_995245" data-name="Trazado 995245" d="M244.161,220.921a23.773,23.773,0,0,0,1.833-4.906,24.023,24.023,0,0,0,.717-5.191,23.346,23.346,0,0,0-.106-2.944.3.3,0,0,0-.3-.3.3.3,0,0,0-.3.3,23.208,23.208,0,0,1-1.234,10.105,22.644,22.644,0,0,1-1.13,2.638.3.3,0,0,0,.106.4.3.3,0,0,0,.4-.106" transform="translate(-136.12 -115.987)" fill="#212f56"/>
            <path id="Trazado_995246" data-name="Trazado 995246" d="M247.584,265.365a17.923,17.923,0,0,1,4.335.382,17.989,17.989,0,0,1,6.271,2.635.3.3,0,1,0,.3-.51,18.564,18.564,0,0,0-4.011-2.011,18.811,18.811,0,0,0-4.377-1,18.218,18.218,0,0,0-2.516-.09c-.379.013-.381.6,0,.591" transform="translate(-138.178 -147.937)" fill="#212f56"/>
            <path id="Trazado_995247" data-name="Trazado 995247" d="M252.063,269.359a14.667,14.667,0,0,1,4.39,1.944.3.3,0,0,0,.3-.511,15.169,15.169,0,0,0-4.531-2,.3.3,0,0,0-.157.57" transform="translate(-140.723 -150.18)" fill="#212f56"/>
            <path id="Trazado_995248" data-name="Trazado 995248" d="M287.175,299.794q1.823,1.65,3.691,3.25t3.761,3.132q1.08.874,2.174,1.732a.305.305,0,0,0,.418,0,.3.3,0,0,0,0-.418q-1.935-1.518-3.828-3.087t-3.723-3.177q-1.044-.917-2.075-1.85a.3.3,0,0,0-.418.418" transform="translate(-160.412 -167.23)" fill="#212f56"/>
            <path id="Trazado_995249" data-name="Trazado 995249" d="M237,297.8a25.534,25.534,0,0,1-3.452,4.92q-.577.644-1.2,1.249c-.273.266.145.684.418.418a26.178,26.178,0,0,0,3.871-4.794q.461-.733.871-1.495c.18-.335-.33-.634-.511-.3" transform="translate(-129.775 -166.317)" fill="#212f56"/>
            <path id="Trazado_995250" data-name="Trazado 995250" d="M231.864,198.839l.177-.121-.4-.4a11.543,11.543,0,0,0-1.118,2.466c-.188.462-.4.913-.6,1.372-.054.127-.108.255-.161.383l-.064.157-.022.052c.02-.047-.018.042-.018.041-.075.172-.154.342-.229.514a4.542,4.542,0,0,0-.427,1.33.3.3,0,0,0,.3.3.3.3,0,0,0,.3-.3c.007-.06,0-.024,0-.011,0-.021.007-.041.011-.062.008-.043.018-.086.029-.128.023-.091.051-.181.082-.27.061-.179.133-.353.209-.526.161-.368.322-.736.477-1.106.193-.458.4-.91.6-1.368.178-.417.328-.845.493-1.268a5.786,5.786,0,0,1,.658-1.279c.171-.24-.166-.567-.4-.4l-.177.121a.3.3,0,0,0-.106.4.3.3,0,0,0,.4.106" transform="translate(-127.954 -110.724)" fill="#212f56"/>
            <path id="Trazado_995251" data-name="Trazado 995251" d="M235.537,201.9a24.648,24.648,0,0,1-1.089,3.4.3.3,0,0,0,.206.364.3.3,0,0,0,.364-.207,24.652,24.652,0,0,0,1.089-3.4c.089-.37-.481-.527-.57-.157" transform="translate(-130.989 -112.694)" fill="#212f56"/>
            <path id="Trazado_995252" data-name="Trazado 995252" d="M301.912,228.348l-2.764,4.548a.3.3,0,0,0,.511.3l2.764-4.548c.2-.326-.313-.623-.51-.3" transform="translate(-167.124 -127.511)" fill="#212f56"/>
            <path id="Trazado_995253" data-name="Trazado 995253" d="M245.034,215.886l1.412,1.611a.3.3,0,0,0,.418,0,.3.3,0,0,0,0-.418l-1.412-1.611a.3.3,0,0,0-.418,0,.3.3,0,0,0,0,.418" transform="translate(-136.866 -120.345)" fill="#212f56"/>
            <path id="Trazado_995254" data-name="Trazado 995254" d="M205.886,213.813a12.754,12.754,0,0,1-.2,3.343.3.3,0,0,0,.207.364.3.3,0,0,0,.364-.207,13.362,13.362,0,0,0,.226-3.5.3.3,0,0,0-.3-.3.3.3,0,0,0-.3.3" transform="translate(-114.921 -119.303)" fill="#212f56"/>
            <path id="Trazado_995255" data-name="Trazado 995255" d="M208.884,217.4a3.079,3.079,0,0,0,.156,1.779.3.3,0,0,0,.364.207.3.3,0,0,0,.206-.364,2.816,2.816,0,0,1-.128-.385c-.016-.065-.031-.131-.042-.2,0-.029-.01-.057-.014-.086.008.057,0-.04,0-.051a2.69,2.69,0,0,1-.01-.391c0-.068.009-.135.016-.2-.006.059.005-.033.006-.036.006-.038.013-.076.021-.114a.3.3,0,0,0-.57-.157" transform="translate(-116.678 -121.351)" fill="#212f56"/>
            <path id="Trazado_995256" data-name="Trazado 995256" d="M323.054,266.207l-1.87,2.987c-.2.323.309.62.511.3l1.87-2.987c.2-.323-.309-.62-.511-.3" transform="translate(-179.436 -148.666)" fill="#212f56"/>
            <path id="Trazado_995257" data-name="Trazado 995257" d="M325.119,271.613l-1.6,2.831a.3.3,0,0,0,.511.3l1.6-2.831a.3.3,0,0,0-.511-.3" transform="translate(-180.746 -151.683)" fill="#212f56"/>
            <path id="Trazado_995258" data-name="Trazado 995258" d="M38.395,345.415a23.219,23.219,0,0,1-3.11,3.346,19.842,19.842,0,0,1-3.639,2.506,24.781,24.781,0,0,1-2.422,1.137.305.305,0,0,0-.207.364.3.3,0,0,0,.364.207,23.763,23.763,0,0,0,4.266-2.22,20.614,20.614,0,0,0,3.484-2.948,26.652,26.652,0,0,0,1.775-2.093.3.3,0,0,0-.106-.4.3.3,0,0,0-.4.106" transform="translate(-16.207 -192.919)" fill="#c17c21"/>
            <path id="Trazado_995259" data-name="Trazado 995259" d="M9.56,336.216a15.116,15.116,0,0,0,6.9.59,37.693,37.693,0,0,0,6.93-1.679,72.2,72.2,0,0,1,7.007-2.064,18.06,18.06,0,0,1,7.111-.243c2.222.411,4.54,1.206,6.808.658a5.619,5.619,0,0,0,.795-.257.305.305,0,0,0,.206-.364.3.3,0,0,0-.364-.207c-2.144.871-4.47.176-6.627-.271a17.788,17.788,0,0,0-3.505-.411,19.9,19.9,0,0,0-3.567.325,51.26,51.26,0,0,0-7.033,1.94,47.444,47.444,0,0,1-6.843,1.845,15.869,15.869,0,0,1-6.831-.173c-.28-.077-.556-.165-.828-.261-.359-.127-.514.444-.157.57" transform="translate(-5.228 -185.487)" fill="#4f432c"/>
            <path id="Trazado_995260" data-name="Trazado 995260" d="M74.913,279.962a3.914,3.914,0,0,0-.143,1.949.3.3,0,0,0,.364.207.3.3,0,0,0,.206-.364,2.54,2.54,0,0,1-.04-.381,3.212,3.212,0,0,1,.183-1.254.3.3,0,0,0-.207-.364.3.3,0,0,0-.363.207" transform="translate(-41.743 -156.308)" fill="#4f432c"/>
            <path id="Trazado_995261" data-name="Trazado 995261" d="M80.619,281.862v.593a.306.306,0,0,0,.086.209.3.3,0,0,0,.418,0,.307.307,0,0,0,.087-.209v-.593a.3.3,0,0,0-.087-.209.3.3,0,0,0-.418,0,.308.308,0,0,0-.086.209" transform="translate(-45.046 -157.325)" fill="#4f432c"/>
            <path id="Trazado_995262" data-name="Trazado 995262" d="M49.161,229.534a33.141,33.141,0,0,1,2.56-3.009,34.307,34.307,0,0,1,2.937-2.726,33.882,33.882,0,0,1,3.19-2.332,34.349,34.349,0,0,1,3.469-1.965,33.1,33.1,0,0,1,3.661-1.536q.234-.082.469-.16a.3.3,0,0,0,.206-.364.3.3,0,0,0-.364-.207,34.37,34.37,0,0,0-7.321,3.455,35.3,35.3,0,0,0-3.328,2.365,34.347,34.347,0,0,0-3,2.71,33.883,33.883,0,0,0-2.673,3.061c-.105.136-.209.272-.312.409a.3.3,0,0,0,.106.4.3.3,0,0,0,.4-.106" transform="translate(-27.159 -121.374)" fill="#4f432c"/>
            <path id="Trazado_995263" data-name="Trazado 995263" d="M51.811,238.039A51.521,51.521,0,0,1,63.49,228.2q1.839-1.132,3.77-2.107a.3.3,0,0,0,.106-.4.3.3,0,0,0-.4-.106,51.808,51.808,0,0,0-6.6,3.979,52.51,52.51,0,0,0-5.967,4.93q-1.567,1.5-3,3.134a.3.3,0,0,0,0,.418.3.3,0,0,0,.418,0" transform="translate(-28.669 -126.022)" fill="#4f432c"/>
            <path id="Trazado_995264" data-name="Trazado 995264" d="M5.633,212.05c-.469,8.454-.534,12.145-.453,20.611.015,1.527.089,3.194,1.091,4.347,1.38,1.588,3.831,1.49,5.922,1.258,5.536-.613,11.445-1.4,15.634-5.073,2.06-1.806,16.619-15.14,17.97-17.94a10.78,10.78,0,0,0,1.382-4.575,3.9,3.9,0,0,0-2.414-3.8c-.921-2.786-2.182-5.894-4.381-7.6a.919.919,0,0,0-1.333,1.222c.395.62.819,1.228,1.165,1.871.768,1.422,1.081,3.375-.064,4.514a2.522,2.522,0,0,1-1.3-2.464c-.019-1.237.276-2.544-.6-3.6a1.4,1.4,0,0,0-1.627-.416c-.628.279-.74.931-.825,1.524l-1.181,8.314a19.926,19.926,0,0,0-.205,6.488,2.327,2.327,0,0,1,.057,1.027c-.174.651-.9.962-1.536,1.183l-16.541,5.726c2.673-5.5,3.986-4.694,4.081-10.809A25.934,25.934,0,0,0,5.633,212.05" transform="translate(-2.878 -111.237)" fill="#f6a472"/>
            <path id="Trazado_995265" data-name="Trazado 995265" d="M93.83,215.988a2.849,2.849,0,0,1-.08,1.908.3.3,0,0,0,.207.364.3.3,0,0,0,.364-.206,3.4,3.4,0,0,0,.08-2.223.3.3,0,0,0-.57.157" transform="translate(-52.374 -120.474)" fill="#844d2f"/>
            <path id="Trazado_995266" data-name="Trazado 995266" d="M97.724,218.939v2.835a.3.3,0,0,0,.591,0v-2.835a.3.3,0,0,0-.591,0" transform="translate(-54.603 -122.173)" fill="#844d2f"/>
            <path id="Trazado_995267" data-name="Trazado 995267" d="M90.847,218.408l3.7,3.276a.3.3,0,0,0,.418,0,.3.3,0,0,0,0-.418l-3.7-3.275a.3.3,0,0,0-.418,0,.3.3,0,0,0,0,.418" transform="translate(-50.713 -121.755)" fill="#844d2f"/>
            <path id="Trazado_995268" data-name="Trazado 995268" d="M70.37,243.05a10.238,10.238,0,0,0,1.727,1.968.3.3,0,0,0,.418,0,.3.3,0,0,0,0-.418,9.945,9.945,0,0,1-.892-.886,9.01,9.01,0,0,1-.744-.961.3.3,0,0,0-.4-.106.3.3,0,0,0-.106.4" transform="translate(-39.296 -135.557)" fill="#844d2f"/>
            <path id="Trazado_995269" data-name="Trazado 995269" d="M24.665,256.441a13.334,13.334,0,0,0-3.955,6.065,12.739,12.739,0,0,0-.453,2,.305.305,0,0,0,.207.364.3.3,0,0,0,.364-.207,12.672,12.672,0,0,1,4.256-7.8.3.3,0,0,0,0-.418.3.3,0,0,0-.418,0" transform="translate(-11.316 -143.24)" fill="#844d2f"/>
            <path id="Trazado_995270" data-name="Trazado 995270" d="M40.168,209.175a66.152,66.152,0,0,0-.041-6.981,66.821,66.821,0,0,0-.781-6.969q-.32-1.935-.755-3.849a.3.3,0,1,0-.57.157,65.357,65.357,0,0,1,1.174,6.8,66.052,66.052,0,0,1,.45,6.919q.024,1.962-.068,3.922a.3.3,0,0,0,.591,0" transform="translate(-21.24 -106.81)" fill="#4f432c"/>
            <path id="Trazado_995271" data-name="Trazado 995271" d="M9.217,223.642a25.279,25.279,0,0,1,10.656.836,24.674,24.674,0,0,1,2.831,1.037.3.3,0,0,0,.4-.106A.3.3,0,0,0,23,225a25.735,25.735,0,0,0-5.283-1.672,25.61,25.61,0,0,0-8.66-.26.3.3,0,0,0-.206.364.3.3,0,0,0,.364.206" transform="translate(-4.942 -124.502)" fill="#4f432c"/>
            <path id="Trazado_995272" data-name="Trazado 995272" d="M39.988,172.48c-.088,2.1-.18,4.672,1.446,6.011a20.572,20.572,0,0,0,5.572,2.925,3.735,3.735,0,0,0,2.655.357,2.656,2.656,0,0,0,1.48-2.326,5.838,5.838,0,0,0-3.045-5.2,14.371,14.371,0,0,0-6.08-1.64c-1.069-.1-1.029-.525-2.027-.127" transform="translate(-22.321 -96.279)" fill="#4f432c"/>
            <path id="Trazado_995273" data-name="Trazado 995273" d="M47.128,146.01c-.358.1-.432.567-.411.938a9.35,9.35,0,0,0,2.823,6.147q2.041-4.766,4.4-9.388Z" transform="translate(-26.101 -80.296)" fill="#873139"/>
            <path id="Trazado_995274" data-name="Trazado 995274" d="M65.566,129.964c-2.15-1.22.045-4.959-.337-7.4l-1.295-.517a136.353,136.353,0,0,0-14.817-.544,51.353,51.353,0,0,1,.031,7.958,3.338,3.338,0,1,0-1.744,5.978,89.393,89.393,0,0,1-4.337,9.008,2.867,2.867,0,0,0,.883,3.76,34.522,34.522,0,0,0,5.479,3.038,1.614,1.614,0,0,0,1.044.194,1.651,1.651,0,0,0,.82-.724c.7-.984,3.837-5.643,3.815-5.577-.13.4,8.264,2.021,9.335.42a4.292,4.292,0,0,0,.529-1.443,22.345,22.345,0,0,0,.488-4.107l-3.643.187a3.541,3.541,0,0,1,3.739-2.24c.03-.52.07-1.05.13-1.594,1.1.169,3.572.435,4.609.034-2.389-.635,0-3.744-4.731-6.429" transform="translate(-23.862 -67.877)" fill="#f6a472"/>
            <g id="Grupo_1177310" data-name="Grupo 1177310" transform="translate(24.802 73.747)" opacity="0.72">
              <g id="Grupo_1177309" data-name="Grupo 1177309">
                <g id="Grupo_1177308" data-name="Grupo 1177308" clip-path="url(#clip-path-3)">
                  <path id="Trazado_995275" data-name="Trazado 995275" d="M62.655,170.645l-6.445-3.511,4.884,6.1Z" transform="translate(-56.21 -167.134)" fill="#844d2f"/>
                </g>
              </g>
            </g>
            <path id="Trazado_995276" data-name="Trazado 995276" d="M50.851,141.924a2.13,2.13,0,0,1,1.512,2.194.3.3,0,0,0,.3.3.3.3,0,0,0,.3-.3,2.721,2.721,0,0,0-1.946-2.764.3.3,0,0,0-.157.57" transform="translate(-28.296 -78.975)" fill="#844d2f"/>
            <path id="Trazado_995277" data-name="Trazado 995277" d="M50.941,144.613l1.377-.241a.3.3,0,0,0,.207-.364.3.3,0,0,0-.364-.206l-1.377.241a.3.3,0,0,0-.207.364.3.3,0,0,0,.364.207" transform="translate(-28.254 -80.345)" fill="#844d2f"/>
            <path id="Trazado_995278" data-name="Trazado 995278" d="M85.526,146.767c0,.782-.4,1.416-.9,1.416s-.9-.634-.9-1.416.4-1.416.9-1.416.9.634.9,1.416" transform="translate(-46.777 -81.215)"/>
            <path id="Trazado_995279" data-name="Trazado 995279" d="M48.991,117.729q.126,2.452.251,4.9a2.359,2.359,0,0,0,1.679-.185q-.042-5.1-.084-10.208a56.922,56.922,0,0,0,12.191,2.632,11.16,11.16,0,0,0,3.964-.113,4.337,4.337,0,0,0,3-2.4,1.74,1.74,0,0,0,.034-1.4,1.963,1.963,0,0,0-2.22-.689,7.139,7.139,0,0,1-2.45.441c1.8-.7,3.766-2.347,3.143-4.176a2.862,2.862,0,0,0-3.23-1.594,7.124,7.124,0,0,0-3.348,1.945c.8-.815,1.59-2.231.691-2.938a1.576,1.576,0,0,0-.976-.277c-2.818-.013-4.682,3.372-7.491,3.6a8.711,8.711,0,0,1-3.169-.626,4.726,4.726,0,0,0-3.182-.111,1.925,1.925,0,0,0-1.048,2.642,2.187,2.187,0,0,0-3.316,1.893,4.914,4.914,0,0,0,.526,1.442,13.481,13.481,0,0,1,1.085,7.734,6.734,6.734,0,0,1,4.206-1.029Z" transform="translate(-24.26 -57.923)" fill="#873139"/>
            <path id="Trazado_995280" data-name="Trazado 995280" d="M83.782,142.08a1.675,1.675,0,0,1-1.173,1.822,3.448,3.448,0,0,1-2.32-.191c-.74-.283-1.436-.68-2.2-.905a3,3,0,0,1,2.5-1.336,8.856,8.856,0,0,1,2.9.52Z" transform="translate(-43.635 -79.044)" fill="#873139"/>
            <path id="Trazado_995281" data-name="Trazado 995281" d="M266.507,198.787a2.778,2.778,0,0,0-.625,5.116,5,5,0,0,0,2.61.431,23.319,23.319,0,0,0,4.65-.637,5.289,5.289,0,0,0,1.631-.615,2.1,2.1,0,0,0,.988-1.382,3.121,3.121,0,0,0-.125-1.2,3.29,3.29,0,0,0-.495-1.247,3,3,0,0,0-1.989-.941,12.6,12.6,0,0,0-6.13.55Z" transform="translate(-147.76 -110.721)" fill="#212f56"/>
            <path id="Trazado_995282" data-name="Trazado 995282" d="M240.991,140.307c.01,2.688-.051,12.35-.188,12.8-.018.058-4.535-.191-4.473-.109,0,0,4.652,3.3,4.631,3.32-.134.1.021,1.29-.3,2.587-.043-.019,2.058-1.8,3.268-1.34s2.129,1.53,1.671,2.741h-4.867a9.269,9.269,0,0,0,.526,3.947c.049.113,7.257-.713,8.8-1.675-.019.825.309,5.231.274,5.753-.186,2.724,8.59,1.505,8.156-.789-.369-1.953-.785-6.972-1.3-10.029a3.1,3.1,0,0,0,4.382.057,3.456,3.456,0,0,0,.09-4.487,3.9,3.9,0,0,0-4.489-.929L255.5,140.518Z" transform="translate(-132.049 -78.397)" fill="#fbc9a4"/>
            <path id="Trazado_995283" data-name="Trazado 995283" d="M246.407,136.951c.035,3.335,1.382,3.934,4.506,5.1,7.5,2.8,10.275,9.6,8.711,10.533a2.889,2.889,0,0,0,2.814-.867,8.506,8.506,0,0,0,1.588-2.64,4.648,4.648,0,0,1,3.645,1.493,100.819,100.819,0,0,0-3.066-11.915,4.5,4.5,0,0,0-.8-1.784c-.871-1.007-2.388-1.063-3.718-1.023-4.685.142-8.814.451-13.464,1.04Z" transform="translate(-137.68 -75.902)" fill="#6d4009"/>
            <path id="Trazado_995284" data-name="Trazado 995284" d="M285.736,172.859l2.009-1.72c.145-.124-.065-.332-.209-.209l-2.009,1.72c-.145.124.065.332.209.209" transform="translate(-159.511 -95.486)" fill="#844d2f"/>
            <path id="Trazado_995285" data-name="Trazado 995285" d="M287.82,173.473a3.471,3.471,0,0,1,.6,1.13c.056.181.342.1.285-.079a3.859,3.859,0,0,0-.671-1.261.149.149,0,0,0-.209,0,.152.152,0,0,0,0,.209" transform="translate(-160.796 -96.787)" fill="#844d2f"/>
            <g id="Grupo_1177313" data-name="Grupo 1177313" transform="translate(118.008 82.761)" opacity="0.66">
              <g id="Grupo_1177312" data-name="Grupo 1177312">
                <g id="Grupo_1177311" data-name="Grupo 1177311" clip-path="url(#clip-path-4)">
                  <path id="Trazado_995286" data-name="Trazado 995286" d="M267.441,188.977l4.944-1.417-4.681,3.889Z" transform="translate(-267.441 -187.56)" fill="#b47248"/>
                </g>
              </g>
            </g>
            <path id="Trazado_995287" data-name="Trazado 995287" d="M255.242,167.958c0,.618-.334,1.118-.745,1.118s-.746-.5-.746-1.118.334-1.118.746-1.118.745.5.745,1.118" transform="translate(-141.784 -93.222)"/>
            <path id="Trazado_995288" data-name="Trazado 995288" d="M251.485,162.608a1.957,1.957,0,0,0,.658.985,11.111,11.111,0,0,1,3.868-2.3,6.959,6.959,0,0,0-3.984.329c-.341.176-.692.547-.523.89Z" transform="translate(-140.504 -90.049)" fill="#6d4009"/>
            <path id="Trazado_995289" data-name="Trazado 995289" d="M245.7,137.891a5.288,5.288,0,0,0-1,3.557,15.718,15.718,0,0,0,.777,3.685,8.966,8.966,0,0,1,1.048-2.711,11.24,11.24,0,0,0,1.406,4.932,5.136,5.136,0,0,1,.5-4.716,19.852,19.852,0,0,0,2.308,4.49,7.329,7.329,0,0,1,2.475-5.543Z" transform="translate(-136.724 -77.047)" fill="#6d4009"/>
            <path id="Trazado_995290" data-name="Trazado 995290" d="M291.5,129.546a18.28,18.28,0,0,1,4.744,3.053A23.439,23.439,0,0,1,300,136.875a30.258,30.258,0,0,1,2.85,5.195,48.289,48.289,0,0,1,2.2,6.412c.6,2.186,1.1,4.4,1.577,6.612l.177.815c.04.186.325.107.285-.079-.486-2.238-.973-4.477-1.557-6.692a52.134,52.134,0,0,0-2.109-6.46,31.663,31.663,0,0,0-2.82-5.436,24.482,24.482,0,0,0-3.656-4.4,18.981,18.981,0,0,0-4.669-3.262q-.314-.153-.634-.292c-.173-.075-.323.179-.149.255" transform="translate(-162.831 -72.233)" fill="#6d4009"/>
            <path id="Trazado_995291" data-name="Trazado 995291" d="M245.744,135.984a5.47,5.47,0,0,0-2.564,2.4,6.1,6.1,0,0,0-.75,3.442,5.228,5.228,0,0,0,.55,1.934c.087.169.342.02.255-.149a5.17,5.17,0,0,1-.437-3.291,5.821,5.821,0,0,1,1.524-2.989,4.945,4.945,0,0,1,1.571-1.089c.174-.075.024-.33-.149-.255" transform="translate(-135.446 -75.973)" fill="#6d4009"/>
            <path id="Trazado_995292" data-name="Trazado 995292" d="M275.581,143.932c-.528-6.085-4.856-12.235-8.916-16.8,1.338-.234,4.05-.246,5.389-.48a1.492,1.492,0,0,1,.978.05,1.4,1.4,0,0,1,.444.46c3.086,4.442,3.341,10.238,2.918,15.63-.042.538-.285,1.247-.821,1.182Z" transform="translate(-148.999 -70.736)" fill="#efa02a"/>
          </g>
        </g>
        <g id="Grupo_1177317" data-name="Grupo 1177317" transform="translate(78.947 81.248)">
          <g id="Grupo_1177316" data-name="Grupo 1177316" clip-path="url(#clip-path-5)">
            <path id="Trazado_995293" data-name="Trazado 995293" d="M278.526,237.011a1.576,1.576,0,1,1-1.577-1.576,1.576,1.576,0,0,1,1.577,1.576" transform="translate(-232.812 -212.798)" fill="#fff"/>
            <path id="Trazado_995294" data-name="Trazado 995294" d="M261.557,211.78a1.576,1.576,0,1,1-1.577-1.576,1.577,1.577,0,0,1,1.577,1.576" transform="translate(-223.331 -198.7)" fill="#fff"/>
            <path id="Trazado_995295" data-name="Trazado 995295" d="M293.932,210.217a1.576,1.576,0,1,1-1.576-1.576,1.576,1.576,0,0,1,1.576,1.576" transform="translate(-241.42 -197.826)" fill="#fff"/>
            <path id="Trazado_995296" data-name="Trazado 995296" d="M312.688,250.407a1.576,1.576,0,1,1-1.577-1.577,1.576,1.576,0,0,1,1.577,1.577" transform="translate(-251.9 -220.282)" fill="#fff"/>
            <path id="Trazado_995297" data-name="Trazado 995297" d="M249.277,272.288a1.576,1.576,0,1,1-1.577-1.576,1.576,1.576,0,0,1,1.577,1.576" transform="translate(-216.469 -232.509)" fill="#fff"/>
            <path id="Trazado_995298" data-name="Trazado 995298" d="M242.355,239.913a1.576,1.576,0,1,1-1.577-1.576,1.577,1.577,0,0,1,1.577,1.576" transform="translate(-212.602 -214.419)" fill="#fff"/>
            <path id="Trazado_995299" data-name="Trazado 995299" d="M224.94,224.507a1.576,1.576,0,1,1-1.576-1.577,1.576,1.576,0,0,1,1.576,1.577" transform="translate(-202.871 -205.81)" fill="#fff"/>
            <path id="Trazado_995300" data-name="Trazado 995300" d="M216.678,202.626a1.576,1.576,0,1,1-1.576-1.576,1.576,1.576,0,0,1,1.576,1.576" transform="translate(-198.255 -193.585)" fill="#fff"/>
            <path id="Trazado_995301" data-name="Trazado 995301" d="M196.807,187a1.576,1.576,0,1,1-1.576-1.576A1.576,1.576,0,0,1,196.807,187" transform="translate(-187.152 -184.852)" fill="#fff"/>
            <path id="Trazado_995302" data-name="Trazado 995302" d="M192.788,206.2a1.576,1.576,0,1,1-1.576-1.576,1.576,1.576,0,0,1,1.576,1.576" transform="translate(-184.906 -195.581)" fill="#fff"/>
            <path id="Trazado_995303" data-name="Trazado 995303" d="M179.168,193.471a1.576,1.576,0,1,1-1.576-1.576,1.576,1.576,0,0,1,1.576,1.576" transform="translate(-177.296 -188.47)" fill="#fff"/>
            <path id="Trazado_995304" data-name="Trazado 995304" d="M245.7,196.151a1.576,1.576,0,1,1-1.576-1.576,1.576,1.576,0,0,1,1.576,1.576" transform="translate(-214.473 -189.967)" fill="#fff"/>
            <path id="Trazado_995305" data-name="Trazado 995305" d="M278.526,319.623a1.576,1.576,0,1,1-1.577-1.576,1.576,1.576,0,0,1,1.577,1.576" transform="translate(-232.812 -258.957)" fill="#fff"/>
            <path id="Trazado_995306" data-name="Trazado 995306" d="M321.842,224.954a1.576,1.576,0,1,1-1.576-1.576,1.576,1.576,0,0,1,1.576,1.576" transform="translate(-257.015 -206.061)" fill="#fff"/>
            <path id="Trazado_995307" data-name="Trazado 995307" d="M287.234,285.908a1.576,1.576,0,1,1-1.576-1.576,1.576,1.576,0,0,1,1.576,1.576" transform="translate(-237.678 -240.119)" fill="#fff"/>
            <path id="Trazado_995308" data-name="Trazado 995308" d="M331,290.821a1.576,1.576,0,1,1-1.576-1.577A1.576,1.576,0,0,1,331,290.821" transform="translate(-262.13 -242.863)" fill="#fff"/>
            <path id="Trazado_995309" data-name="Trazado 995309" d="M335.462,262.688a1.576,1.576,0,1,1-1.576-1.577,1.576,1.576,0,0,1,1.576,1.577" transform="translate(-264.625 -227.144)" fill="#fff"/>
            <path id="Trazado_995310" data-name="Trazado 995310" d="M304.65,354.455a1.576,1.576,0,1,1-1.577-1.576,1.576,1.576,0,0,1,1.577,1.576" transform="translate(-247.409 -278.419)" fill="#fff"/>
            <path id="Trazado_995311" data-name="Trazado 995311" d="M314.7,322.079a1.576,1.576,0,1,1-1.576-1.576,1.576,1.576,0,0,1,1.576,1.576" transform="translate(-253.023 -260.329)" fill="#fff"/>
            <path id="Trazado_995312" data-name="Trazado 995312" d="M240.346,328.778a1.576,1.576,0,1,1-1.576-1.576,1.576,1.576,0,0,1,1.576,1.576" transform="translate(-211.479 -264.072)" fill="#fff"/>
            <path id="Trazado_995313" data-name="Trazado 995313" d="M222.037,352a1.576,1.576,0,1,1-1.576-1.576A1.576,1.576,0,0,1,222.037,352" transform="translate(-201.249 -277.047)" fill="#fff"/>
          </g>
        </g>
        <g id="Grupo_1177319" data-name="Grupo 1177319">
          <g id="Grupo_1177318" data-name="Grupo 1177318" clip-path="url(#clip-path)">
            <path id="Trazado_995315" data-name="Trazado 995315" d="M182.776,33.086q1.114,7,2.227,13.992,1.572-6.026,3.145-12.053a3.789,3.789,0,0,1,1.033-2.067,3.8,3.8,0,0,1,2.6-.537l25.642.947c3.639.134,7.459.231,10.706-1.418,3.928-1.995,6.308-6.316,6.849-10.688S234.452,10.5,232.91,6.37C232.094,4.188,231,1.895,228.927.828a10.2,10.2,0,0,0-4.543-.792,259.167,259.167,0,0,0-47.122,3.523c-2.349.394-4.9.939-6.4,2.794-1.25,1.551-1.622,22.8-.017,25.339s11.928,1.394,11.928,1.394" transform="translate(-94.865 0)" fill="#3d4b84"/>
            <path id="Trazado_995316" data-name="Trazado 995316" d="M139.068,61.442q-1.114,7-2.227,13.992-1.572-6.026-3.145-12.053a2.846,2.846,0,0,0-3.635-2.6l-25.642.947c-3.639.134-7.459.231-10.706-1.418-3.928-1.995-6.308-6.316-6.849-10.687s.529-10.766,2.071-14.892c.816-2.182,1.911-4.476,3.983-5.543a10.2,10.2,0,0,1,4.543-.792,259.128,259.128,0,0,1,47.122,3.523c2.349.393,4.9.939,6.4,2.793,1.25,1.551,1.622,22.8.017,25.339s-11.928,1.394-11.928,1.394" transform="translate(-48.456 -15.844)" fill="#7d8acc"/>
            <path id="Trazado_995317" data-name="Trazado 995317" d="M126.018,38.914a6.371,6.371,0,0,0-5.8-.032,8.138,8.138,0,0,0-4.171,4.392,11.235,11.235,0,0,0,.068,7.482,16.782,16.782,0,0,0,3.864,6.4,9.9,9.9,0,0,0,6.147,3.2c2.649.211,5.165-1.087,7.192-2.677a12.391,12.391,0,0,0,4.282-5.851,8.532,8.532,0,0,0-.7-6.925,4.687,4.687,0,0,0-2.79-2.3,3.588,3.588,0,0,0-3.091.976,7.946,7.946,0,0,0-2,2.94,14.172,14.172,0,0,0-1.038,3.921,10.037,10.037,0,0,0,1.782,7.189,7.893,7.893,0,0,0,5.738,3.263,10.9,10.9,0,0,0,7.249-2.733,11.309,11.309,0,0,0,3.841-5.723c.554-2.1.382-4.629-1.248-6.229a3.051,3.051,0,0,0-2.879-.858,4.408,4.408,0,0,0-2.635,2.258,7.74,7.74,0,0,0-.1,6.582,10.718,10.718,0,0,0,4.764,5.324,8.57,8.57,0,0,0,6.711.633,8.469,8.469,0,0,0,5.045-4.21,8.862,8.862,0,0,0,.392-6.785,8.2,8.2,0,0,0-4.508-4.793,8.558,8.558,0,0,0-6.528-.184,5.154,5.154,0,0,0-2.7,2.22,3.283,3.283,0,0,0,.01,3.154c.672,1.123,2.023,1.347,3.2,1.585a13.98,13.98,0,0,0,3.729.353,5.678,5.678,0,0,0,3.316-1.247,5.425,5.425,0,0,0,1.691-2.847A8.082,8.082,0,0,0,153.04,40.6,17.136,17.136,0,0,0,147.5,36a19.314,19.314,0,0,0-6.778-2.111,18.1,18.1,0,0,0-7.059.537,11.7,11.7,0,0,0-6.157,3.835,7.12,7.12,0,0,0-1.194,6.773c.909,2.3,3.27,3.77,5.581,4.377a10.889,10.889,0,0,0,6.954-.5,9.005,9.005,0,0,0,3-2,4.487,4.487,0,0,0,1.314-3.523,6.782,6.782,0,0,0-4.077-5.359,8.979,8.979,0,0,0-7.12-.018,12.7,12.7,0,0,0-5.817,4.77,8.833,8.833,0,0,0-1.368,6.755,10.318,10.318,0,0,0,3.474,5.449,13.236,13.236,0,0,0,5.77,2.868c.371.079.529-.49.157-.57a12.622,12.622,0,0,1-5.595-2.79,9.77,9.77,0,0,1-3.224-5.062,8.209,8.209,0,0,1,1.245-6.273A12.066,12.066,0,0,1,132,38.631a8.471,8.471,0,0,1,6.655-.15,6.268,6.268,0,0,1,3.908,4.838,3.808,3.808,0,0,1-.247,1.868,4.475,4.475,0,0,1-.975,1.4,8.544,8.544,0,0,1-2.8,1.822,10.316,10.316,0,0,1-6.495.436c-2.119-.556-4.4-1.9-5.2-4.047a6.583,6.583,0,0,1,1.208-6.285,11.274,11.274,0,0,1,5.822-3.53,17.629,17.629,0,0,1,6.633-.523,18.548,18.548,0,0,1,6.369,1.889,17.078,17.078,0,0,1,5.313,4.133,7.983,7.983,0,0,1,2.186,6.246,5.161,5.161,0,0,1-1.3,2.762,4.744,4.744,0,0,1-2.906,1.367,11.668,11.668,0,0,1-3.5-.221c-.586-.109-1.178-.221-1.752-.384a2.532,2.532,0,0,1-1.389-.834,2.635,2.635,0,0,1-.111-2.758,4.64,4.64,0,0,1,2.527-2,8.013,8.013,0,0,1,6.031.268,7.613,7.613,0,0,1,4.131,4.51,8.254,8.254,0,0,1-.432,6.3,8.068,8.068,0,0,1-10.951,3.231A10.094,10.094,0,0,1,140.279,54a7.187,7.187,0,0,1,.052-6.1,3.758,3.758,0,0,1,2.425-2.017A2.573,2.573,0,0,1,145.18,46.9c1.352,1.615,1.309,3.964.687,5.866a11.033,11.033,0,0,1-3.833,5.2,9.946,9.946,0,0,1-6.917,2.3A7.417,7.417,0,0,1,130,56.949a9.709,9.709,0,0,1-1.393-6.849,13.721,13.721,0,0,1,1.082-3.678,6.834,6.834,0,0,1,1.952-2.608,2.741,2.741,0,0,1,2.85-.473,5.082,5.082,0,0,1,2.234,2.479,8.209,8.209,0,0,1,.061,6.509,12.382,12.382,0,0,1-4.327,5.252c-1.952,1.412-4.349,2.512-6.813,2.122a9.881,9.881,0,0,1-5.588-3.325,16.147,16.147,0,0,1-3.486-6.122,10.434,10.434,0,0,1,.1-6.969,7.609,7.609,0,0,1,3.959-3.947,5.715,5.715,0,0,1,5.091.085.3.3,0,0,0,.3-.511" transform="translate(-64.498 -18.863)" fill="#fff"/>
            <path id="Trazado_995318" data-name="Trazado 995318" d="M266.116,24.352,261.641,7.058l5.926-.484.968,17.778Z" transform="translate(-146.192 -3.673)" fill="#fff"/>
            <path id="Trazado_995319" data-name="Trazado 995319" d="M276.87,54.34a2,2,0,1,1-2-2,2,2,0,0,1,2,2" transform="translate(-152.471 -29.248)" fill="#fff"/>
            <path id="Trazado_995320" data-name="Trazado 995320" d="M250.282,37.134l-6.419-10.25,3.727-1.522,4.254,11.279Z" transform="translate(-136.259 -14.171)" fill="#fff"/>
            <path id="Trazado_995321" data-name="Trazado 995321" d="M263.657,55.234a1.351,1.351,0,1,1-1.7-.881,1.351,1.351,0,0,1,1.7.881" transform="translate(-145.843 -30.334)" fill="#fff"/>
          </g>
        </g>
      </g>
    </g>
  </g>
</svg>
