<svg xmlns="http://www.w3.org/2000/svg" xmlns:xlink="http://www.w3.org/1999/xlink" width="96" height="96" viewBox="0 0 96 96">
  <defs>
    <clipPath id="clip-path">
      <rect id="Rectángulo_454925" data-name="Rectángulo 454925" width="55" height="55" transform="translate(814.449 2940.665)" fill="#fef6fe" stroke="#fef6fe" stroke-width="1"/>
    </clipPath>
    <clipPath id="clip-path-2">
      <path id="path2631" d="M0-55H55V0H0Z" fill="#fef6fe"/>
    </clipPath>
  </defs>
  <g id="Grupo_154427" data-name="Grupo 154427" transform="translate(-794.039 -2920.081)">
    <path id="Elipse_5729" data-name="Elipse 5729" d="M48,0A48,48,0,1,1,0,48,48,48,0,0,1,48,0Z" transform="translate(794.039 2920.081)" fill="#604161"/>
    <g id="Enmascarar_grupo_1119200" data-name="Enmascarar grupo 1119200" clip-path="url(#clip-path)">
      <g id="g2625" transform="translate(814.449 2995.665)">
        <g id="g2627">
          <g id="g2629" clip-path="url(#clip-path-2)">
            <g id="g2635" transform="translate(47.048 -23.053)">
              <path id="path2637" d="M0,0A3.7,3.7,0,0,1,.566,4.45L-1.365,7.795l-3.38-3.386-1.2,1.2-4.187-4.187A14.12,14.12,0,0,1-14.46,5.788l4.11,4.11a19.68,19.68,0,0,1-3.825,2.2,2.583,2.583,0,0,0-1.454,1.682l-.628,2.275a3.708,3.708,0,0,1-3.57,2.717h-4.408a3.7,3.7,0,0,1-3.57-2.717l-.631-2.276a2.575,2.575,0,0,0-1.453-1.68A19.74,19.74,0,0,1-33.81,9.828,2.581,2.581,0,0,0-36,9.407l-2.29.595a3.707,3.707,0,0,1-4.136-1.735l-2.2-3.818A3.7,3.7,0,0,1-44.061,0L-42.4-1.686a2.587,2.587,0,0,0,.728-2.1,19.767,19.767,0,0,1-.13-2.265,19.768,19.768,0,0,1,.13-2.265,2.588,2.588,0,0,0-.728-2.1L-44.061-12.1a3.7,3.7,0,0,1-.569-4.45l2.2-3.818A3.705,3.705,0,0,1-38.288-22.1l2.29.594a2.581,2.581,0,0,0,2.188-.421A19.756,19.756,0,0,1-29.888-24.2a2.575,2.575,0,0,0,1.453-1.68l.631-2.276a3.7,3.7,0,0,1,3.57-2.716h4.408a3.707,3.707,0,0,1,3.57,2.716l.628,2.275A2.581,2.581,0,0,0-14.174-24.2a19.73,19.73,0,0,1,3.92,2.268,2.582,2.582,0,0,0,2.188.421l2.29-.594a3.707,3.707,0,0,1,4.139,1.733l2.2,3.818A3.7,3.7,0,0,1,0-12.1l-1.66,1.687a2.58,2.58,0,0,0-.729,2.1A20.03,20.03,0,0,1-2.26-6.052a20.028,20.028,0,0,1-.128,2.264,2.578,2.578,0,0,0,.729,2.1Z" fill="none" stroke="#fef6fe" stroke-linecap="round" stroke-linejoin="round" stroke-miterlimit="10" stroke-width="2.148"/>
            </g>
            <g id="g2639" transform="translate(20.372 -42.371)">
              <path id="path2641" d="M0,0A14.052,14.052,0,1,0,9.278,0" fill="none" stroke="#fef6fe" stroke-linecap="round" stroke-linejoin="round" stroke-miterlimit="10" stroke-width="2.148"/>
            </g>
            <g id="g2643" transform="translate(51.675 -2.478)">
              <path id="path2645" d="M0,0H0A4.791,4.791,0,0,1-6.775,0l-9.371-9.391,6.776-6.775L0-6.775A4.791,4.791,0,0,1,0,0Z" fill="none" stroke="#fef6fe" stroke-linecap="round" stroke-linejoin="round" stroke-miterlimit="10" stroke-width="2.148"/>
            </g>
            <g id="g2647" transform="translate(37.057 -13.396)">
              <path id="path2649" d="M0,0-.3.3,0,0H0Z" fill="none" stroke="#fef6fe" stroke-linecap="round" stroke-linejoin="round" stroke-miterlimit="10" stroke-width="2.148"/>
            </g>
            <g id="g2651" transform="translate(21.025 -23.358)">
              <path id="path2653" d="M0,0-3.58-3.58a2.38,2.38,0,0,1,0-3.365,2.379,2.379,0,0,1,3.365,0L1.741-4.989l6.1-6.1a2.38,2.38,0,0,1,3.365,0,2.38,2.38,0,0,1,0,3.365L3.481,0A2.462,2.462,0,0,1,0,0Z" fill="none" stroke="#fef6fe" stroke-linecap="round" stroke-linejoin="round" stroke-miterlimit="10" stroke-width="2.148"/>
            </g>
            <g id="g2655" transform="translate(25.016 -43.157)">
              <path id="path2657" d="M0,0H0" fill="none" stroke="#fef6fe" stroke-linecap="round" stroke-linejoin="round" stroke-miterlimit="10" stroke-width="2.148"/>
            </g>
          </g>
        </g>
      </g>
    </g>
  </g>
</svg>
