<svg xmlns="http://www.w3.org/2000/svg" width="157.422" height="156.534" viewBox="0 0 157.422 156.534">
  <g id="Grupo_1177271" data-name="Grupo 1177271" transform="translate(-1130.988 -1936.466)">
    <circle id="Elipse_13687" data-name="Elipse 13687" cx="75" cy="75" r="75" transform="translate(1138.409 1943)" fill="#5ac1bd"/>
    <g id="comunicacion-verbal" transform="translate(1130.498 1920.546)">
      <g id="Grupo_1177261" data-name="Grupo 1177261" transform="translate(0.49 15.92)">
        <path id="Trazado_995009" data-name="Trazado 995009" d="M414,411.6a10.584,10.584,0,0,0,10.548-10.548V373.99h-21.1v27.062A10.576,10.576,0,0,0,414,411.6Z" transform="translate(-279.317 -263.685)" fill="#e2aa73" fill-rule="evenodd"/>
        <path id="Trazado_995010" data-name="Trazado 995010" d="M424.545,392.6V373.99h-21.1v26.021c.4.018.8.028,1.214.028C412.371,400.039,419.3,397.63,424.545,392.6Z" transform="translate(-279.317 -263.685)" fill="#cb9968" fill-rule="evenodd"/>
        <path id="Trazado_995011" data-name="Trazado 995011" d="M56.821,242.908H.5V206.93a11.51,11.51,0,0,1,11.49-11.49H45.331a11.51,11.51,0,0,1,11.49,11.49Z" transform="translate(-0.497 -140.138)" fill="#303542" fill-rule="evenodd"/>
        <path id="Trazado_995012" data-name="Trazado 995012" d="M50.618,411.6A10.584,10.584,0,0,1,40.07,401.052V373.99h21.1v27.062A10.576,10.576,0,0,1,50.618,411.6Z" transform="translate(-27.877 -263.685)" fill="#e2aa73" fill-rule="evenodd"/>
        <path id="Trazado_995013" data-name="Trazado 995013" d="M40.07,392.6V373.99h21.1v26.021c-.4.018-.8.028-1.214.028C52.244,400.039,45.319,397.63,40.07,392.6Z" transform="translate(-27.877 -263.685)" fill="#cb9968" fill-rule="evenodd"/>
        <path id="Trazado_995014" data-name="Trazado 995014" d="M8.247,281.126H9.2a8.335,8.335,0,0,0,8.321-8.321V269.82a8.343,8.343,0,0,1,8.33-8.32H56.814v31.384a24.324,24.324,0,0,1-24.25,24.25c-8.687,0-15.606-3.493-19.882-10.4V296.159H8.542c-4.417,0-8.053-2.951-8.053-7.535a7.46,7.46,0,0,1,7.757-7.5Z" transform="translate(-0.49 -185.848)" fill="#fbbd80" fill-rule="evenodd"/>
        <path id="Trazado_995015" data-name="Trazado 995015" d="M328.67,242.908h56.321V206.93a11.51,11.51,0,0,0-11.49-11.49H340.16a11.51,11.51,0,0,0-11.49,11.49Z" transform="translate(-227.573 -140.138)" fill="#303542" fill-rule="evenodd"/>
        <path id="Trazado_995016" data-name="Trazado 995016" d="M377.238,281.126h-.952a8.335,8.335,0,0,1-8.32-8.321V269.82a8.343,8.343,0,0,0-8.33-8.32H328.67v31.384a24.324,24.324,0,0,0,24.25,24.25c8.687,0,15.606-3.493,19.882-10.4V296.159h4.14c4.417,0,8.053-2.951,8.053-7.535a7.46,7.46,0,0,0-7.757-7.5Z" transform="translate(-227.573 -185.848)" fill="#fbbd80" fill-rule="evenodd"/>
        <path id="Trazado_995017" data-name="Trazado 995017" d="M84.2,52.911,73.842,62.7V52.911H69.791A2.352,2.352,0,0,1,67.45,50.57V18.261a2.346,2.346,0,0,1,2.341-2.341h47.32a2.34,2.34,0,0,1,2.341,2.341V50.57a2.346,2.346,0,0,1-2.341,2.341Z" transform="translate(-46.823 -15.92)" fill="#daeafa" fill-rule="evenodd"/>
      </g>
      <path id="Trazado_995018" data-name="Trazado 995018" d="M88.981,59.459a2.537,2.537,0,1,1,0-5.074h17.611a2.537,2.537,0,0,1,0,5.074Zm0-18.9a2.541,2.541,0,0,1,0-5.083h35.226a2.541,2.541,0,0,1,0,5.083Zm0,9.448a2.537,2.537,0,1,1,0-5.074h35.226a2.537,2.537,0,0,1,0,5.074Z" transform="translate(-59.473 -13.534)" fill="#0593fc"/>
      <path id="Trazado_995019" data-name="Trazado 995019" d="M310.994,52.911,321.35,62.7v-9.79h4.042a2.354,2.354,0,0,0,2.35-2.341V18.261a2.348,2.348,0,0,0-2.35-2.341H278.081a2.34,2.34,0,0,0-2.341,2.341V50.57a2.346,2.346,0,0,0,2.341,2.341Z" transform="translate(-190.458 0)" fill="#daeafa" fill-rule="evenodd"/>
      <path id="Trazado_995020" data-name="Trazado 995020" d="M333.123,60.965A12.033,12.033,0,1,0,321.1,48.933,12.057,12.057,0,0,0,333.123,60.965Z" transform="translate(-221.845 -14.517)" fill="#70da40" fill-rule="evenodd"/>
      <path id="Trazado_995021" data-name="Trazado 995021" d="M345.229,58.574a2.538,2.538,0,1,1,3.589,3.589l-6.549,6.558a2.547,2.547,0,0,1-3.589,0l-3.466-3.466a2.538,2.538,0,0,1,3.589-3.589l1.667,1.667Z" transform="translate(-231.095 -28.998)" fill="#edf6ff"/>
      <path id="Trazado_995022" data-name="Trazado 995022" d="M71.581,50.57V18.261a2.346,2.346,0,0,1,2.341-2.341H69.791a2.346,2.346,0,0,0-2.341,2.341V50.57a2.352,2.352,0,0,0,2.341,2.341h4.051V62.7l4.131-3.9V52.911H73.922A2.352,2.352,0,0,1,71.581,50.57Z" transform="translate(-46.333 0)" fill="#c4d3e1" fill-rule="evenodd"/>
      <path id="Trazado_995023" data-name="Trazado 995023" d="M275.74,18.261V50.57a2.346,2.346,0,0,0,2.341,2.341h4.131a2.351,2.351,0,0,1-2.347-2.341V18.261a2.347,2.347,0,0,1,2.347-2.341h-4.131a2.34,2.34,0,0,0-2.341,2.341Z" transform="translate(-190.458 0)" fill="#c4d3e1" fill-rule="evenodd"/>
      <path id="Trazado_995024" data-name="Trazado 995024" d="M394.311,136H390.18l10.357,9.787v-3.9Z" transform="translate(-269.645 -83.089)" fill="#c4d3e1" fill-rule="evenodd"/>
      <path id="Trazado_995025" data-name="Trazado 995025" d="M88.43,315.063a2.534,2.534,0,1,1,1.362,4.883,10.5,10.5,0,0,1-12.652-6.355,2.537,2.537,0,0,1,4.741-1.808,5.39,5.39,0,0,0,6.549,3.281Zm88.448-24.641a2.541,2.541,0,0,1,5.083,0v2.184a2.541,2.541,0,0,1-5.083,0Zm-17.131,0a2.541,2.541,0,0,1,5.083,0v2.184a2.541,2.541,0,0,1-5.083,0Zm18.425-5.283a2.53,2.53,0,0,1-4.488-2.338,5.566,5.566,0,0,1,2.489-2.357,7.308,7.308,0,0,1,6.494,0,5.583,5.583,0,0,1,2.489,2.357,2.53,2.53,0,0,1-4.488,2.338.629.629,0,0,0-.262-.176,2.159,2.159,0,0,0-.986-.2,2.2,2.2,0,0,0-.986.2A.629.629,0,0,0,178.172,285.139Zm-17.14,0a2.528,2.528,0,1,1-4.482-2.338,5.566,5.566,0,0,1,2.489-2.357,7.308,7.308,0,0,1,6.494,0,5.513,5.513,0,0,1,2.48,2.357,2.526,2.526,0,1,1-4.479,2.338.629.629,0,0,0-.262-.176,2.527,2.527,0,0,0-1.972,0A.722.722,0,0,0,161.032,285.139Zm7.344,5.711a2.535,2.535,0,1,1,5.021.708,25.067,25.067,0,0,1-2.471,8.006,18.362,18.362,0,0,1-3.161,4.384,4.908,4.908,0,0,0,1.8.776,2.525,2.525,0,0,1-1.168,4.913,9.721,9.721,0,0,1-3.878-1.808,7.417,7.417,0,0,1-2.394-3.422,2.517,2.517,0,0,1,.795-2.908,13,13,0,0,0,3.518-4.279,19.79,19.79,0,0,0,1.938-6.371Zm-.533,29.1a2.536,2.536,0,1,1,1.371-4.883,5.4,5.4,0,0,0,6.549-3.284,2.537,2.537,0,0,1,4.741,1.808,10.515,10.515,0,0,1-12.661,6.358Zm-92.16-29.524a2.541,2.541,0,1,1,5.083,0v2.184a2.541,2.541,0,1,1-5.083,0Zm17.131,0a2.541,2.541,0,1,1,5.083,0v2.184a2.541,2.541,0,1,1-5.083,0ZM83.96,282.8a2.53,2.53,0,0,1-4.488,2.338.629.629,0,0,0-.262-.176,2.527,2.527,0,0,0-1.972,0,.629.629,0,0,0-.262.176,2.53,2.53,0,0,1-4.488-2.338,5.566,5.566,0,0,1,2.489-2.357,7.308,7.308,0,0,1,6.494,0A5.583,5.583,0,0,1,83.96,282.8Zm17.134,0a2.528,2.528,0,1,1-4.482,2.338.745.745,0,0,0-.271-.176,2.132,2.132,0,0,0-.986-.2,2.19,2.19,0,0,0-.986.2.629.629,0,0,0-.262.176,2.53,2.53,0,0,1-4.488-2.338,5.566,5.566,0,0,1,2.489-2.357,7.308,7.308,0,0,1,6.494,0,5.575,5.575,0,0,1,2.492,2.357ZM84.25,291.555a2.536,2.536,0,0,1,5.021-.709,19.756,19.756,0,0,0,1.938,6.374,12.926,12.926,0,0,0,3.518,4.279,2.517,2.517,0,0,1,.795,2.908,7.412,7.412,0,0,1-2.4,3.422,9.622,9.622,0,0,1-3.869,1.808,2.525,2.525,0,1,1-1.171-4.913,5.015,5.015,0,0,0,1.8-.776,18.194,18.194,0,0,1-3.161-4.384A25.11,25.11,0,0,1,84.25,291.555Z" transform="translate(-49.621 -182.508)" fill="#cb9968"/>
    </g>
  </g>
</svg>
