<svg xmlns="http://www.w3.org/2000/svg" xmlns:xlink="http://www.w3.org/1999/xlink" width="96" height="96" viewBox="0 0 96 96">
  <defs>
    <clipPath id="clip-path">
      <rect id="Rectángulo_454925" data-name="Rectángulo 454925" width="55" height="55" transform="translate(814.449 2940.665)" fill="#fef6fe" stroke="#707070" stroke-width="1"/>
    </clipPath>
  </defs>
  <g id="Grupo_154427" data-name="Grupo 154427" transform="translate(-794.039 -2920.081)">
    <path id="Elipse_5729" data-name="Elipse 5729" d="M48,0A48,48,0,1,1,0,48,48,48,0,0,1,48,0Z" transform="translate(794.039 2920.081)" fill="#604161"/>
    <g id="Enmascarar_grupo_1119199" data-name="Enmascarar grupo 1119199" clip-path="url(#clip-path)">
      <path id="adaptacion" d="M51.056,27.5c.053.616.082,1.242.089,1.863l.371-.468a.887.887,0,0,1,1.39,1.1l-2.017,2.541a.887.887,0,0,1-.695.335h-.006a.888.888,0,0,1-.7-.345l-1.983-2.568a.887.887,0,0,1,1.4-1.085l.46.6c0-.607-.031-1.219-.083-1.821a.887.887,0,1,1,1.768-.152ZM12.708,10.959a.883.883,0,0,0,.508-.161q.7-.488,1.432-.924l-.262.6a.887.887,0,1,0,1.628.705L17.3,8.207a.887.887,0,0,0-.667-1.227l-3.2-.538a.887.887,0,0,0-.294,1.75l.674.113q-.829.49-1.618,1.04a.887.887,0,0,0,.51,1.614Zm32.5,5.481a.887.887,0,0,0,1.452-1.02,24.952,24.952,0,0,0-2.754-3.278A.887.887,0,1,0,42.651,13.4a23.187,23.187,0,0,1,2.558,3.044ZM3.1,24.3a.886.886,0,0,0,1.086-.627,22.879,22.879,0,0,1,1.36-3.736.887.887,0,0,0-1.608-.75,24.654,24.654,0,0,0-1.466,4.027A.887.887,0,0,0,3.1,24.3Zm-.419,8.288a.887.887,0,0,0,.808-.96C3.428,30.968,3.4,30.3,3.4,29.637s.029-1.329.085-1.989A.887.887,0,1,0,1.717,27.5c-.061.71-.092,1.43-.092,2.14s.031,1.432.092,2.14a.887.887,0,0,0,.883.811c.026,0,.051,0,.077,0ZM36.116,8.807A23.029,23.029,0,0,1,39.558,10.8a.887.887,0,1,0,1.018-1.453A24.81,24.81,0,0,0,36.868,7.2a.887.887,0,0,0-.752,1.607ZM48.591,23.671a.887.887,0,0,0,1.714-.46,24.679,24.679,0,0,0-1.467-4.026.887.887,0,1,0-1.608.75,22.9,22.9,0,0,1,1.361,3.736ZM6.329,16.655a.887.887,0,0,0,1.236-.216A23.177,23.177,0,0,1,10.122,13.4a.887.887,0,1,0-1.255-1.254,24.95,24.95,0,0,0-2.754,3.278A.887.887,0,0,0,6.329,16.655Zm33.229,31.82a23.056,23.056,0,0,1-3.441,1.991.887.887,0,1,0,.752,1.607,24.806,24.806,0,0,0,3.707-2.145.887.887,0,1,0-1.018-1.453Zm-7.235,3.373a22.98,22.98,0,0,1-3.916.686.887.887,0,0,0,.076,1.771c.026,0,.052,0,.078,0a24.738,24.738,0,0,0,4.219-.74.887.887,0,1,0-.457-1.714Zm-7.956.687c-.66-.057-1.32-.144-1.974-.259L23.106,52a.887.887,0,1,0-.64-1.655l-3.026,1.17a.887.887,0,0,0-.407,1.336l1.861,2.658a.887.887,0,0,0,1.453-1.018l-.337-.482c.73.13,1.466.229,2.2.293.026,0,.052,0,.078,0a.887.887,0,0,0,.076-1.771ZM5.543,39.339A22.9,22.9,0,0,1,4.182,35.6a.887.887,0,0,0-1.714.46,24.686,24.686,0,0,0,1.466,4.026.887.887,0,0,0,1.608-.75ZM55.03,45.55a.887.887,0,0,1-.768.444H41.808a.887.887,0,0,1-.768-1.331l6.227-10.785a.887.887,0,0,1,1.536,0L55.03,44.663A.887.887,0,0,1,55.03,45.55Zm-2.3-1.331L48.035,36.1l-4.69,8.124ZM17.418,48.008a6.28,6.28,0,1,1-6.28-6.28A6.287,6.287,0,0,1,17.418,48.008Zm-1.774,0a4.505,4.505,0,1,0-4.505,4.505A4.511,4.511,0,0,0,15.644,48.008ZM20.107,9.751V1.774a.887.887,0,0,1,.887-.887H31.779a.887.887,0,0,1,.887.887V9.751a.887.887,0,0,1-.887.887H20.994a.887.887,0,0,1-.887-.887Zm1.774-.887h9.011v-6.2H21.881ZM37.923,38.572l-2.6,2.6a.887.887,0,0,1-.987.183l-1.788-.794a12.456,12.456,0,0,1-2.79,1.157l-.7,1.825a.887.887,0,0,1-.828.568H24.548a.887.887,0,0,1-.828-.568l-.7-1.826a12.448,12.448,0,0,1-2.789-1.156l-1.789.795a.887.887,0,0,1-.987-.183l-2.6-2.6a.887.887,0,0,1-.183-.987l.794-1.789a12.452,12.452,0,0,1-1.157-2.79l-1.825-.7a.887.887,0,0,1-.568-.828V27.8a.887.887,0,0,1,.568-.828l1.826-.7a12.457,12.457,0,0,1,1.156-2.789l-.795-1.789a.887.887,0,0,1,.183-.987l2.6-2.6a.887.887,0,0,1,.987-.183l1.789.795a12.452,12.452,0,0,1,2.789-1.156l.7-1.826a.887.887,0,0,1,.828-.568h3.678a.887.887,0,0,1,.828.568l.7,1.826a12.454,12.454,0,0,1,2.789,1.156l1.789-.795a.887.887,0,0,1,.987.184l2.6,2.6a.887.887,0,0,1,.183.987l-.794,1.788a12.457,12.457,0,0,1,1.157,2.79l1.825.7a.887.887,0,0,1,.568.828v3.678a.887.887,0,0,1-.568.828l-1.826.7A12.458,12.458,0,0,1,37.311,35.8l.795,1.789a.887.887,0,0,1-.183.987ZM37.4,31.515l1.683-.648v-2.46L37.4,27.759a.887.887,0,0,1-.544-.623A10.693,10.693,0,0,0,35.56,24a.887.887,0,0,1-.055-.825l.732-1.649L34.5,19.786l-1.65.733a.887.887,0,0,1-.825-.055,10.693,10.693,0,0,0-3.136-1.3.887.887,0,0,1-.623-.544l-.648-1.683h-2.46l-.648,1.683a.887.887,0,0,1-.623.544,10.694,10.694,0,0,0-3.136,1.3.887.887,0,0,1-.825.055l-1.65-.733-1.739,1.739.733,1.65a.887.887,0,0,1-.055.825,10.693,10.693,0,0,0-1.3,3.136.887.887,0,0,1-.544.623l-1.683.648v2.46l1.683.648a.887.887,0,0,1,.544.623,10.691,10.691,0,0,0,1.3,3.137.887.887,0,0,1,.055.825l-.733,1.649,1.739,1.739,1.65-.733a.887.887,0,0,1,.825.055,10.69,10.69,0,0,0,3.136,1.3.887.887,0,0,1,.623.544l.648,1.683h2.46l.648-1.683a.887.887,0,0,1,.623-.544,10.686,10.686,0,0,0,3.137-1.3.887.887,0,0,1,.825-.055l1.649.733,1.739-1.739L35.5,36.1a.887.887,0,0,1,.055-.825,10.692,10.692,0,0,0,1.3-3.136.888.888,0,0,1,.545-.622Zm-3.716-1.878a7.3,7.3,0,1,1-7.3-7.3A7.31,7.31,0,0,1,33.688,29.637Zm-1.774,0a5.527,5.527,0,1,0-5.527,5.527A5.533,5.533,0,0,0,31.914,29.637Z" transform="translate(813.562 2939.778)" fill="#fef6fe"/>
    </g>
  </g>
</svg>
