<svg xmlns="http://www.w3.org/2000/svg" width="155.807" height="156" viewBox="0 0 155.807 156">
  <g id="Grupo_1177484" data-name="Grupo 1177484" transform="translate(-722.097 -2256)">
    <circle id="Elipse_13703" data-name="Elipse 13703" cx="75" cy="75" r="75" transform="translate(725.852 2262)" fill="#5ac1bd"/>
    <g id="conversacion" transform="translate(721.779 2255.999)">
      <path id="Trazado_995657" data-name="Trazado 995657" d="M188.9,479.337l-2.594-14.27-29.189,9.73,1.622,4.54Z" transform="translate(-109.125 -323.661)" fill="#415a6b"/>
      <path id="Trazado_995658" data-name="Trazado 995658" d="M280.824,315.128l2.919-2.594s10.378,9.081,6.486,12.324C286.662,328.426,280.5,318.047,280.824,315.128Z" transform="translate(-195.208 -217.506)" fill="#344a5e"/>
      <path id="Trazado_995659" data-name="Trazado 995659" d="M276.115,287.745s1.621-.973,1.621-1.622.973-1.946,1.946-3.567a32.515,32.515,0,0,1,3.892-3.567c.649-.649,2.919-4.865,3.892-5.513.649-.649,1.622,0,1.946,0,.324.324,0,1.3-.324,2.27s-3.243,4.54-3.567,5.189.324.973,1.3,1.3c.973,0,5.189.324,6.486-.649a4.361,4.361,0,0,1,2.595-.649c.649-.324,4.54-2.594,5.513,0l-1.946,1.3s-2.27,1.3-3.567,1.946a20.731,20.731,0,0,0-3.243,1.3,4.338,4.338,0,0,0,.324,1.622,2.18,2.18,0,0,1-.973,2.27,4.648,4.648,0,0,1-.649,2.27,10.427,10.427,0,0,0-.973,1.622,3.37,3.37,0,0,1-2.594,1.3c-.973,0-3.892,1.3-5.513,1.622-1.622.649-9.405,1.3-9.405,1.3S269.952,290.34,276.115,287.745Z" transform="translate(-189.202 -190.123)" fill="#f7b64c"/>
      <path id="Trazado_995660" data-name="Trazado 995660" d="M250.365,312.533s-3.243,2.594,0,8.432,6.486,4.216,6.486,4.216-10.054,8.432-14.595,10.054a23.741,23.741,0,0,1-7.135,1.622l-2.27-15.568s6.162-2.594,8.108-2.919,1.946-1.946,3.243-2.27C245.824,315.776,250.365,312.533,250.365,312.533Z" transform="translate(-161.83 -217.505)" fill="#415a6b"/>
      <g id="Grupo_1177475" data-name="Grupo 1177475" transform="translate(60.642 69.406)">
        <path id="Trazado_995661" data-name="Trazado 995661" d="M210.394,281.131l1.946,9.73s1.622,14.919,3.567,17.189c.973,1.3,1.3,4.216,1.622,6.486h4.216a22.621,22.621,0,0,0-1.946-5.513,45.7,45.7,0,0,1-4.216-14.595c-.324-3.567-2.27-35.676-3.243-40.216s-2.27-6.486-2.919-10.378-.973-12-2.594-13.622c-1.622-1.3-8.108-1.946-8.108-1.946s2.27,9.081,3.892,12.324C203.907,243.834,210.07,274.969,210.394,281.131Z" transform="translate(-198.718 -228.266)" fill="#344a5e"/>
        <path id="Trazado_995662" data-name="Trazado 995662" d="M213.652,278.4c0,.324,0,.324.324.649C213.652,279.049,213.652,278.724,213.652,278.4Z" transform="translate(-209.111 -263.157)" fill="#344a5e"/>
      </g>
      <path id="Trazado_995663" data-name="Trazado 995663" d="M151.107,133.333l4.54,5.189s.324,3.892.973,5.189c.324,1.3-1.946,2.919-2.27,3.567s1.3,4.865,1.3,6.486-1.946,1.622-2.919,1.622c0,0,0,3.243-1.622,2.594,0,0,1.3,1.3,0,2.27s.324,5.189-3.567,4.865-7.459-.324-7.459-.324l.324,13.946-14.271-4.216-4.216-16.541,2.919-4.865c.649-1.622,7.784-15.568,7.784-15.568Z" transform="translate(-84.627 -92.792)" fill="#ffd15c"/>
      <path id="Trazado_995664" data-name="Trazado 995664" d="M168.29,211.561a30.613,30.613,0,0,0,4.54.324c-.649-.324-7.784-5.513-10.378-11.351,0,0,1.3,9.081,5.838,14.919Z" transform="translate(-112.837 -139.56)" fill="#f7b64c"/>
      <path id="Trazado_995665" data-name="Trazado 995665" d="M155.641,318.594h0c-1.946,3.892-7.784,8.757-27.568,7.135l-13.622-70.054,10.7-4.216,3.243,1.3a12.585,12.585,0,0,1,2.594,2.919,3.256,3.256,0,0,0,1.946,1.622s1.946-4.54,1.946-6.811c0-1.946,7.135,1.946,7.135,1.946s.649,1.3,1.622,3.567h0a7.093,7.093,0,0,1,.973,2.919c0,.324,0,.324.324.649a20.6,20.6,0,0,1,.649,2.27v1.3a1.191,1.191,0,0,0,.324.973v1.3a1.192,1.192,0,0,0,.324.973v.649h0v1.3c.324.973.324,1.946.649,2.919v.324c.324,1.622.649,3.567.973,5.513v.649c.324.973.324,1.946.649,2.594v1.946a1.191,1.191,0,0,0,.324.973v.649a1.191,1.191,0,0,0,.324.973v.649a1.191,1.191,0,0,0,.324.973v.324a1.191,1.191,0,0,0,.324.973h0a14.036,14.036,0,0,0,.324,1.622v1.622a2.923,2.923,0,0,0,.324,1.622v3.892l1.946,9.73C153.7,305.945,154.344,313.081,155.641,318.594Z" transform="translate(-79.431 -173.945)" fill="#ced6e0"/>
      <path id="Trazado_995666" data-name="Trazado 995666" d="M183.821,353.376c.649-1.622,1.622-3.243,1.622-4.54.324-2.27-.973-9.081-2.919-13.946a165.286,165.286,0,0,1-6.162-21.081c-.649-3.892-.649-8.757-1.946-13.622a44.713,44.713,0,0,1-1.3-10.054c0,1.946.324,8.108.973,10.054s1.946,13.622,1.946,13.622c.649,4.865,4.54,16.865,6.486,21.405s2.594,12,2.594,13.622a20.257,20.257,0,0,1-1.3,4.54Z" transform="translate(-120.259 -201.916)" fill="#adb3ba"/>
      <path id="Trazado_995667" data-name="Trazado 995667" d="M67.476,316.021a85.187,85.187,0,0,0,1.946-15.892c0-7.135-3.567-15.892-3.567-15.892L46.395,230.4s-11.351,4.216-16.865,6.486-6.811,5.189-6.811,5.189l7.459,73.946Z" transform="translate(-15.59 -160.345)" fill="#344a5e"/>
      <path id="Trazado_995668" data-name="Trazado 995668" d="M98.769,216.533s-5.838,3.567-6.811,5.513a15.673,15.673,0,0,0-.973,5.513l3.892,2.27-2.919,2.595s24.973,46.378,25.622,57.73c0,0-3.243-19.135-5.513-29.189S98.769,220.1,98.769,216.533Z" transform="translate(-63.099 -150.695)" fill="#415a6b"/>
      <path id="Trazado_995669" data-name="Trazado 995669" d="M156.608,426.667h9.73a16.882,16.882,0,0,1,1.622.973c.649.324,3.243,1.946,4.216,1.946a3.554,3.554,0,0,1,1.3.649l2.594.324s1.3,4.216-5.513,2.27l-3.892-1.622s2.919,1.622,3.243,2.27a24.21,24.21,0,0,0,3.892,2.27c.324.324,1.946.973,2.27,1.3s3.243,0,3.567,1.622c.324,1.3-1.622,1.3-1.622,1.3h-3.892s-.649,2.27-1.622,1.946l-1.3-.324a2.531,2.531,0,0,1,0,1.622,1.861,1.861,0,0,1-2.27.649l-.973-.324s.324,1.946-2.27,1.3c-2.594-.324-2.594-.973-3.567-1.3a2.8,2.8,0,0,1-1.946-.973c-.973-.649-5.189-3.243-5.189-3.243S155.635,428.289,156.608,426.667Z" transform="translate(-107.641 -296.937)" fill="#ffd15c"/>
      <path id="Trazado_995670" data-name="Trazado 995670" d="M207.673,297.542c-.324-.649-5.838-16.865-6.162-23.027-.649-6.486-4.54-21.73-8.108-28.541-2.27-4.216-1.3-6.486-.324-8.108.649,0,1.622.324,2.595.324l1.622,2.594h1.621s4.54,14.919,6.486,25.946C207.024,277.434,207.024,293.65,207.673,297.542Z" transform="translate(-133.409 -165.541)" fill="#415a6b"/>
      <path id="Trazado_995671" data-name="Trazado 995671" d="M289.694,400.715s-7.784-.649-9.405-2.27-1.622-10.378.324-11.351S289.694,400.715,289.694,400.715Z" transform="translate(-194.025 -269.363)" fill="#adb3ba"/>
      <path id="Trazado_995672" data-name="Trazado 995672" d="M237.292,372.54s-4.54-1.3-2.919-4.54l5.513.973a27.662,27.662,0,0,1,7.135,2.595c2.594,1.622,0,12,0,12s-.649.649-2.919.649a14.582,14.582,0,0,1-5.838-.973c-1.622-.648-5.189-1.621-6.811-3.243-1.622-1.3-7.135-7.135-7.135-7.135s.649-1.622,3.892,0a20.473,20.473,0,0,1,2.919,1.3l3.243.649h4.54a6.059,6.059,0,0,0,1.3-.973A15.985,15.985,0,0,1,237.292,372.54Z" transform="translate(-155.893 -256.107)" fill="#f7b64c"/>
      <path id="Trazado_995673" data-name="Trazado 995673" d="M287.3,393.6s2.595,11.676-3.243,9.405l17.838,11.351,4.54-13.622Z" transform="translate(-197.464 -273.924)" fill="#344a5e"/>
      <path id="Trazado_995674" data-name="Trazado 995674" d="M244.247,351.724s-.324-.649-1.946-.973a52.508,52.508,0,0,1-5.513-1.946,3.438,3.438,0,0,1-1.946-1.3c-.973-.973-5.189-5.838-5.189-5.838s.973-.973,1.622-.324l-1.622-1.3a3.5,3.5,0,0,1,4.54.649s2.919.973,3.892,2.594l2.919,1.3,5.513.649,2.27-.973s-2.27-.973-2.27-2.919,2.27-1.622,3.567-.973c1.3.973.973,1.3,2.595,1.622s2.919.973,3.243,1.622l.324.649s-2.919,7.784-6.486,7.784C246.517,351.724,244.247,351.724,244.247,351.724Z" transform="translate(-159.604 -236.264)" fill="#ffd15c"/>
      <g id="Grupo_1177476" data-name="Grupo 1177476" transform="translate(71.669 104.757)">
        <path id="Trazado_995675" data-name="Trazado 995675" d="M234.985,344.533l.324.324.973.973,1.3,1.3,1.622,1.622c.649.649,1.3.973,1.622,1.622l.324.324.324.324c.324,0,.649.324.973.324.649.324.973.649,1.3.649l.324.324h0a.318.318,0,0,1-.324-.324,1.133,1.133,0,0,0-.649-.324c-.324,0-.324-.324-.649-.324s-.649-.324-.973-.324a1614241690722.937,1614241690722.937,0,0,0-.649-.649,8.6,8.6,0,0,1-1.946-1.622c-.649-.649-1.3-.973-1.622-1.622-.324-.324-.324-.649-.649-.649-.324-.324-.324-.649-.649-.649l-.973-.973C235.309,344.857,234.985,344.533,234.985,344.533Z" transform="translate(-234.985 -344.533)" fill="#f7b64c"/>
        <path id="Trazado_995676" data-name="Trazado 995676" d="M241.385,344.533l.324.324a4.476,4.476,0,0,1,.973,1.3c.324.324.649.973,1.3,1.622a8.6,8.6,0,0,1,1.946,1.622c.324.324.649.649.973.649.324.324.649.324.973.649a4.608,4.608,0,0,0,1.946.649,2.451,2.451,0,0,0,1.3.324,1.131,1.131,0,0,1,.649.324h-.649c-.324,0-.973-.324-1.3-.324s-.649-.324-.973-.324-.649-.324-.973-.324c-.649-.324-1.3-.973-1.946-1.3-.324-.324-.649-.649-.973-.649-.324-.324-.649-.649-.973-.649-.324-.324-.649-.649-.649-.973-.324-.324-.324-.649-.649-.649-.324-.649-.649-.973-.649-1.3Z" transform="translate(-239.439 -344.533)" fill="#f7b64c"/>
      </g>
      <path id="Trazado_995677" data-name="Trazado 995677" d="M386.8,179.106l-9.081-.973s-3.567,7.784-3.567,9.405a4.043,4.043,0,0,1,0,2.919c-.649,1.3-3.567,3.892-3.892,5.189a2.451,2.451,0,0,0,.973,2.594l1.3.649s-1.946,2.919,0,3.567c0,0-1.3.324-.649,1.946s-2.595,5.513,2.594,6.486,7.135,3.892,6.811,6.162-6.162,10.054-6.162,10.054c-10.378,13.946,6.811,6.486,10.054,2.27l16.54-12.324-2.27-24.973Z" transform="translate(-257.396 -123.97)" fill="#ffd15c"/>
      <path id="Trazado_995678" data-name="Trazado 995678" d="M355.959,318.832l-4.54,4.216,3.243-9.73s-5.838,4.865-8.432,9.405-8.432,24.324-7.135,33.73l1.3,9.73,25.3-48.324,3.243-7.459Z" transform="translate(-235.641 -216.021)" fill="#ced6e0"/>
      <path id="Trazado_995679" data-name="Trazado 995679" d="M353.6,316.8s-6.162,8.757-7.135,13.3-7.135,18.487-7.459,25.946l-.324,7.784s-1.622-18.486,1.946-28.216a84.815,84.815,0,0,1,10.054-18.486Z" transform="translate(-235.223 -220.475)" fill="#415a6b"/>
      <path id="Trazado_995680" data-name="Trazado 995680" d="M369.342,359.82a14.182,14.182,0,0,0-1.946-3.243c-1.621-1.946-.324-6.811-.649-9.73s6.486-14.27,8.757-19.459c1.946-5.513,4.865-22.7,1.946-28.216a11.282,11.282,0,0,0-8.757-5.838s-14.595,11.676-22.054,17.838-18.811,20.757-20.757,32.433a86.445,86.445,0,0,0-1.3,16.541l44.757-.324Z" transform="translate(-225.672 -204.143)" fill="#344a5e"/>
      <path id="Trazado_995681" data-name="Trazado 995681" d="M380.16,291.2l5.189,4.216a104.258,104.258,0,0,0-17.838,11.676C359.4,313.9,350,324.605,348.052,328.5c0,0,6.811-14.595,18.162-24.649C377.241,293.794,380.16,291.2,380.16,291.2Z" transform="translate(-242.004 -202.659)" fill="#415a6b"/>
      <path id="Trazado_995682" data-name="Trazado 995682" d="M388.585,270.6h0c2.595.973,4.216,2.27,4.865,3.567,6.486-3.567,8.757-10.7,9.081-10.7C395.4,271.9,388.585,270.6,388.585,270.6Z" transform="translate(-270.213 -183.357)" fill="#f7b64c"/>
      <path id="Trazado_995683" data-name="Trazado 995683" d="M414.121,284.243l2.27,3.892a76.467,76.467,0,0,1-10.7,7.135l-1.622-.973s-1.622,3.567-9.081,6.486c3.243-5.513,13.622-14.27,18.162-16.541A.608.608,0,0,1,414.121,284.243Z" transform="translate(-274.668 -197.648)" fill="#f3f3f3"/>
      <path id="Trazado_995684" data-name="Trazado 995684" d="M393.919,166.466a100.257,100.257,0,0,0,4.216,10.054c2.919,6.162,4.865,9.73,8.757,9.081s4.216-2.919,5.838-.649-.649,12,2.27,16.865,11.676,13.3,10.378,23.676l-1.622,10.378a20.546,20.546,0,0,0,6.162-12.649c.648-7.784-1.3-11.676-1.946-23.027s-.324-25.622-4.865-31.46S401.7,156.736,393.919,166.466Z" transform="translate(-273.925 -112.303)" fill="#f3705a"/>
      <ellipse id="Elipse_13704" data-name="Elipse 13704" cx="3.243" cy="5.19" rx="3.243" ry="5.19" transform="matrix(-0.931, -0.364, 0.364, -0.931, 137.043, 81.887)" fill="#ffd15c"/>
      <path id="Trazado_995685" data-name="Trazado 995685" d="M310.632,343.035s3.567-15.568,15.243-15.568,11.676,10.054,11.027,15.243a25.75,25.75,0,0,1-5.838,12.324c-2.594,2.595-20.432,20.757-20.432,20.757s-3.892,4.54-7.784,2.919-14.595-12.973-15.568-15.243a23.457,23.457,0,0,0-5.513-7.135c-1.946-1.3-12.649-12.973-12.649-12.973s11.027-2.919,13.3-5.838,1.3-3.892,1.3-3.892,4.865,5.838,6.162,7.784,6.162,6.162,7.784,9.081,2.919,5.838,3.892,7.135a7.266,7.266,0,0,0,3.243,2.27c.324,0,.324-2.27.649-2.919C305.443,356.332,310.632,343.035,310.632,343.035Z" transform="translate(-187.071 -227.899)" fill="#415a6b"/>
      <path id="Trazado_995686" data-name="Trazado 995686" d="M393.919,178.133a25.855,25.855,0,0,0,2.594,10.378c2.594,5.189,3.567,6.811,3.567,6.811s-4.54-11.676-4.216-14.27" transform="translate(-273.925 -123.97)" fill="#f3705a"/>
      <path id="Trazado_995687" data-name="Trazado 995687" d="M384.542,297.6l-8.757,6.811s2.919,5.189,2.27,7.459l-.973,2.27s8.108-12.649,8.432-13.946S384.542,297.6,384.542,297.6Z" transform="translate(-261.305 -207.113)" fill="#f3f3f3"/>
      <path id="Trazado_995688" data-name="Trazado 995688" d="M128.612,124.522s1.946,1.3,3.567-1.946,1.622-6.162,4.216-6.811,4.54,3.567,4.865,7.135h1.946s-.324-4.216,2.27-6.162c2.27-1.946,9.405-4.216,10.7-5.513s3.892-1.3,3.892-1.3a5.4,5.4,0,0,0,1.946-7.784c-3.243-5.189-14.27-13.946-24.973-7.784C120.828,103.441,131.531,116.09,128.612,124.522Z" transform="translate(-88.726 -64.197)" fill="#344a5e"/>
      <g id="Grupo_1177477" data-name="Grupo 1177477" transform="translate(35.267 63.892)">
        <path id="Trazado_995689" data-name="Trazado 995689" d="M117.934,210.133s8.108,12.649,11.027,14.919a7.174,7.174,0,0,0-3.892.649c-2.27.973-8.757,3.243-8.757,3.243s-.324-11.027-.973-13.3A5,5,0,0,1,117.934,210.133Z" transform="translate(-115.261 -210.133)" fill="#f3f3f3"/>
        <path id="Trazado_995690" data-name="Trazado 995690" d="M178.035,238.422a5.476,5.476,0,0,1-.649-1.622h0C177.71,237.449,178.035,237.773,178.035,238.422Z" transform="translate(-158.497 -228.692)" fill="#f3f3f3"/>
        <path id="Trazado_995691" data-name="Trazado 995691" d="M181.876,241.665c.324.649,1.946,2.594-4.216,8.108-1.3,1.3-3.892.973-4.54,3.567a38.266,38.266,0,0,1,.324-5.189c.324-1.622,2.27-5.513,1.3-9.405a2.478,2.478,0,0,0-.649-1.622h0l3.567-.324a4.691,4.691,0,0,1,2.27.649l4.216,4.216C184.47,241.34,181.876,241.016,181.876,241.665Z" transform="translate(-155.527 -228.692)" fill="#f3f3f3"/>
      </g>
      <path id="Trazado_995692" data-name="Trazado 995692" d="M4.21,279.782s-.973-13.3,5.189-14.27c6.486-.973,10.7,16.865,11.676,22.054.649,5.189.649,18.162,0,18.811s1.622,3.243,1.946,4.216,4.216-.324,6.162.649,3.892,2.919,4.865,2.919H49.615S46.7,329.729,47.67,334.918c0,0-17.514-3.243-20.757-4.54s-15.892-5.838-19.459-7.459-7.135-4.54-7.135-7.784S4.21,279.782,4.21,279.782Z" transform="translate(0 -184.755)" fill="#415a6b"/>
      <path id="Trazado_995693" data-name="Trazado 995693" d="M320.319,17.19c0,9.73,11.351,17.189,25.622,17.189h.324l17.513,9.405V29.514c4.54-3.243,7.459-7.459,7.459-12.324C371.238,7.46,359.887,0,345.616,0,331.995,0,320.319,7.784,320.319,17.19Z" transform="translate(-222.703 0)" fill="#244d4c"/>
      <g id="Grupo_1177478" data-name="Grupo 1177478" transform="translate(105.723 12.973)">
        <circle id="Elipse_13705" data-name="Elipse 13705" cx="4.216" cy="4.216" r="4.216" transform="translate(26.919)" fill="#fff"/>
        <circle id="Elipse_13706" data-name="Elipse 13706" cx="4.216" cy="4.216" r="4.216" transform="translate(13.297)" fill="#fff"/>
        <circle id="Elipse_13707" data-name="Elipse 13707" cx="4.216" cy="4.216" r="4.216" fill="#fff"/>
      </g>
      <path id="Trazado_995694" data-name="Trazado 995694" d="M293.371,60.923c0,9.73-11.351,17.189-25.622,17.189h-.324l-17.513,9.405V73.247c-4.54-3.243-7.459-7.459-7.459-12.324,0-9.73,11.351-17.189,25.622-17.189C282.019,43.734,293.371,51.517,293.371,60.923Z" transform="translate(-168.512 -30.436)" fill="#f7e869"/>
      <g id="Grupo_1177479" data-name="Grupo 1177479" transform="translate(81.724 26.271)">
        <circle id="Elipse_13708" data-name="Elipse 13708" cx="4.216" cy="4.216" r="4.216" fill="#fff"/>
        <circle id="Elipse_13709" data-name="Elipse 13709" cx="4.216" cy="4.216" r="4.216" transform="translate(13.297)" fill="#fff"/>
        <circle id="Elipse_13710" data-name="Elipse 13710" cx="4.216" cy="4.216" r="4.216" transform="translate(26.919)" fill="#fff"/>
      </g>
    </g>
  </g>
</svg>
