<svg xmlns="http://www.w3.org/2000/svg" xmlns:xlink="http://www.w3.org/1999/xlink" width="59" height="59" viewBox="0 0 59 59">
  <defs>
    <clipPath id="clip-path">
      <rect id="Rectángulo_454868" data-name="Rectángulo 454868" width="39" height="39" transform="translate(458.711 842)" fill="#244d4c" stroke="#244d4c" stroke-width="1"/>
    </clipPath>
  </defs>
  <g id="Grupo_1177386" data-name="Grupo 1177386" transform="translate(-449.299 -832)">
    <circle id="Elipse_13697" data-name="Elipse 13697" cx="29.5" cy="29.5" r="29.5" transform="translate(449.299 832)" fill="#f7e869"/>
    <g id="Enmascarar_grupo_1119204" data-name="Enmascarar grupo 1119204" clip-path="url(#clip-path)">
      <g id="cita_1_" data-name="cita (1)" transform="translate(458.711 842)">
        <path id="Trazado_995541" data-name="Trazado 995541" d="M2.859,16.889a1.709,1.709,0,0,0,1.249.54H5.392A14.444,14.444,0,0,0,5.243,19.5c0,.3.01.607.028.907a.571.571,0,0,0,.57.536h.036a.571.571,0,0,0,.535-.606c-.017-.276-.026-.557-.026-.835a13.281,13.281,0,0,1,.163-2.071H8.882a3.516,3.516,0,0,0,2.411,1.122,2.555,2.555,0,0,0,2.527-2.479L16.1,13.8a2.555,2.555,0,0,0,2.479-2.527,3.516,3.516,0,0,0-1.122-2.411V6.524a13.28,13.28,0,0,1,2.071-.163.571.571,0,0,0,0-1.143,14.442,14.442,0,0,0-2.071.149V4.083a1.708,1.708,0,0,0-.54-1.249A11.418,11.418,0,0,0,10.02,0,6.21,6.21,0,0,0,8.941.1a.571.571,0,0,0,.2,1.125,5.063,5.063,0,0,1,.879-.081,8.518,8.518,0,0,1,2.919.621,1.347,1.347,0,0,1,.568,1.767c-.255.687-.741.987-1.065.881l-.358-.118a.571.571,0,0,0-.358,1.085l1.6.528.112.669a14.244,14.244,0,0,0-6.84,6.84L5.932,13.3,5.4,11.7a.571.571,0,1,0-1.085.358l.118.358c.107.324-.194.811-.881,1.065a1.347,1.347,0,0,1-1.767-.568,8.519,8.519,0,0,1-.621-2.919,6.557,6.557,0,0,1,.6-2.537l.8.8A3.558,3.558,0,0,0,5.095,9.4a3.489,3.489,0,0,0,1.727-.479,1.769,1.769,0,0,0,1.839-.282A1.77,1.77,0,0,0,8.943,6.8a3.375,3.375,0,0,0-.656-4.25L6.924,1.184A4.041,4.041,0,0,0,.919,6.576,7.992,7.992,0,0,0,.025,9.995a11.416,11.416,0,0,0,2.834,6.894Zm8.65-1.738,3.666-3.666a.191.191,0,0,1,.269,0,.952.952,0,0,1,0,1.347L12.856,15.42a.953.953,0,0,1-1.347,0,.191.191,0,0,1,0-.269ZM14.577,3.927a2.96,2.96,0,0,0,.207-1.261,8.435,8.435,0,0,1,1.351,1.005.563.563,0,0,1,.175.412V9.09a.571.571,0,0,0,.167.4,2.537,2.537,0,0,1,.954,1.775,1.248,1.248,0,0,1-.577,1.1,2.137,2.137,0,0,0,.011-.216,2.081,2.081,0,0,0-.613-1.481,1.329,1.329,0,0,0-1.034-.385L14.4,5.378a.571.571,0,0,0-.385-.448l-.062-.02a2.532,2.532,0,0,0,.625-.982Zm-.941,3.823.523,3.134-3.251,3.25-3.134-.523A13.1,13.1,0,0,1,13.637,7.751ZM2.9,14.743a3.043,3.043,0,0,0,1.049-.191,2.559,2.559,0,0,0,.984-.619l.018.056a.571.571,0,0,0,.448.385l4.913.82c0,.03,0,.061,0,.091a1.324,1.324,0,0,0,.39.943,2.092,2.092,0,0,0,1.7.6,1.248,1.248,0,0,1-1.106.578,2.537,2.537,0,0,1-1.775-.954.571.571,0,0,0-.4-.167H4.108a.563.563,0,0,1-.412-.175,8.464,8.464,0,0,1-1.018-1.373c.072,0,.147.006.226.006ZM7.793,7c.1.208.224.665.059.83s-.621.042-.827-.058a.572.572,0,0,0-.573.035A2.2,2.2,0,0,1,4.1,8,1.846,1.846,0,0,0,4.992,7,1.845,1.845,0,0,0,7.027,4.967a1.844,1.844,0,0,0,.994-.894,2.2,2.2,0,0,1-.192,2.356A.576.576,0,0,0,7.793,7ZM2.017,1.992a2.9,2.9,0,0,1,4.1,0l.753.753h0a.7.7,0,0,1-.547,1.2.571.571,0,0,0-.53.865.7.7,0,0,1-.962.962.571.571,0,0,0-.865.53.7.7,0,0,1-1.2.547h0l-.753-.753a2.9,2.9,0,0,1,0-4.1Z" fill="#244d4c"/>
        <path id="Trazado_995542" data-name="Trazado 995542" d="M37.266,12.782a.571.571,0,1,0,1.072.394A9.461,9.461,0,0,0,38.975,10a7.52,7.52,0,0,0-.624-2.83,7.907,7.907,0,0,0,.624-3.124A4.041,4.041,0,0,0,34.934,0,7.906,7.906,0,0,0,31.81.624,7.525,7.525,0,0,0,28.98,0C26.79,0,24.709,1.379,21.8,4.757a2.884,2.884,0,0,0-.6,1.138l-1.865,7.052a1.877,1.877,0,0,0,.988,2.022,1.545,1.545,0,0,0,1.91-.141l1.19-1.19c.838-.838.331-1.762-.042-2.394L25.059,7.6a13.1,13.1,0,0,1,6.2,6.07l-1.331.264a2.443,2.443,0,0,0-1.538-1.08,1.447,1.447,0,0,0-1.246.456l-1.19,1.19a1.714,1.714,0,0,0,1.212,2.926h5.29a13.214,13.214,0,0,1,0,4.143h-5.29a1.715,1.715,0,0,0-.879.238l-2.113-2.09a1.144,1.144,0,0,0-1.616,0l-2.858,2.858a1.143,1.143,0,0,0,0,1.618L21.8,26.278a1.712,1.712,0,0,0-.255.908v7.73a1.709,1.709,0,0,0,.54,1.249A11.417,11.417,0,0,0,28.98,39a7.991,7.991,0,0,0,3.418-.894,4.047,4.047,0,0,0,5.393-.29h0a4.047,4.047,0,0,0,.29-5.393,7.991,7.991,0,0,0,.894-3.418,11.417,11.417,0,0,0-2.835-6.894,1.709,1.709,0,0,0-1.249-.54H33.608a14.443,14.443,0,0,0,0-4.143h1.284a1.709,1.709,0,0,0,1.249-.54A9.579,9.579,0,0,0,37.26,15.4a.571.571,0,1,0-.972-.6,8.444,8.444,0,0,1-.984,1.311.563.563,0,0,1-.412.175H32.513v-1.7l1.1-.218a.571.571,0,0,0,.432-.382l.594-1.8a20.72,20.72,0,0,0,2.988-3.626A5.53,5.53,0,0,1,37.832,10a8.444,8.444,0,0,1-.566,2.787ZM29.405,30.238l.688.688a2.9,2.9,0,0,0,.132,1.1,4.064,4.064,0,0,0-.511,1.4,3.908,3.908,0,0,1-.309-3.187Zm1.5-.12-.693-.693a3.9,3.9,0,0,1,2.494-.053,4.106,4.106,0,0,1,.756.358A4.049,4.049,0,0,0,32,30.25a2.9,2.9,0,0,0-1.1-.132ZM25.3,31.28l-.235-1.187a1.753,1.753,0,0,0,1.011-1.066,1.779,1.779,0,0,0,.071-.289l2.557-2.558c.03-.006.06-.012.09-.02a1.89,1.89,0,0,0,1.224-1.078l1.235.245A13.09,13.09,0,0,1,25.3,31.28Zm-2.613-4.094a.571.571,0,0,1,.975-.4l1.19,1.19a.7.7,0,0,1,.141.686.723.723,0,0,1-.64.452H22.689Zm4.472-4.472h1.924v1.63a.962.962,0,0,1-.578.711.587.587,0,0,1-.56-.175l-1.19-1.19a.571.571,0,0,1,.4-.975Zm-3.8-2.185,2.19,2.166a1.685,1.685,0,0,0,.4,1.8l1.19,1.19a1.878,1.878,0,0,0,.241.2l-1.518,1.518a1.65,1.65,0,0,0-.2-.244l-1.19-1.19a1.684,1.684,0,0,0-1.766-.409l-2.2-2.18Zm-.5,14.8a.563.563,0,0,1-.175-.412V30.253h1.245l.671,3.386a.571.571,0,0,0,.382.432l1.931.636a.571.571,0,0,0,.358-1.085L25.66,33.09l-.129-.652a14.331,14.331,0,0,0,2.583-1.558c-.3,2.407,1.046,4.021,2.6,5.574l.8.8a6.557,6.557,0,0,1-2.537.6A10.3,10.3,0,0,1,22.865,35.329Zm14.119,1.679a2.9,2.9,0,0,1-4.1,0l-1.363-1.363a2.445,2.445,0,0,1-.2-3.226.571.571,0,0,0,.067-.494,3.982,3.982,0,0,1-.154-.665,4,4,0,0,1,.665.155.571.571,0,0,0,.494-.067,2.445,2.445,0,0,1,3.226.2l1.363,1.363A2.9,2.9,0,0,1,36.983,37.008ZM35.3,22.889a10.3,10.3,0,0,1,2.529,6.116,6.557,6.557,0,0,1-.6,2.537l-.822-.822a9.365,9.365,0,0,0-3.335-2.428,4.549,4.549,0,0,0-2.191-.192,14.33,14.33,0,0,0,1.528-2.545l.652.129L33.6,27.3a.571.571,0,1,0,1.085-.358l-.636-1.931a.571.571,0,0,0-.432-.382l-3.386-.671V22.714h4.663A.563.563,0,0,1,35.3,22.889ZM22.613,12.829l-1.19,1.19c-.16.16-.47-.006-.531-.041-.312-.18-.516-.511-.455-.738L21.4,9.585l1.32.354-.506,1.1a.571.571,0,0,0,.024.525c.04.07.081.138.121.206C22.8,12.511,22.8,12.64,22.613,12.829ZM24.1,6.962l-.888,1.924L21.7,8.481,22.3,6.187a1.736,1.736,0,0,1,.362-.684c3.31-3.842,5.051-4.36,6.317-4.36a5.535,5.535,0,0,1,1.433.2A21.028,21.028,0,0,0,26.7,4.428l-2.476,2.36A.568.568,0,0,0,24.1,6.962Zm3.747.96,1.487-1.487a2.153,2.153,0,0,1,.495-.38,4.257,4.257,0,0,0,.4.923c-.225.8-.187,1.357.114,1.658S31.2,8.975,32,8.75a4.271,4.271,0,0,0,.923.4,2.155,2.155,0,0,1-.379.494l-1.487,1.487a14.214,14.214,0,0,0-3.21-3.21Zm3.479-1.34a3.228,3.228,0,0,1-.361-.723c.266.018.561.063.9.118.309.05.645.105,1,.136.031.355.086.691.136,1,.055.34.1.635.118.9a3.23,3.23,0,0,1-.723-.361.571.571,0,0,0-.495-.067,3.981,3.981,0,0,1-.665.154,4,4,0,0,1,.155-.664.571.571,0,0,0-.067-.494Zm.048,9.705H27.161a.571.571,0,0,1-.4-.975l1.191-1.19c.149-.149.245-.137.291-.131.267.035.647.392.925.87a.571.571,0,0,0,.6.273l1.6-.317v1.471Zm2.365-4.811a.572.572,0,0,0-.139.225l-.532,1.615-.652.129A14.384,14.384,0,0,0,31.7,12.1l1.652-1.652a3.568,3.568,0,0,0,.778-3.523,8.483,8.483,0,0,1-.146-1.363A.571.571,0,0,0,33.409,5a8.475,8.475,0,0,1-1.363-.146,3.568,3.568,0,0,0-3.523.778L26.871,7.279q-.466-.281-.955-.528l1.574-1.5.01-.01c2.948-2.948,5.032-4.1,7.433-4.1a2.9,2.9,0,0,1,2.9,2.9c0,2.4-1.149,4.485-4.1,7.433Z" fill="#244d4c"/>
        <path id="Trazado_995543" data-name="Trazado 995543" d="M19.9,32.634h-.016a13.276,13.276,0,0,1-3.119-.286,1.7,1.7,0,0,0-.133-.387l-1.756-3.6c1.314-2.4,1.379-3.477.322-4.535-1-1-2.236-.916-4.515.324l-3.624-1.76a1.718,1.718,0,0,0-1.834.215C.928,26.128.025,28.03.025,29a7.992,7.992,0,0,0,.894,3.418A4.042,4.042,0,0,0,6.6,38.105,7.992,7.992,0,0,0,10.02,39c.975,0,2.877-.9,6.4-5.2a1.7,1.7,0,0,0,.2-.311,14.38,14.38,0,0,0,2.9.3c.13,0,.263,0,.393-.005a.571.571,0,0,0-.015-1.142Zm-6.03-4.817-1.482.219a1.065,1.065,0,0,1,.2-.792L14.737,25.1C14.889,25.5,14.767,26.188,13.873,27.817Zm-3.7-.184a3.131,3.131,0,0,0,1.081.143,3.173,3.173,0,0,0,.135,1.069c.069.23.221.723.39,1.264A13.192,13.192,0,0,1,8.91,27.243ZM13.9,24.315l-2.12,2.12a1.07,1.07,0,0,1-.792.2l.235-1.475C12.749,24.325,13.483,24.207,13.9,24.315ZM2.017,37.008a2.9,2.9,0,0,1,0-4.1l1.834-1.834a16.36,16.36,0,0,1,1.562,1.871c.892,1.282,1.739,3.028.7,4.063A2.9,2.9,0,0,1,2.017,37.008Zm5.66-4.589a2.469,2.469,0,0,1,.037,2.957,7.115,7.115,0,0,0-1.364-3.083A15.844,15.844,0,0,0,5.192,30.84a2.921,2.921,0,0,1,1.413.507.571.571,0,0,0,.494.067,3.981,3.981,0,0,1,.665-.154,4,4,0,0,1-.155.664.571.571,0,0,0,.067.494Zm7.86.654c-2.382,2.906-4.547,4.784-5.517,4.784a6.557,6.557,0,0,1-2.537-.6l.8-.8a3.543,3.543,0,0,0,.488-4.431c.225-.8.187-1.357-.114-1.658S7.8,30.025,7,30.25a3.711,3.711,0,0,0-2.819-.45.571.571,0,0,0-.736.061L1.767,31.542A6.557,6.557,0,0,1,1.168,29c0-.97,1.878-3.135,4.785-5.517a.572.572,0,0,1,.611-.071l3.509,1.7-.2,1.227L7.128,25.5a.571.571,0,0,0-.534.106L4.741,27.141a.571.571,0,1,0,.73.879l1.615-1.341.111.035a14.332,14.332,0,0,0,5.112,5.113l.036.114L11,33.553a.571.571,0,0,0,.879.73l1.539-1.853a.571.571,0,0,0,.106-.536c-.007-.022-.539-1.72-.856-2.745l1.233-.182,1.7,3.494a.572.572,0,0,1-.071.611Z" fill="#244d4c"/>
      </g>
    </g>
  </g>
</svg>
