<svg xmlns="http://www.w3.org/2000/svg" xmlns:xlink="http://www.w3.org/1999/xlink" width="150.332" height="150.393" viewBox="0 0 150.332 150.393">
  <defs>
    <clipPath id="clip-path">
      <rect id="Rectángulo_35906" data-name="Rectángulo 35906" width="150.332" height="150.393" fill="none"/>
    </clipPath>
  </defs>
  <g id="Grupo_134232" data-name="Grupo 134232" clip-path="url(#clip-path)">
    <path id="Trazado_127974" data-name="Trazado 127974" d="M91.2,0a40.1,40.1,0,0,0,5.845.857,73.593,73.593,0,0,1,32.616,13.5,2.473,2.473,0,0,1-2.061.485c-3.7-.055-7.4-.039-11.108-.038a6.147,6.147,0,0,0-1.741.117,15.5,15.5,0,0,0-13.439,10.844,23.179,23.179,0,0,0-.9,6.647,25.015,25.015,0,0,1-.154,3.651,4.2,4.2,0,0,0-.13,1.014c-.106,1.938-.386,2.17-2.2,1.67a29.453,29.453,0,0,0-8.1-1.018c-3.506.027-7.015-.2-10.515.132a34.764,34.764,0,0,0-7.312,1.205c-1.2-.02-1.332-.883-1.474-1.8a25.9,25.9,0,0,0-8-15.268,27.567,27.567,0,0,0-18.565-7.517,2.772,2.772,0,0,1-1.829-.338c-.108-.947.685-1.227,1.259-1.613A76.276,76.276,0,0,1,64.529,2.6,52.355,52.355,0,0,1,79.643.149a.6.6,0,0,0,.4-.149h2.349a3.823,3.823,0,0,0,2.349,0H86.5a3.821,3.821,0,0,0,2.349,0Z" transform="translate(-10.452 0)" fill="#5ac1bd"/>
    <path id="Trazado_127975" data-name="Trazado 127975" d="M6.4,124.916A71.281,71.281,0,0,1,.568,103.961,7.766,7.766,0,0,0,0,100.893V99.132c.318-.564.074-1.174.152-1.762-.076-.587.167-1.2-.152-1.762V93.847A3.821,3.821,0,0,0,0,91.5V88.855c.352-2.592.235-5.233.822-7.8.17-.747.135-1.571.754-2.163.042-.022.1-.072.127-.06a30.935,30.935,0,0,1,4.742,2.374,65.812,65.812,0,0,1,.175,8.012c.052,2.078.042,2.093,2.134,2.114,3.5.036,7.008-.093,10.509.07a29.873,29.873,0,0,1,6.407,3.2c.025.678-.55.861-.979,1.132-1.186.749-2.448,1.376-3.584,2.208a22.7,22.7,0,0,0-7.116,3.946A19.9,19.9,0,0,0,6.878,116.57c-.117,2.187,0,4.385-.029,6.577-.007.611.149,1.292-.44,1.762" transform="translate(0 -19.561)" fill="#5ac1bd"/>
    <path id="Trazado_127976" data-name="Trazado 127976" d="M6.14,77.1a7.03,7.03,0,0,1-4.37-2.088C.42,74.486.431,73.144,0,72.067v-3.23c.985-2.138,2.187-4.058,4.606-4.851.27-.089.438-.489.653-.745.809.358,1.725.087,2.54.422a.514.514,0,0,1,.257.352,10.755,10.755,0,0,1-.526,3.021,1.894,1.894,0,0,1-1.149,1.418,2.107,2.107,0,0,0-1.527,1.954A1.927,1.927,0,0,0,6.43,72.288a1.371,1.371,0,0,1,1.03,1.129c.17,1.264.96,2.477.345,3.813A1.536,1.536,0,0,1,6.138,77.1" transform="translate(0 -15.693)" fill="#f5c9ad"/>
    <path id="Trazado_127977" data-name="Trazado 127977" d="M103.493,0a2.2,2.2,0,0,1-2.349,0Z" transform="translate(-25.097)" fill="#fee671"/>
    <path id="Trazado_127978" data-name="Trazado 127978" d="M98.026,0a2.2,2.2,0,0,1-2.349,0Z" transform="translate(-23.741)" fill="#fee671"/>
    <path id="Trazado_127979" data-name="Trazado 127979" d="M0,95.679a2.2,2.2,0,0,1,0,2.349Z" transform="translate(0 -23.742)" fill="#fee671"/>
    <path id="Trazado_127980" data-name="Trazado 127980" d="M.287,103.461c-.1.587.263,1.245-.287,1.762v-1.762c.1-.135.194-.133.287,0" transform="translate(0 -25.646)" fill="#fee986"/>
    <path id="Trazado_127981" data-name="Trazado 127981" d="M.287,102.912H0V101.15c.527.519.207,1.174.287,1.762" transform="translate(0 -25.098)" fill="#fee56e"/>
    <path id="Trazado_127982" data-name="Trazado 127982" d="M176.039,131.05A71.275,71.275,0,0,1,165.687,147.8a74.894,74.894,0,0,1-25.868,20.368,3.782,3.782,0,0,1-.553.17,4.184,4.184,0,0,1-.283-2.291,42.955,42.955,0,0,0-.766-8.449,23.669,23.669,0,0,0-6.967-12.172c-.526-.494-1.174-.909-1.334-1.7-.195-5.418-.143-10.834-.033-16.248a3,3,0,0,1,.682-1.573,32.686,32.686,0,0,0,3.6-5.937,1.186,1.186,0,0,1,1.069-.844c.814.087,1.566.458,2.385.521a7.387,7.387,0,0,0,7.181-2.793c.446-.533.712-1.331,1.657-1.14,1.043.593.9,1.512.659,2.445-1.048,4.019-2.177,8.016-3.261,12.025q-1.569,5.8-3.171,11.594a3.054,3.054,0,0,0,.613,2.981c1.762,2.219,3.523,4.443,5.294,6.652.851,1.057,1.019,1.05,1.865.015,1.854-2.27,3.641-4.6,5.473-6.885a2.619,2.619,0,0,0,.484-2.584c-2.042-7.445-4.019-14.907-6.138-22.332a5.292,5.292,0,0,1,.789-5.229c.736-.9,1.036-2.114,2.044-2.827,1.466-.221,2.437.851,3.564,1.441,2.231,1.165,2.187,1.228,2.688-1.187.622-3.008,1.3-6.005,1.924-9.014a2.606,2.606,0,0,1,.611-1.461,2,2,0,0,1,1.7.117,21.791,21.791,0,0,1,14.586,20.528c0,3.021.079,6.044-.142,9.061" transform="translate(-32.205 -25.109)" fill="#dce7ec"/>
    <path id="Trazado_127983" data-name="Trazado 127983" d="M48.108,170.324a73.4,73.4,0,0,1-17.394-11.26A76.635,76.635,0,0,1,20.461,148.2a9.237,9.237,0,0,1-.6-.991,46.942,46.942,0,0,1-.132-5.844c-.015-5.856-.117-11.713.028-17.564a19.766,19.766,0,0,1,5.856-13.65,2.539,2.539,0,0,1,1.441-.94c.776.218.792.921.94,1.519.553,2.327,1.048,4.667,1.546,7.006,1.136,4.8,2.1,9.648,3.152,14.471a6.3,6.3,0,0,0,2.709,4.5,5.52,5.52,0,0,0,8.339-3.419c.7-2.9,1.274-5.827,1.9-8.744a6.9,6.9,0,0,1,.835-2.635c1-.618,2.081.14,3.1-.168a3.12,3.12,0,0,0,.861-.153c2.489-.962,2.485-.409,3.429,1.47A29.991,29.991,0,0,0,64.3,134.64c.57.379,1.174.7,1.382,1.438a20.617,20.617,0,0,1-.015,4.955c-.235.688-.841.9-1.442,1.106-1.292.444-2.574.9-3.876,1.292a1.718,1.718,0,0,0-1.361,1.51,33.565,33.565,0,0,0-6.306,6.492,23.363,23.363,0,0,0-3.981,11.644c-.141,2.048-.3,4.09-.28,6.144a1.5,1.5,0,0,1-.312,1.1" transform="translate(-4.881 -27.099)" fill="#66b9ec"/>
    <path id="Trazado_127984" data-name="Trazado 127984" d="M137.43,17.42a4.61,4.61,0,0,1,2.3-.235c4.346-.033,8.7-.033,13.052-.045,4.58.085,9.168.157,13.752.265a2.1,2.1,0,0,0,1.667-.714c1.644-1.672,3.345-3.289,4.947-4.991.655-.7.97-.587,1.56.076a16.318,16.318,0,0,1,.647,20.532c-.319.42-.783.75-.89,1.317-1.227,1.928-3.193,2.893-5.121,3.9a20.117,20.117,0,0,1-2.155.874,16.169,16.169,0,0,1-14.681-2.657,6.643,6.643,0,0,0-4.447-1.427c-3.507.082-7.016.026-10.526.028a3.77,3.77,0,0,1-1.745-.282,3.114,3.114,0,0,1-.39-2.657,16.138,16.138,0,0,1,9.936-13.271,5.79,5.79,0,0,1,.689-.235c.47-.146.968-.106,1.187-.195a73.285,73.285,0,0,1-8.9.13,1.006,1.006,0,0,1-.894-.411" transform="translate(-33.575 -2.785)" fill="#3d4159"/>
    <path id="Trazado_127985" data-name="Trazado 127985" d="M184.6,124.829c-.45-.452-.22-1.021-.242-1.535-.159-3.658.385-7.35-.308-10.978-1.69-8.846-6.982-14.486-15.53-17.147a26.427,26.427,0,0,1-3.758-2.072.776.776,0,0,1-.459-.822c.352-.617,1.018-.723,1.588-.956A25.94,25.94,0,0,0,179.4,78.808c.31-.594.5-1.284,1.163-1.632.822-.161,1.513.444,2.316.366a6.577,6.577,0,0,0,4.742-.922,1.711,1.711,0,0,1,1.339-.446,76.146,76.146,0,0,1,2.114,19.581,74.814,74.814,0,0,1-5.858,27.443c-.227.538-.411,1.092-.615,1.644" transform="translate(-40.765 -18.89)" fill="#5ac1bd"/>
    <path id="Trazado_127986" data-name="Trazado 127986" d="M126.759,157.721a24.225,24.225,0,0,1,8.642,15.135,67.8,67.8,0,0,1,.342,9.2,72.032,72.032,0,0,1-20.15,6.18,47.037,47.037,0,0,1,2.651-6.929c.822-2.088,1.644-4.18,2.531-6.241.331-.767.147-1.021-.684-1.1-1.973-.187-2.091-.423-1.393-2.263q2.57-6.774,5.183-13.535a3.232,3.232,0,0,1,.94-1.62c1.064-.3,1.458.5,1.934,1.174" transform="translate(-28.684 -38.828)" fill="#3d4159"/>
    <path id="Trazado_127987" data-name="Trazado 127987" d="M57.492,182.062c.061-3.609-.142-7.238.669-10.8a23.675,23.675,0,0,1,10.079-14.747c.5.135.639.568.8.976,1.846,4.834,3.769,9.64,5.539,14.5.6,1.651.486,1.872-1.267,1.973-1.145.066-1.157.521-.8,1.4,1.583,3.889,3.223,7.751,4.8,11.645.162.4.47.755.377,1.233a70.577,70.577,0,0,1-20.193-6.182" transform="translate(-14.266 -38.837)" fill="#3d4159"/>
    <path id="Trazado_127988" data-name="Trazado 127988" d="M24.415,107.935a19.076,19.076,0,0,0-7,14.7c-.154,7.176-.034,14.358-.049,21.539,0,.56.215,1.182-.276,1.671a65.435,65.435,0,0,1-8.574-14.755c.016-2.1.128-4.206.034-6.3A20.651,20.651,0,0,1,23.361,103.7a4.213,4.213,0,0,1,1.057,4.228" transform="translate(-2.115 -25.732)" fill="#2ba0ce"/>
    <path id="Trazado_127989" data-name="Trazado 127989" d="M122.242,155.326l-5.082,13.069c-.352.908-.649,1.844-1.073,2.718-.47.956-.284,1.292.814,1.3,2.01.012,2.028.065,1.258,1.985q-2.367,5.9-4.778,11.775a5.486,5.486,0,0,1-.551.856,31.747,31.747,0,0,1-6.09.667c-2.466.3-2.666.06-1.863-2.244a14.1,14.1,0,0,0,.48-1.353c1.359-5.293,3.043-10.491,4.536-15.746.2-.7.42-1.4.6-2.114,1.192-3.876,2.31-7.782,3.449-11.678a6.342,6.342,0,0,1,1.174-2.811,2.772,2.772,0,0,1,2,.191c1.541.47,3.087.94,4.58,1.542.864.352,1.5.889.552,1.838" transform="translate(-25.92 -37.622)" fill="#2a2f4f"/>
    <path id="Trazado_127990" data-name="Trazado 127990" d="M81.162,187.056c-1.315-1.567-1.665-3.593-2.51-5.384-1.183-2.509-2.122-5.131-3.171-7.7-.614-1.508-.6-1.534.988-1.547,1.731-.014,1.77-.028,1.149-1.668-1.951-5.148-3.932-10.285-5.9-15.425-.366-.734-.337-1.189.624-1.474,1.99-.587,3.938-1.328,5.9-2a.566.566,0,0,1,.668-.019,3.115,3.115,0,0,1,.7,1.573c1.254,4.395,2.558,8.774,3.876,13.154,1.539,5.462,3.22,10.883,4.772,16.342a15.718,15.718,0,0,1,.406,1.562c.125.363.245.727.37,1.09.726,2.133.463,2.45-1.786,2.175a31.681,31.681,0,0,1-6.09-.667" transform="translate(-17.742 -37.65)" fill="#2a2f4f"/>
    <path id="Trazado_127991" data-name="Trazado 127991" d="M92.449,190.815c2.091-.1,2.157-.22,1.328-2.231-.143-.345-.235-.712-.352-1.068,1.036-4.659,2.408-9.234,3.5-13.879a3.249,3.249,0,0,0-.607-2.473,20.4,20.4,0,0,1-2.509-4.425,5.616,5.616,0,0,1,5.267-2.452c.864.409,1.637.978,2.485,1.418a1.3,1.3,0,0,1,.841,1.073,16.657,16.657,0,0,1-2.382,4.158,4.025,4.025,0,0,0-.572,3.448c1.113,4.282,2.2,8.574,3.34,12.846-.142.4-.27.815-.429,1.213-.868,2.172-.814,2.27,1.4,2.369a18.72,18.72,0,0,1-5.511.227,20.914,20.914,0,0,1-5.8-.227" transform="translate(-22.939 -40.742)" fill="#3d4159"/>
    <path id="Trazado_127992" data-name="Trazado 127992" d="M177.97,45.442a26.762,26.762,0,0,0,7.015-4.423q.311,4.625.624,9.249a9.619,9.619,0,0,1,.463,3.822,5.416,5.416,0,0,1-.281,1.858c-1.574,1.292-3.563,1.493-5.434,1.927-.981.228-1.088-.822-1.2-1.5q-.516-3.247-.988-6.5c-.148-1.012-.314-2.021-.43-3.04a1.629,1.629,0,0,1,.224-1.389" transform="translate(-44.095 -10.179)" fill="#2a2f4f"/>
    <path id="Trazado_127993" data-name="Trazado 127993" d="M195.023,72.048a7.3,7.3,0,0,1-6.084,1.731c-.484-1.031.169-1.987.2-2.984.038-1.248.981-1.629,1.9-2.141,1.3-.726,1.468-2.868.154-3.386-2.045-.8-2.114-2.444-2.374-4.1a2.372,2.372,0,0,1-.052-1.012,1.475,1.475,0,0,1,1.979-.45,8.738,8.738,0,0,1,4.747,2.635c2.342,2.936,2.2,6.127-.47,9.712" transform="translate(-46.829 -14.769)" fill="#d2a389"/>
    <path id="Trazado_127994" data-name="Trazado 127994" d="M190.621,58.162l-1.806.29c-.816-.1-.221-.83-.524-1.159q-.038-1.985-.074-3.972a25.5,25.5,0,0,1,2.4,4.84" transform="translate(-46.703 -13.232)" fill="#fbdd54"/>
    <path id="Trazado_127995" data-name="Trazado 127995" d="M36.1,18.991l1.111-.327a30.619,30.619,0,0,1,12.142,2.165C58.8,24.94,64.46,32.05,66.09,42.276c.089.558.109,1.092.84,1.146.073.494-.345.524-.635.639a22.966,22.966,0,0,0-8.237,5.653,3.722,3.722,0,0,1-1.867,1.342,17.157,17.157,0,0,1-4.919-.6c-.854-.3-1.718-.577-2.576-.866A17.57,17.57,0,0,1,37.85,36.69,15.8,15.8,0,0,1,25.1,45.708a3.07,3.07,0,0,1-2.271-.221c-.573-1-.079-2.029.034-3.009.833-7.21,2.9-13.955,7.751-19.581a13.741,13.741,0,0,1,5.485-3.91" transform="translate(-5.598 -4.632)" fill="#cb7a3b"/>
    <path id="Trazado_127996" data-name="Trazado 127996" d="M88.182,49.334a5.331,5.331,0,0,1,2.313-.166c4.289.1,8.581-.241,12.867.195a23.319,23.319,0,0,1,4.544.978c.718.222.947.157.94-.625a4.941,4.941,0,0,1,.229-2.162,1.341,1.341,0,0,1,.395,1.337,2.114,2.114,0,0,0,1.61,2.4A18.613,18.613,0,0,1,115.4,54c.741.6,1.543,1.127,2.254,1.772a24.4,24.4,0,0,1,7.14,17.753c-.108,3.55.227,7.1-.072,10.649a1.393,1.393,0,0,1-.235.48,9.938,9.938,0,0,1-5.183.235c-.86-.108-.889-.94-.91-1.634-.053-1.81-.006-3.62-.025-5.43-.018-1.734-.125-1.832-1.879-2.155q-17.821-3.289-35.634-6.62a3.054,3.054,0,0,1-1.775-.6,2.385,2.385,0,0,1,.006-2.121A24.04,24.04,0,0,1,95.408,49.878c.659-.213,1.358-.156,1.879-.312a56.971,56.971,0,0,1-8.214.175.989.989,0,0,1-.895-.405" transform="translate(-19.56 -11.8)" fill="#3d4159"/>
    <path id="Trazado_127997" data-name="Trazado 127997" d="M83.488,49.916H93.525A25.666,25.666,0,0,0,81.161,56.43a21.593,21.593,0,0,0-5.52,8.141,11.567,11.567,0,0,0-1.167,4.18,1.218,1.218,0,0,1-1.023.316c-1.827-.3-3.641-.7-5.471-.991-1.358-.215-1.547-.087-1.557,1.315-.033,4.2-.009,8.393-.013,12.589,0,.587.018,1.174-.018,1.762-.09,1.476-.405,1.879-1.833,1.879s-2.927.4-4.3-.4a3.406,3.406,0,0,1-.352-1.98c0-3.549-.023-7.1,0-10.648a23.032,23.032,0,0,1,.915-5.168,25.948,25.948,0,0,1,3.354-7.363,3.547,3.547,0,0,1,1.488-1.547,27.275,27.275,0,0,1,8.682-6.559q.925-.395,1.853-.787a21.307,21.307,0,0,1,7.289-1.256" transform="translate(-14.866 -12.381)" fill="#2a2f4f"/>
    <path id="Trazado_127998" data-name="Trazado 127998" d="M125.291,47.4a21.436,21.436,0,0,0-5.484-3.226,1.011,1.011,0,0,1-.7-1.117c0-.822-.023-1.644-.036-2.473a46.462,46.462,0,0,1,.64-9c1.324-6.287,7.471-11.709,13.7-12.116h10.917a16.208,16.208,0,0,0-12.6,16.443c-.729.72-1.656.425-2.505.459-1.655.068-1.788.139-2.062,1.805-.415,2.505-.723,5.027-1.146,7.532-.106.621-.106,1.283-.7,1.694" transform="translate(-29.544 -4.83)" fill="#2a2f4f"/>
    <path id="Trazado_127999" data-name="Trazado 127999" d="M32.366,19.1c.079.106.516.16.251.267-5.168,2.078-7.833,6.4-9.983,11.136a44.491,44.491,0,0,0-3.461,15.008,1.27,1.27,0,0,1-1.136.4A16.177,16.177,0,0,1,11.962,44c-.834-.487-1.1-.358-1.237.667-.288,2.182-.17,4.365-.256,6.546-.023.587.308,1.421-.668,1.669h0a1.042,1.042,0,0,0-.686-.142c-1.59-.046-1.59-.047-1.608-1.656.712-1.174.383-2.479.372-3.716A27.5,27.5,0,0,1,11.973,31.92,26.643,26.643,0,0,1,32.366,19.1" transform="translate(-1.864 -4.739)" fill="#a25418"/>
    <path id="Trazado_128000" data-name="Trazado 128000" d="M7.382,61.642c.117,1.418,1.2,1.615,2.293,1.8-.887-.222-2,.6-2.68-.594.128-.4.258-.8.388-1.2" transform="translate(-1.736 -15.295)" fill="#e9b498"/>
    <path id="Trazado_128001" data-name="Trazado 128001" d="M9.362,60.661c.517-.409.321-.985.318-1.493a63.226,63.226,0,0,1,.382-8.706,18.23,18.23,0,0,0,7.517,2.9,2.45,2.45,0,0,1,.379,1.817c.012,3.032,0,6.064,0,9.1a9.581,9.581,0,0,0,.519,3.388c1.723-1.119,3.364-1.252,4.868.2a3.148,3.148,0,0,1,.718,3.641,3.5,3.5,0,0,1-3.922,2.118,22.861,22.861,0,0,0,6.474,8.794A24.358,24.358,0,0,0,36.4,87.562a8.16,8.16,0,0,0,4.331.117c.54-.149,1.132-.419,1.664.079a2.854,2.854,0,0,1,.1,2.136,2.765,2.765,0,0,1-2.045,1.272A29.464,29.464,0,0,1,33.794,92.2c-1.2.041-1.307.222-.837,1.3a7.327,7.327,0,0,0,2.76,3.159c.424.287,1.032.418,1.057,1.1-1.234,1.115-2.672.684-3.965.331A7.693,7.693,0,0,1,27.162,90.6,17.147,17.147,0,0,0,27,87.7c-1.943-1.057-4.067-1.762-5.942-2.96a16.912,16.912,0,0,1-6.036-5.168,19.434,19.434,0,0,1-2.869-4.4c-.439-.98-.853-1.637-2.044-1.09a.6.6,0,0,1-.773-.235c-.181-.7-.419-1.382-.532-2.089-.179-1.125-.195-2.071-1.731-2.506a2.114,2.114,0,0,1-.24-3.828c1.849-.752,1.833-2.231,2.219-3.654.1-.369.2-.738.308-1.106" transform="translate(-1.423 -12.522)" fill="#e9b498"/>
    <path id="Trazado_128002" data-name="Trazado 128002" d="M9.924,81.432c1.984-.969,2.686.141,3.5,1.8a25.471,25.471,0,0,0,8.221,9.1c-4.145.014-8.288.013-12.432.053-.79.007-1.136-.207-1.122-1.064.052-3.265.045-6.531.06-9.8l1.778-.093" transform="translate(-2.006 -20.116)" fill="#a25418"/>
    <path id="Trazado_128003" data-name="Trazado 128003" d="M32.586,99.986c.965.25.546,1.044.538,1.581a9.493,9.493,0,0,0,1.516,5.824,7.024,7.024,0,0,0,7.613,2.576c.981.182,1.014.251.839,1.75-.352.679-.734.245-1.036-.012a2.441,2.441,0,0,0-3.091-.149c-2.076,1.174-4.147,2.356-6.259,3.465-.425.223-.8.575-1.334.518q-.874-3.785-1.752-7.568c-.076-.325-.2-.638-.307-.956a11.615,11.615,0,0,0-1.057-4.228c1.254-1.227,2.975-1.728,4.33-2.8" transform="translate(-7.011 -24.81)" fill="#d7d4cf"/>
    <path id="Trazado_128004" data-name="Trazado 128004" d="M76.6,75.031l.875-.059c3.425.918,6.939,1.387,10.415,2.046q14.185,2.685,28.39,5.263c.866.157.842.6.84,1.2-.007,2.248.053,4.5-.026,6.744-.038,1.057.337,1.34,1.333,1.284,1.409-.08,2.833-.033,4.25-.04.6.587.361,1.357.45,2.055,0,1.409.034,2.828-.018,4.241a36.733,36.733,0,0,1-1.852,14.253,3.585,3.585,0,0,1-.33.808c-1.077.287-.916,1.392-1.332,2.1-1.133,1.919-2.368,3.758-3.664,5.57a5.808,5.808,0,0,1-1.689,2.349,34.326,34.326,0,0,1-6.82,5.043c-1.281.659-2.231,1.364-2.055,2.956a.782.782,0,0,1-.227.528.47.47,0,0,1-.4.023c-.031-.035-.059-.075-.093-.109-.511-.513.235-1.621-.661-1.789-.587-.109-1.237.449-1.879.651a4.03,4.03,0,0,1-.651.161c-5.058,1.854-9.492-.218-13.671-2.554a28.875,28.875,0,0,1-15.268-22.412,87.74,87.74,0,0,1-.249-16.252,29.949,29.949,0,0,1,3.3-12.665A2.876,2.876,0,0,1,76.6,75.033" transform="translate(-17.872 -18.604)" fill="#f5c9ad"/>
    <path id="Trazado_128005" data-name="Trazado 128005" d="M154.588,114.428c-2.909,3.236-3.212,6.655-1.792,10.844,2.2,6.5,3.711,13.237,5.528,19.871a1.661,1.661,0,0,1-.227,1.739c-2.2,2.684-4.346,5.411-6.46,8.157-.561.728-.847.808-1.457,0-2.04-2.682-4.158-5.306-6.279-7.926a2,2,0,0,1-.4-2.007c2.239-8.135,4.416-16.287,6.66-24.422a2.042,2.042,0,0,0-.379-2.152.862.862,0,0,1-.418-1.116,16.223,16.223,0,0,0,.305-4.609,1.206,1.206,0,0,1,.921-.689,1.911,1.911,0,0,1,.7-.018c1.237.58,2.665.891,3.3,2.325" transform="translate(-35.582 -27.812)" fill="#f64f4f"/>
    <path id="Trazado_128006" data-name="Trazado 128006" d="M115.978,146.419c0-.587.034-1.174,0-1.75a1.292,1.292,0,0,1,.834-1.369,32.375,32.375,0,0,0,10.03-7.779q.008,8.5.015,17l-1.752-1.187c.3-.768.291-1.252-.732-1.527-2.133-.563-4.22-1.3-6.326-1.968a2.2,2.2,0,0,1-2.067-1.422" transform="translate(-28.777 -33.627)" fill="#bed4dd"/>
    <path id="Trazado_128007" data-name="Trazado 128007" d="M148.982,110.946a7.554,7.554,0,0,1,.031,4.254c-.127.5-.393.994-.09,1.52-.866.034-.991.854-1.365,1.361-1.576,2.141-5.1,3.487-7.425,2.765-.383-1.691.285-3.234.718-4.8.127-.46.669-.519,1.084-.649a2.384,2.384,0,0,0,1.8-2.24,2.172,2.172,0,0,0-1.679-2.293,2.184,2.184,0,0,1-1.6-2.021c-.183-1.185-.742-2.321-.437-3.567.8-.775,1.762-.452,2.68-.368a8.1,8.1,0,0,1,6.481,5.386,1.256,1.256,0,0,1-.195.655" transform="translate(-34.72 -25.995)" fill="#f5c9ad"/>
    <path id="Trazado_128008" data-name="Trazado 128008" d="M157.184,110.808a15.584,15.584,0,0,0-3.321-2.069c.162-.83.94-.641,1.456-.887a7.31,7.31,0,0,0,5.5-6.92,7.823,7.823,0,0,1,.278-3.314.442.442,0,0,1,.626,0c1.246,1.174,3.054,1.527,4.206,2.848-.857,4.07-1.742,8.136-2.554,12.214-.188.94-.454,1.085-1.308.635a25.758,25.758,0,0,0-4.886-2.512" transform="translate(-38.179 -24.191)" fill="#bed4dd"/>
    <path id="Trazado_128009" data-name="Trazado 128009" d="M139.359,105.413c.3,1.42.634,2.833.864,4.263.1.587.419.645.868.763a2.779,2.779,0,0,1-.157,5.513c-.572.139-.628.432-.714.9-.251,1.379-.566,2.747-.856,4.119a4.617,4.617,0,0,1-2.349-.624,1.092,1.092,0,0,1-.062-1.093,35.334,35.334,0,0,0,1.832-13.865.4.4,0,0,1,.576.023" transform="translate(-33.954 -26.123)" fill="#e9b499"/>
    <path id="Trazado_128010" data-name="Trazado 128010" d="M170.4,131.607c-1.463,0-2.928-.051-4.388.018-.987.046-1.322-.345-1.224-1.278a8.339,8.339,0,0,0,0-1.315c-.038-.685.262-.956.948-.952q4.757.026,9.513,0c.779-.007,1.057.319,1,1.05a4.786,4.786,0,0,0,0,1.023c.164,1.159-.3,1.556-1.467,1.482-1.457-.093-2.924-.022-4.387-.022" transform="translate(-40.886 -31.78)" fill="#bed4dd"/>
    <path id="Trazado_128011" data-name="Trazado 128011" d="M72.1,74.568a57.165,57.165,0,0,0-3.115,7.857,38.9,38.9,0,0,0-.94,7.932,97.88,97.88,0,0,0,.253,13.88,28.484,28.484,0,0,0,5.781,14.616A29.982,29.982,0,0,0,90.83,129.885c2.22.578,4.206-.011,6.275-.439a3.31,3.31,0,0,1,.186,2.737,2.507,2.507,0,0,1-1.705,1.021,27.455,27.455,0,0,1-8.493,1.315c-1.433-.012-1.571.187-1.048,1.509a7.585,7.585,0,0,0,3.34,3.937c.527.3,1.216.47,1.334,1.234a.749.749,0,0,1-.692.571c-1.149-.329-2.343.2-3.451-.076a8.656,8.656,0,0,1-5.074-3.2,9.248,9.248,0,0,1-1.9-5.7A5.5,5.5,0,0,0,79.3,129.8c-1.164-.94-2.715-1.057-3.95-1.857-.527-.341-1.174-.513-1.46-1.153a29.842,29.842,0,0,1-12.3-13.457c-.376-.822-.755-1.147-1.637-.672a2.476,2.476,0,0,1-1.66.365c-.822-.721-.75-1.77-.933-2.7a2.539,2.539,0,0,0-1.676-2.293,2.87,2.87,0,0,1-1.792-2.793,2.687,2.687,0,0,1,1.656-2.7,2.785,2.785,0,0,0,1.816-2.545,9.96,9.96,0,0,1,.676-2.536,3.442,3.442,0,0,0,.446-1.94c-.028-1.264.019-2.526-.061-3.788a.75.75,0,0,1,.47-.776c1.415.014,2.836-.031,4.247.062,1.039.068,1.314-.3,1.3-1.313-.049-5.081,0-10.163-.042-15.243-.011-1.122.135-1.578,1.432-1.227,2.061.558,4.239.62,6.272,1.342" transform="translate(-13.37 -18.141)" fill="#e9b498"/>
    <path id="Trazado_128012" data-name="Trazado 128012" d="M32.4,119.027a67.909,67.909,0,0,1,8.495-4.78c1.248-.613,2.172.332,2.936,1.265.444.339.39.866.47,1.328a7.371,7.371,0,0,0,4.206,5.413c.459.235,1.049.3,1.244.907-.8,3.765-1.589,7.535-2.417,11.3a6.166,6.166,0,0,1-5.755,4.8,6.02,6.02,0,0,1-5.862-4.64c-1.174-5.181-2.217-10.391-3.316-15.586" transform="translate(-8.039 -28.301)" fill="#f1efeb"/>
    <path id="Trazado_128013" data-name="Trazado 128013" d="M51.846,120.441c-3.6-1.292-5.872-3.608-5.92-7.649-.152-.694.516-1.607-.552-2.055a8.427,8.427,0,0,1-4.365-4.633c-.339-.908-.235-1.292.873-1.267a23.648,23.648,0,0,0,8.259-1.353,6.162,6.162,0,0,0,.781-.393,1.7,1.7,0,0,0,2.432,1.312,1.527,1.527,0,0,1,1.708.47c-.3,1.422-.634,2.839-.866,4.272-.1.587-.435.634-.876.758a2.872,2.872,0,0,0-2.349,2.791c-.042,1.27.94,2.3,2.542,2.726a.794.794,0,0,1,.68.773c.256,1.431.565,2.85.855,4.274-1.071.516-2.133-.052-3.2-.025" transform="translate(-10.133 -25.58)" fill="#f5c9ad"/>
    <path id="Trazado_128014" data-name="Trazado 128014" d="M80.478,144.506l5.546,2.55a11.2,11.2,0,0,1-5.018,3.032l-.539-.033q0-2.775.012-5.551" transform="translate(-19.967 -35.858)" fill="#fde052"/>
    <path id="Trazado_128015" data-name="Trazado 128015" d="M155.753,83.707l-.47-.007a6.058,6.058,0,0,1-.726.58,7.336,7.336,0,0,1-5.006.284,29.421,29.421,0,0,1-10.524-5.277,4.2,4.2,0,0,1-1.879-3.993,12.732,12.732,0,0,0-.062-3.641,24.531,24.531,0,0,0-7.143-17.265,3.226,3.226,0,0,1,.117-2.139,28.262,28.262,0,0,1,4.167-9.086,3.953,3.953,0,0,1,1.921-1.709q6.306-.022,12.611-.048a1.658,1.658,0,0,1,1.212.383,16.41,16.41,0,0,0,15.821,3.737,1.01,1.01,0,0,1,.291.012c.6,4.07,1.2,8.14,1.811,12.278l5.839-1.719c.849,1.5.393,3.139.39,4.7a21.429,21.429,0,0,1-1.355,6.687,2.394,2.394,0,0,1-.8,1.187,26.8,26.8,0,0,1-16.208,15.033" transform="translate(-32.202 -10.276)" fill="#d2a388"/>
    <path id="Trazado_128016" data-name="Trazado 128016" d="M135.538,41.439a26.361,26.361,0,0,0-6.207,12.932l-1.985-1.543c.477-3.121.981-6.236,1.42-9.362.289-2.058.245-2.058,2.375-2.067.876,0,1.752-.04,2.63-.061l1.769.1" transform="translate(-31.599 -10.257)" fill="#be8d75"/>
    <path id="Trazado_128017" data-name="Trazado 128017" d="M185.881,72.944a30.456,30.456,0,0,0,1.769-12.582q.032-.881.062-1.762c.364.3.045.91.524,1.159q.155.782.311,1.566c.276,1.369.2,2.863,2.155,3.267.881.181,1.1,1.26,1.063,2.207a1.98,1.98,0,0,1-1.318,2.074,2.006,2.006,0,0,0-1.7,2.267,11.744,11.744,0,0,1-.517,2.408c-.88.168-1.551-.47-2.349-.607" transform="translate(-46.123 -14.542)" fill="#be8e75"/>
    <path id="Trazado_128018" data-name="Trazado 128018" d="M104.86,188.007c-.61.049-.526-.446-.617-.8-1.122-4.335-2.231-8.675-3.373-13a2.084,2.084,0,0,1,.362-1.779c1.044-1.644,2.072-3.3,3.106-4.956a.693.693,0,0,1,.814-.066,21.962,21.962,0,0,1,4.739,2.739c-.88,4.054-2.289,7.958-3.375,11.954-.536,1.973-1.1,3.939-1.655,5.908" transform="translate(-25.011 -41.515)" fill="#66b9ec"/>
    <path id="Trazado_128019" data-name="Trazado 128019" d="M109.973,165.335c-2.014-.552-3.536-2.126-5.553-2.673-.918-.962-2.246-1.292-3.265-2.091-.152-.546.415-.292.563-.5l.615-.31c.322-.417.846-.449,1.271-.666a8.054,8.054,0,0,0,4.789-6.8,2.064,2.064,0,0,1,.368-1.371q.034-1.459.066-2.916l.547-.092a3.718,3.718,0,0,1,2.653,1.468l.269.109,2.067,1.422q-1.913,6.476-3.828,12.95a3.536,3.536,0,0,1-.561,1.469" transform="translate(-25.094 -36.703)" fill="#2ba0ce"/>
    <path id="Trazado_128020" data-name="Trazado 128020" d="M92.586,167.474c1.009,1.614,2,3.24,3.037,4.834a2.466,2.466,0,0,1,.344,2.189c-1.133,4.186-2.179,8.4-3.261,12.595-.117.446-.018,1.021-.64,1.2q-2.289-7.929-4.58-15.855c-.188-.653-.331-1.32-.5-1.98a.513.513,0,0,1,.268-.617,40,40,0,0,1,4.5-2.434.728.728,0,0,1,.822.067" transform="translate(-21.581 -41.516)" fill="#66b9ec"/>
    <path id="Trazado_128021" data-name="Trazado 128021" d="M91.15,162.658a31.7,31.7,0,0,0-5.592,2.977l-4.375-14.7L86.2,147.9c.876.214.537.929.546,1.443.036,1.946-.128,3.912.774,5.738,1.9,3.851,5.112,5.275,9.247,4.982l-.563.5a1.536,1.536,0,0,0-1.636-.026,20.538,20.538,0,0,0-3.42,2.114" transform="translate(-20.145 -36.698)" fill="#2ba0ce"/>
    <path id="Trazado_128022" data-name="Trazado 128022" d="M50.836,82.986l-.3.548c-.423,1.051-1.527.994-2.335,1.423a7.247,7.247,0,0,1-1.456.565.718.718,0,0,1-.62-.175c-3.419,1.4-6.61.325-9.683-1.064a24.742,24.742,0,0,1-13.1-13.52c1.237.228,2.364.406,3.348-.47a2.995,2.995,0,0,0,.536-4.287,2.919,2.919,0,0,0-4.373-.412c-.241.193-.4.651-.822.4-.339-.2-.235-.6-.275-.94-.6-4.671-.155-9.362-.284-14.041l1.154-.069c7.12.028,12.07-3.331,15.115-9.929A17.5,17.5,0,0,0,48.458,54.835c-.041.734-.671.554-1.079.66a4.023,4.023,0,0,0-1.9.988c-1.174,1.152-1.115,1.808.235,2.936a2.6,2.6,0,0,1-.008,1.016,2.458,2.458,0,0,0,2.4,2.877c1.554-.012,2.417-1.088,2.318-2.889-.011-.195-.068-.385-.093-.579a1.27,1.27,0,0,1,.031-.409c1.479-1.142,1.476-1.14.433-2.866-.163-.27-.459-.521-.214-.893a.141.141,0,0,1,.109-.039.543.543,0,0,1,.135.047l5.293.621a29.536,29.536,0,0,0-4.478,8.767c-1.587,1.445-2.091,3.075-.855,5q.02,6.454.041,12.907" transform="translate(-5.318 -10.179)" fill="#f5c9ad"/>
    <path id="Trazado_128023" data-name="Trazado 128023" d="M53.041,64.123c-.331-.628-1.731.027-1.507-1.329a4.26,4.26,0,0,1,3.15-3.118c.416-.073.895.133,1.236-.276a7.492,7.492,0,0,1,2.377.846c-.065.918.964,1.2,1.149,2.013.2.874.567,1.677-.89,1.534a.615.615,0,0,0-.587.364.908.908,0,0,1-.742-.3c-1.384-1-1.872-1.016-3.271-.1-.282.184-.529.444-.913.364" transform="translate(-12.782 -14.739)" fill="#e9b498"/>
    <path id="Trazado_128024" data-name="Trazado 128024" d="M139.485,81.632a5.384,5.384,0,0,1,.193,3.151A4.31,4.31,0,0,0,141.688,89a28.258,28.258,0,0,0,11.79,5.48,9.5,9.5,0,0,0,3.57-.532,2.025,2.025,0,0,1-.614,3.2,26.113,26.113,0,0,1-7.3,1.312c-1.584.08-1.8.409-1.057,1.849a7.706,7.706,0,0,0,2.686,2.825c.415.281,1.045.392,1,1.1-.4.412-1.092.092-1.47.571l-.61-.022c-.28-.112-.653.063-.859-.277a10.829,10.829,0,0,0-3.452-3.971,11.781,11.781,0,0,0-2.667-1.022c-.772-.632-.7-1.527-.752-2.389a7.326,7.326,0,0,0-.285-2.983c-.648-.567-1.644-.563-2.172-1.324l-.014-11.182" transform="translate(-34.611 -20.256)" fill="#be8d75"/>
    <path id="Trazado_128025" data-name="Trazado 128025" d="M139.477,96.5l2.294.862a2.3,2.3,0,0,1-2.349,1.426q-.011-.989-.022-1.978l.08-.31" transform="translate(-34.589 -23.946)" fill="#fbdd56"/>
    <path id="Trazado_128026" data-name="Trazado 128026" d="M60.11,78.018c-1.8-1.664-1.432-3.8.854-5q-.427,2.5-.854,5" transform="translate(-14.634 -18.118)" fill="#e7b398"/>
    <path id="Trazado_128027" data-name="Trazado 128027" d="M54.264,99.978l.563.007a9.65,9.65,0,0,1,4.135,2.369c-.039.632.224,1.366-.577,1.745a4.463,4.463,0,0,0-2.712.041c-1.339.409-1.527-.157-1.409-1.238a4.01,4.01,0,0,0-.019-.587l.018-2.341" transform="translate(-13.459 -24.808)" fill="#d7d4cf"/>
    <path id="Trazado_128028" data-name="Trazado 128028" d="M97.091,128.236a15.654,15.654,0,0,1-6.367-1.586c-.868-.371-1.573-.969-1.057-2.033.482-.995,1.259-.8,2.1-.39a12.241,12.241,0,0,0,11.248-.023c.87-.426,1.633-.532,2.082.459s-.173,1.581-1,1.944a16.2,16.2,0,0,1-7.014,1.629" transform="translate(-22.206 -30.743)" fill="#e9b499"/>
    <path id="Trazado_128029" data-name="Trazado 128029" d="M115.058,106.772a3.3,3.3,0,1,1-3.372-3.288,3.333,3.333,0,0,1,3.372,3.288" transform="translate(-26.913 -25.677)" fill="#3e4259"/>
    <path id="Trazado_128030" data-name="Trazado 128030" d="M89.294,106.761a3.3,3.3,0,1,1-3.31-3.286,3.3,3.3,0,0,1,3.31,3.286" transform="translate(-20.521 -25.678)" fill="#3e4259"/>
    <path id="Trazado_128031" data-name="Trazado 128031" d="M98.378,116.559c-.977,0-1.96.068-2.93-.016-.92-.08-1.762-.412-1.715-1.581.045-1.213.882-1.34,1.849-1.329q2.857.033,5.717,0c.9-.009,1.721.1,1.8,1.217.086,1.14-.747,1.569-1.651,1.679a26.19,26.19,0,0,1-3.075.031" transform="translate(-23.258 -28.196)" fill="#e9b499"/>
    <path id="Trazado_128032" data-name="Trazado 128032" d="M139.427,99.077l2.349-1.426c.812.141.545.789.557,1.263a17.038,17.038,0,0,0,.358,4.572,8.9,8.9,0,0,0-2.692.034l-.576-.023V99.076" transform="translate(-34.596 -24.231)" fill="#bfd4dc"/>
    <path id="Trazado_128033" data-name="Trazado 128033" d="M114.747,149.14l-2.653-1.468a1.143,1.143,0,0,1,.235-.168c2.429-.945,2.43-.94,2.421,1.637" transform="translate(-27.814 -36.457)" fill="#f6de5d"/>
    <path id="Trazado_128034" data-name="Trazado 128034" d="M151.91,112.053c.308.028.654-.067.859.277l-.814.424-.045-.7" transform="translate(-37.694 -27.805)" fill="#c5c3c9"/>
    <path id="Trazado_128035" data-name="Trazado 128035" d="M154.274,108.208c-1.8-1.086-3.548-2.219-4.346-4.317-.621-1.644-.493-1.845,1.224-1.85a26.161,26.161,0,0,0,7.013-1.073c1.914-.537,2.114-1.035,1.393-3.048a.607.607,0,0,1,.632-.264c-.224,1.737.154,3.5-.325,5.237-.739,2.684-3.236,5.116-5.6,5.313" transform="translate(-37.119 -24.233)" fill="#d2a388"/>
    <path id="Trazado_128036" data-name="Trazado 128036" d="M107.386,151.919c.227,4.463-2.592,8.339-6.428,8.832-1.388-1.018-3.132-1.6-3.993-3.264-.087-.169-.263-.292-.352-.46-.53-.989-1.328-2.141-.895-3.106.3-.681,1.688-.206,2.584-.229a31.857,31.857,0,0,0,9.088-1.773" transform="translate(-23.719 -37.697)" fill="#f5c9ad"/>
    <path id="Trazado_128037" data-name="Trazado 128037" d="M59.157,101.753a23.438,23.438,0,0,1-4.136-2.369c1.146-.895,2.659-1.014,3.849-1.819.621,1.36.139,2.8.288,4.188" transform="translate(-13.653 -24.209)" fill="#fee053"/>
    <path id="Trazado_128038" data-name="Trazado 128038" d="M151.291,80.4a15.422,15.422,0,0,1-6.332-1.651c-.632-.343-1.093-.735-.731-1.485a1.174,1.174,0,0,1,1.6-.6c1.109.352,2.158.84,3.312,1.111a10.38,10.38,0,0,0,6.524-.856,2.951,2.951,0,0,1,1.393-.373c.521.042.739.39.95.8.235.459-.022.736-.308,1.017a7.311,7.311,0,0,1-3.42,1.566,24.915,24.915,0,0,1-2.989.47" transform="translate(-35.757 -18.992)" fill="#be8e75"/>
    <path id="Trazado_128039" data-name="Trazado 128039" d="M143.976,61.268a3.081,3.081,0,0,1-3,2.968,2.971,2.971,0,1,1-.009-5.942,3.124,3.124,0,0,1,3.01,2.976" transform="translate(-34.267 -14.464)" fill="#3e4259"/>
    <path id="Trazado_128040" data-name="Trazado 128040" d="M166.723,60.876c.018,1.831-.722,2.894-2.268,3.257a2.936,2.936,0,0,1-3.288-1.584,2.9,2.9,0,0,1,.85-3.562,2.8,2.8,0,0,1,4.168.7.737.737,0,0,1-.338.218,2.789,2.789,0,0,1-.572.033.848.848,0,0,0-.951.691.7.7,0,0,0,.274.765c.454.325.808.088,1.13-.244a2.583,2.583,0,0,1,.424-.386.48.48,0,0,1,.567.117" transform="translate(-39.92 -14.475)" fill="#3e4259"/>
    <path id="Trazado_128041" data-name="Trazado 128041" d="M151.949,71.364c-.929,0-1.859.023-2.786-.007-.765-.026-1.4-.412-1.434-1.19a1.348,1.348,0,0,1,1.388-1.409c1.854-.07,3.716-.067,5.572,0,.745.026,1.486.314,1.461,1.292-.025,1-.645,1.334-1.561,1.319-.88-.015-1.762,0-2.64,0Z" transform="translate(-36.657 -17.049)" fill="#be8e75"/>
    <path id="Trazado_128042" data-name="Trazado 128042" d="M168.342,61.327H167.9a.878.878,0,0,1-.42-1.174l.331-.014a1.237,1.237,0,0,1,.534,1.187" transform="translate(-41.543 -14.922)" fill="#5f5e6e"/>
    <path id="Trazado_128043" data-name="Trazado 128043" d="M42.06,86.279a13.22,13.22,0,0,1-5.477-1.425c-.621-.316-1.275-.678-.85-1.564.411-.859,1.017-.841,1.815-.457a10.486,10.486,0,0,0,9.577-.028c.739-.361,1.3-.352,1.721.411.476.862-.1,1.274-.742,1.6a13.213,13.213,0,0,1-6.043,1.463" transform="translate(-8.832 -20.491)" fill="#e9b499"/>
    <path id="Trazado_128044" data-name="Trazado 128044" d="M28.4,63.856c-.587-.141-1.388.318-1.731-.371s.235-1.314.587-1.867a4.133,4.133,0,0,1,6.529-.666,3.739,3.739,0,0,1,.988,2.075c.144,1.219-1.228.5-1.506,1.174a.743.743,0,0,1-.659-.2,2.616,2.616,0,0,0-3.523-.283.9.9,0,0,1-.682.14" transform="translate(-6.592 -14.803)" fill="#e9b498"/>
    <path id="Trazado_128045" data-name="Trazado 128045" d="M28.873,64.867c1.952-1.593,3.144-1.507,4.865.352A2.872,2.872,0,0,1,30.5,69.3c-1.87-.52-2.536-2.219-1.627-4.431" transform="translate(-7.064 -15.819)" fill="#3f425a"/>
    <path id="Trazado_128046" data-name="Trazado 128046" d="M53.452,65.2c1.7-1.823,3.3-1.938,4.442-.324-.09.55-.625.344-.927.538a.779.779,0,0,0-.42.849.53.53,0,0,0,.361.422.774.774,0,0,0,.9-.292c.251-.3.26-.741.587-.994a2.466,2.466,0,0,1-.665,3.36,2.584,2.584,0,0,1-3.254.181A2.638,2.638,0,0,1,53.3,65.77c.055-.187.1-.377.154-.565" transform="translate(-13.193 -15.817)" fill="#3e4259"/>
    <path id="Trazado_128047" data-name="Trazado 128047" d="M43.107,76.158c-.929,0-1.858.022-2.786-.009a1.166,1.166,0,1,1,.028-2.329c1.857-.02,3.714,0,5.572-.012A1.2,1.2,0,0,1,47.213,75.1c.015.752-.594,1.057-1.317,1.057H43.111" transform="translate(-9.702 -18.315)" fill="#e9b498"/>
    <path id="Trazado_128048" data-name="Trazado 128048" d="M59.339,65.771c-.007.193-.007.385-.022.578-.066.879-.517,1.364-1.42,1.25a1,1,0,0,1-.933-1.244c.135-.828.579-1.324,1.527-.961.083.033.227-.09.342-.142l.485.352a.262.262,0,0,0,.022.164" transform="translate(-14.132 -16.191)" fill="#f7f7f8"/>
    <path id="Trazado_128049" data-name="Trazado 128049" d="M114.291,108.057a1.339,1.339,0,0,1-1.434-1.324,1.4,1.4,0,0,1,2.8-.117,1.361,1.361,0,0,1-1.366,1.435" transform="translate(-28.002 -26.113)" fill="#f9f9fa"/>
    <path id="Trazado_128050" data-name="Trazado 128050" d="M88.238,108.059a1.36,1.36,0,0,1-1.372-1.423,1.292,1.292,0,0,1,1.381-1.384,1.307,1.307,0,0,1,1.418,1.482,1.331,1.331,0,0,1-1.426,1.325" transform="translate(-21.555 -26.118)" fill="#fbfbfb"/>
    <path id="Trazado_128051" data-name="Trazado 128051" d="M144.271,61.19c-.129.77-.543,1.275-1.36,1.211a1.142,1.142,0,0,1-1.133-1.264,1.163,1.163,0,0,1,1.334-1.211,1.211,1.211,0,0,1,1.159,1.264" transform="translate(-35.18 -14.869)" fill="#fafafb"/>
    <path id="Trazado_128052" data-name="Trazado 128052" d="M166.825,60.1a2.093,2.093,0,0,1,.42,1.174c-.153.883-.685,1.307-1.549,1.075a1.116,1.116,0,0,1-.854-1.472c.31-1.03,1.079-1.133,1.982-.777" transform="translate(-40.89 -14.867)" fill="#fafafb"/>
    <path id="Trazado_128053" data-name="Trazado 128053" d="M34.347,66.4c-.136.741-.47,1.22-1.233,1.219a1.05,1.05,0,0,1-1.164-1.166,1.091,1.091,0,0,1,1.166-1.187c.742-.009,1.079.509,1.231,1.136" transform="translate(-7.929 -16.196)" fill="#f7f7f8"/>
  </g>
</svg>
