<svg xmlns="http://www.w3.org/2000/svg" xmlns:xlink="http://www.w3.org/1999/xlink" width="151.66" height="163.5" viewBox="0 0 151.66 163.5">
  <defs>
    <clipPath id="clip-path">
      <rect id="Rectángulo_454903" data-name="Rectángulo 454903" width="151.66" height="163.5" fill="none"/>
    </clipPath>
    <clipPath id="clip-path-3">
      <rect id="Rectángulo_454899" data-name="Rectángulo 454899" width="6.453" height="6.106" fill="none"/>
    </clipPath>
    <clipPath id="clip-path-4">
      <rect id="Rectángulo_454900" data-name="Rectángulo 454900" width="4.95" height="3.894" fill="none"/>
    </clipPath>
    <clipPath id="clip-path-5">
      <path id="Trazado_995402" data-name="Trazado 995402" d="M178.919,195.384c-.115.535,10.681,10.324,15,12.016,4.471,1.751,9.321,2.236,14.1,2.7-.6,3.083-4.369,5.027-4.371,8.169a11.155,11.155,0,0,0,1.234,3.876c1.634,4.221.547,8.949-.543,13.342-2.68,10.794-5.3,21.56-6.466,32.594h48.979c-1.761-5.307-3.85-10.3-6.07-15.427-2.511-5.8-5.238-11.825-6.4-17.962,2.214,3.719,5.344,6.963,8.828,11.684a26.631,26.631,0,0,0,8.329-2.765c-.12-6.143-6.16-31.508-8.879-35.866-6.977-11.181-13.167-14.621-17.15-14.455-3.248.134-17.038,1.426-20.661-.533a15.009,15.009,0,0,0-3.675-1.712A16.345,16.345,0,0,0,196.97,191a38.556,38.556,0,0,1-15.548-3.651c-1.626,3.447-1.7,4.309-2.5,8.034" transform="translate(-178.918 -187.35)" fill="none"/>
    </clipPath>
  </defs>
  <g id="Grupo_1177323" data-name="Grupo 1177323" transform="translate(-308.881 -3654.5)">
    <circle id="Elipse_13701" data-name="Elipse 13701" cx="73" cy="73" r="73" transform="translate(311.711 3672)" fill="#f7e869"/>
    <g id="Grupo_1177338" data-name="Grupo 1177338" transform="translate(308.881 3654.5)">
      <g id="Grupo_1177337" data-name="Grupo 1177337" clip-path="url(#clip-path)">
        <g id="Grupo_1177332" data-name="Grupo 1177332">
          <g id="Grupo_1177331" data-name="Grupo 1177331" clip-path="url(#clip-path)">
            <path id="Trazado_995322" data-name="Trazado 995322" d="M271.392,134.983c-4.38-5.6-11.079-4.824-18.08-3.573a10.558,10.558,0,0,0-6.981,4.149l1.722,1.364-.794-.437c5.5,6.394,9.1,16.611,4.6,23.748a116.531,116.531,0,0,1,12.085-.334l.591-3.009.882,2.936c.771.008,3.109-.137,5.716-.294l-.294-.116.846-5.593,1.336,5.6.528-.03,1.095-3.989,1.365,3.86a33.186,33.186,0,0,1,4.195-.049c-1.864-6.864-4.435-18.625-8.815-24.228" transform="translate(-137.511 -72.857)" fill="#6d4009"/>
            <path id="Trazado_995323" data-name="Trazado 995323" d="M109.654,175.16a20.137,20.137,0,0,0-2.879,4.035l2.722-6.526c.015-.036.03-.074.043-.114a.622.622,0,0,0-1.035-.631,21.46,21.46,0,0,0-3.981,5.694q1.3-3.882,2.277-7.862a6.82,6.82,0,0,0,.245-1.675.621.621,0,0,0-1.149-.318,53.949,53.949,0,0,0-4.716,9.509l.949-8.594a.621.621,0,0,0-1.206-.272l-3.492,10.649q-.37-2.486-.74-4.972c-.087-.582-.589-1.356-1.054-.984a.6.6,0,0,0-.2.35c-.436,2.156-.3,4.414-.91,6.527a19.773,19.773,0,0,0-1.1,3.768c-.107,1.308.533,2.826,1.812,3.118-1.072,1.081-12.356,10.415-15.965,14.945a213.147,213.147,0,0,0-17.385-21.573L47.956,198.114c10.931,3.918,19.946,12.044,30.831,16.093a8.074,8.074,0,0,0,2.863.649,7.929,7.929,0,0,0,4.413-1.884c6.725-4.934,14.3-21.5,15.129-22.109.962-.714,4.285-2.132,4.885-3.169,1.935-3.342,3.285-7.926,4.62-11.911a.621.621,0,0,0-1.041-.622" transform="translate(-26.771 -93.488)" fill="#f6a472"/>
            <path id="Trazado_995324" data-name="Trazado 995324" d="M118,244.6a14.744,14.744,0,0,0,1.54,8.008,14.167,14.167,0,0,0,1.195,1.947.3.3,0,0,0,.4.106.3.3,0,0,0,.106-.4,14.09,14.09,0,0,1-2.654-9.656.3.3,0,0,0-.3-.3.3.3,0,0,0-.3.3" transform="translate(-65.838 -136.378)" fill="#844d2f"/>
            <path id="Trazado_995325" data-name="Trazado 995325" d="M159.249,193.49a6.674,6.674,0,0,1,1.374,4.923,6.378,6.378,0,0,1-.348,1.432.3.3,0,0,0,.207.364.3.3,0,0,0,.364-.207,7.263,7.263,0,0,0-.313-5.574,6.929,6.929,0,0,0-.865-1.356.3.3,0,0,0-.418,0,.3.3,0,0,0,0,.418" transform="translate(-88.852 -107.732)" fill="#844d2f"/>
            <path id="Trazado_995326" data-name="Trazado 995326" d="M163.178,191.4a26.731,26.731,0,0,1,4.8,1.322.3.3,0,0,0,.364-.207.3.3,0,0,0-.207-.364,26.731,26.731,0,0,0-4.8-1.322.3.3,0,0,0-.364.207.3.3,0,0,0,.207.364" transform="translate(-90.971 -106.523)" fill="#844d2f"/>
            <path id="Trazado_995327" data-name="Trazado 995327" d="M172.4,199.013a7.137,7.137,0,0,0-4.7,3.7,6.742,6.742,0,0,0-.586,1.642.3.3,0,0,0,.207.364.3.3,0,0,0,.364-.207,6.56,6.56,0,0,1,3.375-4.386,6.078,6.078,0,0,1,1.494-.545.3.3,0,0,0-.157-.571" transform="translate(-93.285 -111.092)" fill="#844d2f"/>
            <path id="Trazado_995328" data-name="Trazado 995328" d="M136.269,198.08a6.719,6.719,0,0,0-.468,2.625,2.288,2.288,0,0,0,1.479,2.046c.466.131.969.055,1.44.167a2.614,2.614,0,0,0,1.066.208c.733-.141.8-1.288.252-1.79a3.082,3.082,0,0,0-2.121-.531,13.451,13.451,0,0,0,4.488-2.783,4.918,4.918,0,0,0-3.721-.408Z" transform="translate(-75.801 -110.206)" fill="#d69d76"/>
            <path id="Trazado_995329" data-name="Trazado 995329" d="M180.677,194.181l-12.892-.653a14.593,14.593,0,0,1-3.007-.363,16.251,16.251,0,0,1-3.821-1.814,71.523,71.523,0,0,0-14.037-6.15c-2.717-.857-6.121-2.7-8.4-.982-6.891,5.2-16.939,2.96-17.64,3.13a.944.944,0,0,0-.05,1.82,55.837,55.837,0,0,0,11.553,2.2,10.674,10.674,0,0,0-1.889,4.343.944.944,0,0,0,1.609.771l6.723-6.836a2.272,2.272,0,0,1,1.141-.761,2.238,2.238,0,0,1,1.49.469,55.636,55.636,0,0,1,6.92,5.014c3.377,2.867,6.743,6.3,11.137,6.866,1.329.171,2.685.061,4.01.26,3.107.466,14.641,4.363,17.69,4.85a1.2,1.2,0,0,0,1.68-.941c1.485-4.529,1.518-7.085,1.188-11.84Z" transform="translate(-67.081 -102.443)" fill="#fbc9a4"/>
            <path id="Trazado_995330" data-name="Trazado 995330" d="M164.259,190.809a7.211,7.211,0,0,0,.231,1.73.444.444,0,1,0,.856-.236q-.05-.193-.09-.39c-.013-.065-.025-.131-.036-.2-.006-.035-.011-.071-.017-.106s-.014-.129,0,0c-.027-.266-.053-.53-.055-.8a.444.444,0,1,0-.888,0" transform="translate(-91.695 -106.269)" fill="#844d2f"/>
            <path id="Trazado_995331" data-name="Trazado 995331" d="M44.984,204.338a98.138,98.138,0,0,0,15.6,15,73.312,73.312,0,0,0,18.354-10.3c-5.725-5.589-15.028-22.645-21.637-24.421Z" transform="translate(-25.112 -103.061)" fill="#4f432c"/>
            <path id="Trazado_995332" data-name="Trazado 995332" d="M58.8,346.252H76.537q-1.464-9.553-3.18-18.878L58.5,337.091l.109,7.023c.063.721.126,1.417.19,2.138" transform="translate(-32.659 -182.752)" fill="#c17c21"/>
            <path id="Trazado_995333" data-name="Trazado 995333" d="M41.129,344.145c2.583-12.169,4.309-20.773,3.638-20.542a73.286,73.286,0,0,0-11.85,3.6L13.6,324.572l-4.76,5.006a92.715,92.715,0,0,0-.929,14.567Z" transform="translate(-4.418 -180.645)" fill="#efa02a"/>
            <path id="Trazado_995334" data-name="Trazado 995334" d="M208.022,210.1c-.6,3.083-4.369,5.027-4.371,8.169a11.158,11.158,0,0,0,1.234,3.876c1.634,4.221.547,8.949-.543,13.342-2.68,10.795-5.3,21.561-6.465,32.594h48.979c-1.761-5.307-3.85-10.3-6.07-15.427-2.51-5.8-5.238-11.825-6.4-17.962,2.215,3.718,5.344,6.962,8.828,11.684a26.637,26.637,0,0,0,8.329-2.765c-.12-6.144-6.16-31.508-8.879-35.866-6.977-11.181-13.167-14.621-17.15-14.455-3.247.134-17.038,1.425-20.661-.533a15.028,15.028,0,0,0-3.675-1.712A16.344,16.344,0,0,0,196.97,191a38.557,38.557,0,0,1-15.548-3.652c-1.626,3.447-1.7,4.309-2.5,8.034-.116.535,10.681,10.324,15,12.016,4.472,1.751,9.322,2.236,14.1,2.7" transform="translate(-99.879 -104.585)" fill="#7d8acc"/>
            <path id="Trazado_995335" data-name="Trazado 995335" d="M20.934,175.785c1.542.307,2.732,1.613,4,2.521a8.311,8.311,0,0,0,3.609,1.809c1.35.173.937-2.364,1.117-3.713.569,2.189,10.73,7.24,12.219,21.4.3,2.862,1.138,5.623,1.194,8.5.269,13.743-.282,28.989-.013,42.732.031,1.6-12.3-.141-15.27.139-9.132.861-16.057,6.558-24.878,4.044,1.846-11.731-7.415-33.093.034-63.339,1.2-4.854,9.067-15.864,17.99-14.09" transform="translate(0 -98.023)" fill="#7f7150"/>
            <path id="Trazado_995336" data-name="Trazado 995336" d="M181.233,202.84l2.114,1.318a.3.3,0,0,0,.3-.511l-2.115-1.318a.3.3,0,0,0-.3.511" transform="translate(-101.089 -112.925)" fill="#212f56"/>
            <path id="Trazado_995337" data-name="Trazado 995337" d="M182.766,198.863a7.191,7.191,0,0,1,1.885,1.219.3.3,0,0,0,.419,0,.3.3,0,0,0,0-.419,7.7,7.7,0,0,0-2.005-1.311.305.305,0,0,0-.4.106.3.3,0,0,0,.106.405" transform="translate(-101.946 -110.708)" fill="#212f56"/>
            <path id="Trazado_995338" data-name="Trazado 995338" d="M183.988,195.443c.076.028.151.057.225.088l.013.006.069.031.11.051q.225.108.44.236t.4.267l.1.072.024.019.047.038c.067.054.132.11.2.167a.3.3,0,0,0,.418-.419,5.853,5.853,0,0,0-1.885-1.128.3.3,0,0,0-.364.207.3.3,0,0,0,.207.364" transform="translate(-102.588 -108.777)" fill="#212f56"/>
            <path id="Trazado_995339" data-name="Trazado 995339" d="M185.567,191.371l.057.023c-.029-.012,0,0,.014.006l.111.049q.111.051.22.106.225.113.44.244t.408.269c.141.1.22.163.361.283a.3.3,0,1,0,.418-.419,6.9,6.9,0,0,0-1.872-1.133.3.3,0,0,0-.364.207.305.305,0,0,0,.207.364" transform="translate(-103.47 -106.503)" fill="#212f56"/>
            <path id="Trazado_995340" data-name="Trazado 995340" d="M244.162,224.154A23.8,23.8,0,0,0,246,219.242a24.052,24.052,0,0,0,.718-5.2,23.383,23.383,0,0,0-.106-2.948.3.3,0,0,0-.3-.3.3.3,0,0,0-.3.3,23.236,23.236,0,0,1-1.236,10.117,22.668,22.668,0,0,1-1.131,2.641.3.3,0,0,0,.106.4.3.3,0,0,0,.4-.106" transform="translate(-135.995 -117.677)" fill="#212f56"/>
            <path id="Trazado_995341" data-name="Trazado 995341" d="M247.584,268.583a17.944,17.944,0,0,1,4.34.383A18.009,18.009,0,0,1,258.2,271.6a.3.3,0,0,0,.3-.511,18.588,18.588,0,0,0-4.015-2.013,18.837,18.837,0,0,0-4.382-1,18.259,18.259,0,0,0-2.519-.091c-.38.013-.382.6,0,.592" transform="translate(-138.051 -149.597)" fill="#212f56"/>
            <path id="Trazado_995342" data-name="Trazado 995342" d="M252.063,272.577a14.684,14.684,0,0,1,4.4,1.946.3.3,0,0,0,.3-.511,15.186,15.186,0,0,0-4.536-2.006.3.3,0,0,0-.157.571" transform="translate(-140.593 -151.838)" fill="#212f56"/>
            <path id="Trazado_995343" data-name="Trazado 995343" d="M237,301.023a25.563,25.563,0,0,1-3.456,4.926q-.578.645-1.2,1.25c-.273.266.145.685.418.418a26.209,26.209,0,0,0,3.875-4.8q.461-.734.872-1.5c.181-.335-.33-.634-.511-.3" transform="translate(-129.656 -167.96)" fill="#212f56"/>
            <path id="Trazado_995344" data-name="Trazado 995344" d="M231.868,202.057l.178-.121-.4-.4A11.558,11.558,0,0,0,230.522,204c-.188.462-.4.914-.6,1.374-.054.127-.108.255-.161.383l-.065.157c-.007.018-.014.035-.022.053.02-.047-.018.042-.018.042-.075.172-.154.342-.23.514a4.547,4.547,0,0,0-.428,1.331.3.3,0,0,0,.3.3.3.3,0,0,0,.3-.3c.007-.06,0-.024,0-.011,0-.021.007-.041.011-.062.008-.043.018-.086.029-.129.023-.091.051-.181.082-.27.061-.179.133-.353.209-.526.162-.368.322-.736.478-1.108.193-.459.4-.911.6-1.369.178-.418.328-.846.493-1.269a5.79,5.79,0,0,1,.659-1.28c.171-.24-.167-.567-.405-.405l-.178.121a.3.3,0,0,0-.107.405.3.3,0,0,0,.405.106" transform="translate(-127.836 -112.419)" fill="#212f56"/>
            <path id="Trazado_995345" data-name="Trazado 995345" d="M235.538,205.119a24.679,24.679,0,0,1-1.09,3.407.3.3,0,0,0,.206.364.3.3,0,0,0,.364-.207,24.681,24.681,0,0,0,1.09-3.407c.089-.37-.481-.528-.571-.157" transform="translate(-130.869 -114.387)" fill="#212f56"/>
            <path id="Trazado_995346" data-name="Trazado 995346" d="M245.034,219.1l1.413,1.613a.3.3,0,0,0,.418,0,.3.3,0,0,0,0-.418l-1.413-1.613a.3.3,0,0,0-.418,0,.3.3,0,0,0,0,.418" transform="translate(-136.74 -122.031)" fill="#212f56"/>
            <path id="Trazado_995347" data-name="Trazado 995347" d="M205.886,217.031a12.768,12.768,0,0,1-.2,3.347.3.3,0,0,0,.207.364.3.3,0,0,0,.364-.207,13.376,13.376,0,0,0,.226-3.5.3.3,0,0,0-.3-.3.3.3,0,0,0-.3.3" transform="translate(-114.815 -120.989)" fill="#212f56"/>
            <path id="Trazado_995348" data-name="Trazado 995348" d="M208.885,220.616a3.083,3.083,0,0,0,.156,1.781.3.3,0,0,0,.364.207.3.3,0,0,0,.207-.364,2.819,2.819,0,0,1-.129-.386c-.016-.065-.031-.132-.042-.2,0-.029-.01-.057-.014-.086.008.057,0-.04,0-.051a2.7,2.7,0,0,1-.01-.391c0-.068.009-.135.016-.2-.006.059.005-.033.006-.036.006-.038.013-.076.021-.114a.3.3,0,1,0-.571-.157" transform="translate(-116.571 -123.036)" fill="#212f56"/>
            <path id="Trazado_995349" data-name="Trazado 995349" d="M38.406,348.633a23.248,23.248,0,0,1-3.114,3.35,19.867,19.867,0,0,1-3.643,2.509,24.819,24.819,0,0,1-2.425,1.138.306.306,0,0,0-.207.364.3.3,0,0,0,.364.207,23.791,23.791,0,0,0,4.271-2.223,20.638,20.638,0,0,0,3.488-2.951,26.679,26.679,0,0,0,1.777-2.1.3.3,0,0,0-.106-.4.3.3,0,0,0-.405.106" transform="translate(-16.192 -194.538)" fill="#c17c21"/>
            <path id="Trazado_995350" data-name="Trazado 995350" d="M9.56,339.439a15.134,15.134,0,0,0,6.906.591,37.739,37.739,0,0,0,6.938-1.681,72.289,72.289,0,0,1,7.016-2.066,18.081,18.081,0,0,1,7.119-.243c2.224.411,4.545,1.207,6.816.659a5.629,5.629,0,0,0,.8-.258.305.305,0,0,0,.206-.364.3.3,0,0,0-.364-.207c-2.147.872-4.476.177-6.635-.271a17.811,17.811,0,0,0-3.509-.412,19.912,19.912,0,0,0-3.571.326,51.327,51.327,0,0,0-7.041,1.942,47.5,47.5,0,0,1-6.851,1.847,15.888,15.888,0,0,1-6.839-.173c-.28-.077-.556-.165-.829-.261-.36-.127-.515.445-.157.571" transform="translate(-5.224 -187.113)" fill="#4f432c"/>
            <path id="Trazado_995351" data-name="Trazado 995351" d="M74.913,283.18a3.919,3.919,0,0,0-.143,1.951.3.3,0,0,0,.364.207.3.3,0,0,0,.206-.364,2.541,2.541,0,0,1-.04-.381,3.215,3.215,0,0,1,.183-1.255.3.3,0,0,0-.207-.364.3.3,0,0,0-.364.207" transform="translate(-41.705 -157.961)" fill="#4f432c"/>
            <path id="Trazado_995352" data-name="Trazado 995352" d="M80.619,285.081v.594a.307.307,0,0,0,.087.209.3.3,0,0,0,.418,0,.307.307,0,0,0,.087-.209v-.594a.305.305,0,0,0-.087-.209.3.3,0,0,0-.418,0,.308.308,0,0,0-.087.209" transform="translate(-45.004 -158.977)" fill="#4f432c"/>
            <path id="Trazado_995353" data-name="Trazado 995353" d="M49.161,232.766a33.182,33.182,0,0,1,2.563-3.012,34.346,34.346,0,0,1,2.94-2.729,33.92,33.92,0,0,1,3.194-2.334,34.383,34.383,0,0,1,3.473-1.967A33.138,33.138,0,0,1,65,221.185q.234-.082.47-.16a.3.3,0,0,0,.207-.364.3.3,0,0,0-.364-.207,34.407,34.407,0,0,0-7.33,3.459,35.324,35.324,0,0,0-3.332,2.367,34.387,34.387,0,0,0-3.008,2.713,33.921,33.921,0,0,0-2.676,3.065c-.105.136-.209.272-.312.41a.3.3,0,0,0,.106.4.3.3,0,0,0,.4-.106" transform="translate(-27.134 -123.059)" fill="#4f432c"/>
            <path id="Trazado_995354" data-name="Trazado 995354" d="M51.811,241.272A51.58,51.58,0,0,1,63.5,231.418q1.841-1.134,3.774-2.11a.3.3,0,0,0,.106-.4.3.3,0,0,0-.405-.106,51.865,51.865,0,0,0-6.607,3.983,52.566,52.566,0,0,0-5.974,4.935q-1.568,1.5-3.006,3.138a.3.3,0,0,0,0,.418.3.3,0,0,0,.418,0" transform="translate(-28.643 -127.702)" fill="#4f432c"/>
            <path id="Trazado_995355" data-name="Trazado 995355" d="M5.634,215.283c-.47,8.464-.535,12.159-.453,20.635.015,1.529.089,3.2,1.092,4.352,1.382,1.59,3.836,1.491,5.929,1.26,5.543-.614,11.458-1.4,15.653-5.079,2.063-1.808,16.638-15.158,17.991-17.961a10.792,10.792,0,0,0,1.384-4.581,3.906,3.906,0,0,0-2.417-3.8c-.922-2.79-2.185-5.9-4.386-7.607a.92.92,0,0,0-1.335,1.224c.4.62.819,1.229,1.167,1.873.769,1.423,1.083,3.379-.065,4.519a2.525,2.525,0,0,1-1.3-2.467c-.019-1.238.276-2.547-.6-3.607a1.4,1.4,0,0,0-1.629-.416c-.629.28-.741.932-.826,1.526l-1.182,8.323a19.949,19.949,0,0,0-.205,6.5A2.33,2.33,0,0,1,34.5,221c-.174.652-.9.963-1.538,1.184L16.4,227.914c2.676-5.508,3.991-4.7,4.086-10.822a25.964,25.964,0,0,0-14.856-1.809" transform="translate(-2.875 -112.931)" fill="#f6a472"/>
            <path id="Trazado_995356" data-name="Trazado 995356" d="M93.83,219.206a2.852,2.852,0,0,1-.08,1.911.3.3,0,0,0,.207.364.3.3,0,0,0,.364-.207,3.408,3.408,0,0,0,.08-2.225.3.3,0,0,0-.571.157" transform="translate(-52.326 -122.16)" fill="#844d2f"/>
            <path id="Trazado_995357" data-name="Trazado 995357" d="M97.724,222.157V225a.3.3,0,0,0,.592,0v-2.839a.3.3,0,0,0-.592,0" transform="translate(-54.553 -123.857)" fill="#844d2f"/>
            <path id="Trazado_995358" data-name="Trazado 995358" d="M90.847,221.626l3.708,3.28a.3.3,0,0,0,.418,0,.3.3,0,0,0,0-.419l-3.708-3.279a.3.3,0,0,0-.418,0,.3.3,0,0,0,0,.418" transform="translate(-50.666 -123.439)" fill="#844d2f"/>
            <path id="Trazado_995359" data-name="Trazado 995359" d="M70.37,246.269a10.249,10.249,0,0,0,1.73,1.97.3.3,0,0,0,.419,0,.3.3,0,0,0,0-.419,9.956,9.956,0,0,1-.893-.888,9.019,9.019,0,0,1-.744-.963.3.3,0,0,0-.405-.106.3.3,0,0,0-.106.4" transform="translate(-39.26 -137.228)" fill="#844d2f"/>
            <path id="Trazado_995360" data-name="Trazado 995360" d="M24.67,259.659a13.35,13.35,0,0,0-3.96,6.072,12.756,12.756,0,0,0-.453,2,.306.306,0,0,0,.207.364.3.3,0,0,0,.364-.207,12.686,12.686,0,0,1,4.261-7.812.3.3,0,0,0,0-.418.3.3,0,0,0-.418,0" transform="translate(-11.306 -144.904)" fill="#844d2f"/>
            <path id="Trazado_995361" data-name="Trazado 995361" d="M40.171,212.414a66.23,66.23,0,0,0-.041-6.99,66.9,66.9,0,0,0-.781-6.977q-.32-1.938-.756-3.853a.3.3,0,1,0-.571.157,65.431,65.431,0,0,1,1.175,6.81,66.127,66.127,0,0,1,.451,6.927q.025,1.964-.068,3.926a.3.3,0,1,0,.592,0" transform="translate(-21.221 -108.508)" fill="#4f432c"/>
            <path id="Trazado_995362" data-name="Trazado 995362" d="M9.218,226.86a25.308,25.308,0,0,1,10.668.837,24.7,24.7,0,0,1,2.835,1.039.305.305,0,0,0,.4-.106.3.3,0,0,0-.106-.4,25.767,25.767,0,0,0-5.289-1.674,25.637,25.637,0,0,0-8.67-.261.3.3,0,0,0-.206.364.3.3,0,0,0,.364.207" transform="translate(-4.937 -126.184)" fill="#4f432c"/>
            <path id="Trazado_995363" data-name="Trazado 995363" d="M39.988,175.7c-.088,2.107-.18,4.678,1.448,6.018a20.6,20.6,0,0,0,5.578,2.929,3.739,3.739,0,0,0,2.659.357,2.659,2.659,0,0,0,1.481-2.329,5.845,5.845,0,0,0-3.049-5.207,14.387,14.387,0,0,0-6.087-1.642c-1.07-.1-1.031-.525-2.029-.127" transform="translate(-22.3 -97.987)" fill="#4f432c"/>
            <path id="Trazado_995364" data-name="Trazado 995364" d="M47.128,149.23c-.359.1-.432.568-.411.939a9.361,9.361,0,0,0,2.826,6.154q2.044-4.772,4.4-9.4Z" transform="translate(-26.077 -82.018)" fill="#873139"/>
            <path id="Trazado_995365" data-name="Trazado 995365" d="M65.593,133.192c-2.152-1.222.045-4.965-.338-7.41l-1.3-.518a136.51,136.51,0,0,0-14.834-.545,51.413,51.413,0,0,1,.031,7.967,3.342,3.342,0,1,0-1.746,5.985,89.494,89.494,0,0,1-4.343,9.018,2.87,2.87,0,0,0,.884,3.764,34.562,34.562,0,0,0,5.486,3.042,1.616,1.616,0,0,0,1.046.194,1.653,1.653,0,0,0,.821-.725c.7-.985,3.841-5.649,3.82-5.583-.13.405,8.273,2.023,9.345.42A4.3,4.3,0,0,0,65,147.358a22.369,22.369,0,0,0,.489-4.111l-3.647.187a3.545,3.545,0,0,1,3.744-2.243c.03-.521.07-1.051.13-1.6,1.1.17,3.576.435,4.615.034-2.392-.635,0-3.748-4.737-6.437" transform="translate(-23.84 -69.611)" fill="#f6a472"/>
            <g id="Grupo_1177327" data-name="Grupo 1177327" transform="translate(24.831 75.255)" opacity="0.72">
              <g id="Grupo_1177326" data-name="Grupo 1177326">
                <g id="Grupo_1177325" data-name="Grupo 1177325" clip-path="url(#clip-path-3)">
                  <path id="Trazado_995366" data-name="Trazado 995366" d="M62.663,173.867l-6.453-3.516,4.89,6.105Z" transform="translate(-56.21 -170.352)" fill="#844d2f"/>
                </g>
              </g>
            </g>
            <path id="Trazado_995367" data-name="Trazado 995367" d="M50.851,145.143a2.133,2.133,0,0,1,1.514,2.2.3.3,0,0,0,.3.3.3.3,0,0,0,.3-.3,2.724,2.724,0,0,0-1.949-2.768.3.3,0,0,0-.157.571" transform="translate(-28.27 -80.699)" fill="#844d2f"/>
            <path id="Trazado_995368" data-name="Trazado 995368" d="M50.942,147.832l1.379-.242a.3.3,0,0,0,.207-.364.3.3,0,0,0-.364-.207l-1.379.242a.3.3,0,0,0-.207.364.3.3,0,0,0,.364.207" transform="translate(-28.228 -82.068)" fill="#844d2f"/>
            <path id="Trazado_995369" data-name="Trazado 995369" d="M85.528,149.987c0,.783-.405,1.418-.905,1.418s-.9-.635-.9-1.418.405-1.418.9-1.418.905.634.905,1.418" transform="translate(-46.734 -82.937)"/>
            <path id="Trazado_995370" data-name="Trazado 995370" d="M49,120.964q.126,2.454.251,4.908a2.362,2.362,0,0,0,1.68-.186q-.042-5.11-.084-10.22A56.988,56.988,0,0,0,63.051,118.1a11.173,11.173,0,0,0,3.968-.113,4.342,4.342,0,0,0,3-2.4,1.742,1.742,0,0,0,.034-1.406,1.965,1.965,0,0,0-2.223-.69,7.147,7.147,0,0,1-2.453.442c1.8-.7,3.77-2.35,3.146-4.18a2.866,2.866,0,0,0-3.234-1.6,7.132,7.132,0,0,0-3.352,1.947c.8-.816,1.592-2.234.692-2.941a1.578,1.578,0,0,0-.978-.277c-2.822-.013-4.688,3.376-7.5,3.607a8.721,8.721,0,0,1-3.172-.627,4.731,4.731,0,0,0-3.186-.111,1.927,1.927,0,0,0-1.05,2.645,2.19,2.19,0,0,0-3.319,1.895,4.92,4.92,0,0,0,.526,1.444,13.5,13.5,0,0,1,1.086,7.743,6.742,6.742,0,0,1,4.211-1.03Z" transform="translate(-24.237 -59.666)" fill="#873139"/>
            <path id="Trazado_995371" data-name="Trazado 995371" d="M83.789,145.3a1.677,1.677,0,0,1-1.174,1.824,3.452,3.452,0,0,1-2.322-.191c-.741-.283-1.437-.681-2.2-.906a3.005,3.005,0,0,1,2.5-1.338,8.867,8.867,0,0,1,2.9.52Z" transform="translate(-43.595 -80.768)" fill="#873139"/>
            <path id="Trazado_995372" data-name="Trazado 995372" d="M266.509,202.005a2.781,2.781,0,0,0-.626,5.122,5,5,0,0,0,2.613.431,23.347,23.347,0,0,0,4.656-.637,5.3,5.3,0,0,0,1.633-.615,2.1,2.1,0,0,0,.99-1.384,3.124,3.124,0,0,0-.125-1.2,3.294,3.294,0,0,0-.5-1.248,3,3,0,0,0-1.991-.942,12.619,12.619,0,0,0-6.137.551Z" transform="translate(-147.624 -112.416)" fill="#212f56"/>
            <path id="Trazado_995373" data-name="Trazado 995373" d="M241,143.525c.01,2.691-.051,12.364-.189,12.812-.018.058-4.54-.192-4.478-.11,0,0,4.658,3.309,4.637,3.323-.134.1.021,1.291-.305,2.59-.043-.019,2.061-1.8,3.272-1.342s2.132,1.532,1.673,2.745h-4.873a9.281,9.281,0,0,0,.527,3.951c.049.114,7.266-.713,8.814-1.676-.019.826.31,5.237.274,5.759-.186,2.727,8.6,1.507,8.166-.79-.37-1.955-.785-6.98-1.3-10.041a3.108,3.108,0,0,0,4.387.057,3.46,3.46,0,0,0,.09-4.493,3.907,3.907,0,0,0-4.494-.93l-1.677-11.645Z" transform="translate(-131.927 -80.121)" fill="#fbc9a4"/>
            <path id="Trazado_995374" data-name="Trazado 995374" d="M246.407,140.17c.035,3.339,1.384,3.938,4.511,5.108,7.507,2.808,10.286,9.611,8.721,10.545a2.892,2.892,0,0,0,2.818-.868,8.516,8.516,0,0,0,1.589-2.643,4.654,4.654,0,0,1,3.649,1.494,100.924,100.924,0,0,0-3.07-11.929,4.5,4.5,0,0,0-.8-1.786c-.872-1.008-2.39-1.064-3.722-1.024-4.69.142-8.825.452-13.479,1.041Z" transform="translate(-137.553 -77.628)" fill="#6d4009"/>
            <g id="Grupo_1177330" data-name="Grupo 1177330" transform="translate(118.146 84.279)" opacity="0.66">
              <g id="Grupo_1177329" data-name="Grupo 1177329">
                <g id="Grupo_1177328" data-name="Grupo 1177328" clip-path="url(#clip-path-4)">
                  <path id="Trazado_995375" data-name="Trazado 995375" d="M267.441,192.2l4.949-1.419-4.687,3.894Z" transform="translate(-267.441 -190.778)" fill="#b47248"/>
                </g>
              </g>
            </g>
            <path id="Trazado_995376" data-name="Trazado 995376" d="M255.244,171.177c0,.618-.334,1.119-.746,1.119s-.747-.5-.747-1.119.334-1.119.747-1.119.746.5.746,1.119" transform="translate(-141.653 -94.933)"/>
            <path id="Trazado_995377" data-name="Trazado 995377" d="M251.485,165.828a1.96,1.96,0,0,0,.659.986,11.124,11.124,0,0,1,3.873-2.3,6.967,6.967,0,0,0-3.988.33c-.341.176-.693.547-.524.891Z" transform="translate(-140.374 -91.763)" fill="#6d4009"/>
            <path id="Trazado_995378" data-name="Trazado 995378" d="M245.7,141.109a5.294,5.294,0,0,0-1,3.561,15.737,15.737,0,0,0,.777,3.689,8.975,8.975,0,0,1,1.05-2.714,11.253,11.253,0,0,0,1.408,4.938,5.142,5.142,0,0,1,.5-4.722,19.877,19.877,0,0,0,2.31,4.495,7.337,7.337,0,0,1,2.478-5.55Z" transform="translate(-136.598 -78.772)" fill="#6d4009"/>
            <path id="Trazado_995379" data-name="Trazado 995379" d="M245.748,139.2a5.476,5.476,0,0,0-2.567,2.4,6.111,6.111,0,0,0-.751,3.446,5.234,5.234,0,0,0,.551,1.936c.087.17.342.02.256-.149a5.176,5.176,0,0,1-.438-3.3,5.827,5.827,0,0,1,1.525-2.993,4.951,4.951,0,0,1,1.573-1.09c.174-.076.024-.33-.149-.255" transform="translate(-135.321 -77.7)" fill="#6d4009"/>
            <path id="Trazado_995380" data-name="Trazado 995380" d="M275.592,147.17c-.528-6.092-4.862-12.249-8.927-16.817,1.34-.235,4.055-.246,5.395-.481a1.493,1.493,0,0,1,.979.05,1.407,1.407,0,0,1,.444.46c3.089,4.447,3.345,10.25,2.922,15.648-.042.538-.286,1.249-.822,1.183Z" transform="translate(-148.862 -72.467)" fill="#efa02a"/>
          </g>
        </g>
        <g id="Grupo_1177334" data-name="Grupo 1177334" transform="translate(79.039 82.764)">
          <g id="Grupo_1177333" data-name="Grupo 1177333" clip-path="url(#clip-path-5)">
            <path id="Trazado_995381" data-name="Trazado 995381" d="M278.529,240.231a1.578,1.578,0,1,1-1.578-1.578,1.578,1.578,0,0,1,1.578,1.578" transform="translate(-232.763 -215.989)" fill="#fff"/>
            <path id="Trazado_995382" data-name="Trazado 995382" d="M261.56,215a1.578,1.578,0,1,1-1.578-1.578A1.579,1.579,0,0,1,261.56,215" transform="translate(-223.29 -201.904)" fill="#fff"/>
            <path id="Trazado_995383" data-name="Trazado 995383" d="M293.935,213.437a1.578,1.578,0,1,1-1.578-1.578,1.578,1.578,0,0,1,1.578,1.578" transform="translate(-241.363 -201.032)" fill="#fff"/>
            <path id="Trazado_995384" data-name="Trazado 995384" d="M312.691,253.626a1.578,1.578,0,1,1-1.578-1.578,1.578,1.578,0,0,1,1.578,1.578" transform="translate(-251.833 -223.467)" fill="#fff"/>
            <path id="Trazado_995385" data-name="Trazado 995385" d="M249.28,275.508a1.578,1.578,0,1,1-1.578-1.578,1.578,1.578,0,0,1,1.578,1.578" transform="translate(-216.435 -235.682)" fill="#fff"/>
            <path id="Trazado_995386" data-name="Trazado 995386" d="M242.358,243.133a1.578,1.578,0,1,1-1.578-1.578,1.579,1.579,0,0,1,1.578,1.578" transform="translate(-212.571 -217.609)" fill="#fff"/>
            <path id="Trazado_995387" data-name="Trazado 995387" d="M224.943,227.726a1.578,1.578,0,1,1-1.578-1.578,1.578,1.578,0,0,1,1.578,1.578" transform="translate(-202.849 -209.008)" fill="#fff"/>
            <path id="Trazado_995388" data-name="Trazado 995388" d="M216.681,205.846a1.578,1.578,0,1,1-1.578-1.578,1.578,1.578,0,0,1,1.578,1.578" transform="translate(-198.237 -196.794)" fill="#fff"/>
            <path id="Trazado_995389" data-name="Trazado 995389" d="M196.81,190.216a1.578,1.578,0,1,1-1.578-1.578,1.578,1.578,0,0,1,1.578,1.578" transform="translate(-187.144 -188.069)" fill="#fff"/>
            <path id="Trazado_995390" data-name="Trazado 995390" d="M192.791,209.418a1.578,1.578,0,1,1-1.578-1.578,1.578,1.578,0,0,1,1.578,1.578" transform="translate(-184.901 -198.788)" fill="#fff"/>
            <path id="Trazado_995391" data-name="Trazado 995391" d="M179.171,196.691a1.578,1.578,0,1,1-1.578-1.578,1.578,1.578,0,0,1,1.578,1.578" transform="translate(-177.297 -191.684)" fill="#fff"/>
            <path id="Trazado_995392" data-name="Trazado 995392" d="M245.707,199.371a1.578,1.578,0,1,1-1.578-1.578,1.578,1.578,0,0,1,1.578,1.578" transform="translate(-214.44 -193.18)" fill="#fff"/>
            <path id="Trazado_995393" data-name="Trazado 995393" d="M278.529,322.843a1.578,1.578,0,1,1-1.578-1.578,1.578,1.578,0,0,1,1.578,1.578" transform="translate(-232.763 -262.106)" fill="#fff"/>
            <path id="Trazado_995394" data-name="Trazado 995394" d="M321.845,228.174a1.578,1.578,0,1,1-1.578-1.578,1.578,1.578,0,0,1,1.578,1.578" transform="translate(-256.943 -209.259)" fill="#fff"/>
            <path id="Trazado_995395" data-name="Trazado 995395" d="M287.237,289.128a1.578,1.578,0,1,1-1.578-1.578,1.578,1.578,0,0,1,1.578,1.578" transform="translate(-237.624 -243.285)" fill="#fff"/>
            <path id="Trazado_995396" data-name="Trazado 995396" d="M331,294.04a1.578,1.578,0,1,1-1.578-1.578A1.578,1.578,0,0,1,331,294.04" transform="translate(-262.053 -246.027)" fill="#fff"/>
            <path id="Trazado_995397" data-name="Trazado 995397" d="M335.465,265.907a1.578,1.578,0,1,1-1.578-1.578,1.578,1.578,0,0,1,1.578,1.578" transform="translate(-264.546 -230.323)" fill="#fff"/>
            <path id="Trazado_995398" data-name="Trazado 995398" d="M304.653,357.675a1.578,1.578,0,1,1-1.578-1.578,1.578,1.578,0,0,1,1.578,1.578" transform="translate(-247.346 -281.551)" fill="#fff"/>
            <path id="Trazado_995399" data-name="Trazado 995399" d="M314.7,325.3a1.578,1.578,0,1,1-1.578-1.578A1.578,1.578,0,0,1,314.7,325.3" transform="translate(-252.955 -263.477)" fill="#fff"/>
            <path id="Trazado_995400" data-name="Trazado 995400" d="M240.349,332a1.578,1.578,0,1,1-1.578-1.578A1.578,1.578,0,0,1,240.349,332" transform="translate(-211.449 -267.217)" fill="#fff"/>
            <path id="Trazado_995401" data-name="Trazado 995401" d="M222.04,355.219a1.578,1.578,0,1,1-1.578-1.578,1.578,1.578,0,0,1,1.578,1.578" transform="translate(-201.228 -280.18)" fill="#fff"/>
          </g>
        </g>
        <g id="Grupo_1177336" data-name="Grupo 1177336">
          <g id="Grupo_1177335" data-name="Grupo 1177335" clip-path="url(#clip-path)">
            <path id="Trazado_995403" data-name="Trazado 995403" d="M241.81,54.084c3.933-2,6.315-6.323,6.857-10.7s-.529-10.779-2.073-14.91c-.817-2.185-1.914-4.481-3.987-5.549a6.738,6.738,0,0,0-4.548-.792c-8.073,1.98-4.214.918-19.788,3.527-2.352.394-4.908.94-6.4,2.8-1.251,1.553-1.624,22.825-.017,25.368s11.942,1.4,11.942,1.4l2.23,14.009,3.148-12.067a2.85,2.85,0,0,1,3.639-2.608" transform="translate(-117.666 -12.282)" fill="#3d4b84"/>
            <path id="Trazado_995404" data-name="Trazado 995404" d="M234.783,48.784v-4.5H252.8v4.5l-8.624,10.891h-7.513l9.758-10.891Z" transform="translate(-131.065 -24.72)" fill="#fff"/>
            <path id="Trazado_995405" data-name="Trazado 995405" d="M62.81,32.084c3.933-2,6.315-6.323,6.857-10.7s-.529-10.779-2.073-14.91C66.777,4.29,65.68,1.994,63.607.926A6.738,6.738,0,0,0,59.059.134c-8.073,1.98-4.214.918-19.788,3.527-2.352.394-4.908.94-6.4,2.8-1.251,1.553-1.623,22.825-.017,25.368s11.942,1.4,11.942,1.4l2.23,14.009L50.17,35.163a3.8,3.8,0,0,1,1.035-2.07,3.807,3.807,0,0,1,2.6-.538" transform="translate(-17.741 -0.001)" fill="#3d4b84"/>
            <path id="Trazado_995406" data-name="Trazado 995406" d="M72.87,29.49a3.636,3.636,0,0,1,2.439,3.367c0,3.207-3.482,4.707-9.517,4.707-5.967,0-10.01-1.031-10.01-6.162H61.8c-.023,1.638,1.889,1.569,4.237,1.6,2.256,0,3.252-.367,3.252-1.18,0-1-.607-.985-5.337-.985V28.15c4.73,0,5.337-.012,5.337-.985,0-.813-1.088-1.2-3.252-1.191-2.348.034-4.26-.023-4.237,1.615H55.783c0-5.131,4.043-6.161,10.01-6.161,6.035,0,9.517,1.489,9.517,4.707A3.621,3.621,0,0,1,72.87,29.49" transform="translate(-31.14 -11.961)" fill="#fff"/>
          </g>
        </g>
      </g>
    </g>
  </g>
</svg>
