<svg xmlns="http://www.w3.org/2000/svg" width="160.297" height="162.577" viewBox="0 0 160.297 162.577">
  <g id="Grupo_1177474" data-name="Grupo 1177474" transform="translate(-305.711 -2256)">
    <circle id="Elipse_13703" data-name="Elipse 13703" cx="75" cy="75" r="75" transform="translate(311.711 2262)" fill="#f7e869"/>
    <g id="apreton-de-manos" transform="translate(303.711 2254.455)">
      <g id="Grupo_1177458" data-name="Grupo 1177458" transform="translate(2 72.589)">
        <g id="Grupo_1177457" data-name="Grupo 1177457">
          <g id="Grupo_1177456" data-name="Grupo 1177456">
            <g id="Grupo_1177433" data-name="Grupo 1177433" transform="translate(65.702 18.698)">
              <path id="Trazado_995630" data-name="Trazado 995630" d="M53.479,46.868l-10.72,4.383a11.936,11.936,0,0,1-14.051-3.882,2.244,2.244,0,0,1-.476-1.378,2.358,2.358,0,0,1,1.2-2.053l11.772-6.562a20.785,20.785,0,0,1,4.483,2.906Z" transform="translate(-28.232 -37.375)" fill="#ffd8a4"/>
            </g>
            <g id="Grupo_1177434" data-name="Grupo 1177434" transform="translate(25.301 16.657)">
              <path id="Trazado_995631" data-name="Trazado 995631" d="M110.535,79.428a6.177,6.177,0,0,1-1.453,3.581,6.461,6.461,0,0,1-4.984,2.33,6.393,6.393,0,0,1-3.857-1.3l1.3.977a6.157,6.157,0,0,1,1.227,8.616v.024A6.141,6.141,0,0,1,94.2,94.931L71.537,78.476,91.925,93.3a6.1,6.1,0,0,1-3.581,11.045,6.158,6.158,0,0,1-3.531-1.126l-4.383-3.106a6.27,6.27,0,0,1-7.113,10.319l-8.691-5.611L18.89,75.27,12.1,70.887,31.589,38.752l22.992-2.1A20.862,20.862,0,0,1,65.476,38.6L53.7,45.164a2.358,2.358,0,0,0-1.2,2.053,2.244,2.244,0,0,0,.476,1.378,11.936,11.936,0,0,0,14.051,3.882l10.72-4.383.05.05,30.481,25.8a6.4,6.4,0,0,1,2.255,5.485Z" transform="translate(-12.102 -36.56)" fill="#ffd8a4"/>
            </g>
            <g id="Grupo_1177435" data-name="Grupo 1177435" transform="translate(65.702 14.655)">
              <path id="Trazado_995632" data-name="Trazado 995632" d="M99.088,69.334,86.314,80.68l-.05-.05a6.4,6.4,0,0,0-2.255-5.485l-30.481-25.8-.05-.05L42.759,53.68A11.936,11.936,0,0,1,28.708,49.8a2.244,2.244,0,0,1-.476-1.378,2.358,2.358,0,0,1,1.2-2.053L41.206,39.8l5.535-3.081a7.849,7.849,0,0,1,5.961-.651l13.1,3.882a9.858,9.858,0,0,0,6.012-.15l7.839-2.755Z" transform="translate(-28.232 -35.761)" fill="#efb7a8"/>
            </g>
            <g id="Grupo_1177440" data-name="Grupo 1177440" transform="translate(31.508 49.147)">
              <g id="Grupo_1177436" data-name="Grupo 1177436">
                <path id="Trazado_995633" data-name="Trazado 995633" d="M30.737,59.516l-4.962,6.6a6.218,6.218,0,0,1-8.714,1.238l-.007,0a6.238,6.238,0,0,1-1.22-8.729l4.962-6.6a6.218,6.218,0,0,1,8.714-1.238l.007,0A6.238,6.238,0,0,1,30.737,59.516Z" transform="translate(-14.58 -49.532)" fill="#efb7a8"/>
              </g>
              <g id="Grupo_1177437" data-name="Grupo 1177437" transform="translate(29.822 22.486)">
                <path id="Trazado_995634" data-name="Trazado 995634" d="M42.644,68.494l-4.962,6.6a6.218,6.218,0,0,1-8.714,1.238l-.007,0a6.238,6.238,0,0,1-1.22-8.729L32.7,61a6.218,6.218,0,0,1,8.714-1.238l.007,0a6.238,6.238,0,0,1,1.22,8.729Z" transform="translate(-26.487 -58.51)" fill="#efb7a8"/>
              </g>
              <g id="Grupo_1177438" data-name="Grupo 1177438" transform="translate(19.119 13.977)">
                <path id="Trazado_995635" data-name="Trazado 995635" d="M39.9,65.1l-6.487,8.628A6.218,6.218,0,0,1,24.7,74.962l-.007,0a6.238,6.238,0,0,1-1.22-8.729L29.955,57.6a6.218,6.218,0,0,1,8.714-1.238l.007,0A6.238,6.238,0,0,1,39.9,65.1Z" transform="translate(-22.213 -55.112)" fill="#efb7a8"/>
              </g>
              <g id="Grupo_1177439" data-name="Grupo 1177439" transform="translate(8.289 5.298)">
                <path id="Trazado_995636" data-name="Trazado 995636" d="M37.351,61.632,29.085,72.626a6.218,6.218,0,0,1-8.714,1.238l-.007,0a6.238,6.238,0,0,1-1.22-8.729L27.41,54.136A6.218,6.218,0,0,1,36.124,52.9l.007,0A6.238,6.238,0,0,1,37.351,61.632Z" transform="translate(-17.889 -51.647)" fill="#efb7a8"/>
              </g>
            </g>
            <g id="Grupo_1177441" data-name="Grupo 1177441" transform="translate(114.334)">
              <path id="Trazado_995637" data-name="Trazado 995637" d="M73.09,31.582l20,32.522a3.511,3.511,0,0,1-1.152,4.83L73,80.582a3.511,3.511,0,0,1-4.83-1.152l-20-32.522a3.511,3.511,0,0,1,1.152-4.83L68.26,30.431a3.511,3.511,0,0,1,4.83,1.152Z" transform="translate(-47.649 -29.91)" fill="#ed524e"/>
            </g>
            <g id="Grupo_1177442" data-name="Grupo 1177442" transform="translate(0 1.659)">
              <path id="Trazado_995638" data-name="Trazado 995638" d="M22.522,32.244l-20,32.522A3.511,3.511,0,0,0,3.672,69.6L22.611,81.244a3.511,3.511,0,0,0,4.83-1.152l20-32.522a3.511,3.511,0,0,0-1.152-4.83L27.352,31.093a3.511,3.511,0,0,0-4.83,1.152Z" transform="translate(-2 -30.572)" fill="#4f5d99"/>
            </g>
            <g id="Grupo_1177443" data-name="Grupo 1177443" transform="translate(65.715 14.65)">
              <path id="Trazado_995639" data-name="Trazado 995639" d="M53.471,49.3l-10.712,4.38A11.938,11.938,0,0,1,28.7,49.808h0a2.323,2.323,0,0,1,.725-3.426l17.307-9.645a7.725,7.725,0,0,1,5.95-.66" transform="translate(-28.237 -35.759)" fill="#efb7a8"/>
            </g>
            <g id="Grupo_1177444" data-name="Grupo 1177444" transform="translate(65.715 14.65)">
              <path id="Trazado_995640" data-name="Trazado 995640" d="M53.471,49.3l-10.712,4.38A11.938,11.938,0,0,1,28.7,49.808h0a2.323,2.323,0,0,1,.725-3.426l17.307-9.645a7.725,7.725,0,0,1,5.95-.66" transform="translate(-28.237 -35.759)" fill="#efb7a8"/>
            </g>
            <g id="Grupo_1177451" data-name="Grupo 1177451" transform="translate(78.097 48.076)">
              <g id="Grupo_1177446" data-name="Grupo 1177446" transform="translate(0 21.155)">
                <g id="Grupo_1177445" data-name="Grupo 1177445">
                  <path id="Trazado_995641" data-name="Trazado 995641" d="M33.181,57.551a64.95,64.95,0,0,1,8.08,4.948,64.037,64.037,0,0,1,7.358,5.969,64.079,64.079,0,0,1-8.08-4.948,64.837,64.837,0,0,1-7.358-5.97Z" transform="translate(-33.181 -57.551)" fill="#edbf8c"/>
                </g>
              </g>
              <g id="Grupo_1177448" data-name="Grupo 1177448" transform="translate(6.642 10.49)">
                <g id="Grupo_1177447" data-name="Grupo 1177447">
                  <path id="Trazado_995642" data-name="Trazado 995642" d="M35.833,53.293A115.09,115.09,0,0,1,46.4,60.2a113.721,113.721,0,0,1,9.831,7.917,113.719,113.719,0,0,1-10.566-6.9A115.224,115.224,0,0,1,35.833,53.293Z" transform="translate(-35.833 -53.293)" fill="#edbf8c"/>
                </g>
              </g>
              <g id="Grupo_1177450" data-name="Grupo 1177450" transform="translate(13.884)">
                <g id="Grupo_1177449" data-name="Grupo 1177449">
                  <path id="Trazado_995643" data-name="Trazado 995643" d="M38.724,49.1c4.084,2.45,7.944,5.2,11.751,8.018,3.778,2.857,7.5,5.787,11,9.019-4.086-2.447-7.946-5.2-11.751-8.018-3.777-2.859-7.5-5.79-11-9.019Z" transform="translate(-38.724 -49.105)" fill="#edbf8c"/>
                </g>
              </g>
            </g>
            <g id="Grupo_1177453" data-name="Grupo 1177453" transform="translate(31.514 49.147)">
              <g id="Grupo_1177452" data-name="Grupo 1177452">
                <path id="Trazado_995644" data-name="Trazado 995644" d="M60.567,82l-4.984,6.613a6.2,6.2,0,0,1-8.691,1.227h-.025a6.254,6.254,0,0,1-1.2-8.741l-.777,1.027a6.224,6.224,0,0,1-11.2-3.757,6.034,6.034,0,0,1,1.2-3.657l-.826,1.1a6.224,6.224,0,1,1-9.944-7.488l1.653-2.2a6.224,6.224,0,0,1-11.2-3.757,6.145,6.145,0,0,1,1.252-3.732l4.959-6.613a6.224,6.224,0,0,1,9.943,7.489l1.653-2.179a6.224,6.224,0,0,1,9.943,7.489l-.777,1.027a6.221,6.221,0,0,1,9.819,7.639l-.752,1.027a6.229,6.229,0,0,1,8.716-1.252v.024A6.248,6.248,0,0,1,60.567,82Z" transform="translate(-14.582 -49.532)" fill="#efb7a8"/>
              </g>
            </g>
            <g id="Grupo_1177454" data-name="Grupo 1177454" transform="translate(122.707 13.225)">
              <path id="Trazado_995645" data-name="Trazado 995645" d="M57.88,38.622a3.444,3.444,0,1,1-3.456-3.432A3.443,3.443,0,0,1,57.88,38.622Z" transform="translate(-50.992 -35.19)" fill="#b72a2a"/>
            </g>
            <g id="Grupo_1177455" data-name="Grupo 1177455" transform="translate(32.909 14.357)">
              <path id="Trazado_995646" data-name="Trazado 995646" d="M22.027,39.074a3.444,3.444,0,1,1-3.456-3.432,3.443,3.443,0,0,1,3.456,3.432Z" transform="translate(-15.139 -35.642)" fill="#3d4a75"/>
            </g>
          </g>
        </g>
      </g>
      <g id="Grupo_1177473" data-name="Grupo 1177473" transform="translate(38.113 1.545)">
        <g id="Grupo_1177469" data-name="Grupo 1177469">
          <g id="Grupo_1177459" data-name="Grupo 1177459" transform="translate(31.816 25.75)">
            <path id="Trazado_995647" data-name="Trazado 995647" d="M85.374,15.954V48.181a4.131,4.131,0,0,1-4.128,4.128H78.315v5.573a1.38,1.38,0,0,1-2.353.977l-6.55-6.55H33.25a4.132,4.132,0,0,1-4.128-4.128V15.954a4.1,4.1,0,0,1,2.449-3.77,3.36,3.36,0,0,1,.743-.248,4.219,4.219,0,0,1,.936-.11h48a4.122,4.122,0,0,1,4.128,4.128Z" transform="translate(-29.121 -11.826)" fill="#fdc72e"/>
          </g>
          <g id="Grupo_1177463" data-name="Grupo 1177463" transform="translate(40.855 36.984)">
            <g id="Grupo_1177460" data-name="Grupo 1177460" transform="translate(20.036)">
              <path id="Trazado_995648" data-name="Trazado 995648" d="M58.865,17.233v1.582a.937.937,0,0,1-.936.936H41.665a.937.937,0,0,1-.936-.936V17.233a.934.934,0,0,1,.936-.922H57.93A.934.934,0,0,1,58.865,17.233Z" transform="translate(-40.73 -16.311)" fill="#e9e9ff"/>
            </g>
            <g id="Grupo_1177461" data-name="Grupo 1177461" transform="translate(0 7.893)">
              <path id="Trazado_995649" data-name="Trazado 995649" d="M70.9,20.384v1.582a.937.937,0,0,1-.936.936h-36.3a.937.937,0,0,1-.936-.936V20.384a.934.934,0,0,1,.936-.922h36.3A.934.934,0,0,1,70.9,20.384Z" transform="translate(-32.73 -19.462)" fill="#e9e9ff"/>
            </g>
            <g id="Grupo_1177462" data-name="Grupo 1177462" transform="translate(0 15.787)">
              <path id="Trazado_995650" data-name="Trazado 995650" d="M70.9,23.536v1.582a.937.937,0,0,1-.936.936h-36.3a.937.937,0,0,1-.936-.936V23.536a.934.934,0,0,1,.936-.922h36.3A.934.934,0,0,1,70.9,23.536Z" transform="translate(-32.73 -22.614)" fill="#e9e9ff"/>
            </g>
          </g>
          <g id="Grupo_1177464" data-name="Grupo 1177464">
            <path id="Trazado_995651" data-name="Trazado 995651" d="M72.673,5.677v32.21a4.135,4.135,0,0,1-3.957,4.132H32.373l-6.537,6.562a1.383,1.383,0,0,1-2.354-.977V42.019H20.551a4.137,4.137,0,0,1-4.132-4.132V5.677a4.121,4.121,0,0,1,4.132-4.132H68.54a4.121,4.121,0,0,1,4.132,4.132Z" transform="translate(-16.419 -1.545)" fill="#7bd681"/>
          </g>
          <g id="Grupo_1177468" data-name="Grupo 1177468" transform="translate(9.989 16.153)">
            <g id="Grupo_1177465" data-name="Grupo 1177465">
              <path id="Trazado_995652" data-name="Trazado 995652" d="M28.119,11.859a3.856,3.856,0,1,1-3.865-3.865A3.866,3.866,0,0,1,28.119,11.859Z" transform="translate(-20.407 -7.994)" fill="#e9e9ff"/>
            </g>
            <g id="Grupo_1177466" data-name="Grupo 1177466" transform="translate(14.282)">
              <path id="Trazado_995653" data-name="Trazado 995653" d="M33.821,11.859a3.856,3.856,0,1,1-3.865-3.865A3.866,3.866,0,0,1,33.821,11.859Z" transform="translate(-26.109 -7.994)" fill="#e9e9ff"/>
            </g>
            <g id="Grupo_1177467" data-name="Grupo 1177467" transform="translate(28.564)">
              <path id="Trazado_995654" data-name="Trazado 995654" d="M39.523,11.859a3.856,3.856,0,1,1-3.865-3.865A3.866,3.866,0,0,1,39.523,11.859Z" transform="translate(-31.811 -7.994)" fill="#e9e9ff"/>
            </g>
          </g>
        </g>
        <g id="Grupo_1177472" data-name="Grupo 1177472" transform="translate(4.283 0)" opacity="0.2">
          <g id="Grupo_1177470" data-name="Grupo 1177470">
            <path id="Trazado_995655" data-name="Trazado 995655" d="M53.945,42.019H31.754L18.129,1.545H40.32Z" transform="translate(-18.129 -1.545)" fill="#fff"/>
          </g>
          <g id="Grupo_1177471" data-name="Grupo 1177471" transform="translate(27.901)">
            <path id="Trazado_995656" data-name="Trazado 995656" d="M49.206,42.019H42.894L29.268,1.545H35.58Z" transform="translate(-29.268 -1.545)" fill="#fff"/>
          </g>
        </g>
      </g>
    </g>
  </g>
</svg>
